<?xml version="1.0" encoding="UTF-8"?>
<svg width="577px" height="468px" viewBox="0 0 577 468" version="1.1" xmlns="http://www.w3.org/2000/svg" xmlns:xlink="http://www.w3.org/1999/xlink">
    <!-- Generator: Sketch 61 (89581) - https://sketch.com -->
    <title>guy-meditating</title>
    <desc>Created with Sketch.</desc>
    <g id="Home" stroke="none" stroke-width="1" fill="none" fill-rule="evenodd">
        <g id="Home---Desktop" transform="translate(-447.000000, -276.000000)">
            <g id="guy-meditating" transform="translate(447.000000, 276.000000)">
                <path d="M94.0950145,402.133579 C67.4658715,393.203075 44.6284869,376.934215 30.7205487,346.596554 C6.29120451,293.288537 44.0495925,234.43695 85.1366234,215.548282 C126.223654,196.674089 183.968372,193.330578 186.182643,163.354769 C188.396914,133.364486 139.538226,85.614514 179.525357,47.8516532 C213.260429,15.9942149 262.87168,4.95049593 307.707053,1.28855504 C382.369959,-4.81950447 450.028244,9.46640723 496.180601,72.7470617 C516.572156,100.6965 537.050546,139.675183 531.522105,175.570888 C522.636075,233.322446 483.777788,256.64018 494.878088,289.9595 C505.978389,323.27882 545.951048,312.177205 562.608734,354.369132 C572.102603,378.425045 566.530744,402.249371 542.680294,414.378646 C515.559091,428.172439 483.155476,421.369624 454.167339,420.993298 C408.029454,420.399861 361.906042,419.198513 315.78263,417.91032 C277.141428,416.824765 238.500226,415.594468 199.859024,414.262853 C164.575409,413.032557 127.960338,413.495727 94.0950145,402.133579 Z" id="Path" fill="#C3DCED" fill-rule="nonzero"></path>
                <polygon id="Path" fill="#9C77AF" fill-rule="nonzero" points="177.243918 383 0 411.328503 326.543064 468 594 421.631094"></polygon>
                <ellipse id="Oval" fill="#000000" fill-rule="nonzero" opacity="0.15" cx="290" cy="416" rx="90" ry="11"></ellipse>
                <g id="Group" transform="translate(136.000000, 19.000000)">
                    <path d="M146.158376,280.352317 C146.158376,280.352317 138.635533,282.509653 115.546193,281.959459 C92.4423858,281.423745 59.1393401,270.666023 46.2492386,270.666023 C33.3591371,270.666023 19.3840102,275.501931 14.0167513,286.259653 C8.64949239,297.017375 3.81751269,310.453668 34.9649746,322.818533 C66.1269036,335.183398 89.7515228,338.947876 134.338832,350.241313 C178.926142,361.534749 196.648223,362.070463 219.75203,356.148649 C242.855838,350.241313 258.422335,335.183398 256.281218,314.218147 C254.125635,293.252896 249.293655,280.352317 238.023858,277.123552 C226.739594,273.894788 146.158376,280.352317 146.158376,280.352317 Z" id="Path" stroke="#263238" fill="#263238" fill-rule="nonzero" stroke-linecap="round" stroke-linejoin="round"></path>
                    <g transform="translate(97.375635, 82.528958)" id="XMLID_2_-link">
                        <g fill="#FFFFFF" fill-rule="nonzero">
                            <path d="M84.8200508,26.5685328 C84.8200508,26.5685328 85.630203,36.7905405 82.780203,42.5096525 C79.915736,48.2287645 68.472335,53.9623552 58.6781726,59.2760618 C48.8695431,64.5897683 34.9812183,63.7789575 29.2667513,72.7702703 C23.5522843,81.761583 23.9573604,96.8918919 23.9573604,96.8918919 C23.9573604,96.8918919 14.9733503,110.791506 7.60964467,123.069498 C0.260406091,135.333012 -3.83375635,148.016409 5.56979695,154.966216 C14.9733503,161.916023 26.4022843,151.694015 32.5362944,141.877413 C38.6703046,132.060811 44.3847716,121.027992 44.3847716,121.027992 C44.3847716,121.027992 52.1535533,159.063707 50.0992386,169.285714 C48.0593909,179.507722 43.1550761,189.324324 43.1550761,193.82722 C43.1550761,198.330116 46.8296954,201.602317 52.5586294,202.818533 C58.2730964,204.049228 77.8903553,205.685328 91.3736041,204.860039 C104.856853,204.049228 143.266751,201.587838 144.901523,196.274131 C146.536294,190.960425 148.981218,154.155405 148.981218,154.155405 C148.981218,154.155405 173.083249,162.335907 180.446954,147.611004 C187.796193,132.8861 188.215736,99.773166 182.891878,83.4121622 C177.56802,67.0511583 164.099239,60.9266409 155.925381,56.8291506 C147.751523,52.746139 125.284264,42.1042471 121.190102,37.6158301 C117.110406,33.1129344 115.880711,11.0328185 115.880711,3.67760618 C115.880711,-3.67760618 115.070558,3.27220077 107.301777,8.99131274 C99.5329949,14.7104247 84.8200508,26.5685328 84.8200508,26.5685328 Z" id="XMLID_2_"></path>
                        </g>
                        <g stroke-linecap="round" stroke-linejoin="round" stroke="#263238">
                            <path d="M84.8200508,26.5685328 C84.8200508,26.5685328 85.630203,36.7905405 82.780203,42.5096525 C79.915736,48.2287645 68.472335,53.9623552 58.6781726,59.2760618 C48.8695431,64.5897683 34.9812183,63.7789575 29.2667513,72.7702703 C23.5522843,81.761583 23.9573604,96.8918919 23.9573604,96.8918919 C23.9573604,96.8918919 14.9733503,110.791506 7.60964467,123.069498 C0.260406091,135.333012 -3.83375635,148.016409 5.56979695,154.966216 C14.9733503,161.916023 26.4022843,151.694015 32.5362944,141.877413 C38.6703046,132.060811 44.3847716,121.027992 44.3847716,121.027992 C44.3847716,121.027992 52.1535533,159.063707 50.0992386,169.285714 C48.0593909,179.507722 43.1550761,189.324324 43.1550761,193.82722 C43.1550761,198.330116 46.8296954,201.602317 52.5586294,202.818533 C58.2730964,204.049228 77.8903553,205.685328 91.3736041,204.860039 C104.856853,204.049228 143.266751,201.587838 144.901523,196.274131 C146.536294,190.960425 148.981218,154.155405 148.981218,154.155405 C148.981218,154.155405 173.083249,162.335907 180.446954,147.611004 C187.796193,132.8861 188.215736,99.773166 182.891878,83.4121622 C177.56802,67.0511583 164.099239,60.9266409 155.925381,56.8291506 C147.751523,52.746139 125.284264,42.1042471 121.190102,37.6158301 C117.110406,33.1129344 115.880711,11.0328185 115.880711,3.67760618 C115.880711,-3.67760618 115.070558,3.27220077 107.301777,8.99131274 C99.5329949,14.7104247 84.8200508,26.5685328 84.8200508,26.5685328 Z" id="XMLID_2_"></path>
                        </g>
                    </g>
                    <g transform="translate(153.796954, 0.000000)" id="Path" stroke-linecap="round" stroke-linejoin="round">
                        <path d="M85.601269,61.2596525 C88.8708122,55.1206564 93.7751269,44.4932432 87.2360406,37.1380309 C80.6969543,29.7828185 76.6172589,34.2712355 75.7926396,26.9160232 C74.9824873,19.5608108 73.3477157,11.7857143 65.9840102,11.7857143 C58.6347716,11.7857143 53.3109137,14.6525097 48.8261421,11.7857143 C44.3269036,8.91891892 40.6522843,0.738416988 29.2088832,0.738416988 C17.7654822,0.738416988 17.7654822,18.3156371 15.7256345,20.3716216 C15.1324873,20.965251 13.8593909,21.4285714 12.3692893,21.9787645 C11.5591371,21.761583 10.8647208,21.269305 10.4017766,20.3716216 C8.36192893,16.28861 14.0763959,16.6940154 16.5357868,10.5550193 C18.9807107,4.41602317 12.0365482,0.333011583 7.1322335,4.01061776 C2.22791878,7.68822394 12.4416244,7.28281853 6.72715736,13.4218147 C1.01269036,19.5608108 -2.25685279,26.9160232 3.05253807,35.9073359 C8.36192893,44.8986486 14.4959391,39.5849421 14.4959391,39.5849421 C15.7256345,38.7741313 16.8106599,43.3783784 27.7187817,45.3619691 C38.0916244,47.2442085 45.1804569,43.8706564 46.0050761,55.3233591 C46.8152284,66.7760618 57,73.1177606 59.864467,74.753861 C62.728934,76.3899614 55.3652284,85.3812741 57,89.4787645 C58.6347716,93.5617761 63.9441624,93.1563707 67.2137056,92.7509653 C70.4832487,92.3455598 68.443401,87.4372587 75.3875635,86.6119691 C82.3317259,85.8011583 84.7911168,83.7451737 87.6411168,75.984556 C90.5055838,68.2094595 82.3317259,67.3841699 85.601269,61.2596525 Z" stroke="#263238" fill="#263238" fill-rule="nonzero"></path>
                        <path d="M84.1979695,50.226834 C85.369797,50.3716216 86.5416244,50.1110039 87.7279188,49.3291506" stroke="#FFFFFF"></path>
                        <path d="M59.0977157,33.5762548 C59.0977157,33.5762548 66.2588832,27.8426641 70.5411168,35.0096525 C73.1307107,39.3243243 76.5015228,45.2027027 80.1761421,48.257722" stroke="#FFFFFF"></path>
                        <path d="M55.5243655,53.6293436 C55.5243655,53.6293436 62.685533,52.1959459 69.1233503,52.9198842 C75.5611675,53.6293436 74.8522843,58.6534749 81.9989848,58.6534749" stroke="#FFFFFF"></path>
                        <path d="M25.65,26.4816602 C26.6916244,27.7413127 27.6753807,28.4797297 27.6753807,28.4797297" stroke="#FFFFFF"></path>
                        <path d="M55.2350254,26.5540541 C55.2350254,26.5540541 53.3832487,32.8523166 46.2220812,24.2664093 C39.0609137,15.6660232 34.098731,5.73359073 25.9104061,14.2760618 C23.5233503,16.7664093 22.930203,19.1843629 23.1906091,21.2982625" stroke="#FFFFFF"></path>
                        <path d="M7.58071066,28.8996139 C6.94416244,27.6110039 6.43781726,26.0762548 6.14847716,24.2664093" stroke="#FFFFFF"></path>
                        <path d="M20.4563452,35.719112 C20.4563452,35.719112 13.5700508,36.5299228 9.24441624,31.4478764" stroke="#FFFFFF"></path>
                    </g>
                    <g transform="translate(114.289340, 123.069498)">
                        <g id="XMLID_3_-link" fill="#9C77AF" fill-rule="nonzero">
                            <path d="M138.997208,16.28861 C132.617259,13.1032819 117.557107,5.93629344 109.296447,0.796332046 C106.57665,8.96235521 98.6053299,27.7413127 82.6192893,27.7413127 C67.9063452,27.7413127 63.5807107,13.9430502 62.3076142,6.24034749 C57.4322335,10.5260618 49.1281726,14.753861 41.764467,18.75 C31.9558376,24.0637066 18.0675127,23.2528958 12.3530457,32.2442085 C6.63857868,41.2355212 7.04365482,56.3658301 7.04365482,56.3658301 C7.04365482,56.3658301 4.00558376,61.0569498 0.0271573604,67.3841699 C16.5340102,66.5733591 27.471066,80.4874517 27.471066,80.4874517 C27.471066,80.4874517 35.2398477,118.523166 33.185533,128.745174 C31.1456853,138.967181 26.2413706,148.783784 26.2413706,153.28668 C26.2413706,157.789575 29.9159898,161.061776 35.6449239,162.277992 C41.3593909,163.508687 60.9766497,165.144788 74.4598985,164.319498 C87.9431472,163.508687 126.353046,161.047297 127.987817,155.733591 C129.622589,150.419884 132.067513,113.614865 132.067513,113.614865 L129.622589,81.3127413 C150.151269,67.7171815 164.517005,77.2442085 169.218782,81.3272201 C170.217005,67.4420849 169.059645,52.3407336 165.99264,42.8716216 C160.654315,26.5106178 147.171066,20.3716216 138.997208,16.28861 Z" id="XMLID_3_"></path>
                        </g>
                        <path d="M27.456599,80.4874517 C27.456599,80.4874517 21.1345178,61.042471 23.8109137,50.8349421" id="Path" stroke="#263238" stroke-linecap="round" stroke-linejoin="round"></path>
                        <path d="M129.608122,81.3127413 C129.608122,81.3127413 126.96066,69.6573359 130.722081,58.3638996" id="Path" stroke="#263238" stroke-linecap="round" stroke-linejoin="round"></path>
                        <path d="M35.6304569,162.277992 C35.6304569,162.277992 55.5081218,159.425676 68.9335025,156.21139" id="Path" stroke="#263238" stroke-linecap="round" stroke-linejoin="round"></path>
                    </g>
                    <g transform="translate(90.142132, 157.818533)" id="XMLID_5_-link">
                        <g fill="#FFFFFF" fill-rule="nonzero">
                            <path d="M12.2390863,56.1341699 C12.2390863,56.1341699 8.21725888,58.2915058 4.99111675,66.0810811 C1.76497462,73.8706564 -2.25685279,88.3928571 1.76497462,92.9681467 C5.78680203,97.5434363 14.9299492,93.503861 23.5233503,92.4324324 C32.1167513,91.3610039 67.8357868,70.3957529 73.7527919,66.8918919 C79.6553299,63.4025097 84.5017766,62.0559846 86.3824873,58.8272201 C88.263198,55.5984556 87.7279188,44.0444015 87.9883249,38.3976834 C88.263198,32.7509653 86.9177665,7.48552124 86.9177665,7.48552124 C86.9177665,7.48552124 85.0370558,1.3030888 81.8109137,1.83880309 C81.8109137,1.83880309 78.0494924,-0.318532819 77.2393401,1.83880309 C76.4291878,3.996139 75.6335025,6.13899614 75.6335025,6.13899614 C75.6335025,6.13899614 72.1469543,5.06756757 71.336802,6.94980695 C70.5266497,8.83204633 70.2662437,12.5965251 70.2662437,12.5965251 C70.2662437,12.5965251 66.2444162,14.4787645 66.2444162,16.8967181 C66.2444162,19.3146718 67.0545685,33.8368726 67.0545685,37.8619691 C67.0545685,41.8870656 66.5192893,48.0694981 67.8647208,50.7625483 C69.2101523,53.4555985 70.5555838,55.8735521 70.5555838,55.8735521 C70.5555838,55.8735521 50.9527919,58.5666023 42.619797,58.5666023 C34.286802,58.5666023 19.7908629,58.8416988 17.1,60.1737452" id="XMLID_5_"></path>
                        </g>
                        <g stroke-linecap="round" stroke-linejoin="round" stroke="#263238">
                            <path d="M12.2390863,56.1341699 C12.2390863,56.1341699 8.21725888,58.2915058 4.99111675,66.0810811 C1.76497462,73.8706564 -2.25685279,88.3928571 1.76497462,92.9681467 C5.78680203,97.5434363 14.9299492,93.503861 23.5233503,92.4324324 C32.1167513,91.3610039 67.8357868,70.3957529 73.7527919,66.8918919 C79.6553299,63.4025097 84.5017766,62.0559846 86.3824873,58.8272201 C88.263198,55.5984556 87.7279188,44.0444015 87.9883249,38.3976834 C88.263198,32.7509653 86.9177665,7.48552124 86.9177665,7.48552124 C86.9177665,7.48552124 85.0370558,1.3030888 81.8109137,1.83880309 C81.8109137,1.83880309 78.0494924,-0.318532819 77.2393401,1.83880309 C76.4291878,3.996139 75.6335025,6.13899614 75.6335025,6.13899614 C75.6335025,6.13899614 72.1469543,5.06756757 71.336802,6.94980695 C70.5266497,8.83204633 70.2662437,12.5965251 70.2662437,12.5965251 C70.2662437,12.5965251 66.2444162,14.4787645 66.2444162,16.8967181 C66.2444162,19.3146718 67.0545685,33.8368726 67.0545685,37.8619691 C67.0545685,41.8870656 66.5192893,48.0694981 67.8647208,50.7625483 C69.2101523,53.4555985 70.5555838,55.8735521 70.5555838,55.8735521 C70.5555838,55.8735521 50.9527919,58.5666023 42.619797,58.5666023 C34.286802,58.5666023 19.7908629,58.8416988 17.1,60.1737452" id="XMLID_5_"></path>
                        </g>
                    </g>
                    <g transform="translate(159.583756, 159.266409)">
                        <g id="XMLID_4_-link">
                            <g fill="#FFFFFF" fill-rule="nonzero">
                                <path d="M106.101015,67.8619691 C93.2109137,59.5222008 66.3456853,65.9797297 57.7522843,65.4440154 C49.1588832,64.9083012 25.2593909,51.7326255 25.2593909,51.7326255 C25.2593909,51.7326255 30.0913706,46.8967181 30.3662437,43.9430502 C30.6411168,40.9893822 30.3662437,32.9247104 30.3662437,28.3494208 C30.3662437,23.7741313 31.7116751,19.2133205 31.9720812,15.7094595 C32.2469543,12.2200772 27.6753807,14.6380309 26.8652284,15.7094595 C26.0550761,16.780888 24.1743655,27.53861 24.1743655,27.53861 C24.1743655,27.53861 21.7583756,20.284749 21.7583756,19.4739382 C21.7583756,18.6631274 21.2230964,8.71621622 19.877665,4.69111969 C18.5322335,0.666023166 15.3060914,4.69111969 15.3060914,4.69111969 C15.0312183,2.27316602 14.235533,0.390926641 12.3548223,0.390926641 C10.4741117,0.390926641 8.86827411,7.10907336 8.86827411,7.10907336 C8.86827411,3.08397683 7.52284264,3.34459459 6.17741117,4.69111969 C4.8319797,6.03764479 4.8319797,14.8986486 4.8319797,14.8986486 L3.22614213,12.480695 C1.34543147,11.9449807 0.274873096,14.8986486 0.274873096,17.5916988 C0.274873096,20.284749 1.34543147,28.3494208 1.34543147,35.0675676 C1.34543147,41.7857143 2.15558376,45.2750965 2.15558376,45.2750965 C2.15558376,45.2750965 3.50101523,51.7326255 8.05812183,58.4507722 C12.6296954,65.1689189 27.9357868,73.5086873 37.3393401,80.7625483 C46.7428934,88.0164093 74.4038071,100.120656 88.1040609,102.263514 C101.804315,104.420849 111.207868,109.517375 114.419543,103.610039 C117.645685,97.7027027 123.548223,68.6727799 120.596954,58.9864865" id="XMLID_4_"></path>
                            </g>
                            <g stroke-linecap="round" stroke-linejoin="round" stroke="#263238">
                                <path d="M106.101015,67.8619691 C93.2109137,59.5222008 66.3456853,65.9797297 57.7522843,65.4440154 C49.1588832,64.9083012 25.2593909,51.7326255 25.2593909,51.7326255 C25.2593909,51.7326255 30.0913706,46.8967181 30.3662437,43.9430502 C30.6411168,40.9893822 30.3662437,32.9247104 30.3662437,28.3494208 C30.3662437,23.7741313 31.7116751,19.2133205 31.9720812,15.7094595 C32.2469543,12.2200772 27.6753807,14.6380309 26.8652284,15.7094595 C26.0550761,16.780888 24.1743655,27.53861 24.1743655,27.53861 C24.1743655,27.53861 21.7583756,20.284749 21.7583756,19.4739382 C21.7583756,18.6631274 21.2230964,8.71621622 19.877665,4.69111969 C18.5322335,0.666023166 15.3060914,4.69111969 15.3060914,4.69111969 C15.0312183,2.27316602 14.235533,0.390926641 12.3548223,0.390926641 C10.4741117,0.390926641 8.86827411,7.10907336 8.86827411,7.10907336 C8.86827411,3.08397683 7.52284264,3.34459459 6.17741117,4.69111969 C4.8319797,6.03764479 4.8319797,14.8986486 4.8319797,14.8986486 L3.22614213,12.480695 C1.34543147,11.9449807 0.274873096,14.8986486 0.274873096,17.5916988 C0.274873096,20.284749 1.34543147,28.3494208 1.34543147,35.0675676 C1.34543147,41.7857143 2.15558376,45.2750965 2.15558376,45.2750965 C2.15558376,45.2750965 3.50101523,51.7326255 8.05812183,58.4507722 C12.6296954,65.1689189 27.9357868,73.5086873 37.3393401,80.7625483 C46.7428934,88.0164093 74.4038071,100.120656 88.1040609,102.263514 C101.804315,104.420849 111.207868,109.517375 114.419543,103.610039 C117.645685,97.7027027 123.548223,68.6727799 120.596954,58.9864865" id="XMLID_4_"></path>
                            </g>
                        </g>
                        <path d="M24.1743655,27.53861 C24.1743655,27.53861 26.3299492,32.1138996 26.3299492,38.5569498" id="Path" stroke="#263238" stroke-linecap="round" stroke-linejoin="round"></path>
                        <path d="M15.3205584,4.69111969 C15.3205584,4.69111969 16.9263959,11.6843629 16.9263959,15.1737452 C16.9263959,18.6631274 17.4616751,26.7277992 17.4616751,26.7277992" id="Path" stroke="#263238" stroke-linecap="round" stroke-linejoin="round"></path>
                        <path d="M8.86827411,7.10907336 C8.86827411,7.10907336 9.93883249,13.2915058 10.4741117,17.3166023 C11.0093909,21.3416988 10.7489848,27.5241313 10.7489848,27.5241313" id="Path" stroke="#263238" stroke-linecap="round" stroke-linejoin="round"></path>
                        <path d="M4.8464467,14.8986486 C4.8464467,14.8986486 5.65659898,19.734556 6.19187817,21.8918919 C6.72715736,24.0492278 6.72715736,30.492278 6.72715736,30.492278" id="Path" stroke="#263238" stroke-linecap="round" stroke-linejoin="round"></path>
                    </g>
                    <g transform="translate(95.482234, 306.949807)" id="XMLID_6_-link">
                        <g fill="#FFFFFF" fill-rule="nonzero">
                            <path d="M51.7467005,22.8619691 C51.7467005,22.8619691 46.9147208,20.7046332 43.6885787,17.4903475 C40.4624365,14.261583 43.6885787,6.1969112 39.3918782,2.96814672 C35.0951777,-0.260617761 26.5017766,-1.33204633 24.8814721,3.503861 C23.2756345,8.33976834 22.1906091,11.5685328 18.978934,12.6399614 C15.7527919,13.71139 11.9913706,13.71139 6.08883249,16.4044402 C0.186294416,19.0974903 0.186294416,28.769305 0.186294416,28.769305 C0.186294416,28.769305 17.9083756,30.9266409 33.4893401,36.8339768 C49.0703046,42.7413127 56.043401,39.527027 56.043401,39.527027 C56.043401,39.527027 56.5931472,28.769305 51.7467005,22.8619691 Z" id="XMLID_6_"></path>
                        </g>
                        <g stroke-linecap="round" stroke-linejoin="round" stroke="#263238">
                            <path d="M51.7467005,22.8619691 C51.7467005,22.8619691 46.9147208,20.7046332 43.6885787,17.4903475 C40.4624365,14.261583 43.6885787,6.1969112 39.3918782,2.96814672 C35.0951777,-0.260617761 26.5017766,-1.33204633 24.8814721,3.503861 C23.2756345,8.33976834 22.1906091,11.5685328 18.978934,12.6399614 C15.7527919,13.71139 11.9913706,13.71139 6.08883249,16.4044402 C0.186294416,19.0974903 0.186294416,28.769305 0.186294416,28.769305 C0.186294416,28.769305 17.9083756,30.9266409 33.4893401,36.8339768 C49.0703046,42.7413127 56.043401,39.527027 56.043401,39.527027 C56.043401,39.527027 56.5931472,28.769305 51.7467005,22.8619691 Z" id="XMLID_6_"></path>
                        </g>
                    </g>
                    <g transform="translate(135.989848, 270.305019)" id="Path" stroke-linecap="round" stroke-linejoin="round">
                        <path d="M51.2403553,75.3754826 C59.6167513,73.3194981 67.7472081,70.3658301 75.2121827,67.3542471 C85.4837563,63.1988417 95.871066,59.0868726 105.795431,54.1206564 C120.841117,46.5916988 126.208376,35.2982625 122.446954,21.3262548 C118.685533,7.3542471 112.247716,-3.4034749 84.8472081,1.43243243 C57.4467005,6.26833977 48.7375635,22.7741313 37.0337563,35.2982625 C22.6535533,50.703668 10.7906091,58.6380309 5.33654822,57.8706564 C-0.869796954,57.0019305 -2.18629442,68.6283784 6.4071066,72.9285714 C20.2954315,79.8928571 36.136802,79.0965251 51.2403553,75.3754826 Z" stroke="#263238" fill="#263238" fill-rule="nonzero"></path>
                        <path d="M9.99492386,57.3349421 C9.99492386,57.3349421 23.1309645,54.6998069 36.9035533,38.9324324 C50.6906091,23.1650579 52.6581218,20.5299228 52.6581218,20.5299228" stroke="#FFFFFF"></path>
                        <path d="M108.573096,53.1071429 C110.945685,51.1380309 113.130203,49.0530888 115.025381,46.8233591" stroke="#FFFFFF"></path>
                        <path d="M65.7941624,74.4198842 C65.7941624,74.4198842 86.1347716,68.5415058 102.366751,57.71139" stroke="#FFFFFF"></path>
                    </g>
                    <g transform="translate(0.000000, 270.752896)" id="Path" stroke-linecap="round" stroke-linejoin="round">
                        <path d="M38.7263959,1.12934363 C35.5002538,0.463320463 30.6682741,-0.0868725869 24.2159898,0.463320463 C11.3258883,1.53474903 2.73248731,9.59942085 0.576903553,16.5926641 C-1.5786802,23.5859073 5.94416244,41.3223938 22.5956853,53.1515444 C39.2472081,64.980695 56.4340102,67.6737452 79.5378173,74.1167954 C100.008629,79.8359073 121.535533,86.5685328 120.088832,86.1920849 C117.716244,83.6293436 115.242386,79.8069498 115.531726,75.2027027 C115.835533,70.2509653 119.162944,66.3851351 121.940609,63.9816602 C117.643909,61.9835907 110.468274,57.4662162 99.4154822,47.2442085 C81.635533,30.8108108 63.4505076,14.3774131 52.7883249,6.83397683" stroke="#263238" fill="#263238" fill-rule="nonzero"></path>
                        <path d="M47.0738579,7.84749035 C44.0936548,6.38513514 42.2708122,5.64671815 42.2708122,5.64671815" stroke="#FFFFFF"></path>
                        <path d="M102.656091,47.6930502 C102.656091,47.6930502 74.4309645,25.3523166 63.2624365,17.4758687 C59.3129442,14.6814672 55.5225888,12.3938224 52.2819797,10.5839768" stroke="#FFFFFF"></path>
                    </g>
                    <g transform="translate(114.736041, 334.459459)" id="XMLID_7_-link">
                        <g fill="#FFFFFF" fill-rule="nonzero">
                            <path d="M71.7129442,8.78861004 C64.7253807,7.18146718 64.1901015,8.78861004 47.5385787,8.25289575 C30.8870558,7.71718147 12.6152284,1.7953668 12.6152284,1.7953668 C12.6152284,1.7953668 11.0527919,2.02702703 7.20456853,0.246138996 C4.42690355,2.6496139 1.09949239,6.51544402 0.795685279,11.4671815 C0.506345178,16.0714286 2.99467005,19.8938224 5.35279188,22.4565637 C8.28959391,23.238417 11.0383249,23.8899614 13.6857868,24.3677606 C25.5053299,26.5250965 40.001269,31.8967181 47.5241117,35.1254826 C55.0469543,38.3542471 60.9494924,39.4256757 66.8664975,39.4256757 C72.7690355,39.4256757 70.4832487,40.3088803 74.7799492,39.222973 C79.0766497,38.1515444 77.6154822,35.1254826 77.6154822,35.1254826 C77.6154822,35.1254826 79.771066,35.1254826 82.9827411,34.0540541 C86.2088832,32.9826255 85.1383249,28.6824324 85.1383249,28.6824324 C85.1383249,28.6824324 89.2035533,28.7982625 91.330203,27.6833977 C94.5997462,25.9604247 94.5997462,22.3407336 93.1964467,19.0106178 C91.0553299,13.957529 78.7005076,10.3957529 71.7129442,8.78861004 Z" id="XMLID_7_"></path>
                        </g>
                        <g stroke-linecap="round" stroke-linejoin="round" stroke="#263238">
                            <path d="M71.7129442,8.78861004 C64.7253807,7.18146718 64.1901015,8.78861004 47.5385787,8.25289575 C30.8870558,7.71718147 12.6152284,1.7953668 12.6152284,1.7953668 C12.6152284,1.7953668 11.0527919,2.02702703 7.20456853,0.246138996 C4.42690355,2.6496139 1.09949239,6.51544402 0.795685279,11.4671815 C0.506345178,16.0714286 2.99467005,19.8938224 5.35279188,22.4565637 C8.28959391,23.238417 11.0383249,23.8899614 13.6857868,24.3677606 C25.5053299,26.5250965 40.001269,31.8967181 47.5241117,35.1254826 C55.0469543,38.3542471 60.9494924,39.4256757 66.8664975,39.4256757 C72.7690355,39.4256757 70.4832487,40.3088803 74.7799492,39.222973 C79.0766497,38.1515444 77.6154822,35.1254826 77.6154822,35.1254826 C77.6154822,35.1254826 79.771066,35.1254826 82.9827411,34.0540541 C86.2088832,32.9826255 85.1383249,28.6824324 85.1383249,28.6824324 C85.1383249,28.6824324 89.2035533,28.7982625 91.330203,27.6833977 C94.5997462,25.9604247 94.5997462,22.3407336 93.1964467,19.0106178 C91.0553299,13.957529 78.7005076,10.3957529 71.7129442,8.78861004 Z" id="XMLID_7_"></path>
                        </g>
                    </g>
                    <path d="M199.874365,363.141892 C199.874365,363.141892 196.055076,359.623552 191.758376,357.480695" id="Path" stroke="#263238" stroke-linecap="round" stroke-linejoin="round"></path>
                    <path d="M192.351523,369.584942 C192.351523,369.584942 187.519543,366.356178 186.448985,364.21332" id="Path" stroke="#263238" stroke-linecap="round" stroke-linejoin="round"></path>
                    <path d="M184.843147,373.349421 C184.843147,373.349421 181.617005,371.742278 180.011168,368.513514" id="Path" stroke="#263238" stroke-linecap="round" stroke-linejoin="round"></path>
                    <path d="M178.390863,373.885135 C178.390863,373.885135 174.629442,373.349421 171.938579,370.120656" id="Path" stroke="#263238" stroke-linecap="round" stroke-linejoin="round"></path>
                    <g transform="translate(161.030457, 31.853282)">
                        <g id="XMLID_1_-link">
                            <g fill="#FFFFFF" fill-rule="nonzero">
                                <path d="M11.7616751,1.18725869 C11.7616751,1.18725869 1.54796954,10.5984556 2.35812183,20.8204633 C3.16827411,31.042471 -0.0868020305,36.761583 1.1284264,44.1312741 C2.34365482,51.5009653 3.9928934,65.8059846 6.8428934,69.4835907 C9.70736041,73.1611969 10.1124365,77.2586873 12.9769036,79.3001931 C15.8413706,81.3416988 25.65,81.3416988 27.6898477,78.0694981 C29.7296954,74.7972973 51.386802,62.1283784 53.0215736,57.6254826 C54.6563452,53.1225869 54.251269,51.9063707 54.251269,51.9063707 C54.251269,51.9063707 68.5446701,43.3204633 66.5048223,35.965251 C64.4649746,28.6100386 58.7360406,25.7432432 55.4664975,28.1901544 C52.1969543,30.6370656 51.7918782,31.8677606 51.7918782,31.8677606 C51.7918782,31.8677606 43.2418782,26.2355212 44.8766497,20.9218147 C46.5114213,15.6081081 51.6182741,13.7837838 49.9835025,7.64478764 C48.348731,1.50579151 36.1241117,4.57528958 23.1182741,5.57432432 C12.9479695,6.34169884 16.3187817,-2.57722008 11.7616751,1.18725869 Z" id="XMLID_1_"></path>
                            </g>
                            <g stroke-linecap="round" stroke-linejoin="round" stroke="#263238">
                                <path d="M11.7616751,1.18725869 C11.7616751,1.18725869 1.54796954,10.5984556 2.35812183,20.8204633 C3.16827411,31.042471 -0.0868020305,36.761583 1.1284264,44.1312741 C2.34365482,51.5009653 3.9928934,65.8059846 6.8428934,69.4835907 C9.70736041,73.1611969 10.1124365,77.2586873 12.9769036,79.3001931 C15.8413706,81.3416988 25.65,81.3416988 27.6898477,78.0694981 C29.7296954,74.7972973 51.386802,62.1283784 53.0215736,57.6254826 C54.6563452,53.1225869 54.251269,51.9063707 54.251269,51.9063707 C54.251269,51.9063707 68.5446701,43.3204633 66.5048223,35.965251 C64.4649746,28.6100386 58.7360406,25.7432432 55.4664975,28.1901544 C52.1969543,30.6370656 51.7918782,31.8677606 51.7918782,31.8677606 C51.7918782,31.8677606 43.2418782,26.2355212 44.8766497,20.9218147 C46.5114213,15.6081081 51.6182741,13.7837838 49.9835025,7.64478764 C48.348731,1.50579151 36.1241117,4.57528958 23.1182741,5.57432432 C12.9479695,6.34169884 16.3187817,-2.57722008 11.7616751,1.18725869 Z" id="XMLID_1_"></path>
                            </g>
                        </g>
                        <path d="M21.8451777,37.1959459 C21.8451777,37.1959459 26.3299492,43.3059846 33.6647208,37.1959459" id="Path" stroke="#263238" stroke-linecap="round" stroke-linejoin="round"></path>
                        <path d="M3.60228426,36.3561776 C3.60228426,36.3561776 6.46675127,40.0337838 10.1413706,36.761583" id="Path" stroke="#263238" stroke-linecap="round" stroke-linejoin="round"></path>
                        <path d="M18.3007614,54.7586873 C15.0312183,55.5694981 10.5319797,54.3532819 10.1269036,53.1225869 C9.72182741,51.8918919 12.1667513,35.9507722 12.1667513,35.9507722 L9.30228426,31.042471 C9.30228426,31.042471 6.85736041,27.3648649 3.58781726,29.8117761" id="Path" stroke="#263238" stroke-linecap="round" stroke-linejoin="round"></path>
                        <line x1="10.9515228" y1="62.1138996" x2="20.6154822" y2="62.0704633" id="Path" stroke="#263238" stroke-linecap="round" stroke-linejoin="round"></line>
                        <path d="M36.2832487,30.6225869 C26.8796954,24.4835907 17.8956853,30.2171815 17.8956853,30.2171815" id="Path" stroke="#263238" stroke-linecap="round" stroke-linejoin="round"></path>
                        <path d="M63.3510152,37.3696911 C63.3510152,37.3696911 61.6439086,32.9391892 58.2296954,34.3001931 C54.8154822,35.6611969 54.135533,40.1061776 54.135533,40.1061776 C54.135533,40.1061776 56.869797,39.0781853 56.869797,42.4951737 C56.869797,45.9121622 53.8027919,44.5366795 53.8027919,44.5366795" id="Path" stroke="#263238" stroke-linecap="round" stroke-linejoin="round"></path>
                    </g>
                </g>
            </g>
        </g>
    </g>
</svg>