<?xml version="1.0" encoding="UTF-8"?>
<svg width="138px" height="118px" viewBox="0 0 138 118" version="1.1" xmlns="http://www.w3.org/2000/svg" xmlns:xlink="http://www.w3.org/1999/xlink">
    <!-- Generator: Sketch 61 (89581) - https://sketch.com -->
    <title>Group 23</title>
    <desc>Created with Sketch.</desc>
    <defs>
        <polygon id="path-1" points="0.736106179 0.563362963 71.8066517 0.563362963 71.8066517 43.8186222 0.736106179 43.8186222"></polygon>
        <polygon id="path-3" points="0.436086885 0.658293323 98.7980179 0.658293323 98.7980179 38 0.436086885 38"></polygon>
    </defs>
    <g id="Home" stroke="none" stroke-width="1" fill="none" fill-rule="evenodd">
        <g id="Desktop-Copy" transform="translate(-228.000000, -952.000000)">
            <g id="Group-23" transform="translate(228.000000, 952.000000)">
                <g id="Group-3" transform="translate(66.000000, 49.000000)">
                    <mask id="mask-2" fill="white">
                        <use xlink:href="#path-1"></use>
                    </mask>
                    <g id="Clip-2"></g>
                    <path d="M21.9055551,43.8186222 C14.4038022,43.8186222 7.39715056,41.9070667 1.64038652,38.1116593 C0.886408989,37.6146222 0.556341573,36.6718815 0.83301573,35.8081778 C5.10204944,22.5120296 16.2507236,10.9180296 30.6547685,4.79388148 C37.2318472,2.00151111 44.2093753,0.566622222 50.7508584,0.563362963 C51.8543191,0.568251852 52.7458247,1.47188148 52.7409708,2.5841037 C52.7361169,3.69225185 51.8438022,4.58854815 50.7427685,4.58854815 C50.6901843,4.59180741 50.6335551,4.58854815 50.5777348,4.58854815 C44.587982,4.58854815 38.2398472,5.94114074 32.2096449,8.50373333 C19.603982,13.8611407 9.37351011,24.1326963 5.14977978,35.5596593 C14.5534652,41.0018074 27.8637573,41.1452148 40.3335101,35.8448444 C52.939173,30.487437 63.1712629,20.2158815 67.3933753,8.7881037 C64.9364764,7.36380741 62.1923865,6.28499259 59.2153079,5.57284444 C58.1409708,5.31699259 57.475982,4.23247407 57.7316225,3.15202963 C57.984836,2.06914074 59.062409,1.39854815 60.1359371,1.65684444 C64.1104989,2.6061037 67.7323416,4.14691852 70.9027685,6.23691852 C71.6567461,6.73395556 71.9860045,7.67751111 71.7101393,8.5404 C67.4402966,21.837363 56.2924315,33.431363 41.8883865,39.5538815 C35.1851056,42.4016593 28.3612854,43.8178074 21.9055551,43.8186222" id="Fill-1" fill="#AB78B3" mask="url(#mask-2)"></path>
                </g>
                <path d="M49.851908,93 C43.4017379,93 36.5862655,91.5933351 29.8895972,88.7638181 C22.5690057,85.6688316 15.8990076,81.0360642 10.6005093,75.3616524 C9.8472755,74.5547221 9.89010961,73.2896949 10.6950676,72.5353729 C11.5008337,71.7810509 12.7624194,71.8239469 13.5172696,72.6300678 C18.4351101,77.8981817 24.6331248,82.2023496 31.4413234,85.0796187 C43.8987752,90.3444951 57.1983617,90.2036667 66.5903461,84.7963433 C62.3723987,73.4459011 52.1520188,63.2431291 39.5579828,57.9215977 C27.100531,52.6567213 13.8033691,52.798359 4.40815194,58.2056825 C5.38525452,60.8352879 6.69129073,63.4317097 8.30201484,65.9455768 C8.89845959,66.8747203 8.62933208,68.1106106 7.70152913,68.7071077 C6.77372618,69.3019861 5.53881076,69.0348978 4.9431742,68.104945 C2.84430289,64.832709 1.21418221,61.4188353 0.097262628,57.9580188 C-0.17994679,57.1009083 0.149795025,56.1636712 0.903028778,55.6699626 C11.6002412,48.6528253 26.6317804,48.1186488 41.109709,54.2365889 C55.5011612,60.3197266 66.6388375,71.8360873 70.9028518,85.044007 C71.1800612,85.9011175 70.8495112,86.8375452 70.0962774,87.3312538 C64.3476168,91.1004358 57.3454524,93 49.851908,93" id="Fill-4" fill="#AB78B3"></path>
                <path d="M34.376834,51.1725253 C36.6617929,51.8103165 38.8965685,52.5892981 41.0342151,53.4932414 C52.8620949,58.4981983 62.49486,67.170049 67.9308444,77.4371891 C68.4148704,66.3440039 64.9935026,53.5873683 58.3741637,42.5988587 C50.7867727,30.0053225 39.9115662,21.2385334 29.6005171,19.2724162 C27.9606564,28.8693076 29.6685074,40.3325091 34.376834,51.1725253 M68.9693149,87 C68.1056766,87 67.3351201,86.4425413 67.067206,85.612439 C63.2087579,73.6445223 52.6378889,62.752574 39.4801517,57.187724 C37.2275691,56.234283 34.8568129,55.4309582 32.4334453,54.798847 C31.8474338,54.6462965 31.3634078,54.2357082 31.1141102,53.684741 C25.4547291,41.1220394 23.611707,27.5945366 26.0569287,16.5678894 C26.2787065,15.5698192 27.2249045,14.8995704 28.2318081,15.0123605 C40.4554884,16.3926185 53.0037413,25.9310863 61.7955315,40.5272545 C70.5306631,55.0252386 73.9415086,71.8122926 70.9216071,85.431488 C70.7257304,86.3135224 69.9648868,86.9553708 69.0632063,86.9975657 C69.0324488,86.9991886 69.0000725,87 68.9693149,87" id="Fill-6" fill="#AB78B3"></path>
                <path d="M58.0386051,34.1950562 C59.6146898,36.2811409 61.0785977,38.4584206 62.3974769,40.6772265 C65.3917975,45.7141195 67.7939846,51.1442907 69.499874,56.6876415 C71.2057633,51.1442907 73.6087517,45.7141195 76.6014697,40.6780407 C77.920349,38.4584206 79.3850581,36.2811409 80.9611428,34.1950562 C79.5204716,22.2281606 75.3963699,11.7374833 69.499874,4.9418304 C63.6033781,11.7374833 59.4792764,22.2289748 58.0386051,34.1950562 M69.499874,67 C68.5455695,67 67.7274798,66.3087096 67.5536057,65.356048 C66.1345685,57.5881917 63.1803111,49.7739236 59.0105374,42.7567972 C57.6347685,40.4443536 56.0915355,38.1783218 54.4233055,36.0222124 C54.101999,35.6069496 53.9545666,35.0809501 54.0122575,34.5557649 C55.5619005,20.4319456 60.6987989,8.04978717 68.105676,0.583199905 C68.8772925,-0.194399968 70.1216542,-0.194399968 70.8932707,0.583199905 C78.300949,8.04897293 83.4386487,20.4319456 84.9874904,34.5557649 C85.0459826,35.0809501 84.897749,35.6069496 84.5764424,36.0222124 C82.9082124,38.1783218 81.3649795,40.4443536 79.9900118,42.7576115 C75.8202381,49.7731094 72.8659807,57.5881917 71.445341,65.3568623 C71.2714669,66.3087096 70.4525759,67 69.499874,67" id="Fill-8" fill="#AB78B3"></path>
                <path d="M70.947817,64.7608198 C71.5048196,67.9334407 71.8162023,71.0671139 71.8819651,74.1026062 C77.4012832,65.3020316 86.0019433,57.9465818 96.302135,53.4935527 C98.3986202,52.5896397 100.586222,51.8098728 102.822156,51.1729144 C107.429511,40.3340728 109.100519,28.870444 107.495274,19.2730628 C97.4034632,21.2399255 86.7570266,30.0064208 79.3305884,42.5995351 C75.2715205,49.4835546 72.3771666,57.137604 70.947817,64.7608198 M68.9582953,87 C68.7871537,87 68.6152197,86.9764691 68.4432857,86.9285957 C67.4346593,86.6478472 66.8198171,85.6043714 67.0472136,84.5592727 C68.299083,78.7941904 68.2943291,72.0716419 67.0329518,65.1202753 C66.9893741,64.8792859 66.9893741,64.6301825 67.0329518,64.3883817 C68.5217256,56.178515 71.6157448,47.9280778 75.9806491,40.5280003 C84.5876477,25.9315097 96.8710225,16.394173 108.836676,15.0131498 C109.815194,14.8963065 110.747758,15.5697784 110.964854,16.569438 C113.359252,27.5957157 111.555134,41.1227653 106.016008,53.6850459 C105.77118,54.2359947 105.297372,54.6465692 104.72373,54.7991146 C102.352309,55.4303931 100.031597,56.233691 97.8233941,57.1879115 C84.9457775,62.7525751 74.5972541,73.6441584 70.8194607,85.6116741 C70.5524481,86.456354 69.7870646,87 68.9582953,87" id="Fill-10" fill="#AB78B3"></path>
                <path d="M114.962314,109 C114.290113,109 113.634578,108.636098 113.268716,107.981574 C112.721908,107.002286 113.036184,105.742368 113.970281,105.167786 C118.582835,102.335678 124.079488,97.6898882 124.079488,91.6451155 C124.079488,89.1952297 123.137454,86.742013 121.281163,84.3579127 C120.59547,83.4785519 120.720863,82.1819944 121.558932,81.4641829 C122.399382,80.7438731 123.631883,80.8779423 124.316782,81.7548049 C126.76115,84.8941895 128,88.2209379 128,91.6451155 C128,97.9730157 123.834258,103.877057 115.951965,108.717705 C115.639277,108.909233 115.299605,109 114.962314,109" id="Fill-12" fill="#AB78B3"></path>
                <g id="Group-16" transform="translate(9.000000, 80.000000)">
                    <mask id="mask-4" fill="white">
                        <use xlink:href="#path-3"></use>
                    </mask>
                    <g id="Clip-15"></g>
                    <path d="M60.3578656,38.0000809 C26.7571033,38.0000809 0.436086885,26.1424638 0.436086885,11.0047191 C0.436086885,7.67688936 1.7060459,4.4420383 4.21107049,1.38991064 C4.91299672,0.537740426 6.17646393,0.411612766 7.03175902,1.10854894 C7.88867705,1.80629362 8.01607869,3.06433617 7.31496393,3.91893191 C5.40961967,6.23854894 4.44477541,8.62284681 4.44477541,11.0047191 C4.44477541,23.4727617 30.0500705,34.0060383 60.3578656,34.0060383 C73.3706852,34.0060383 86.0735213,32.0696553 96.1293246,28.552634 C97.1688246,28.1904213 98.3162508,28.7353574 98.6846607,29.7759106 C99.0506361,30.8164638 98.5012672,31.9564638 97.4568984,32.3227191 C86.8338738,36.0362085 74.005259,38.0000809 60.3578656,38.0000809" id="Fill-14" fill="#AB78B3" mask="url(#mask-4)"></path>
                </g>
                <path d="M68.9519398,110 C59.3593643,110 50.1920358,108.840593 42.4411254,106.647682 C41.3864486,106.349662 40.7755077,105.260378 41.0769588,104.214123 C41.377606,103.171056 42.4716725,102.563861 43.5311726,102.861881 C50.9323996,104.956781 59.7227133,106.064393 68.9519398,106.064393 C93.7481003,106.064393 111.028884,98.1079153 111.028884,90.9674053 C111.028884,89.8805115 111.91716,89 113.014442,89 C114.11092,89 115,89.8805115 115,90.9674053 C115,101.64032 94.7738379,110 68.9519398,110" id="Fill-17" fill="#AB78B3"></path>
                <path d="M32.9663324,103 C32.6265804,103 32.2818926,102.915554 31.9668199,102.737643 C24.5556199,98.5505973 23,94.056922 23,91.0250644 C23,89.9059499 23.9090216,89 25.0311081,89 C26.1540172,89 27.0638615,89.9059499 27.0638615,91.0250644 C27.0638615,93.7896463 29.5161633,96.6977044 33.9699581,99.2138674 C34.9456139,99.7648161 35.2886565,101.001171 34.7358397,101.97353 C34.3623593,102.631881 33.6738062,103 32.9663324,103" id="Fill-19" fill="#AB78B3"></path>
                <path d="M68.9995984,102 C60.7275441,102 53.2080788,100.329133 48.8837036,97.5303126 C47.9720829,96.9405947 47.7255036,95.7439978 48.3335184,94.8586408 C48.9407301,93.9725039 50.1696109,93.7338085 51.0844443,94.3235264 C54.7269112,96.6823981 61.5925798,98.1473323 68.9995984,98.1473323 C76.4074202,98.1473323 83.2730888,96.6823981 86.9155557,94.3235264 C87.8295859,93.7353686 89.0600731,93.974064 89.6664816,94.8586408 C90.2744964,95.7439978 90.0279171,96.9405947 89.1162964,97.5303126 C84.7919212,100.329133 77.2708495,102 68.9995984,102" id="Fill-21" fill="#AB78B3"></path>
            </g>
        </g>
    </g>
</svg>