<?xml version="1.0" encoding="UTF-8"?>
<svg width="52px" height="52px" viewBox="0 0 52 52" version="1.1" xmlns="http://www.w3.org/2000/svg" xmlns:xlink="http://www.w3.org/1999/xlink">
    <!-- Generator: Sketch 61 (89581) - https://sketch.com -->
    <title>Group 7</title>
    <desc>Created with Sketch.</desc>
    <g id="Home" stroke="none" stroke-width="1" fill="none" fill-rule="evenodd">
        <g id="Desktop-Copy" transform="translate(-948.000000, -1647.000000)">
            <g id="Group-7" transform="translate(948.000000, 1647.000000)">
                <path d="M52,26 C52,40.3592 40.3592,52 26,52 C11.6408,52 0,40.3592 0,26 C0,11.6408 11.6408,0 26,0 C40.3592,0 52,11.6408 52,26" id="Fill-1" fill="#0066B3"></path>
                <path d="M28,9.98593639 L28,43.013268 C28,44.1112616 27.1045254,45 26,45 C24.8954746,45 24,44.1112616 24,43.013268 L24,9.98593639 C24,8.88873836 24.8954746,8 26,8 C27.1045254,8 28,8.88873836 28,9.98593639" id="Fill-3" fill="#FFFFFF"></path>
                <path d="M40.3101182,30.7685422 C39.6170088,31.2079297 38.6939389,31.0030422 38.251769,30.3123475 L25.9993065,11.2314056 L13.7468439,30.3123475 C13.3038672,31.0030422 12.3807972,31.2079297 11.6876879,30.7685422 C10.9945786,30.329955 10.7936656,29.408762 11.2309942,28.7236696 L24.7413816,7.68429199 C25.0149137,7.26011099 25.4893587,7 25.9993065,7 C26.5084473,7 26.9828924,7.26011099 27.2572313,7.68429199 L40.7668119,28.7236696 C40.9241533,28.9725758 41,29.247093 41,29.5184087 C41,30.0066171 40.7555156,30.4852213 40.3101182,30.7685422" id="Fill-5" fill="#FFFFFF"></path>
            </g>
        </g>
    </g>
</svg>