<?xml version="1.0" encoding="utf-8"?>
<!-- Generator: Adobe Illustrator 23.1.1, SVG Export Plug-In . SVG Version: 6.00 Build 0)  -->
<svg version="1.1" id="Layer_1" xmlns="http://www.w3.org/2000/svg" xmlns:xlink="http://www.w3.org/1999/xlink" x="0px" y="0px"
	 viewBox="0 0 97.3 87.4" style="enable-background:new 0 0 97.3 87.4;" xml:space="preserve">
<style type="text/css">
	.st0{fill:#AB78B3;}
</style>
<g>
	<path class="st0" d="M97.1,55.3c-1.1-5.8-5.1-7.7-8.2-7.6c-3.6,0.2-6.4,2.7-6.8,6.1c-0.2,2.5,0.3,4.4,1.5,5.6
		c1.5,1.5,3.5,1.2,3.7,1.2c0.9-0.1,1.5-1,1.4-1.9s-1-1.5-1.9-1.4c0,0-0.6,0-0.9-0.3c-0.5-0.4-0.7-1.5-0.5-2.9c0.2-1.9,1.9-3,3.6-3.1
		c0.9,0,3.9,0.2,4.8,4.9c0.6,2.9-0.5,5.5-2.8,6.9c-2.6,1.5-6.8,1.7-10.6-1.3c-5.9-4.8-7.2-17.6-7.8-23.8c-0.2-2.3-0.3-3.5-0.6-4.3
		c-1.1-3.4-3.7-6.1-7.7-7.7c-1.1-0.4-2.2-0.7-3.1-0.9c1.3-2.5,2.1-5.3,2.1-8.4c0-9-6.6-16.4-14.7-16.4S33.9,7.3,33.9,16.4
		c0,3.3,0.9,6.3,2.4,8.9c-1,0.2-2.2,0.5-3.5,1c-3.9,1.6-6.6,4.2-7.6,7.7c-0.2,0.8-0.4,2-0.6,4.3c-0.6,6.2-1.8,19-7.8,23.8
		c-3.8,3-8,2.8-10.6,1.3c-2.4-1.4-3.4-3.9-2.8-6.9c0.9-4.7,3.9-4.9,4.8-4.9c1.6,0.1,3.4,1.2,3.6,3.1c0.1,1.4,0,2.4-0.5,2.8
		c-0.1,0.1-0.2,0.1-0.3,0.2c-0.8,0.2-1.3,1-1.2,1.8l0,0c0.1,1.1,1.2,1.8,2.3,1.5c0.5-0.2,1.1-0.5,1.6-1c1.3-1.2,1.8-3.1,1.5-5.6
		c-0.3-3.4-3.2-5.9-6.8-6.1c-3.1-0.1-7.1,1.8-8.2,7.6c-0.8,4.3,0.8,8.2,4.4,10.3l0,0c0,1.5,0.2,18.2,15.9,19.9c1,0.1,2,0.2,2.9,0.2
		c7.7,0,14.3-3.4,20-7.5c1,0.6,4.8,2.7,9.8,4.7c6.4,2.6,12,3.9,16.8,3.9c1.1,0,2.1-0.1,3.1-0.2c9.7-1.2,14.1-7,16.1-11.5
		c1.9-4.2,2-8.2,2-9.3c0.5-0.2,1-0.4,1.5-0.7C96.3,63.6,97.9,59.7,97.1,55.3z M48.7,3.4c6.3,0,11.4,5.9,11.4,13.1S55,29.6,48.7,29.6
		c-2,0-3.8-0.6-5.5-1.6c-0.1-0.1-0.3-0.2-0.5-0.3c-3.3-2.3-5.4-6.4-5.4-11.1C37.3,9.3,42.4,3.4,48.7,3.4z M45.1,32.4
		c1.2,0.3,2.4,0.5,3.6,0.5c1.4,0,2.8-0.2,4-0.6L49,43.1L45.1,32.4z M72.6,84c-9.6,1.2-22.1-5-26.3-7.3c1.3-1,2.6-2,3.8-3
		c2.1-1.7,4.1-3.2,5.8-4.4c7.4-4.9,11.9-3.7,11.9-3.7c0.9,0.3,1.8-0.2,2.1-1.1s-0.2-1.8-1.1-2.1c-0.2-0.1-5.9-1.9-14.8,4.1
		c-1.9,1.3-3.9,2.9-6.1,4.6c-7.2,5.8-16.3,13-27.2,11.8C9.6,81.7,8,71.3,7.8,67.6c0.8,0.2,1.6,0.3,2.5,0.3c2.9,0,6-1.1,8.6-3.1
		c7.1-5.6,8.3-18.9,9-26.1c0.1-1.6,0.3-3.2,0.4-3.6c0.8-2.5,2.6-4.3,5.6-5.5c2.4-0.9,4.5-1.1,4.6-1.1h0.1c0.7,0.7,1.4,1.3,2.1,1.8
		l6.5,17.3C39,48.9,33.9,51.9,33.7,52c-0.8,0.5-1,1.5-0.6,2.3c0.5,0.8,1.5,1.1,2.3,0.6c0,0,5.3-3.2,13.8-4.2
		c3.2-0.4,6.2-0.2,8.6,0.2l-23.5,4.8c-0.7,0.1-1.2,0.7-1.3,1.4c-0.1,0.7,0.2,1.4,0.9,1.7c0.4,0.2,6.6,3.5,16.5,3.5
		c4.2,0,9-0.6,14.3-2.3c0.9-0.3,1.4-1.2,1.1-2.1s-1.2-1.4-2.1-1.1C54,59.9,45.9,59,40.9,57.7l24.2-4.9c0.7-0.1,1.2-0.7,1.3-1.4
		c0.1-0.7-0.3-1.4-0.9-1.7c-0.3-0.1-6-3-14.1-2.6L57.2,30c0,0,0,0,0-0.1c0.8-0.6,1.5-1.3,2.2-2.1c1.8,0.2,8.1,1.4,9.6,6.6
		c0.1,0.5,0.3,2,0.4,3.6c0.7,7.1,1.9,20.4,9,26.1c2.6,2,5.6,3.1,8.6,3.1c0.3,0,0.7,0,1,0C87.7,70.7,86,82.3,72.6,84z"/>
</g>
</svg>
