<?xml version="1.0" encoding="UTF-8"?>
<svg width="356px" height="305px" viewBox="0 0 356 305" version="1.1" xmlns="http://www.w3.org/2000/svg" xmlns:xlink="http://www.w3.org/1999/xlink">
    <!-- Generator: Sketch 61 (89581) - https://sketch.com -->
    <title>girl-meditating-2</title>
    <desc>Created with Sketch.</desc>
    <g id="Home" stroke="none" stroke-width="1" fill="none" fill-rule="evenodd">
        <g id="Discover-Meditation---Desktop-Copy" transform="translate(-331.000000, -317.000000)">
            <g id="girl-meditating-2" transform="translate(331.000000, 317.000000)">
                <path d="M334.916181,178.591519 C334.916181,178.591519 371.55201,137.750938 348.237622,91.4161754 C324.923234,45.0814129 279.958706,49.0079612 244.151269,58.436156 C208.343832,67.8568858 161.715057,63.1465209 125.90762,26.2399532 C90.1001833,-10.6740794 48.4641496,-2.82098291 32.6426061,14.4603084 C16.8210625,31.7341348 12.6567129,67.0805341 30.1425037,102.419468 C47.6282945,137.758403 37.6353479,160.533876 22.6496595,177.807702 C7.66397106,195.081528 -71.3243388,287.034421 192.910364,293.864823 C294.824986,296.49994 398.724764,260.698181 334.916181,178.591519 Z" id="Path" fill="#C8ABCE"></path>
                <g id="XMLID_2_" transform="translate(73.000000, 43.000000)" fill-rule="nonzero">
                    <g id="Group" transform="translate(0.746324, 0.746439)">
                        <path d="M70.5499632,61.7379487 C69.3782353,60.3495726 67.4900368,58.7969801 65.5869118,59.3642735 C61.15375,60.7003989 61.0567279,67.4183476 62.3404044,70.9415385 C63.1091176,73.0763533 64.4823529,74.9424501 66.22875,76.2263248 C67.5721324,77.2116239 70.4678676,78.2043875 71.8485662,76.8309402 C72.1247059,78.3088889 72.4680147,79.7196581 72.8934191,81.0707123 C75.8339338,90.4310541 83.4016544,96.8728205 92.0590074,98.962849 C92.5963603,99.1046724 92.8053309,101.903818 92.8053309,104.486496 C86.3944118,105.367293 79.6401838,104.971681 73.6024265,102.508433 C70.6022059,101.291738 67.7437868,99.5525356 65.4152574,97.2908262 C62.9598529,94.917151 61.4597426,91.7522507 58.9371691,89.4308262 C54.8920956,85.7060969 48.9289706,84.6610826 46.2048897,79.4584046 C43.8912868,75.0245584 44.9958456,69.680057 46.0183088,65.0446724 C47.2497426,59.4911681 50.5858088,54.2660969 52.2351838,48.8245584 C56.0563603,36.0903134 58.2654779,22.3483761 68.1169485,12.7491738 C76.9907353,4.11287749 93.7904779,-3.06786325 105.776434,1.85863248 C117.560882,2.94843305 129.009485,7.59874644 135.532353,17.9145299 C141.667132,27.6107692 142.88364,39.7851852 147.480993,49.9068946 C152.817206,61.6633048 155.197978,73.8675783 149.630404,83.3548148 C146.831691,88.1394872 140.749154,91.5283191 135.666691,93.260057 C133.009779,94.1557835 130.203603,94.7380057 127.822831,96.20849 C125.60625,97.5744729 123.919559,99.6197151 122.008971,101.381311 C119.150551,103.993846 115.792096,104.844786 112.030625,105.218006 C110.881287,105.329972 106.485441,105.240399 106.485441,105.218006 L106.276471,105.22547 C106.201838,104.120741 106.127206,103.008547 106.0675,101.911282 C105.940625,99.6645014 105.336103,98.5896296 107.61239,97.9402279 C110.493199,97.1266097 113.344154,96.1263818 115.896581,94.5290028 C119.964044,91.9836467 122.494081,88.117094 124.367353,83.7802849 C125.442059,81.2946439 126.173456,78.8687179 126.688419,76.4651852 C133.4725,81.085641 138.383309,71.4192593 138.234044,65.7537892 C138.159412,63.2233618 136.965294,60.4167521 134.166581,60.2152137 C131.838051,60.0360684 129.322941,61.5289459 128.084044,63.4323647 L128.024338,63.4323647 C128.054191,62.4619943 128.106434,61.4766952 128.151213,60.4764672 C127.263088,54.7438177 116.538419,46.0701994 117.904191,36.5531054 C110.261838,48.2498006 90.3051471,53.9376638 78.5206985,56.348661 C74.8040074,57.1174929 71.9082721,57.542963 70.4529412,57.7445014 C70.4827941,59.0209117 70.5201103,60.357037 70.5499632,61.7379487 Z M117.911654,36.5381766 C118.456471,35.7021652 118.941581,34.8288319 119.352059,33.925641 C119.001287,34.5451852 118.546029,35.1871225 118.031066,35.8663818 C117.97136,36.0977778 117.934044,36.3217094 117.911654,36.5381766 Z" id="Shape" fill="#333333"></path>
                        <path d="M70.5499632,61.7379487 C70.6768382,66.597265 70.9156618,71.9790883 71.8485662,76.8234758 C70.4604044,78.1969231 67.5721324,77.2116239 66.22875,76.2188604 C64.4972794,74.9349858 63.1165809,73.0688889 62.3404044,70.9340741 C61.0641912,67.4108832 61.1612132,60.6854701 65.5869118,59.3568091 C67.4900368,58.8044444 69.3782353,60.357037 70.5499632,61.7379487 Z" id="Path" fill="#FFFFFF"></path>
                        <path d="M107.918382,136.075783 C103.641949,136.747578 99.2610294,136.7849 94.9696691,136.180285 C90.8723529,135.605527 86.2973897,134.89641 84.5584559,130.57453 C83.6852574,128.409858 84.2151471,125.677892 84.2599265,123.393789 C84.2972426,120.818575 84.2972426,118.228433 84.2972426,115.653219 L84.2673897,115.563647 C89.0513235,113.727407 91.8276471,110.808832 92.5366544,108.793447 C92.7083088,108.330655 92.8127941,106.457094 92.8127941,104.464103 C92.8127941,101.881425 92.6038235,99.0822792 92.0664706,98.9404558 C83.4091176,96.8578917 75.8413971,90.4161254 72.9008824,81.0483191 C72.4754779,79.7047293 72.1321691,78.2864957 71.8560294,76.808547 C70.9305882,71.9492308 70.6917647,66.5674074 70.5574265,61.7230199 C70.5275735,60.3346439 70.4902574,58.9910541 70.4529412,57.7221083 C71.9008088,57.5280342 74.8040074,57.0950997 78.5206985,56.3262678 C90.3051471,53.9152707 110.261838,48.2348718 117.904191,36.5307123 C116.523493,46.0552707 127.248162,54.7139601 128.14375,60.4615385 C128.091507,61.454302 128.046728,62.4470655 128.016875,63.4174359 C127.815368,67.8587464 127.598934,72.1134473 126.680956,76.4502564 C126.165993,78.8537892 125.434596,81.2797151 124.35989,83.7653561 C122.486618,88.1021652 119.956581,91.9687179 115.889118,94.5140741 C113.336691,96.111453 110.485735,97.1191453 107.604926,97.9252991 C105.32864,98.5672365 105.925699,99.6421083 106.060037,101.896353 C106.127206,102.993618 106.201838,104.105812 106.269007,105.210541 C106.328713,106.255556 106.366029,107.293105 106.366029,108.330655 C106.366029,111.794131 112.097794,113.869231 117.299669,115.197892 L117.262353,115.354644 C116.919044,119.810883 117.150404,124.199943 117.045919,128.678575 C117.030993,129.634017 116.97875,130.611852 116.687684,131.522507 C115.590588,134.866553 110.873824,135.612991 107.918382,136.075783 Z" id="Path" fill="#FFFFFF"></path>
                        <path d="M119.344596,33.925641 C118.926654,34.8213675 118.456471,35.7021652 117.904191,36.5381766 C117.926581,36.3217094 117.97136,36.0977778 118.01614,35.8663818 C118.546029,35.1871225 118.993824,34.5451852 119.344596,33.925641 Z" id="Path" fill="#FFFFFF"></path>
                        <path d="M80.4312868,160.708262 C91.0066912,162.805755 108.985625,162.156353 123.106066,159.715499 C123.941949,164.671852 126.763051,187.714416 131.084265,195.641595 C134.636765,202.158006 122.322426,208.159373 114.724853,210.801766 C103.656875,214.660855 90.3126103,213.466553 80.7671324,206.352991 C77.7072059,204.061425 72.4083088,201.486211 73.6695956,198.261595 C75.7518382,192.932023 80.5432353,165.843761 80.0282721,161.014302 L80.3790441,160.67094 C80.4088971,160.678405 80.4163603,160.685869 80.4312868,160.708262 Z" id="Path" fill="#FFFFFF"></path>
                        <path d="M24.0465441,235.195385 C22.8748162,232.821709 22.6956985,230.895897 23.1957353,228.753618 C23.3002206,229.029801 23.4942647,229.223875 23.8151838,229.313447 C25.9795221,229.910598 27.4124632,226.424729 28.1587868,224.976638 C30.5544853,220.326325 34.636875,217.683932 38.57,214.407066 C39.2715441,213.832308 39.9581618,213.250085 40.6447794,212.660399 C45.5406618,210.421083 49.8693382,208.353447 54.7950735,206.31567 C57.6161765,205.158689 71.0873162,200.224729 72.9456618,198.313846 L73.6695956,198.246667 C75.3338971,201.292137 77.6997426,204.05396 80.7671324,206.338063 C90.3126103,213.451624 103.656875,214.645926 114.724853,210.786838 C122.322426,208.13698 128.173603,202.449117 131.084265,195.626667 C137.816103,198.672137 146.883934,203.113447 153.854596,205.987236 C156.996618,208.86849 160.213272,211.682564 163.497096,214.399601 C167.422757,217.676467 171.520074,220.311396 173.908309,224.969174 C174.647169,226.409801 176.065184,229.888205 178.251912,229.305983 C180.334154,228.708832 177.251838,223.2449 176.490588,221.572877 C177.565294,222.677607 180.341618,226.536695 182.752243,228.343077 L182.729853,228.372934 C183.005993,231.254188 182.349228,234.172764 180.490882,236.46433 C180.490882,236.46433 180.490882,236.46433 180.490882,236.471795 C180.095331,236.95698 179.640074,237.419772 179.140037,237.837778 C173.408272,242.674701 165.42261,242.823989 158.31761,243.122564 C148.092978,243.555499 138.622132,242.167123 128.434816,241.107179 C126.210772,240.875783 124.08375,240.644387 122.016434,240.420456 L122.03136,240.248775 C120.844706,238.210997 120.971581,234.784843 121.031287,232.985926 C128.942316,231.634872 135.547279,230.328604 139.301287,229.194017 C143.921029,227.82057 149.219926,226.424729 154.085956,226.648661 C155.265147,226.417265 159.369926,227.925071 158.34,224.566097 C157.795184,222.797037 154.697941,222.483533 153.235147,222.438746 C150.70511,219.355954 146.339118,220.065071 142.420919,220.453219 C136.293603,221.065299 132.98739,220.74433 127.688493,217.713789 C121.77761,214.339886 116.433934,219.617208 111.194743,222.311852 C103.918088,226.05151 95.3577574,224.931852 87.54375,224.036125 C86.6854779,223.939088 85.8346691,223.834587 84.9689338,223.730085 C87.4094118,225.93208 87.8348162,234.934131 86.1630515,238.240855 C80.3417279,239.061937 74.8487868,239.81584 70.1842647,240.457778 C70.1021691,240.465242 70.0424632,240.472707 69.9976838,240.472707 C64.9898529,241.15943 60.9223897,241.719259 58.4147426,242.092479 C50.4290809,243.279316 34.0547426,244.734872 26.6810662,238.464786 C25.5914338,237.583989 24.6883824,236.486724 24.0465441,235.195385 Z" id="Path" fill="#333333"></path>
                        <path d="M134.151654,60.2077493 C136.942904,60.4092877 138.151949,63.2158974 138.219118,65.7463248 C138.383309,71.4267236 133.465037,81.0781766 126.673493,76.4577208 C127.591471,72.1134473 127.807904,67.8587464 128.009412,63.4249003 L128.069118,63.4249003 C129.308015,61.5214815 131.823125,60.028604 134.151654,60.2077493 Z" id="Path" fill="#FFFFFF"></path>
                        <path d="M173.915772,224.984103 C171.520074,220.333789 167.430221,217.691396 163.504559,214.41453 C160.220735,211.682564 157.004081,208.883419 153.862059,206.002165 C152.98886,205.21094 152.130588,204.404786 151.272316,203.591168 C145.756985,198.366097 141.33875,191.110712 137.80864,184.430085 C133.151581,175.644501 128.688566,164.462849 126.815294,155.341368 L126.800368,155.333903 C127.434743,154.229174 127.942243,153.027407 128.285551,151.795783 C129.367721,147.891909 128.905,143.689459 127.673566,139.83037 C126.121213,134.971054 122.889632,130.820855 121.673125,125.886895 C121.2925,124.371624 120.993971,118.810655 121.367132,116.175726 C122.755294,116.474302 123.919559,116.720627 124.658419,116.922165 C133.323235,119.333162 135.151728,125.386781 136.838419,133.717037 C141.152169,154.975613 139.778934,158.446553 145.391287,170.016353 C148.533309,176.502906 157.690699,191.8049 161.862647,198.321311 C163.534412,200.926382 165.250956,204.367464 169.78114,203.225413 C173.273934,202.337151 175.423346,200.127692 179.229596,200.911453 C180.632684,201.202564 183.088088,201.55339 182.17011,203.44188 C182.080551,203.62849 181.953676,203.785242 181.811875,203.912137 C180.752096,204.822792 178.423566,204.516752 177.386176,204.85265 C173.557537,206.091738 173.191838,210.742051 177.826507,210.816695 C182.296985,210.891339 180.050551,205.106439 182.311912,204.031567 C182.752243,203.830028 183.356765,203.792707 184.192647,204.009174 C185.879338,204.554074 186.170404,210.600228 182.819412,215.14604 C184.812096,216.997208 192.439522,221.737094 190.79761,224.692991 C189.088529,227.783248 182.453713,220.19943 180.095331,218.699088 C180.908824,219.863533 190.051287,228.522222 185.162868,229.291054 C184.483713,229.395556 183.662757,229.007407 182.789559,228.343077 C180.378934,226.536695 177.60261,222.692536 176.527904,221.572877 C177.274228,223.2449 180.364007,228.708832 178.289228,229.305983 C176.072647,229.903134 174.654632,226.417265 173.915772,224.984103 Z" id="Path" fill="#FFFFFF"></path>
                        <path d="M83.1777574,115.966724 C83.5434559,115.847293 83.9091544,115.712934 84.2599265,115.578575 L84.2897794,115.668148 C84.2897794,118.243362 84.2897794,120.833504 84.2524632,123.408718 C84.2151471,125.685356 83.6852574,128.409858 84.5509926,130.589459 C86.2824632,134.903875 90.8723529,135.605527 94.9622059,136.195214 C99.2610294,136.799829 103.634485,136.755043 107.910919,136.090712 C110.86636,135.62792 115.575662,134.881481 116.665294,131.552365 C116.963824,130.641709 117.008603,129.663875 117.023529,128.708433 C117.128015,124.244729 116.904118,119.840741 117.239963,115.384501 L117.277279,115.227749 C118.717684,115.593504 120.113309,115.907009 121.322353,116.183191 C120.949191,118.81812 121.247721,124.371624 121.628346,125.894359 C122.844853,130.828319 126.076434,134.985983 127.628787,139.837835 C128.860221,143.689459 129.322941,147.906838 128.240772,151.803248 C127.897463,153.042336 127.389963,154.229174 126.755588,155.341368 C125.807757,157.01339 124.561397,158.498803 123.083676,159.715499 C108.955772,162.156353 90.969375,162.805755 80.4088971,160.708262 C80.3939706,160.693333 80.3865074,160.685869 80.3715809,160.67094 C78.3938235,158.685413 76.8265441,157.394074 75.6025735,155.304046 C75.2965809,154.774074 74.9980515,154.206781 74.7368382,153.54245 C72.1844118,147.249972 75.3413603,141.345641 77.7072059,135.650313 C80.1402206,129.798234 80.8044485,121.542621 80.6999632,116.698234 L80.6925,116.683305 C81.5209191,116.466838 82.341875,116.235442 83.1777574,115.966724 Z" id="Path" fill="#AB78B3"></path>
                        <path d="M86.1705147,238.278177 C97.6788235,236.673333 110.515588,234.807236 121.03875,233.008319 C120.979044,234.807236 120.852169,238.23339 122.038824,240.271168 L122.023897,240.442849 C114.389007,239.621766 107.500441,238.935043 98.8132353,239.039544 C92.3873897,239.114188 72.6396691,240.301026 70.1917279,240.4951 C74.8711765,239.853162 80.3491912,239.106724 86.1705147,238.278177 Z" id="Path" fill="#FFFFFF"></path>
                        <path d="M180.498346,236.486724 C180.968529,237.009231 198.051875,255.961311 201.164044,260.35037 L0.477647059,260.35037 C11.0605147,251.773789 26.6810662,238.509573 26.6810662,238.509573 C34.0696691,244.772194 50.4365441,243.324103 58.4147426,242.137265 C60.9298529,241.756581 64.9898529,241.196752 69.9976838,240.517493 C70.035,240.517493 70.1021691,240.510028 70.1842647,240.502564 C72.6396691,240.30849 92.3799265,239.114188 98.8057721,239.047009 C107.492978,238.942507 114.381544,239.621766 122.016434,240.450313 C124.076287,240.666781 126.210772,240.905641 128.434816,241.137037 C138.614669,242.19698 148.085515,243.577892 158.31761,243.152422 C165.42261,242.853846 173.400809,242.704558 179.140037,237.867635 C179.647537,237.434701 180.095331,236.979373 180.498346,236.486724 Z" id="Path" fill="#FFFFFF"></path>
                        <path d="M86.1705147,238.278177 C87.8422794,234.971453 87.416875,225.969402 84.9763971,223.767407 C85.8421324,223.871909 86.6929412,223.97641 87.5512132,224.073447 C95.3652206,224.961709 103.925551,226.088832 111.202206,222.349174 C116.433934,219.661994 121.785074,214.384672 127.695956,217.751111 C133.002316,220.781652 136.308529,221.102621 142.428382,220.490541 C146.346581,220.102393 150.712574,219.400741 153.24261,222.476068 C154.705404,222.51339 157.802647,222.834359 158.347463,224.603419 C159.384853,227.969858 155.280074,226.454587 154.093419,226.685983 C149.219926,226.454587 143.921029,227.850427 139.30875,229.231339 C135.554743,230.365926 128.942316,231.664729 121.03875,233.023248 C110.523051,234.807236 97.6862868,236.673333 86.1705147,238.278177 Z" id="Path" fill="#FFFFFF"></path>
                        <path d="M23.8151838,229.313447 C23.4942647,229.223875 23.3002206,229.022336 23.1957353,228.753618 L23.1957353,228.746154 C22.5986765,227.156239 24.9272059,223.00604 25.5615809,221.595271 C24.0987868,223.103077 19.4790441,229.701595 16.9340809,229.313447 C12.0456618,228.544615 21.188125,219.885926 22.0016176,218.721481 C19.6357721,220.214359 13.0084191,227.805641 11.291875,224.715385 C9.65742647,221.759487 17.2699265,217.019601 19.2775368,215.168433 C15.9116176,210.622621 16.2176103,204.576467 17.9043015,204.031567 C18.8969118,203.785242 19.5611397,203.86735 20.0089338,204.195783 C21.9045956,205.539373 19.9492279,210.913732 24.2779044,210.854017 C28.9125735,210.771909 28.5394118,206.121595 24.7182353,204.889972 C23.7554779,204.583932 21.6806985,204.822792 20.5462868,204.128604 C20.2925368,203.964387 20.0835662,203.755385 19.9343015,203.479202 C18.9939338,201.590712 21.4568015,201.239886 22.8673529,200.948775 C26.6810662,200.165014 28.8230147,202.367009 32.3232721,203.262735 C36.8534559,204.404786 38.5625368,200.956239 40.2343015,198.358632 C44.40625,191.849687 53.5711029,176.540228 56.713125,170.053675 C60.2954779,162.656467 61.8926103,155.139829 62.8329779,147.100684 C63.6240809,140.308091 64.579375,130.447635 67.75125,124.282051 C70.5425,118.855442 75.4010662,118.153789 80.7223529,116.728091 L80.7298162,116.74302 C80.8343015,121.579943 80.1775368,129.835556 77.7370588,135.6951 C75.36375,141.390427 72.2142647,147.287293 74.7666912,153.587236 C75.0353676,154.236638 75.3189706,154.81886 75.6324265,155.348832 C73.7591544,164.462849 68.9379044,175.704217 64.2883088,184.482336 C60.7507353,191.162963 56.3399632,198.410883 50.8171691,203.643419 C47.5184191,206.763533 44.1301103,209.78661 40.6597059,212.727578 C39.9730882,213.324729 39.2864706,213.892023 38.5849265,214.474245 C34.6518015,217.751111 30.5619485,220.38604 28.1737132,225.043818 C27.4199265,226.417265 25.9944485,229.903134 23.8151838,229.313447 Z" id="Path" fill="#FFFFFF"></path>
                    </g>
                    <g id="Group" fill="#333333">
                        <path d="M130.949926,78.9806838 C129.68864,78.9806838 128.382574,78.5402849 127.10636,77.6669516 C127.083971,77.6520228 127.069044,77.637094 127.039191,77.6147009 C126.822757,77.3982336 126.792904,77.0175499 127.016801,76.8010826 C127.218309,76.5995442 127.524301,76.5622222 127.733272,76.7339031 C127.733272,76.7339031 127.740735,76.7339031 127.740735,76.7413675 C129.628934,78.0177778 131.457426,78.1969231 133.166507,77.2638746 C136.375699,75.5022792 138.502721,70.1876353 138.398235,66.5076923 C138.338529,64.3131624 137.368309,61.6931624 134.853199,61.5140171 C132.845588,61.357265 130.494669,62.6038177 129.270699,64.4773789 C129.099044,64.7386325 128.755735,64.8132764 128.487059,64.6415954 C128.225846,64.4699145 128.151213,64.1190883 128.322868,63.8578348 C129.755809,61.6633048 132.532132,60.2077493 134.920368,60.3868946 C137.972831,60.6033618 139.428162,63.6040456 139.510257,66.4703704 C139.622206,70.5533903 137.308603,76.2636467 133.696397,78.2417094 C132.823199,78.7418234 131.897757,78.9806838 130.949926,78.9806838 Z" id="Path"></path>
                        <path d="M128.337794,72.3523077 C128.307941,72.3523077 128.278088,72.3523077 128.248235,72.3448433 C127.942243,72.2925926 127.725809,72.0089459 127.778051,71.702906 C127.964632,70.4638177 129.367721,66.791339 131.390257,65.8358974 C132.114191,65.4925356 132.853051,65.5298575 133.539669,65.9329345 C133.808346,66.0896866 133.897904,66.4405128 133.733713,66.7092308 C133.569522,66.9779487 133.226213,67.0675214 132.957537,66.9033048 C132.591838,66.694302 132.248529,66.6719088 131.860441,66.8510541 C130.375257,67.5527066 129.069191,70.6802849 128.890074,71.8671225 C128.845294,72.1582336 128.606471,72.3523077 128.337794,72.3523077 Z" id="Path"></path>
                        <path d="M70.6992279,78.8164672 C69.1767279,78.8164672 67.5124265,78.0924217 66.6317647,77.4430199 C64.7958088,76.0845014 63.3479412,74.1139031 62.549375,71.8969801 C61.6239338,69.3441595 61.4075,65.3059259 62.803125,62.5291738 C63.564375,61.0213675 64.6913235,60.028604 66.1615809,59.5882051 C68.5125,58.8865527 70.6469853,60.8870085 71.7067647,62.1410256 C71.9082721,62.379886 71.8784191,62.7381766 71.6395956,62.9322507 C71.4007721,63.1337892 71.0425368,63.1039316 70.8484926,62.8650712 C70.1394853,62.0290598 68.2811397,60.125641 66.4825,60.6630769 C65.3182353,61.0139031 64.4226471,61.8125926 63.8031985,63.0367521 C62.5643015,65.5074644 62.7732721,69.2471225 63.6016912,71.5162963 C64.325625,73.5316809 65.6391544,75.3231339 67.2885294,76.5398291 C68.4304044,77.3758405 71.0425368,78.3238177 72.1769485,77.1892308 C72.3933824,76.9727635 72.7516176,76.9727635 72.9755147,77.1892308 C73.1919485,77.405698 73.1919485,77.7565242 72.9755147,77.9804558 C72.3859191,78.5776068 71.5649632,78.8164672 70.6992279,78.8164672 Z" id="Path"></path>
                        <path d="M71.4754044,69.9860969 C71.2141912,69.9860969 70.9902941,69.8069516 70.9305882,69.545698 C70.669375,68.3961823 69.1991176,65.9105413 67.7587132,65.3805698 C67.3183824,65.2163533 66.9526838,65.2760684 66.5944485,65.5447863 C66.3481618,65.731396 65.9899265,65.6866097 65.8033456,65.4402849 C65.6167647,65.1939601 65.6615441,64.8356695 65.9078309,64.6490598 C66.5795221,64.1414815 67.3407721,64.0369801 68.1393382,64.3280912 C70.0872426,65.0446724 71.7216912,67.985641 72.0202206,69.2993732 C72.0873897,69.5979487 71.9008088,69.9039886 71.5948162,69.9711681 C71.5575,69.9786325 71.5201838,69.9860969 71.4754044,69.9860969 Z" id="Path"></path>
                        <path d="M96.9698162,77.7490598 C96.8951838,77.7490598 96.8130882,77.7341311 96.7384559,77.6968091 C94.7084559,76.7861538 94.4173897,75.3156695 94.6114338,73.4047863 C94.6711397,72.8524217 94.7233824,72.300057 94.7830882,71.7476923 C94.9995221,69.6651282 95.2159559,67.7019943 95.2159559,65.5447863 C95.2159559,65.2387464 95.4697059,64.9849573 95.7756985,64.9849573 C96.0816912,64.9849573 96.3354412,65.2387464 96.3354412,65.5447863 C96.3354412,67.754245 96.1264706,69.7472365 95.8951103,71.8671225 C95.8354044,72.4120228 95.7831618,72.9569231 95.7234559,73.5092877 C95.5443382,75.3156695 95.9025735,76.0845014 97.2011765,76.6592593 C97.4847794,76.7861538 97.6116544,77.1220513 97.4847794,77.3982336 C97.3877574,77.6221652 97.18625,77.7490598 96.9698162,77.7490598 Z" id="Path"></path>
                        <path d="M97.9997426,84.668547 C96.2682721,84.668547 94.5815809,84.1311111 93.3949265,82.6009117 C93.2083456,82.3545869 93.2456618,81.9962963 93.4919485,81.8096866 C93.7382353,81.6230769 94.0964706,81.6603989 94.2830515,81.9067236 C96.3951471,84.6461538 100.977574,83.4145299 103.544926,81.914188 C103.813603,81.7574359 104.156912,81.8470085 104.31364,82.1157265 C104.470368,82.3844444 104.380809,82.7278063 104.112132,82.8845584 C102.679191,83.7280342 100.298419,84.668547 97.9997426,84.668547 Z" id="Path"></path>
                        <path d="M84.371875,69.8218803 C83.1329779,69.8218803 81.9090074,69.6128775 80.8417647,69.1874074 C79.2446324,68.5603989 78.155,67.5452422 77.774375,66.328547 C77.6773529,66.0374359 77.8490074,65.7164672 78.1400735,65.6194302 C78.4311397,65.5223932 78.7520588,65.6940741 78.8490809,65.9851852 C79.2222426,67.1794872 80.5283088,67.8512821 81.2597059,68.1349288 C84.6330882,69.4635897 89.6185294,68.4782906 91.2529779,65.1566382 C91.3947794,64.8804558 91.7231618,64.76849 91.9993015,64.902849 C92.2754412,65.0446724 92.3873897,65.3731054 92.2530515,65.6492877 C90.8872794,68.4260399 87.5586765,69.8218803 84.371875,69.8218803 Z" id="Path"></path>
                        <path d="M114.112868,69.8592023 C113.918824,69.8592023 113.724779,69.8517379 113.523272,69.8368091 C110.724559,69.6054131 108.231838,67.7990313 107.470588,65.4552137 C107.373566,65.1641026 107.537757,64.8431339 107.836287,64.7460969 C108.127353,64.6490598 108.448272,64.8132764 108.545294,65.1118519 C109.269228,67.3660969 111.679853,68.5678632 113.612831,68.7246154 C116.866801,68.9858689 119.687904,66.5002279 121.03875,63.9250142 C121.188015,63.6488319 121.52386,63.5443305 121.8,63.6861538 C122.07614,63.8354416 122.180625,64.171339 122.038824,64.4475214 C120.702904,67.0003419 117.851949,69.8592023 114.112868,69.8592023 Z" id="Path"></path>
                        <path d="M120.687978,60.2973219 C120.568566,60.2973219 120.441691,60.26 120.344669,60.1778917 C117.053382,57.6026781 112.008235,57.3563533 108.619926,59.6031339 C108.358713,59.7748148 108.007941,59.7001709 107.836287,59.4463818 C107.664632,59.1851282 107.739265,58.834302 107.993015,58.6626211 C111.761949,56.1620513 117.366838,56.4307692 121.023824,59.2896296 C121.27011,59.4762393 121.307426,59.8345299 121.120846,60.0808547 C121.008897,60.2226781 120.844706,60.2973219 120.687978,60.2973219 Z" id="Path"></path>
                        <path d="M91.2156618,60.2973219 C91.09625,60.2973219 90.969375,60.26 90.8723529,60.1778917 C87.5810662,57.6026781 82.5508456,57.3563533 79.1550735,59.6031339 C78.8938603,59.7748148 78.5430882,59.7001709 78.3714338,59.4463818 C78.1997794,59.1851282 78.2744118,58.834302 78.5281618,58.6626211 C82.2970956,56.1620513 87.8945221,56.4307692 91.5515074,59.2896296 C91.7977941,59.4762393 91.8351103,59.8345299 91.6485294,60.0808547 C91.5440441,60.2226781 91.3798529,60.2973219 91.2156618,60.2973219 Z" id="Path"></path>
                        <path d="M109.694632,106.583989 C108.873676,106.583989 108.060184,106.56906 107.507904,106.516809 C107.478051,106.524274 107.440735,106.524274 107.403419,106.524274 L107.216838,106.524274 L107.216838,106.486952 C107.022794,106.464558 106.880993,106.419772 106.843676,106.38245 C106.672022,106.225698 106.612316,105.986838 106.694412,105.762906 C106.776507,105.546439 106.985478,105.404615 107.216838,105.404615 L107.403419,105.404615 C107.455662,105.404615 107.500441,105.41208 107.545221,105.419544 C108.515441,105.449402 111.784338,105.501652 112.717243,105.404615 C115.993603,105.068718 119.426691,104.404387 122.367206,101.717208 C122.934412,101.194701 123.494154,100.642336 124.038971,100.097436 C125.337574,98.8135613 126.658566,97.4774359 128.263162,96.477208 C130.069265,95.3500855 132.121654,94.7454701 134.106875,94.1408547 C134.815882,93.9318519 135.52489,93.7079202 136.226434,93.4690598 C138.56989,92.6703704 146.480919,89.6025071 149.876691,83.8101425 C154.653162,75.6664957 153.914301,64.5818803 147.689963,50.877265 C145.764449,46.6524217 144.413603,42.0021083 143.100074,37.508547 C141.241728,31.1563533 139.33114,24.5802279 135.77864,18.9595442 C128.516912,7.47185185 115.821949,4.02330484 106.448125,3.1574359 C106.142132,3.13504274 105.910772,2.8588604 105.940625,2.54535613 C105.963015,2.23931624 106.246618,2.00792023 106.55261,2.03777778 C116.180184,2.93350427 129.233382,6.48655271 136.733934,18.3549288 C140.375993,24.1099715 142.316434,30.7607407 144.189706,37.1875783 C145.495772,41.6438177 146.839154,46.2568091 148.71989,50.4070085 C155.100956,64.4624501 155.817426,75.8904274 150.846912,84.3699715 C147.257096,90.4982336 139.017684,93.7004558 136.584669,94.5290028 C135.868199,94.7753276 135.151728,94.9843305 134.427794,95.2082621 C132.43511,95.8128775 130.539449,96.3801709 128.852757,97.4251852 C127.36011,98.3433048 126.128676,99.5749288 124.830074,100.881197 C124.277794,101.426097 123.710588,102.000855 123.128456,102.538291 C119.934191,105.456866 116.127941,106.188376 112.821728,106.524274 C112.806801,106.531738 111.224596,106.583989 109.694632,106.583989 Z" id="Path"></path>
                        <path d="M90.08125,53.8928775 C89.7976471,53.8928775 89.5513603,53.6838746 89.5215074,53.3852991 C89.4916544,53.0792593 89.7155515,52.7956125 90.0290074,52.765755 C99.9103309,51.7505983 112.873971,43.248661 118.329596,36.2694587 C118.874412,35.5528775 119.299816,34.9407977 119.605809,34.3958974 C119.762537,34.1271795 120.105846,34.0301425 120.374522,34.1868946 C120.643199,34.3436467 120.740221,34.6870085 120.583493,34.9557265 C120.247647,35.5454131 119.799853,36.2022792 119.217721,36.9636467 C113.612831,44.1369231 100.305882,52.8403989 90.1484191,53.8928775 C90.1185662,53.8928775 90.0961765,53.8928775 90.08125,53.8928775 Z" id="Path"></path>
                        <path d="M128.88261,63.2756125 C128.845294,63.2756125 128.807978,63.2756125 128.770662,63.2681481 C128.472132,63.2009687 128.270625,62.9098575 128.337794,62.5963533 C128.41989,62.2082051 128.41989,61.7752707 128.345257,61.319943 C128.016875,59.2448433 126.225699,56.5949858 124.322574,53.7883761 C120.993971,48.8842735 117.217574,43.3158405 118.098235,37.2249003 C118.135551,36.9188604 118.426618,36.7023932 118.73261,36.7546439 C119.038603,36.7919658 119.255037,37.0830769 119.210257,37.3891168 C118.396765,43.0545869 122.038824,48.4214815 125.255478,53.1539031 C127.315331,56.1919088 129.091581,58.8193732 129.457279,61.1407977 C129.554301,61.7379487 129.554301,62.3052422 129.442353,62.8352137 C129.375184,63.0890028 129.143824,63.2756125 128.88261,63.2756125 Z" id="Path"></path>
                        <path d="M118.657978,37.8519088 C118.635588,37.8519088 118.620662,37.8519088 118.590809,37.8519088 C118.284816,37.8220513 118.060919,37.5309402 118.105699,37.2249003 C118.135551,36.9860399 118.172868,36.7471795 118.22511,36.4933903 C118.232574,36.4560684 118.240037,36.3664957 118.262426,36.2843875 C118.344522,35.985812 118.657978,35.8141311 118.956507,35.8962393 C119.255037,35.9783476 119.426691,36.2918519 119.344596,36.5904274 C119.337132,36.6202849 119.329669,36.6650712 119.329669,36.6949288 C119.269963,36.9561823 119.24011,37.1502564 119.217721,37.3517949 C119.180404,37.6354416 118.934118,37.8519088 118.657978,37.8519088 Z" id="Path"></path>
                        <path d="M87.4616544,106.218234 C82.6404044,106.218234 78.1102206,105.397151 74.1397794,103.777379 C70.9156618,102.463647 68.0199265,100.627407 65.7734926,98.4403419 C64.5495221,97.2609687 63.5569118,95.880057 62.5866912,94.5439316 C61.5940809,93.1704843 60.5566912,91.7447863 59.3028676,90.5878063 C57.7878309,89.1919658 55.9444118,88.1618803 54.1606985,87.154188 C51.2276471,85.5120228 48.1975735,83.8026781 46.4437132,80.4586325 C43.9808456,75.7411396 45.2719853,69.9189174 46.2048897,65.6642165 C46.8989706,62.514245 48.2722059,59.4463818 49.6006618,56.4830199 C50.6380515,54.1690598 51.7127574,51.7804558 52.4292279,49.4067806 C53.1083824,47.16 53.7427574,44.8385755 54.3547426,42.5843305 C57.2430147,32.0147578 60.2357721,21.094359 68.4527941,13.0850712 C77.9460294,3.84415954 94.8427941,-2.7991453 106.724265,2.07509972 C107.007868,2.19452991 107.149669,2.52296296 107.030257,2.80660969 C106.918309,3.09025641 106.582463,3.23207977 106.29886,3.11264957 C94.8502574,-1.58991453 78.4759191,4.89663818 69.2438971,13.8837607 C61.2433088,21.6840456 58.2953309,32.4476923 55.4369118,42.8679772 C54.8174632,45.1222222 54.1830882,47.4585755 53.5039338,49.7128205 C52.7650735,52.1536752 51.6829044,54.5870655 50.6305882,56.9308832 C49.3245221,59.8419943 47.9736765,62.8576068 47.3094485,65.8956125 C46.3541544,70.2025641 45.1749632,75.5769231 47.45125,79.928661 C49.0409191,82.9741311 51.8023162,84.534188 54.7204412,86.1688889 C56.5638603,87.2064387 58.4595221,88.2738462 60.0715809,89.7443305 C61.4075,90.9834188 62.4747426,92.4464387 63.5046691,93.8721368 C64.4450368,95.1709402 65.4077941,96.5070655 66.5571324,97.6192593 C68.6990809,99.694359 71.4679412,101.463419 74.5651838,102.717436 C80.0133456,104.941823 86.5586029,105.606154 93.4770221,104.658177 C93.7755515,104.620855 94.0740809,104.829858 94.1113971,105.135897 C94.1487132,105.441937 93.9397426,105.733048 93.63375,105.77037 C91.5291176,106.07641 89.4692647,106.218234 87.4616544,106.218234 Z" id="Path"></path>
                        <path d="M133.062022,43.5920228 C132.793346,43.5920228 132.554522,43.3979487 132.509743,43.1217664 C131.584301,37.605584 130.009559,33.1866667 127.845221,29.9993732 C127.218309,29.0737892 126.382426,28.2377778 125.561471,27.4390883 C124.658419,26.5433618 123.718051,25.6177778 123.038897,24.5279772 C122.874706,24.2667236 122.949338,23.9158974 123.218015,23.7516809 C123.479228,23.5874644 123.83,23.6695726 123.994191,23.9308262 C124.606176,24.908661 125.456985,25.7446724 126.360037,26.6329345 C127.210846,27.4689459 128.084044,28.3422792 128.778125,29.3649003 C131.032022,32.6865527 132.666471,37.2547578 133.621765,42.9276923 C133.674007,43.2337322 133.465037,43.5248433 133.159044,43.577094 C133.121728,43.5920228 133.091875,43.5920228 133.062022,43.5920228 Z" id="Path"></path>
                        <path d="M65.6615441,47.1674644 C65.6242279,47.1674644 65.5869118,47.1674644 65.5495956,47.16 C65.2510662,47.0928205 65.0420956,46.8017094 65.1092647,46.5031339 C66.2884559,40.6734473 67.9005147,36.6053561 70.8484926,31.9923647 C71.0201471,31.7311111 71.3634559,31.6564672 71.6246691,31.8206838 C71.8858824,31.9923647 71.9605147,32.3357265 71.7963235,32.5969801 C68.8856618,37.1353276 67.370625,40.957094 66.2063603,46.7196011 C66.1541176,46.9808547 65.9227574,47.1674644 65.6615441,47.1674644 Z" id="Path"></path>
                        <path d="M61.4746691,37.3294017 C61.4149632,37.3294017 61.3627206,37.3219373 61.3030147,37.3070085 C61.0119485,37.2099715 60.8477574,36.8890028 60.9373162,36.5978917 C61.2433088,35.6275214 61.7060294,34.754188 62.1538235,33.9181766 C62.4598162,33.3210256 62.7881985,32.7089459 63.0494118,32.0744729 C63.1613603,31.7908262 63.4972059,31.6490028 63.7808088,31.768433 C64.0644118,31.8878632 64.2062132,32.2162963 64.0868015,32.499943 C63.8106618,33.1792023 63.4673529,33.8211396 63.1464338,34.4332194 C62.7061029,35.2692308 62.2881618,36.0529915 62.0120221,36.9337892 C61.9373897,37.1726496 61.7134926,37.3294017 61.4746691,37.3294017 Z" id="Path"></path>
                        <path d="M140.517794,41.5019943 C140.286434,41.5019943 140.07,41.3601709 139.987904,41.1362393 C139.637132,40.1733333 139.084853,39.202963 138.495257,38.1803419 C137.368309,36.2097436 136.211507,34.1719658 136.368235,31.9550427 C136.390625,31.6490028 136.644375,31.4026781 136.972757,31.4325356 C137.27875,31.4549288 137.517574,31.7236467 137.495184,32.037151 C137.368309,33.9107123 138.443015,35.7992023 139.472941,37.6279772 C140.04761,38.6431339 140.652132,39.7030769 141.040221,40.7555556 C141.144706,41.0466667 141.002904,41.3676353 140.704375,41.4796011 C140.652132,41.4870655 140.584963,41.5019943 140.517794,41.5019943 Z" id="Path"></path>
                        <path d="M135.442794,90.4310541 C135.27114,90.4310541 135.106949,90.3564103 134.995,90.2145869 C134.808419,89.9682621 134.845735,89.6099715 135.092022,89.4233618 C138.562426,86.7361823 141.502941,79.7196581 141.144706,74.9947009 C141.122316,74.688661 141.353676,74.419943 141.667132,74.3900855 C141.973125,74.3602279 142.241801,74.5916239 142.271654,74.9125926 C142.652279,79.9510541 139.510257,87.4303704 135.786103,90.3116239 C135.689081,90.3937322 135.569669,90.4310541 135.442794,90.4310541 Z" id="Path"></path>
                        <path d="M66.8481985,93.7153846 C66.5869853,93.7153846 66.3630882,93.5362393 66.3033824,93.2749858 C65.4525735,89.4233618 65.3928676,85.8180627 65.3928676,81.5111111 C65.3928676,81.2050712 65.6466176,80.9512821 65.9526103,80.9512821 C66.2586029,80.9512821 66.5123529,81.2050712 66.5123529,81.5111111 C66.5123529,85.7508832 66.5795221,89.2890028 67.4004779,93.028661 C67.4676471,93.3272365 67.2810662,93.6332764 66.9676103,93.7004558 C66.9302941,93.7079202 66.8929779,93.7153846 66.8481985,93.7153846 Z" id="Path"></path>
                        <path d="M97.3056618,163.283476 C91.0663971,163.283476 85.3943382,162.858006 81.073125,162.007066 C80.9686397,161.984672 80.8641544,161.932422 80.7895221,161.850313 C80.3342647,161.394986 79.9387132,161.014302 79.5655515,160.641083 C78.1326103,159.245242 76.8937132,158.043476 75.8936397,156.311738 C75.5428676,155.707123 75.2518015,155.117436 74.9905882,154.490427 C72.6172794,148.638348 74.9532721,143.211738 77.2071691,137.956809 C77.4683824,137.359658 77.7221324,136.762507 77.9684191,136.165356 C80.1775368,130.873105 81.0358088,122.95339 80.9163971,117.452137 C80.9089338,117.146097 81.1552206,116.884843 81.4686765,116.877379 C81.7970588,116.899772 82.0358824,117.116239 82.0433456,117.429744 C82.1552941,122.632422 81.4313603,130.783533 79.0058088,136.605755 C78.7520588,137.202906 78.4983088,137.800057 78.2370956,138.404672 C76.0727574,143.443134 73.84125,148.645812 76.0279779,154.064957 C76.2668015,154.639715 76.5354779,155.199544 76.8563971,155.751909 C77.7818382,157.341823 78.91625,158.439088 80.3417279,159.834929 C80.6999632,160.178291 81.0656618,160.544046 81.4462868,160.924729 C91.5440441,162.880399 108.903529,162.462393 123.755368,159.887179 C124.053897,159.834929 124.352426,160.043932 124.404669,160.342507 C124.456912,160.648547 124.247941,160.939658 123.949412,160.991909 C115.292059,162.507179 105.768971,163.283476 97.3056618,163.283476 Z" id="Path"></path>
                        <path d="M123.859853,161.021766 C123.695662,161.021766 123.531471,160.947123 123.426985,160.820228 C123.232941,160.581368 123.262794,160.223077 123.509081,160.029003 C124.934559,158.857094 126.121213,157.43886 127.046654,155.811624 C127.666103,154.721823 128.14375,153.579772 128.479596,152.400399 C129.427426,149.004103 129.218456,144.973333 127.875074,140.755954 C127.173529,138.583818 126.106287,136.493789 125.083824,134.47094 C123.837463,132.03755 122.53886,129.507123 121.867169,126.775157 C121.479081,125.200171 121.158162,119.60188 121.54625,116.86245 C121.576103,116.586268 121.814926,116.362336 122.105993,116.362336 C122.411985,116.362336 122.665735,116.608661 122.665735,116.922165 L122.665735,116.92963 C122.665735,116.952023 122.665735,116.98188 122.658272,117.011738 C122.292574,119.594416 122.591103,125.043419 122.956801,126.506439 C123.59864,129.118974 124.859926,131.582222 126.076434,133.963362 C127.12875,136.023533 128.218382,138.150883 128.942316,140.412593 C130.352868,144.838974 130.561838,149.086211 129.561765,152.698974 C129.210993,153.96792 128.688566,155.199544 128.024338,156.363989 C127.039191,158.110655 125.748051,159.640855 124.218088,160.894872 C124.113603,160.97698 123.986728,161.021766 123.859853,161.021766 Z" id="Path"></path>
                        <path d="M101.835846,137.919487 C99.7685294,137.919487 97.7012132,137.770199 95.6338971,137.486553 C91.6336029,136.919259 86.655625,136.210142 84.7748897,131.537436 C84.0733456,129.783305 84.2076838,127.805242 84.3420221,125.886895 C84.3793382,125.282279 84.4241176,124.700057 84.4315809,124.140228 C84.4688971,121.565014 84.4688971,118.952479 84.4688971,116.407123 C84.4688971,116.101083 84.7226471,115.847293 85.0286397,115.847293 C85.3346324,115.847293 85.5883824,116.101083 85.5883824,116.407123 C85.5883824,118.952479 85.5883824,121.572479 85.5510662,124.155157 C85.5436029,124.729915 85.4913603,125.33453 85.4540441,125.954074 C85.3346324,127.745527 85.2002941,129.596695 85.8122794,131.104501 C87.4467279,135.180057 91.8798897,135.807066 95.7831618,136.35943 C100.037206,136.956581 104.336029,136.919259 108.575147,136.254929 C111.500735,135.792137 115.904044,135.097949 116.881728,132.097265 C117.157868,131.261254 117.202647,130.313276 117.217574,129.41755 C117.25489,127.782849 117.247426,126.118291 117.239963,124.513447 C117.2325,121.751624 117.217574,118.900228 117.434007,116.063761 C117.456397,115.757721 117.725074,115.526325 118.038529,115.541254 C118.344522,115.563647 118.575882,115.832365 118.560956,116.145869 C118.344522,118.93755 118.359449,121.766553 118.366912,124.505983 C118.374375,126.118291 118.381838,127.782849 118.344522,129.432479 C118.329596,130.410313 118.277353,131.447863 117.956434,132.440627 C116.769779,136.090712 111.761949,136.881937 108.769191,137.352194 C106.463051,137.732877 104.149449,137.919487 101.835846,137.919487 Z" id="Path"></path>
                        <path d="M100.850699,137.561197 C100.559632,137.561197 100.305882,137.329801 100.290956,137.031225 C100.238713,136.202678 99.6192647,135.142735 99.1341544,134.291795 L98.8729412,133.843932 C98.7162132,133.575214 98.8132353,133.231852 99.0819118,133.0751 C99.3505882,132.918348 99.6938971,133.015385 99.850625,133.284103 L100.104375,133.724501 C100.656654,134.679943 101.343272,135.859316 101.417904,136.956581 C101.432831,137.262621 101.201471,137.531339 100.888015,137.553732 C100.865625,137.561197 100.858162,137.561197 100.850699,137.561197 Z" id="Path"></path>
                        <path d="M101.141765,137.852308 C100.850699,137.852308 100.604412,137.620912 100.582022,137.329801 C100.477537,135.792137 101.970184,134.060399 102.865772,133.291567 C103.104596,133.090028 103.455368,133.112422 103.656875,133.351282 C103.858382,133.590142 103.835993,133.940969 103.597169,134.142507 C102.626949,134.971054 101.634338,136.351966 101.701507,137.255157 C101.723897,137.561197 101.492537,137.829915 101.179081,137.859772 C101.179081,137.852308 101.156691,137.852308 101.141765,137.852308 Z" id="Path"></path>
                        <path d="M108.970699,154.408319 C108.888603,154.408319 108.806507,154.39339 108.731875,154.356068 C103.798676,152.064501 96.3055882,150.168547 90.0887132,151.706211 C89.7901838,151.780855 89.4841912,151.601709 89.4020956,151.288205 C89.3274632,150.98963 89.5065809,150.68359 89.8125735,150.601481 C96.3130515,148.996638 104.089743,150.952308 109.202059,153.325983 C109.485662,153.452877 109.612537,153.788775 109.478199,154.072422 C109.38864,154.288889 109.179669,154.408319 108.970699,154.408319 Z" id="Path"></path>
                        <path d="M102.649338,214.257778 C94.7830882,214.257778 87.0810294,211.951282 81.1776103,207.547293 C78.1102206,205.255726 71.9978309,202.083362 73.2889706,198.672137 C77.9236397,186.475328 80.6104044,165.522792 80.2223162,161.812991 C80.1924632,161.506952 80.4088971,161.223305 80.7223529,161.193447 C81.0283456,161.16359 81.3119485,161.387521 81.3418015,161.693561 C81.7746691,165.79151 78.0131985,191.37943 74.9159559,198.731852 C73.5651103,201.941538 134.883051,202.77755 131.315625,196.156638 C127.61386,189.281937 124.001654,164.679316 123.30011,160.544046 C123.247868,160.238006 123.456838,159.946895 123.762831,159.894644 C124.06136,159.834929 124.412132,160.043932 124.412132,160.357436 C124.419596,164.895783 127.061581,184.960057 132.353015,196.597037 C135.592059,203.725527 123.195625,209.443248 115.665221,212.070712 C111.463419,213.541197 107.030257,214.257778 102.649338,214.257778 Z" id="Path"></path>
                        <path d="M102.932941,196.947863 C102.656801,196.947863 102.410515,196.746325 102.380662,196.462678 C102.231397,195.290769 101.425368,194.387578 100.783529,193.842678 C100.544706,193.64114 100.514853,193.290313 100.71636,193.051453 C100.917868,192.812593 101.26864,192.782735 101.507463,192.984274 C102.649338,193.954644 103.343419,195.111624 103.492684,196.328319 C103.53,196.634359 103.313566,196.918006 103.007574,196.955328 C102.985184,196.947863 102.962794,196.947863 102.932941,196.947863 Z" id="Path"></path>
                        <path d="M70.9380515,241.808832 C70.6619118,241.808832 70.415625,241.607293 70.3857721,241.323647 C70.3484559,241.017607 70.5574265,240.726496 70.8634191,240.689174 L74.0203676,240.256239 C77.9311029,239.718803 82.2821691,239.114188 86.8422059,238.479715 C96.3429044,237.151054 110.291691,235.165527 121.688051,233.217322 C130.509596,231.709516 136.465257,230.477892 139.890882,229.447806 C144.809154,227.984786 150.025956,226.656125 154.869596,226.880057 C155.175588,226.894986 155.421875,227.156239 155.407593,227.469744 C155.392022,227.783248 155.108419,228.029573 154.817353,228.007179 C150.152831,227.798177 145.040515,229.089516 140.211801,230.522678 C136.741397,231.567692 130.740956,232.814245 121.874632,234.329516 C110.463346,236.285185 96.4996324,238.270712 86.9914706,239.599373 C82.4388971,240.241311 78.0878309,240.838462 74.1696324,241.375897 L71.0126838,241.808832 C70.9977574,241.808832 70.9679044,241.808832 70.9380515,241.808832 Z" id="Path"></path>
                        <path d="M45.8839706,244.51094 C38.7938971,244.51094 31.4724632,243.42114 27.0766176,239.688946 C25.8899632,238.681254 24.9495956,237.50188 24.3002941,236.195613 C23.1211029,233.799544 22.8524265,231.761766 23.4121691,229.373162 C23.4868015,229.074587 23.7853309,228.887977 24.0913235,228.947692 C24.3898529,229.022336 24.5764338,229.320912 24.5092647,229.626952 C24.0092279,231.739373 24.2555147,233.553219 25.3152941,235.688034 C25.8899632,236.859943 26.7407721,237.912422 27.8154779,238.823077 C35.2040809,245.093162 52.1605515,243.361425 59.1013603,242.323875 C61.5418382,241.95812 65.3704779,241.428148 70.2290441,240.756353 L70.6917647,240.689174 C70.9977574,240.651852 71.2888235,240.860855 71.3261397,241.166895 C71.3634559,241.472934 71.1544853,241.764046 70.8484926,241.801368 L70.3857721,241.868547 C65.5272059,242.540342 61.6985662,243.055385 59.2655515,243.42114 C55.6309559,243.980969 50.8171691,244.51094 45.8839706,244.51094 Z" id="Path"></path>
                        <path d="M41.3911029,213.981595 C41.1821324,213.981595 40.9731618,213.862165 40.8761397,213.653162 C40.7492647,213.369516 40.8686765,213.033618 41.1522794,212.906724 C42.2419118,212.399145 43.3091544,211.91396 44.3614706,211.428775 C48.0259191,209.734359 51.4888603,208.13698 55.3249632,206.547066 C55.8623162,206.330598 56.7877574,205.972308 57.9594853,205.509516 C62.4747426,203.755385 71.8634926,200.127692 73.2889706,198.664672 C73.5054044,198.448205 73.8561765,198.433276 74.0875368,198.657208 C74.3039706,198.873675 74.3188971,199.224501 74.095,199.455897 C72.6322059,200.963704 65.2062868,203.912137 58.3625,206.561994 C57.2056985,207.009858 56.2877206,207.368148 55.7503676,207.59208 C51.9291912,209.17453 48.4811765,210.764444 44.8241912,212.451396 C43.771875,212.936581 42.7046324,213.429231 41.615,213.929345 C41.5478309,213.966667 41.4731985,213.981595 41.3911029,213.981595 Z" id="Path"></path>
                        <path d="M157.474265,228.134074 C157.011544,228.134074 156.526434,228.081823 156.086103,228.037037 C155.630846,227.984786 155.168125,227.94 154.951691,227.977322 C154.645699,228.044501 154.347169,227.835499 154.294926,227.529459 C154.235221,227.230883 154.436728,226.924843 154.742721,226.872593 C155.123346,226.797949 155.623382,226.857664 156.205515,226.909915 C157.019007,226.999487 158.250441,227.126382 158.586287,226.71584 C158.750478,226.514302 158.743015,226.081368 158.563897,225.499145 C158.198199,224.319772 155.951765,223.827123 153.974007,223.774872 C153.809816,223.767407 153.653088,223.692764 153.556066,223.573333 C151.391728,220.938405 147.667574,221.334017 144.055368,221.707236 L143.226949,221.789345 C137.136949,222.401425 133.688934,222.140171 128.158676,218.990199 C123.83,216.519487 119.874485,218.967806 115.695074,221.565413 C114.553199,222.27453 113.366544,223.00604 112.209743,223.603191 C105.000257,227.312991 96.4623162,226.335157 88.9319118,225.469288 L88.2378309,225.387179 C87.416875,225.290142 86.5959191,225.193105 85.7600368,225.096068 L85.6555515,225.08114 C82.3717279,224.670598 79.0132721,224.200342 75.7742279,223.73755 C71.5351103,223.132934 67.1541912,222.51339 62.9374632,222.050598 L62.6538603,222.020741 C57.220625,221.42359 45.9138235,220.169573 41.3164706,223.894302 C41.0701838,224.088376 40.7194118,224.051054 40.5253676,223.812194 C40.3313235,223.565869 40.3686397,223.215043 40.6074632,223.020969 C45.5630515,219.005128 56.7504412,220.236752 62.7732721,220.901083 L63.056875,220.93094 C67.2959926,221.393732 71.684375,222.013276 75.9309559,222.617892 C79.1625368,223.073219 82.5135294,223.558405 85.7898897,223.954017 L85.894375,223.968946 C86.7153309,224.065983 87.5362868,224.170484 88.3647059,224.260057 L89.0587868,224.342165 C96.7906985,225.230427 104.791287,226.141083 111.694779,222.588034 C112.821728,222.013276 113.926287,221.326553 115.105478,220.595043 C119.381912,217.945185 123.815074,215.198291 128.718419,218.0049 C133.98,221.013048 137.27875,221.244444 143.122463,220.669687 L143.943419,220.587578 C147.585478,220.214359 151.697721,219.781425 154.25761,222.662678 C156.108493,222.744786 159.026618,223.200114 159.63114,225.170712 C159.937132,226.163476 159.877426,226.90245 159.444559,227.424957 C158.996765,227.999715 158.257904,228.134074 157.474265,228.134074 Z" id="Path"></path>
                        <path d="M155.138272,244.533333 C148.137757,244.533333 141.450699,243.794359 134.442721,243.010598 C132.68886,242.816524 130.920074,242.62245 129.13636,242.43584 C127.725809,242.286553 126.352574,242.144729 125.016654,241.995442 L122.725441,241.749117 C114.762169,240.890712 108.007941,240.248775 99.5819485,240.345812 C93.2456618,240.420456 73.4307721,241.607293 70.9977574,241.793903 C70.8932721,241.808832 70.8186397,241.808832 70.7663971,241.808832 C70.4604044,241.808832 70.2066544,241.555043 70.2066544,241.249003 C70.2066544,240.942963 70.4604044,240.689174 70.7663971,240.689174 L70.8410294,240.681709 C73.3486765,240.480171 93.2083456,239.285869 99.5744853,239.218689 C108.052721,239.114188 114.851728,239.76359 122.844853,240.629459 L125.143529,240.875783 C126.479449,241.025071 127.852684,241.166895 129.263235,241.316182 C131.054412,241.502792 132.823199,241.696866 134.577059,241.89094 C142.853787,242.80906 150.675257,243.682393 159.063934,243.324103 L159.869963,243.294245 C166.571949,243.018063 174.176985,242.697094 179.550515,238.166211 C180.013235,237.778063 180.446103,237.337664 180.826728,236.867407 C181.020772,236.628547 181.379007,236.591225 181.617831,236.785299 C181.856654,236.979373 181.893971,237.337664 181.699926,237.576524 C181.274522,238.099031 180.796875,238.576752 180.274449,239.017151 C174.60239,243.794359 166.803309,244.115328 159.914743,244.398974 L159.108713,244.428832 C157.757868,244.51094 156.436875,244.533333 155.138272,244.533333 Z" id="Path"></path>
                        <path d="M181.244669,237.792991 C181.125257,237.792991 180.990919,237.75567 180.886434,237.673561 C180.640147,237.479487 180.610294,237.121197 180.804338,236.882336 C182.44625,234.852023 183.200037,232.127521 182.923897,229.201481 C182.894044,228.895442 183.117941,228.611795 183.431397,228.589402 C183.729926,228.567009 184.020993,228.783476 184.043382,229.09698 C184.341912,232.321595 183.506029,235.337208 181.677537,237.591453 C181.565588,237.718348 181.40886,237.792991 181.244669,237.792991 Z" id="Path"></path>
                        <path d="M154.891985,207.435328 C154.824816,207.435328 154.76511,207.427863 154.705404,207.40547 C154.600919,207.368148 154.496434,207.315897 154.384485,207.263647 C149.809522,205.375157 144.398676,202.837265 139.166949,200.39641 C136.465257,199.134929 133.912831,197.933162 131.606691,196.895613 C131.323088,196.768718 131.196213,196.432821 131.323088,196.156638 C131.449963,195.872991 131.785809,195.746097 132.061949,195.872991 C134.375551,196.918006 136.935441,198.112308 139.637132,199.381254 C144.853934,201.814644 150.24239,204.345071 154.80989,206.226097 C154.914375,206.278348 154.996471,206.308205 155.078566,206.338063 C155.369632,206.442564 155.518897,206.770997 155.414412,207.054644 C155.339779,207.28604 155.123346,207.435328 154.891985,207.435328 Z" id="Path"></path>
                        <path d="M151.76489,222.065527 C151.727574,222.065527 151.682794,222.065527 151.645478,222.065527 C151.339485,222.058063 151.085735,221.804274 151.093199,221.498234 C151.100662,221.192194 151.346949,220.945869 151.652941,220.945869 C151.690257,220.953333 151.727574,220.945869 151.76489,220.945869 C152.48136,220.945869 153.279926,220.848832 154.04864,220.759259 C154.653162,220.684615 155.265147,220.609972 155.854743,220.580114 C157.078713,220.512934 158.325074,220.542792 159.526654,220.565185 C160.153566,220.580114 160.780478,220.587578 161.399926,220.587578 C161.705919,220.587578 161.959669,220.841368 161.959669,221.147407 C161.959669,221.453447 161.705919,221.707236 161.399926,221.707236 C160.773015,221.707236 160.13864,221.692308 159.504265,221.684843 C158.325074,221.66245 157.09364,221.632593 155.914449,221.699772 C155.362169,221.72963 154.7875,221.796809 154.182978,221.871453 C153.376949,221.96849 152.555993,222.065527 151.76489,222.065527 Z" id="Path"></path>
                        <path d="M86.6033824,240.129345 C86.4914338,240.129345 86.3720221,240.099487 86.275,240.024843 C86.02125,239.845698 85.9690074,239.494872 86.148125,239.241083 C86.2451471,239.099259 86.3347059,238.957436 86.4168015,238.793219 C87.9542279,235.732821 87.5736029,226.947236 85.3495588,224.939316 C85.1181985,224.737778 85.0958088,224.379487 85.3122426,224.148091 C85.5286765,223.916695 85.8719853,223.894302 86.1108088,224.110769 C88.7751838,226.506838 89.2379044,235.717892 87.4392647,239.285869 C87.3347794,239.502336 87.2079044,239.711339 87.0735662,239.897949 C86.9541544,240.047236 86.7825,240.129345 86.6033824,240.129345 Z" id="Path"></path>
                        <path d="M122.79261,241.5849 C122.598566,241.5849 122.411985,241.487863 122.3075,241.308718 C121.06114,239.181368 121.165625,235.725356 121.225331,233.881652 L121.225331,233.754758 C121.232794,233.448718 121.501471,233.202393 121.8,233.209858 C122.105993,233.217322 122.352279,233.478575 122.344816,233.784615 L122.337353,233.91151 C122.28511,235.658177 122.188088,238.890256 123.277721,240.741425 C123.434449,241.010142 123.34489,241.353504 123.076213,241.517721 C122.979191,241.562507 122.882169,241.5849 122.79261,241.5849 Z" id="Path"></path>
                        <path d="M178.505662,230.694359 C176.468199,230.694359 175.147206,228.007179 174.408346,226.499373 C174.318787,226.312764 174.229228,226.141083 174.154596,225.991795 C172.266397,222.311852 169.258713,219.923248 166.079375,217.385356 C165.347978,216.79567 164.616581,216.213447 163.877721,215.601368 C160.549118,212.83208 157.295147,209.995613 154.220294,207.159145 C153.347096,206.360456 152.473897,205.554302 151.623088,204.740684 C145.592794,199.030427 140.987978,190.991282 138.047463,185.437778 C132.972463,175.868433 128.733346,164.664387 127.001875,156.199772 C126.934706,155.901197 127.12875,155.595157 127.442206,155.542906 C127.748199,155.475726 128.046728,155.669801 128.098971,155.983305 C129.815515,164.350883 134.00239,175.435499 139.040074,184.922735 C141.950735,190.40906 146.488382,198.343704 152.391801,203.941994 C153.250074,204.748148 154.100882,205.554302 154.974081,206.345527 C158.041471,209.167066 161.280515,211.988604 164.601654,214.742963 C165.325588,215.347578 166.056985,215.929801 166.788382,216.512023 C170.064743,219.117094 173.161985,221.587806 175.154669,225.484217 C175.236765,225.640969 175.31886,225.820114 175.415882,226.014188 C176.139816,227.477208 177.341397,229.940456 178.848971,229.537379 C178.960919,229.507521 179.020625,229.447806 179.065404,229.350769 C179.520662,228.313219 177.886213,224.969174 177.184669,223.543476 C176.998088,223.162792 176.833897,222.834359 176.729412,222.58057 C176.617463,222.326781 176.699559,222.03567 176.923456,221.878917 C177.147353,221.722165 177.453346,221.759487 177.639926,221.953561 C177.975772,222.296923 178.431029,222.856752 179.013162,223.565869 C180.356544,225.193105 182.1925,227.424957 183.834412,228.664046 C184.871801,229.447806 185.461397,229.552308 185.782316,229.500057 C186.551029,229.380627 186.662978,229.074587 186.692831,228.970085 C187.252574,227.372707 183.050772,222.797037 181.468566,221.072764 C180.893897,220.438291 180.498346,220.020285 180.334154,219.788889 C180.177426,219.572422 180.207279,219.273846 180.39386,219.079772 C180.580441,218.885698 180.871507,218.848376 181.102868,218.990199 C181.774559,219.41567 182.72239,220.251681 183.812022,221.229516 C185.879338,223.073219 189.006434,225.849972 190.461765,225.611111 C190.708051,225.573789 190.879706,225.43943 191.014044,225.178177 C192.073824,223.282222 187.700368,219.900855 185.088235,217.88547 C184.282206,217.265926 183.588125,216.72849 183.140331,216.310484 C182.93136,216.11641 182.901507,215.795442 183.065699,215.564046 C185.588272,212.145356 185.894265,208.010085 185.297206,206.173846 C185.118088,205.606553 184.879265,205.352764 184.722537,205.300513 C184.103088,205.143761 183.595588,205.143761 183.244816,205.300513 C182.602978,205.599088 182.44625,206.67396 182.282059,207.808547 C182.020846,209.644786 181.66261,212.137892 178.602684,212.137892 C178.572831,212.137892 178.542978,212.137892 178.513125,212.137892 C175.915919,212.10057 174.788971,210.719658 174.594926,209.443248 C174.356103,207.875726 175.423346,205.875271 177.90114,205.069117 C178.341471,204.927293 178.91614,204.889972 179.528125,204.837721 C180.490882,204.770541 181.587978,204.695897 182.117868,204.233105 C182.207426,204.143533 182.289522,204.046496 182.334301,203.941994 C182.565662,203.471738 182.461176,203.270199 182.431324,203.210484 C182.17011,202.680513 180.849118,202.411795 180.065478,202.255043 L179.781875,202.195328 C177.438419,201.717607 175.789044,202.441652 173.878456,203.277664 C172.863456,203.725527 171.818603,204.180855 170.587169,204.501823 C166.012206,205.651339 164.026985,202.493903 162.444779,199.963476 L162.064154,199.351396 C158.06386,193.111168 148.764669,177.600171 145.562941,170.994188 C141.801471,163.238689 141.159632,159.125812 139.868493,150.937379 C139.226654,146.824501 138.420625,141.703932 136.965294,134.567977 C135.27114,126.192934 133.532206,120.52 125.188309,118.198575 C124.546471,118.01943 123.546397,117.810427 122.374669,117.556638 L121.680588,117.399886 C120.516324,117.138632 119.202794,116.847521 117.844485,116.496695 C112.970993,115.257607 106.485441,113.137721 106.485441,109.084558 C106.485441,108.017151 106.433199,106.964672 106.388419,105.986838 L106.313787,104.807464 C106.261544,104.090883 106.216765,103.381766 106.171985,102.67265 C106.149596,102.29943 106.112279,101.948604 106.082426,101.6351 C105.925699,100.112365 105.79136,98.7911681 108.127353,98.1268376 C110.493199,97.4550427 113.545662,96.4846724 116.262279,94.7753276 C119.740147,92.6031909 122.367206,89.2666097 124.516618,84.2803989 C125.509228,81.9813675 126.263015,79.6226211 126.807831,77.0698006 C127.733272,72.665812 127.942243,68.3290028 128.128824,64.1265527 C128.158676,63.1561823 128.210919,62.1634188 128.255699,61.1706553 C128.360184,58.9089459 128.494522,57.0055271 128.67364,55.1991453 C128.703493,54.8931054 128.979632,54.6617094 129.293088,54.691567 C129.599081,54.7214245 129.830441,54.9976068 129.800588,55.3111111 C129.621471,57.1025641 129.494596,58.9835897 129.382647,61.222906 C129.330404,62.2231339 129.285625,63.2009687 129.255772,64.171339 C129.061728,68.4185755 128.867684,72.8076353 127.91239,77.3011966 C127.352647,79.9361254 126.583934,82.3545869 125.561471,84.7207977 C123.315037,89.9234758 120.55364,93.4242735 116.866801,95.7307692 C114.023309,97.5147578 110.86636,98.5224501 108.433346,99.2091738 C107.007868,99.6197151 107.037721,99.9780057 107.201912,101.51567 C107.231765,101.844103 107.276544,102.209858 107.298934,102.60547 C107.33625,103.314587 107.388493,104.023704 107.425809,104.732821 L107.500441,105.919658 C107.552684,106.919886 107.597463,107.987293 107.597463,109.077094 C107.597463,111.495556 111.135037,113.622906 118.105699,115.39943 C119.441618,115.742792 120.755147,116.033903 121.904485,116.295157 L122.591103,116.444444 C123.770294,116.698234 124.792757,116.914701 125.456985,117.101311 C134.397941,119.586952 136.315993,125.812251 138.032537,134.321652 C139.480404,141.48 140.286434,146.615499 140.943199,150.73584 C142.211949,158.819772 142.846324,162.872934 146.540625,170.48661 C149.727426,177.062735 158.996765,192.506553 162.982132,198.731852 L163.370221,199.351396 C164.907647,201.814644 166.504779,204.352536 170.28864,203.397094 C171.430515,203.105983 172.430588,202.665584 173.408272,202.240114 C175.415882,201.359316 177.311544,200.530769 179.990846,201.083134 L180.266985,201.142849 C181.386471,201.374245 182.908971,201.672821 183.416471,202.695442 C183.610515,203.105983 183.632904,203.553846 183.476176,204.039031 C183.916507,203.986781 184.416544,204.039031 184.98375,204.180855 C185.424081,204.322678 185.968897,204.703362 186.319669,205.793162 C187.058529,208.114587 186.565956,212.324501 184.215037,215.773048 C184.610588,216.108946 185.133015,216.504558 185.715147,216.952422 C188.984044,219.475385 193.454522,222.931396 191.932022,225.678291 C191.633493,226.230655 191.155846,226.574017 190.581176,226.671054 C189.27511,226.880057 187.54364,225.820114 185.759926,224.386952 C187.200331,226.312764 188.110846,228.074359 187.692904,229.28359 C187.528713,229.753846 187.080919,230.365926 185.894265,230.552536 C185.103162,230.671966 184.192647,230.336068 183.095551,229.500057 C181.864118,228.581937 180.580441,227.178632 179.438566,225.842507 C180.072941,227.439886 180.423713,228.850655 180.035625,229.738917 C179.856507,230.149459 179.520662,230.433105 179.087794,230.552536 C178.931066,230.657037 178.714632,230.694359 178.505662,230.694359 Z M181.602904,205.711054 C180.975993,205.875271 180.281912,205.920057 179.640074,205.964843 C179.095257,206.002165 178.580294,206.039487 178.281765,206.136524 C176.415956,206.74114 175.580074,208.196695 175.736801,209.271567 C175.893529,210.33151 176.953309,210.973447 178.557904,211.003305 C180.580441,211.040627 180.893897,209.749288 181.19989,207.636866 C181.296912,206.98 181.393934,206.300741 181.602904,205.711054 Z" id="Shape"></path>
                        <path d="M25.0615441,230.694359 C24.8600368,230.694359 24.6361397,230.664501 24.4197059,230.604786 C23.9495221,230.477892 23.6062132,230.156923 23.4270956,229.701595 C23.4196324,229.679202 23.4121691,229.649345 23.4047059,229.626952 C23.1061765,228.731225 23.4569485,227.387635 24.0614706,225.872365 C21.6583088,228.686439 19.3969485,230.873504 17.5983088,230.597322 C16.4116544,230.410712 15.9638603,229.806097 15.7996691,229.328376 C15.3742647,228.111681 16.2847794,226.350085 17.7326471,224.424274 C15.9489338,225.849972 14.21,226.924843 12.9039338,226.708376 C12.3292647,226.611339 11.8590809,226.267977 11.5530882,225.715613 C10.023125,222.961254 14.5085294,219.505242 17.7848897,216.982279 C18.3595588,216.534416 18.8745221,216.131339 19.2775368,215.81037 C16.9415441,212.369288 16.4340441,208.159373 17.1729044,205.837949 C17.5236765,204.748148 18.0759559,204.36 18.4789706,204.233105 C19.0760294,204.083818 19.5835294,204.039031 20.0238603,204.083818 C19.8596691,203.583704 19.8745956,203.13584 20.0761029,202.732764 C20.5836029,201.702678 22.1135662,201.396638 23.218125,201.180171 L23.4942647,201.120456 C26.1884926,200.568091 28.0841544,201.396638 30.0768382,202.277436 C31.0545221,202.71037 32.0545956,203.150769 33.2039338,203.44188 C36.9728676,204.397322 38.5625368,201.851966 40.0999632,199.403647 C40.2268382,199.194644 40.3611765,198.978177 40.4955147,198.776638 C44.4808824,192.566268 53.7427574,177.12245 56.9444853,170.531396 C60.0491912,164.119487 61.9224632,157.095499 63.0046324,147.75755 L63.1688235,146.331852 C63.9375368,139.681083 64.9749265,130.581994 67.9826103,124.744843 C70.6022059,119.661595 75.0055147,118.527009 79.6625735,117.332707 C80.1999265,117.190883 80.7522059,117.056524 81.2970221,116.899772 C82.0731985,116.690769 82.9016176,116.459373 83.7300368,116.183191 C84.0882721,116.063761 84.4465074,115.929402 84.7972794,115.802507 C89.3274632,114.05584 92.0440809,111.323875 92.7306985,109.37567 C92.8277206,109.092023 92.9769853,107.621538 92.9769853,105.240399 C92.9769853,102.217322 92.7157721,100.619943 92.5217279,100.231795 C83.2225368,97.9476923 75.9533456,91.1401709 73.0874632,81.9962963 C72.6695221,80.6750997 72.3112868,79.2270085 72.0276838,77.6968091 C71.1171691,72.9046724 70.8634191,67.5676353 70.7216176,62.5217094 L70.6917647,61.3647293 C70.669375,60.3868946 70.6395221,59.4389174 70.6171324,58.5282621 C70.6096691,57.871396 70.5947426,57.2518519 70.5574265,56.6472365 C70.5425,56.3411966 70.7887868,56.079943 71.0947794,56.0575499 C71.4007721,56.0202279 71.6619853,56.2889459 71.684375,56.5949858 C71.7067647,57.2070655 71.7216912,57.8415385 71.7440809,58.4984046 C71.7739338,59.4015954 71.8037868,60.357037 71.8261765,61.3348718 L71.8485662,62.4918519 C71.9903676,67.4929915 72.2366544,72.7703134 73.1322426,77.4878063 C73.4083824,78.9806838 73.7516912,80.3765242 74.1621691,81.6603989 C76.9235662,90.4683761 83.9390074,97.0071795 92.9247426,99.1718519 C93.3128309,99.2763533 94.1039338,99.4778917 94.1039338,105.240399 C94.1039338,106.92735 94.0218382,109.129345 93.7979412,109.756353 C93.0292279,111.943419 90.0737868,114.988889 85.2002941,116.86245 C84.8345956,117.004274 84.4688971,117.131168 84.0957353,117.258063 C83.2374632,117.541709 82.3941176,117.78057 81.6030147,117.989573 C81.0432721,118.13886 80.4984559,118.280684 79.9461765,118.422507 C75.3413603,119.60188 71.3709191,120.624501 68.9826838,125.259886 C66.0645588,130.910427 65.0420956,139.89755 64.2808456,146.458746 L64.1166544,147.891909 C63.0195588,157.356752 61.1089706,164.492707 57.9520221,171.03151 C54.7353676,177.659886 45.4287132,193.155954 41.4433456,199.388718 L41.0552574,200.008262 C39.4655882,202.538689 37.4952941,205.688661 32.9277941,204.539145 C31.6888971,204.218177 30.6365809,203.762849 29.6290441,203.314986 C27.7184559,202.478974 26.0690809,201.747464 23.725625,202.23265 L23.4420221,202.292365 C22.6583824,202.449117 21.3373897,202.717835 21.0761765,203.247806 C20.9940809,203.419487 21.0239338,203.665812 21.1731985,203.971852 C21.2627574,204.143533 21.3896324,204.277892 21.56875,204.397322 C22.1434191,204.748148 23.1211029,204.822792 23.9943015,204.875043 C24.6062868,204.912365 25.1809559,204.957151 25.6138235,205.09151 C28.0916176,205.890199 29.1588603,207.905584 28.9200368,209.465641 C28.7334559,210.734587 27.5990441,212.115499 25.0093015,212.152821 C21.8747426,212.234929 21.5015809,209.674644 21.2329044,207.823476 C21.0761765,206.770997 20.9418382,205.770769 20.4119485,205.39755 C20.0761029,205.158689 19.53875,205.136296 18.7775,205.322906 C18.6580882,205.360228 18.4192647,205.621481 18.2401471,206.196239 C17.6430882,208.039943 17.9565441,212.175214 20.4716544,215.578974 C20.6433088,215.81037 20.6134559,216.131339 20.3970221,216.325413 C19.9492279,216.743419 19.2626103,217.27339 18.4565809,217.892934 C16.0161029,219.77396 11.4560662,223.289687 12.5158456,225.193105 C12.6576471,225.446895 12.8367647,225.581254 13.068125,225.62604 C14.5309191,225.879829 17.6580147,223.080684 19.7253309,221.244444 C20.8149632,220.26661 21.7627941,219.430598 22.4344853,219.005128 C22.6658456,218.85584 22.9569118,218.900627 23.1434926,219.094701 C23.3300735,219.288775 23.345,219.579886 23.2031985,219.803818 C23.0390074,220.042678 22.6583824,220.460684 22.0687868,221.102621 C20.4865809,222.81943 16.2922426,227.402564 16.8445221,228.999943 C16.874375,229.09698 16.9863235,229.410484 17.7550368,229.529915 C19.4268015,229.798632 22.8524265,225.618575 24.5092647,223.603191 C25.0988603,222.88661 25.5615809,222.326781 25.9048897,221.975954 C26.0914706,221.78188 26.39,221.744558 26.6213603,221.901311 C26.8527206,222.058063 26.9273529,222.349174 26.8154044,222.595499 C26.7034559,222.849288 26.5318015,223.200114 26.3377574,223.595726 C25.5988971,225.103533 24.0614706,228.24604 24.4644853,229.320912 C24.4719485,229.33584 24.4719485,229.343305 24.4794118,229.358234 C24.5316544,229.462735 24.5913603,229.52245 24.7107721,229.544843 C26.2034191,229.962849 27.4124632,227.484672 28.1438603,226.014188 C28.2408824,225.827578 28.3229779,225.648433 28.4050735,225.491681 C30.4201471,221.587806 33.5099265,219.10963 36.8012132,216.497094 C37.5176838,215.929801 38.2416176,215.347578 38.9580882,214.750427 L39.1446691,214.593675 C39.7790441,214.063704 40.3984926,213.541197 41.0254044,213.003761 C44.5928309,209.980684 47.9960662,206.935214 51.1604779,203.941994 C57.0713603,198.343704 61.6164706,190.40906 64.5271324,184.922735 C67.1467279,179.966382 73.5054044,167.224672 75.8190074,155.945983 C75.8861765,155.647407 76.1772426,155.438405 76.4906985,155.505584 C76.7892279,155.572764 76.9907353,155.863875 76.9310294,156.16245 C74.5875735,167.582963 68.1766544,180.451567 65.5272059,185.445242 C62.5866912,190.998746 57.9744118,199.045356 51.9366544,204.755613 C48.7573162,207.763761 45.3391544,210.82416 41.7568015,213.854701 C41.1298897,214.392137 40.5029779,214.914644 39.8686029,215.45208 L39.6820221,215.608832 C38.9580882,216.213447 38.2266912,216.788205 37.5102206,217.370427 C34.3234191,219.915783 31.3082721,222.304387 29.4126103,225.999259 C29.3379779,226.148547 29.2484191,226.320228 29.1588603,226.499373 C28.4125368,227.999715 27.0915441,230.694359 25.0615441,230.694359 Z M21.9568382,205.718519 C22.1658088,206.308205 22.2628309,206.98 22.3523897,207.651795 C22.6509191,209.764217 22.9419853,211.048091 25.0018382,211.018234 C26.6064338,210.99584 27.6662132,210.338974 27.8229412,209.29396 C27.9871324,208.219088 27.1437868,206.763533 25.2779779,206.158917 C24.9794485,206.06188 24.4644853,206.032023 23.9271324,205.987236 C23.2852941,205.927521 22.5912132,205.882735 21.9568382,205.718519 Z" id="Shape"></path>
                        <path d="M201.910368,261.664103 L1.22397059,261.664103 C0.985147059,261.664103 0.776176471,261.514815 0.694080882,261.290883 C0.611985294,261.059487 0.686617647,260.820627 0.873198529,260.663875 C11.3217279,252.191795 26.9124265,238.957436 27.0691544,238.830541 C27.3079779,238.629003 27.6662132,238.65886 27.8602574,238.897721 C28.0617647,239.136581 28.0319118,239.494872 27.7930882,239.688946 C27.6438235,239.81584 13.2173897,252.057436 2.80617647,260.53698 L201.902904,260.53698 C202.208897,260.53698 202.462808,260.790769 202.462808,261.096809 C202.47011,261.410313 202.21636,261.664103 201.910368,261.664103 Z" id="Path"></path>
                        <path d="M201.910368,261.664103 C201.73125,261.664103 201.559596,261.581994 201.45511,261.425242 C198.313088,256.983932 180.998382,237.800456 180.834191,237.621311 C180.737169,237.516809 180.684926,237.38245 180.684926,237.240627 C180.684926,236.934587 180.938676,236.673333 181.244669,236.673333 C181.438713,236.673333 181.602904,236.77037 181.70739,236.919658 C182.737316,238.054245 199.268382,256.416638 202.365625,260.783305 C202.544743,261.037094 202.485037,261.38792 202.23875,261.567066 C202.126801,261.626781 202.014853,261.664103 201.910368,261.664103 Z" id="Path"></path>
                        <path d="M71.2067279,58.6252991 C70.923125,58.6252991 70.6768382,58.4162963 70.6469853,58.1177208 C70.6171324,57.8116809 70.8410294,57.5280342 71.1544853,57.4981766 C81.0358088,56.4830199 93.9994485,47.9810826 99.4550735,41.0018803 C99.9998897,40.2852991 100.425294,39.6732194 100.731287,39.1283191 C100.888015,38.8596011 101.231324,38.7625641 101.5,38.9193162 C101.768676,39.0760684 101.865699,39.4194302 101.708971,39.6881481 C101.373125,40.2778348 100.925331,40.9347009 100.343199,41.6960684 C94.7383088,48.8618803 81.4313603,57.5728205 71.2738971,58.6252991 C71.2365809,58.6252991 71.2216544,58.6252991 71.2067279,58.6252991 Z" id="Path"></path>
                    </g>
                </g>
            </g>
        </g>
    </g>
</svg>