<?xml version="1.0" encoding="UTF-8"?>
<svg width="526px" height="451px" viewBox="0 0 526 451" version="1.1" xmlns="http://www.w3.org/2000/svg" xmlns:xlink="http://www.w3.org/1999/xlink">
    <!-- Generator: Sketch 61 (89581) - https://sketch.com -->
    <title>girl-meditating-2</title>
    <desc>Created with Sketch.</desc>
    <g id="Home" stroke="none" stroke-width="1" fill="none" fill-rule="evenodd">
        <g id="Home---Desktop-Banner-2" transform="translate(-474.000000, -281.000000)">
            <g id="girl-meditating-2" transform="translate(474.000000, 281.000000)">
                <path d="M494.848065,263.635099 C494.848065,263.635099 548.978531,203.346623 514.530868,134.947687 C480.083205,66.5487524 413.646852,72.3450855 360.740358,86.2628969 C307.833865,100.169689 238.938539,93.2162927 186.032045,38.735169 C133.125552,-15.7569744 71.6071424,-4.1643081 48.2303674,21.3461695 C24.8535924,46.8456275 18.7006488,99.0236455 44.5363959,151.190644 C70.372143,203.357642 55.6072837,236.978578 33.4655081,262.478036 C11.3237325,287.977494 -105.383714,423.717479 285.030482,433.800454 C435.612199,437.690388 589.127039,384.840172 494.848065,263.635099 Z" id="Path" fill="#C8ABCE"></path>
                <g id="XMLID_2_" transform="translate(107.000000, 64.000000)" fill-rule="nonzero">
                    <g id="Group" transform="translate(1.102941, 1.102564)">
                        <path d="M104.261029,91.1930769 C102.529412,89.1423077 99.7389706,86.8489744 96.9264706,87.6869231 C90.375,89.6605128 90.2316176,99.5835897 92.1286765,104.787692 C93.2647059,107.941026 95.2941176,110.697436 97.875,112.593846 C99.8602941,114.049231 104.139706,115.515641 106.180147,113.486923 C106.588235,115.67 107.095588,117.753846 107.724265,119.749487 C112.069853,133.575641 123.253676,143.090769 136.047794,146.177949 C136.841912,146.387436 137.150735,150.522051 137.150735,154.336923 C127.676471,155.637949 117.694853,155.05359 108.772059,151.415128 C104.338235,149.617949 100.113971,147.048974 96.6727941,143.708205 C93.0441176,140.202051 90.8272059,135.527179 87.0992647,132.098205 C81.1213235,126.59641 72.3088235,125.052821 68.2830882,117.367949 C64.8639706,110.818718 66.4963235,102.924359 68.0073529,96.0774359 C69.8272059,87.874359 74.7573529,80.1564103 77.1948529,72.1187179 C82.8419118,53.3089744 86.1066176,33.0107692 100.665441,18.8317949 C113.779412,6.07512821 138.606618,-4.53153846 156.319853,2.74538462 C173.735294,4.35512821 190.654412,11.2241026 200.294118,26.4615385 C209.360294,40.7838462 211.158088,58.7666667 217.952206,73.7174359 C225.838235,91.0828205 229.356618,109.109744 221.128676,123.123333 C216.992647,130.190769 208.003676,135.19641 200.492647,137.754359 C196.566176,139.077436 192.419118,139.937436 188.900735,142.109487 C185.625,144.127179 183.132353,147.148205 180.308824,149.750256 C176.084559,153.609231 171.121324,154.866154 165.5625,155.417436 C163.863971,155.582821 157.367647,155.450513 157.367647,155.417436 L157.058824,155.428462 C156.948529,153.796667 156.838235,152.153846 156.75,150.533077 C156.5625,147.214359 155.669118,145.626667 159.033088,144.667436 C163.290441,143.465641 167.503676,141.988205 171.275735,139.628718 C177.286765,135.868974 181.025735,130.157692 183.794118,123.751795 C185.382353,120.080256 186.463235,116.496923 187.224265,112.946667 C197.25,119.771538 204.507353,105.493333 204.286765,97.1248718 C204.176471,93.3871795 202.411765,89.2415385 198.275735,88.9438462 C194.834559,88.6792308 191.117647,90.884359 189.286765,93.6958974 L189.198529,93.6958974 C189.242647,92.2625641 189.319853,90.8071795 189.386029,89.3297436 C188.073529,80.8620513 172.224265,68.0502564 174.242647,53.9925641 C162.948529,71.2697436 133.455882,79.6712821 116.040441,83.2325641 C110.547794,84.3682051 106.268382,84.9966667 104.117647,85.294359 C104.161765,87.1797436 104.216912,89.1533333 104.261029,91.1930769 Z M174.253676,53.9705128 C175.058824,52.735641 175.775735,51.445641 176.382353,50.1115385 C175.863971,51.0266667 175.191176,51.9748718 174.430147,52.9782051 C174.341912,53.32 174.286765,53.6507692 174.253676,53.9705128 Z" id="Shape" fill="#333333"></path>
                        <path d="M104.261029,91.1930769 C104.448529,98.3707692 104.801471,106.320256 106.180147,113.475897 C104.128676,115.504615 99.8602941,114.049231 97.875,112.582821 C95.3161765,110.68641 93.2757353,107.93 92.1286765,104.776667 C90.2426471,99.5725641 90.3860294,89.6384615 96.9264706,87.6758974 C99.7389706,86.86 102.529412,89.1533333 104.261029,91.1930769 Z" id="Path" fill="#FFFFFF"></path>
                        <path d="M159.485294,200.997436 C153.165441,201.989744 146.691176,202.044872 140.349265,201.151795 C134.294118,200.302821 127.533088,199.255385 124.963235,192.871538 C123.672794,189.674103 124.455882,185.638718 124.522059,182.264872 C124.577206,178.461026 124.577206,174.635128 124.577206,170.831282 L124.533088,170.698974 C131.602941,167.986667 135.705882,163.675641 136.753676,160.698718 C137.007353,160.015128 137.161765,157.247692 137.161765,154.303846 C137.161765,150.488974 136.852941,146.354359 136.058824,146.144872 C123.264706,143.068718 112.080882,133.55359 107.735294,119.71641 C107.106618,117.731795 106.599265,115.636923 106.191176,113.453846 C104.823529,106.276154 104.470588,98.3266667 104.272059,91.1710256 C104.227941,89.1202564 104.172794,87.135641 104.117647,85.2612821 C106.257353,84.9746154 110.547794,84.3351282 116.040441,83.1994872 C133.455882,79.6382051 162.948529,71.2476923 174.242647,53.9594872 C172.202206,68.0282051 188.051471,80.8179487 189.375,89.3076923 C189.297794,90.7741026 189.231618,92.2405128 189.1875,93.6738462 C188.889706,100.234103 188.569853,106.518718 187.213235,112.924615 C186.452206,116.474872 185.371324,120.058205 183.783088,123.729744 C181.014706,130.135641 177.275735,135.846923 171.264706,139.606667 C167.492647,141.966154 163.279412,143.454615 159.022059,144.645385 C155.658088,145.59359 156.540441,147.181282 156.738971,150.511026 C156.838235,152.131795 156.948529,153.774615 157.047794,155.40641 C157.136029,156.95 157.191176,158.482564 157.191176,160.015128 C157.191176,165.131026 165.661765,168.196154 173.349265,170.158718 L173.294118,170.390256 C172.786765,176.972564 173.128676,183.455641 172.974265,190.071026 C172.952206,191.482308 172.875,192.926667 172.444853,194.271795 C170.823529,199.211282 163.852941,200.313846 159.485294,200.997436 Z" id="Path" fill="#FFFFFF"></path>
                        <path d="M176.371324,50.1115385 C175.753676,51.4346154 175.058824,52.735641 174.242647,53.9705128 C174.275735,53.6507692 174.341912,53.32 174.408088,52.9782051 C175.191176,51.9748718 175.852941,51.0266667 176.371324,50.1115385 Z" id="Path" fill="#FFFFFF"></path>
                        <path d="M118.863971,237.382051 C134.492647,240.480256 161.0625,239.521026 181.930147,235.915641 C183.165441,243.236667 187.334559,277.272821 193.720588,288.982051 C198.970588,298.607436 180.772059,307.472051 169.544118,311.375128 C153.1875,317.075385 133.466912,315.311282 119.360294,304.803846 C114.838235,301.418974 107.007353,297.615128 108.871324,292.852051 C111.948529,284.979744 119.029412,244.967692 118.268382,237.834103 L118.786765,237.326923 C118.830882,237.337949 118.841912,237.348974 118.863971,237.382051 Z" id="Path" fill="#FFFFFF"></path>
                        <path d="M35.5367647,347.406923 C33.8051471,343.900769 33.5404412,341.056154 34.2794118,337.891795 C34.4338235,338.299744 34.7205882,338.58641 35.1948529,338.718718 C38.3933824,339.600769 40.5110294,334.451795 41.6139706,332.312821 C45.1544118,325.443846 51.1875,321.540769 57,316.700513 C58.0367647,315.851538 59.0514706,314.991538 60.0661765,314.120513 C67.3014706,310.812821 73.6985294,307.758718 80.9779412,304.748718 C85.1470588,303.039744 105.055147,295.751795 107.801471,292.929231 L108.871324,292.83 C111.330882,297.328462 114.827206,301.407949 119.360294,304.781795 C133.466912,315.289231 153.1875,317.053333 169.544118,311.353077 C180.772059,307.438974 189.419118,299.037436 193.720588,288.96 C203.669118,293.458462 217.069853,300.018718 227.371324,304.26359 C232.014706,308.519487 236.768382,312.676154 241.621324,316.689487 C247.422794,321.529744 253.477941,325.421795 257.007353,332.301795 C258.099265,334.429744 260.194853,339.567692 263.426471,338.707692 C266.503676,337.825641 261.948529,329.754872 260.823529,327.285128 C262.411765,328.916923 266.514706,334.617179 270.077206,337.285385 L270.044118,337.329487 C270.452206,341.585385 269.481618,345.89641 266.735294,349.281282 C266.735294,349.281282 266.735294,349.281282 266.735294,349.292308 C266.150735,350.008974 265.477941,350.692564 264.738971,351.31 C256.268382,358.454615 244.466912,358.675128 233.966912,359.116154 C218.856618,359.755641 204.860294,357.704872 189.805147,356.139231 C186.518382,355.797436 183.375,355.455641 180.319853,355.124872 L180.341912,354.871282 C178.588235,351.861282 178.775735,346.800513 178.863971,344.143333 C190.555147,342.147692 200.316176,340.218205 205.863971,338.542308 C212.691176,336.51359 220.522059,334.451795 227.713235,334.782564 C229.455882,334.440769 235.522059,336.667949 234,331.70641 C233.194853,329.093333 228.617647,328.630256 226.455882,328.564103 C222.716912,324.010513 216.264706,325.057949 210.474265,325.631282 C201.419118,326.535385 196.533088,326.061282 188.702206,321.584872 C179.966912,316.601282 172.069853,324.39641 164.327206,328.376667 C153.573529,333.900513 140.922794,332.246667 129.375,330.92359 C128.106618,330.780256 126.849265,330.625897 125.569853,330.471538 C129.176471,333.724103 129.805147,347.021026 127.334559,351.905385 C118.731618,353.118205 110.613971,354.231795 103.720588,355.18 C103.599265,355.191026 103.511029,355.202051 103.444853,355.202051 C96.0441176,356.21641 90.0330882,357.043333 86.3272059,357.594615 C74.5257353,359.347692 50.3272059,361.497692 39.4301471,352.236154 C37.8198529,350.935128 36.4852941,349.314359 35.5367647,347.406923 Z" id="Path" fill="#333333"></path>
                        <path d="M198.253676,88.9328205 C202.378676,89.2305128 204.165441,93.3761538 204.264706,97.1138462 C204.507353,105.504359 197.238971,119.760513 187.202206,112.935641 C188.558824,106.518718 188.878676,100.234103 189.176471,93.6848718 L189.264706,93.6848718 C191.095588,90.8733333 194.8125,88.6682051 198.253676,88.9328205 Z" id="Path" fill="#FFFFFF"></path>
                        <path d="M257.018382,332.323846 C253.477941,325.454872 247.433824,321.551795 241.632353,316.711538 C236.779412,312.676154 232.025735,308.541538 227.382353,304.285641 C226.091912,303.116923 224.823529,301.926154 223.555147,300.724359 C215.404412,293.00641 208.875,282.289487 203.658088,272.421538 C196.775735,259.444359 190.180147,242.927949 187.411765,229.454615 L187.389706,229.44359 C188.327206,227.811795 189.077206,226.036667 189.584559,224.217436 C191.183824,218.451026 190.5,212.24359 188.680147,206.543333 C186.386029,199.365641 181.610294,193.235385 179.8125,185.947436 C179.25,183.709231 178.808824,175.495128 179.360294,171.603077 C181.411765,172.044103 183.132353,172.407949 184.224265,172.705641 C197.029412,176.266923 199.731618,185.208718 202.224265,197.513333 C208.599265,228.914359 206.569853,234.041282 214.863971,251.131026 C219.507353,260.712308 233.040441,283.314872 239.205882,292.940256 C241.676471,296.788205 244.213235,301.871026 250.908088,300.184103 C256.069853,298.872051 259.246324,295.608462 264.871324,296.766154 C266.944853,297.196154 270.573529,297.714359 269.216912,300.503846 C269.084559,300.779487 268.897059,301.011026 268.6875,301.198462 C267.121324,302.54359 263.680147,302.091538 262.147059,302.587692 C256.488971,304.417949 255.948529,311.286923 262.797794,311.397179 C269.404412,311.507436 266.084559,302.962564 269.426471,301.374872 C270.077206,301.077179 270.970588,301.022051 272.205882,301.341795 C274.698529,302.146667 275.128676,311.077436 270.176471,317.792051 C273.121324,320.52641 284.393382,327.527692 281.966912,331.893846 C279.441176,336.458462 269.636029,325.25641 266.150735,323.040256 C267.352941,324.760256 280.863971,337.55 273.639706,338.685641 C272.636029,338.84 271.422794,338.266667 270.132353,337.285385 C266.569853,334.617179 262.466912,328.938974 260.878676,327.285128 C261.981618,329.754872 266.547794,337.825641 263.481618,338.707692 C260.205882,339.589744 258.110294,334.440769 257.018382,332.323846 Z" id="Path" fill="#FFFFFF"></path>
                        <path d="M122.922794,171.294359 C123.463235,171.117949 124.003676,170.919487 124.522059,170.721026 L124.566176,170.853333 C124.566176,174.657179 124.566176,178.483077 124.511029,182.286923 C124.455882,185.649744 123.672794,189.674103 124.952206,192.89359 C127.511029,199.26641 134.294118,200.302821 140.338235,201.173846 C146.691176,202.066923 153.154412,202.000769 159.474265,201.019487 C163.841912,200.335897 170.801471,199.233333 172.411765,194.315897 C172.852941,192.970769 172.919118,191.52641 172.941176,190.115128 C173.095588,183.521795 172.764706,177.016667 173.261029,170.434359 L173.316176,170.202821 C175.444853,170.743077 177.507353,171.206154 179.294118,171.614103 C178.742647,175.506154 179.183824,183.709231 179.746324,185.958462 C181.544118,193.24641 186.319853,199.387692 188.613971,206.554359 C190.433824,212.24359 191.117647,218.473077 189.518382,224.228462 C189.011029,226.058718 188.261029,227.811795 187.323529,229.454615 C185.922794,231.924359 184.080882,234.118462 181.897059,235.915641 C161.018382,239.521026 134.4375,240.480256 118.830882,237.382051 C118.808824,237.36 118.797794,237.348974 118.775735,237.326923 C115.852941,234.394103 113.536765,232.486667 111.727941,229.399487 C111.275735,228.616667 110.834559,227.778718 110.448529,226.797436 C106.676471,217.502821 111.341912,208.781538 114.838235,200.368974 C118.433824,191.724872 119.415441,179.530513 119.261029,172.374872 L119.25,172.352821 C120.474265,172.033077 121.6875,171.691282 122.922794,171.294359 Z" id="Path" fill="#AB78B3"></path>
                        <path d="M127.345588,351.960513 C144.352941,349.59 163.323529,346.83359 178.875,344.17641 C178.786765,346.83359 178.599265,351.894359 180.352941,354.904359 L180.330882,355.157949 C169.047794,353.945128 158.867647,352.930769 146.029412,353.085128 C136.533088,353.195385 107.349265,354.948462 103.731618,355.235128 C110.647059,354.286923 118.742647,353.184359 127.345588,351.960513 Z" id="Path" fill="#FFFFFF"></path>
                        <path d="M266.746324,349.314359 C267.441176,350.086154 292.6875,378.080256 297.286765,384.563333 L0.705882353,384.563333 C16.3455882,371.894872 39.4301471,352.302308 39.4301471,352.302308 C50.3492647,361.552821 74.5367647,359.413846 86.3272059,357.660769 C90.0441176,357.098462 96.0441176,356.271538 103.444853,355.268205 C103.5,355.268205 103.599265,355.257179 103.720588,355.246154 C107.349265,354.959487 136.522059,353.195385 146.018382,353.096154 C158.856618,352.941795 169.036765,353.945128 180.319853,355.168974 C183.363971,355.488718 186.518382,355.841538 189.805147,356.183333 C204.849265,357.748974 218.845588,359.788718 233.966912,359.160256 C244.466912,358.719231 256.257353,358.498718 264.738971,351.354103 C265.488971,350.714615 266.150735,350.042051 266.746324,349.314359 Z" id="Path" fill="#FFFFFF"></path>
                        <path d="M127.345588,351.960513 C129.816176,347.076154 129.1875,333.779231 125.580882,330.526667 C126.860294,330.681026 128.117647,330.835385 129.386029,330.978718 C140.933824,332.290769 153.584559,333.955641 164.338235,328.431795 C172.069853,324.462564 179.977941,316.667436 188.713235,321.64 C196.555147,326.11641 201.441176,326.590513 210.485294,325.68641 C216.275735,325.113077 222.727941,324.076667 226.466912,328.619231 C228.628676,328.674359 233.205882,329.148462 234.011029,331.761538 C235.544118,336.734103 229.477941,334.495897 227.724265,334.837692 C220.522059,334.495897 212.691176,336.557692 205.875,338.597436 C200.327206,340.273333 190.555147,342.191795 178.875,344.198462 C163.334559,346.83359 144.363971,349.59 127.345588,351.960513 Z" id="Path" fill="#FFFFFF"></path>
                        <path d="M35.1948529,338.718718 C34.7205882,338.58641 34.4338235,338.288718 34.2794118,337.891795 L34.2794118,337.880769 C33.3970588,335.532308 36.8382353,329.402051 37.7757353,327.318205 C35.6139706,329.545385 28.7867647,339.292051 25.0257353,338.718718 C17.8014706,337.583077 31.3125,324.793333 32.5147059,323.073333 C29.0183824,325.278462 19.2242647,336.491538 16.6875,331.926923 C14.2720588,327.560769 25.5220588,320.559487 28.4889706,317.825128 C23.5147059,311.110513 23.9669118,302.179744 26.4595588,301.374872 C27.9264706,301.011026 28.9080882,301.132308 29.5698529,301.617436 C32.3713235,303.602051 29.4816176,311.540513 35.8786765,311.452308 C42.7279412,311.331026 42.1764706,304.462051 36.5294118,302.642821 C35.1066176,302.190769 32.0404412,302.54359 30.3639706,301.518205 C29.9889706,301.275641 29.6801471,300.966923 29.4595588,300.558974 C28.0698529,297.769487 31.7095588,297.251282 33.7941176,296.821282 C39.4301471,295.66359 42.5955882,298.916154 47.7683824,300.239231 C54.4632353,301.926154 56.9889706,296.832308 59.4595588,292.995385 C65.625,283.381026 79.1691176,260.767436 83.8125,251.186154 C89.1066176,240.259744 91.4669118,229.156923 92.8566176,217.282308 C94.0257353,207.248974 95.4375,192.684103 100.125,183.576923 C104.25,175.561282 111.430147,174.524872 119.294118,172.418974 L119.305147,172.441026 C119.459559,179.585641 118.488971,191.78 114.882353,200.435128 C111.375,208.847692 106.720588,217.557949 110.492647,226.86359 C110.889706,227.822821 111.308824,228.682821 111.772059,229.465641 C109.003676,242.927949 101.878676,259.532564 95.0073529,272.498718 C89.7794118,282.366667 83.2610294,293.072564 75.0992647,300.801538 C70.2242647,305.410256 65.2169118,309.875641 60.0882353,314.219744 C59.0735294,315.101795 58.0588235,315.939744 57.0220588,316.799744 C51.2095588,321.64 45.1654412,325.532051 41.6360294,332.412051 C40.5220588,334.440769 38.4154412,339.589744 35.1948529,338.718718 Z" id="Path" fill="#FFFFFF"></path>
                    </g>
                    <g id="Group" fill="#333333">
                        <path d="M193.522059,116.662308 C191.658088,116.662308 189.727941,116.011795 187.841912,114.721795 C187.808824,114.699744 187.786765,114.677692 187.742647,114.644615 C187.422794,114.324872 187.378676,113.762564 187.709559,113.442821 C188.007353,113.145128 188.459559,113.09 188.768382,113.34359 C188.768382,113.34359 188.779412,113.34359 188.779412,113.354615 C191.569853,115.24 194.272059,115.504615 196.797794,114.12641 C201.540441,111.524359 204.683824,103.674103 204.529412,98.2384615 C204.441176,94.9969231 203.007353,91.1269231 199.290441,90.8623077 C196.323529,90.6307692 192.849265,92.4720513 191.040441,95.2394872 C190.786765,95.6253846 190.279412,95.735641 189.882353,95.4820513 C189.496324,95.2284615 189.386029,94.7102564 189.639706,94.324359 C191.757353,91.0828205 195.860294,88.9328205 199.389706,89.1974359 C203.900735,89.5171795 206.051471,93.9494872 206.172794,98.1833333 C206.338235,104.214359 202.919118,112.648974 197.580882,115.570769 C196.290441,116.309487 194.922794,116.662308 193.522059,116.662308 Z" id="Path"></path>
                        <path d="M189.661765,106.871538 C189.617647,106.871538 189.573529,106.871538 189.529412,106.860513 C189.077206,106.783333 188.757353,106.364359 188.834559,105.912308 C189.110294,104.082051 191.183824,98.6574359 194.172794,97.2461538 C195.242647,96.7389744 196.334559,96.7941026 197.349265,97.3894872 C197.746324,97.6210256 197.878676,98.1392308 197.636029,98.5361538 C197.393382,98.9330769 196.886029,99.0653846 196.488971,98.8228205 C195.948529,98.5141026 195.441176,98.4810256 194.867647,98.745641 C192.672794,99.7820513 190.742647,104.401795 190.477941,106.154872 C190.411765,106.584872 190.058824,106.871538 189.661765,106.871538 Z" id="Path"></path>
                        <path d="M104.481618,116.419744 C102.231618,116.419744 99.7720588,115.350256 98.4705882,114.391026 C95.7573529,112.384359 93.6176471,109.47359 92.4375,106.198974 C91.0698529,102.428205 90.75,96.4633333 92.8125,92.3617949 C93.9375,90.1346154 95.6029412,88.6682051 97.7757353,88.0176923 C101.25,86.9812821 104.404412,89.9361538 105.970588,91.7884615 C106.268382,92.1412821 106.224265,92.6705128 105.871324,92.9571795 C105.518382,93.2548718 104.988971,93.2107692 104.702206,92.8579487 C103.654412,91.6230769 100.908088,88.8115385 98.25,89.6053846 C96.5294118,90.1235897 95.2058824,91.3033333 94.2904412,93.1115385 C92.4595588,96.7610256 92.7683824,102.284872 93.9926471,105.636667 C95.0625,108.61359 97.0036765,111.259744 99.4411765,113.056923 C101.128676,114.291795 104.988971,115.692051 106.665441,114.016154 C106.985294,113.69641 107.514706,113.69641 107.845588,114.016154 C108.165441,114.335897 108.165441,114.854103 107.845588,115.184872 C106.974265,116.066923 105.761029,116.419744 104.481618,116.419744 Z" id="Path"></path>
                        <path d="M105.628676,103.37641 C105.242647,103.37641 104.911765,103.111795 104.823529,102.725897 C104.4375,101.027949 102.264706,97.3564103 100.136029,96.5735897 C99.4852941,96.3310256 98.9448529,96.4192308 98.4154412,96.8161538 C98.0514706,97.0917949 97.5220588,97.025641 97.2463235,96.6617949 C96.9705882,96.2979487 97.0367647,95.7687179 97.4007353,95.4930769 C98.3933824,94.7433333 99.5183824,94.5889744 100.698529,95.0189744 C103.577206,96.0774359 105.992647,100.421538 106.433824,102.362051 C106.533088,102.803077 106.257353,103.255128 105.805147,103.354359 C105.75,103.365385 105.694853,103.37641 105.628676,103.37641 Z" id="Path"></path>
                        <path d="M143.305147,114.843077 C143.194853,114.843077 143.073529,114.821026 142.963235,114.765897 C139.963235,113.420769 139.533088,111.248718 139.819853,108.426154 C139.908088,107.610256 139.985294,106.794359 140.073529,105.978462 C140.393382,102.902308 140.713235,100.002564 140.713235,96.8161538 C140.713235,96.3641026 141.088235,95.9892308 141.540441,95.9892308 C141.992647,95.9892308 142.367647,96.3641026 142.367647,96.8161538 C142.367647,100.079744 142.058824,103.02359 141.716912,106.154872 C141.628676,106.959744 141.551471,107.764615 141.463235,108.580513 C141.198529,111.248718 141.727941,112.384359 143.647059,113.233333 C144.066176,113.420769 144.253676,113.916923 144.066176,114.324872 C143.922794,114.655641 143.625,114.843077 143.305147,114.843077 Z" id="Path"></path>
                        <path d="M144.827206,125.063846 C142.268382,125.063846 139.775735,124.27 138.022059,122.009744 C137.746324,121.645897 137.801471,121.116667 138.165441,120.841026 C138.529412,120.565385 139.058824,120.620513 139.334559,120.984359 C142.455882,125.030769 149.227941,123.211538 153.022059,120.995385 C153.419118,120.763846 153.926471,120.896154 154.158088,121.293077 C154.389706,121.69 154.257353,122.197179 153.860294,122.428718 C151.742647,123.674615 148.224265,125.063846 144.827206,125.063846 Z" id="Path"></path>
                        <path d="M124.6875,103.133846 C122.856618,103.133846 121.047794,102.825128 119.470588,102.196667 C117.110294,101.270513 115.5,99.7710256 114.9375,97.9738462 C114.794118,97.5438462 115.047794,97.0697436 115.477941,96.9264103 C115.908088,96.7830769 116.382353,97.0366667 116.525735,97.4666667 C117.077206,99.2307692 119.007353,100.223077 120.088235,100.642051 C125.073529,102.604615 132.441176,101.149231 134.856618,96.2428205 C135.066176,95.8348718 135.551471,95.6694872 135.959559,95.8679487 C136.367647,96.0774359 136.533088,96.5625641 136.334559,96.9705128 C134.316176,101.072051 129.397059,103.133846 124.6875,103.133846 Z" id="Path"></path>
                        <path d="M168.639706,103.188974 C168.352941,103.188974 168.066176,103.177949 167.768382,103.155897 C163.632353,102.814103 159.948529,100.145897 158.823529,96.6838462 C158.680147,96.2538462 158.922794,95.7797436 159.363971,95.6364103 C159.794118,95.4930769 160.268382,95.735641 160.411765,96.1766667 C161.481618,99.5064103 165.044118,101.281538 167.900735,101.513077 C172.709559,101.898974 176.878676,98.2274359 178.875,94.4235897 C179.095588,94.015641 179.591912,93.8612821 180,94.0707692 C180.408088,94.2912821 180.5625,94.7874359 180.352941,95.1953846 C178.378676,98.9661538 174.165441,103.188974 168.639706,103.188974 Z" id="Path"></path>
                        <path d="M178.356618,89.0651282 C178.180147,89.0651282 177.992647,89.01 177.849265,88.8887179 C172.985294,85.0848718 165.529412,84.7210256 160.522059,88.0397436 C160.136029,88.2933333 159.617647,88.1830769 159.363971,87.8082051 C159.110294,87.4223077 159.220588,86.9041026 159.595588,86.6505128 C165.165441,82.9569231 173.448529,83.3538462 178.852941,87.5766667 C179.216912,87.8523077 179.272059,88.3815385 178.996324,88.7453846 C178.830882,88.9548718 178.588235,89.0651282 178.356618,89.0651282 Z" id="Path"></path>
                        <path d="M134.801471,89.0651282 C134.625,89.0651282 134.4375,89.01 134.294118,88.8887179 C129.430147,85.0848718 121.996324,84.7210256 116.977941,88.0397436 C116.591912,88.2933333 116.073529,88.1830769 115.819853,87.8082051 C115.566176,87.4223077 115.676471,86.9041026 116.051471,86.6505128 C121.621324,82.9569231 129.893382,83.3538462 135.297794,87.5766667 C135.661765,87.8523077 135.716912,88.3815385 135.441176,88.7453846 C135.286765,88.9548718 135.044118,89.0651282 134.801471,89.0651282 Z" id="Path"></path>
                        <path d="M162.110294,157.435128 C160.897059,157.435128 159.694853,157.413077 158.878676,157.335897 C158.834559,157.346923 158.779412,157.346923 158.724265,157.346923 L158.448529,157.346923 L158.448529,157.291795 C158.161765,157.258718 157.952206,157.192564 157.897059,157.137436 C157.643382,156.905897 157.555147,156.553077 157.676471,156.222308 C157.797794,155.902564 158.106618,155.693077 158.448529,155.693077 L158.724265,155.693077 C158.801471,155.693077 158.867647,155.704103 158.933824,155.715128 C160.367647,155.759231 165.198529,155.83641 166.577206,155.693077 C171.419118,155.196923 176.492647,154.215641 180.838235,150.24641 C181.676471,149.474615 182.503676,148.658718 183.308824,147.853846 C185.227941,145.957436 187.180147,143.983846 189.551471,142.50641 C192.220588,140.841538 195.253676,139.948462 198.1875,139.055385 C199.235294,138.746667 200.283088,138.415897 201.319853,138.063077 C204.783088,136.883333 216.474265,132.351795 221.492647,123.795897 C228.551471,111.766923 227.459559,95.3938462 218.261029,75.1507692 C215.415441,68.9102564 213.419118,62.0412821 211.477941,55.4038462 C208.731618,46.0210256 205.908088,36.3074359 200.658088,28.0051282 C189.926471,11.0366667 171.165441,5.94282051 157.3125,4.66384615 C156.860294,4.63076923 156.518382,4.22282051 156.5625,3.75974359 C156.595588,3.30769231 157.014706,2.96589744 157.466912,3.01 C171.694853,4.33307692 190.985294,9.58128205 202.069853,27.1120513 C207.452206,35.6128205 210.319853,45.4366667 213.088235,54.9297436 C215.018382,61.5120513 217.003676,68.3258974 219.783088,74.4561538 C229.213235,95.2174359 230.272059,112.097692 222.926471,124.622821 C217.621324,133.674872 205.444853,138.404872 201.849265,139.628718 C200.790441,139.992564 199.731618,140.301282 198.661765,140.632051 C195.716912,141.525128 192.915441,142.363077 190.422794,143.906667 C188.216912,145.262821 186.397059,147.082051 184.477941,149.011538 C183.661765,149.81641 182.823529,150.665385 181.963235,151.459231 C177.242647,155.770256 171.617647,156.850769 166.731618,157.346923 C166.709559,157.357949 164.371324,157.435128 162.110294,157.435128 Z" id="Path"></path>
                        <path d="M133.125,79.6051282 C132.705882,79.6051282 132.341912,79.2964103 132.297794,78.8553846 C132.253676,78.4033333 132.584559,77.984359 133.047794,77.9402564 C147.650735,76.4407692 166.808824,63.8825641 174.871324,53.5735897 C175.676471,52.5151282 176.305147,51.6110256 176.757353,50.8061538 C176.988971,50.4092308 177.496324,50.2658974 177.893382,50.4974359 C178.290441,50.7289744 178.433824,51.2361538 178.202206,51.6330769 C177.705882,52.5041026 177.044118,53.474359 176.183824,54.5989744 C167.900735,65.1946154 148.235294,78.0505128 133.224265,79.6051282 C133.180147,79.6051282 133.147059,79.6051282 133.125,79.6051282 Z" id="Path"></path>
                        <path d="M190.466912,93.464359 C190.411765,93.464359 190.356618,93.464359 190.301471,93.4533333 C189.860294,93.3541026 189.5625,92.9241026 189.661765,92.4610256 C189.783088,91.8876923 189.783088,91.2482051 189.672794,90.575641 C189.1875,87.5105128 186.540441,83.5964103 183.727941,79.4507692 C178.808824,72.2069231 173.227941,63.9817949 174.529412,54.9848718 C174.584559,54.5328205 175.014706,54.2130769 175.466912,54.2902564 C175.919118,54.3453846 176.238971,54.7753846 176.172794,55.2274359 C174.970588,63.5958974 180.352941,71.5233333 185.106618,78.5135897 C188.150735,83.0010256 190.775735,86.8820513 191.316176,90.3110256 C191.459559,91.1930769 191.459559,92.0310256 191.294118,92.8138462 C191.194853,93.1887179 190.852941,93.464359 190.466912,93.464359 Z" id="Path"></path>
                        <path d="M175.356618,55.9110256 C175.323529,55.9110256 175.301471,55.9110256 175.257353,55.9110256 C174.805147,55.8669231 174.474265,55.4369231 174.540441,54.9848718 C174.584559,54.6320513 174.639706,54.2792308 174.716912,53.904359 C174.727941,53.8492308 174.738971,53.7169231 174.772059,53.595641 C174.893382,53.1546154 175.356618,52.9010256 175.797794,53.0223077 C176.238971,53.1435897 176.492647,53.6066667 176.371324,54.0476923 C176.360294,54.0917949 176.349265,54.1579487 176.349265,54.2020513 C176.261029,54.5879487 176.216912,54.8746154 176.183824,55.1723077 C176.128676,55.5912821 175.764706,55.9110256 175.356618,55.9110256 Z" id="Path"></path>
                        <path d="M129.253676,156.894872 C122.128676,156.894872 115.433824,155.682051 109.566176,153.289487 C104.801471,151.348974 100.522059,148.636667 97.2022059,145.406154 C95.3933824,143.664103 93.9264706,141.624359 92.4926471,139.650769 C91.0257353,137.622051 89.4926471,135.516154 87.6397059,133.807179 C85.4007353,131.745385 82.6764706,130.223846 80.0404412,128.735385 C75.7058824,126.309744 71.2279412,123.784872 68.6360294,118.845385 C64.9963235,111.877179 66.9044118,103.277179 68.2830882,96.9925641 C69.3088235,92.3397436 71.3382353,87.8082051 73.3014706,83.4310256 C74.8345588,80.0130769 76.4227941,76.4848718 77.4816176,72.9787179 C78.4852941,69.66 79.4227941,66.2310256 80.3272059,62.9012821 C84.5955882,47.2889744 89.0183824,31.1584615 101.161765,19.3279487 C115.191176,5.67820513 140.161765,-4.13461538 157.720588,3.06512821 C158.139706,3.24153846 158.349265,3.72666667 158.172794,4.14564103 C158.007353,4.56461538 157.511029,4.77410256 157.091912,4.59769231 C140.172794,-2.34846154 115.974265,7.23282051 102.330882,20.5076923 C90.5073529,32.0294872 86.1507353,47.9284615 81.9264706,63.3202564 C81.0110294,66.65 80.0735294,70.1010256 79.0698529,73.4307692 C77.9779412,77.0361538 76.3786765,80.6305128 74.8235294,84.0925641 C72.8933824,88.3925641 70.8970588,92.8469231 69.9154412,97.334359 C68.5036765,103.696154 66.7610294,111.634615 70.125,118.062564 C72.4742647,122.561026 76.5551471,124.865385 80.8676471,127.28 C83.5919118,128.812564 86.3933824,130.389231 88.7757353,132.561282 C90.75,134.391538 92.3272059,136.552564 93.8492647,138.658462 C95.2389706,140.576923 96.6617647,142.550513 98.3602941,144.193333 C101.525735,147.258462 105.617647,149.871538 110.194853,151.723846 C118.246324,155.009487 127.919118,155.990769 138.143382,154.590513 C138.584559,154.535385 139.025735,154.844103 139.080882,155.296154 C139.136029,155.748205 138.827206,156.178205 138.375,156.233333 C135.264706,156.685385 132.220588,156.894872 129.253676,156.894872 Z" id="Path"></path>
                        <path d="M196.643382,64.3897436 C196.246324,64.3897436 195.893382,64.1030769 195.827206,63.6951282 C194.459559,55.5471795 192.132353,49.02 188.933824,44.3120513 C188.007353,42.9448718 186.772059,41.71 185.558824,40.5302564 C184.224265,39.2071795 182.834559,37.84 181.830882,36.2302564 C181.588235,35.844359 181.698529,35.3261538 182.095588,35.0835897 C182.481618,34.8410256 183,34.9623077 183.242647,35.3482051 C184.147059,36.7925641 185.404412,38.0274359 186.738971,39.3394872 C187.996324,40.574359 189.286765,41.864359 190.3125,43.3748718 C193.643382,48.2812821 196.058824,55.0289744 197.470588,63.4084615 C197.547794,63.8605128 197.238971,64.2905128 196.786765,64.3676923 C196.731618,64.3897436 196.6875,64.3897436 196.643382,64.3897436 Z" id="Path"></path>
                        <path d="M97.0367647,69.6710256 C96.9816176,69.6710256 96.9264706,69.6710256 96.8713235,69.66 C96.4301471,69.5607692 96.1213235,69.1307692 96.2205882,68.6897436 C97.9632353,60.0787179 100.345588,54.0697436 104.702206,47.2558974 C104.955882,46.87 105.463235,46.7597436 105.849265,47.0023077 C106.235294,47.2558974 106.345588,47.7630769 106.102941,48.1489744 C101.801471,54.8525641 99.5625,60.4976923 97.8419118,69.0094872 C97.7647059,69.3953846 97.4227941,69.6710256 97.0367647,69.6710256 Z" id="Path"></path>
                        <path d="M90.8492647,55.1392308 C90.7610294,55.1392308 90.6838235,55.1282051 90.5955882,55.1061538 C90.1654412,54.9628205 89.9227941,54.4887179 90.0551471,54.0587179 C90.5073529,52.6253846 91.1911765,51.3353846 91.8529412,50.1005128 C92.3051471,49.2184615 92.7904412,48.314359 93.1764706,47.3771795 C93.3419118,46.9582051 93.8382353,46.7487179 94.2573529,46.9251282 C94.6764706,47.1015385 94.8860294,47.5866667 94.7095588,48.005641 C94.3014706,49.0089744 93.7941176,49.9571795 93.3198529,50.8612821 C92.6691176,52.0961538 92.0514706,53.2538462 91.6433824,54.5548718 C91.5330882,54.9076923 91.2022059,55.1392308 90.8492647,55.1392308 Z" id="Path"></path>
                        <path d="M207.661765,61.3025641 C207.319853,61.3025641 207,61.0930769 206.878676,60.7623077 C206.360294,59.34 205.544118,57.9066667 204.672794,56.3961538 C203.007353,53.4853846 201.297794,50.4753846 201.529412,47.2007692 C201.5625,46.7487179 201.9375,46.3848718 202.422794,46.4289744 C202.875,46.4620513 203.227941,46.8589744 203.194853,47.3220513 C203.007353,50.0894872 204.595588,52.8789744 206.117647,55.5802564 C206.966912,57.0797436 207.860294,58.6453846 208.433824,60.2 C208.588235,60.63 208.378676,61.1041026 207.9375,61.2694872 C207.860294,61.2805128 207.761029,61.3025641 207.661765,61.3025641 Z" id="Path"></path>
                        <path d="M200.161765,133.575641 C199.908088,133.575641 199.665441,133.465385 199.5,133.255897 C199.224265,132.892051 199.279412,132.362821 199.643382,132.087179 C204.772059,128.117949 209.117647,117.753846 208.588235,110.774615 C208.555147,110.322564 208.897059,109.925641 209.360294,109.881538 C209.8125,109.837436 210.209559,110.179231 210.253676,110.653333 C210.816176,118.095641 206.172794,129.143333 200.669118,133.399231 C200.525735,133.520513 200.349265,133.575641 200.161765,133.575641 Z" id="Path"></path>
                        <path d="M98.7904412,138.426923 C98.4044118,138.426923 98.0735294,138.162308 97.9852941,137.77641 C96.7279412,132.087179 96.6397059,126.761795 96.6397059,120.4 C96.6397059,119.947949 97.0147059,119.573077 97.4669118,119.573077 C97.9191176,119.573077 98.2941176,119.947949 98.2941176,120.4 C98.2941176,126.662564 98.3933824,131.888718 99.6066176,137.412564 C99.7058824,137.85359 99.4301471,138.305641 98.9669118,138.404872 C98.9117647,138.415897 98.8566176,138.426923 98.7904412,138.426923 Z" id="Path"></path>
                        <path d="M143.801471,241.185897 C134.580882,241.185897 126.198529,240.557436 119.8125,239.300513 C119.658088,239.267436 119.503676,239.190256 119.393382,239.068974 C118.720588,238.39641 118.136029,237.834103 117.584559,237.282821 C115.466912,235.221026 113.636029,233.445897 112.158088,230.887949 C111.639706,229.994872 111.209559,229.123846 110.823529,228.197692 C107.316176,219.55359 110.768382,211.537949 114.099265,203.775897 C114.485294,202.893846 114.860294,202.011795 115.224265,201.129744 C118.488971,193.312564 119.757353,181.614359 119.580882,173.488462 C119.569853,173.03641 119.933824,172.650513 120.397059,172.639487 C120.882353,172.672564 121.235294,172.992308 121.246324,173.455385 C121.411765,181.140256 120.341912,193.180256 116.757353,201.780256 C116.382353,202.662308 116.007353,203.544359 115.621324,204.437436 C112.422794,211.879744 109.125,219.564615 112.356618,227.569231 C112.709559,228.418205 113.106618,229.245128 113.580882,230.061026 C114.948529,232.409487 116.625,234.030256 118.731618,236.092051 C119.261029,236.599231 119.801471,237.139487 120.363971,237.701795 C135.286765,240.590513 160.941176,239.973077 182.889706,236.169231 C183.330882,236.092051 183.772059,236.400769 183.849265,236.841795 C183.926471,237.293846 183.617647,237.723846 183.176471,237.801026 C170.382353,240.039231 156.308824,241.185897 143.801471,241.185897 Z" id="Path"></path>
                        <path d="M183.044118,237.845128 C182.801471,237.845128 182.558824,237.734872 182.404412,237.547436 C182.117647,237.194615 182.161765,236.665385 182.525735,236.378718 C184.632353,234.647692 186.386029,232.552821 187.753676,230.149231 C188.669118,228.539487 189.375,226.852564 189.871324,225.110513 C191.272059,220.093846 190.963235,214.14 188.977941,207.910513 C187.941176,204.702051 186.363971,201.614872 184.852941,198.626923 C183.011029,195.032564 181.091912,191.294872 180.099265,187.259487 C179.525735,184.933077 179.051471,176.663846 179.625,172.617436 C179.669118,172.209487 180.022059,171.878718 180.452206,171.878718 C180.904412,171.878718 181.279412,172.242564 181.279412,172.705641 L181.279412,172.716667 C181.279412,172.749744 181.279412,172.793846 181.268382,172.837949 C180.727941,176.652821 181.169118,184.701538 181.709559,186.862564 C182.658088,190.721538 184.522059,194.36 186.319853,197.877179 C187.875,200.920256 189.485294,204.062564 190.555147,207.403333 C192.639706,213.941538 192.948529,220.215128 191.470588,225.551538 C190.952206,227.425897 190.180147,229.245128 189.198529,230.965128 C187.742647,233.545128 185.834559,235.805385 183.573529,237.657692 C183.419118,237.778974 183.231618,237.845128 183.044118,237.845128 Z" id="Path"></path>
                        <path d="M150.496324,203.720769 C147.441176,203.720769 144.386029,203.500256 141.330882,203.081282 C135.419118,202.243333 128.0625,201.195897 125.283088,194.293846 C124.246324,191.702821 124.444853,188.781026 124.643382,185.947436 C124.698529,185.054359 124.764706,184.194359 124.775735,183.367436 C124.830882,179.56359 124.830882,175.704615 124.830882,171.944872 C124.830882,171.492821 125.205882,171.117949 125.658088,171.117949 C126.110294,171.117949 126.485294,171.492821 126.485294,171.944872 C126.485294,175.704615 126.485294,179.574615 126.430147,183.389487 C126.419118,184.238462 126.341912,185.131538 126.286765,186.046667 C126.110294,188.692821 125.911765,191.427179 126.816176,193.654359 C129.231618,199.674359 135.783088,200.600513 141.551471,201.41641 C147.838235,202.298462 154.191176,202.243333 160.455882,201.262051 C164.779412,200.578462 171.286765,199.553077 172.731618,195.120769 C173.139706,193.885897 173.205882,192.485641 173.227941,191.162564 C173.283088,188.747949 173.272059,186.289231 173.261029,183.918718 C173.25,179.839231 173.227941,175.627436 173.547794,171.437692 C173.580882,170.985641 173.977941,170.643846 174.441176,170.665897 C174.893382,170.698974 175.235294,171.095897 175.213235,171.558974 C174.893382,175.682564 174.915441,179.861282 174.926471,183.907692 C174.9375,186.289231 174.948529,188.747949 174.893382,191.184615 C174.871324,192.628974 174.794118,194.161538 174.319853,195.627949 C172.566176,201.019487 165.165441,202.188205 160.742647,202.882821 C157.334559,203.445128 153.915441,203.720769 150.496324,203.720769 Z" id="Path"></path>
                        <path d="M149.040441,203.191538 C148.610294,203.191538 148.235294,202.849744 148.213235,202.408718 C148.136029,201.184872 147.220588,199.619231 146.503676,198.362308 L146.117647,197.700769 C145.886029,197.303846 146.029412,196.796667 146.426471,196.565128 C146.823529,196.33359 147.330882,196.476923 147.5625,196.873846 L147.9375,197.524359 C148.753676,198.935641 149.768382,200.677692 149.878676,202.298462 C149.900735,202.750513 149.558824,203.147436 149.095588,203.180513 C149.0625,203.191538 149.051471,203.191538 149.040441,203.191538 Z" id="Path"></path>
                        <path d="M149.470588,203.621538 C149.040441,203.621538 148.676471,203.279744 148.643382,202.849744 C148.488971,200.578462 150.694853,198.020513 152.018382,196.884872 C152.371324,196.587179 152.889706,196.620256 153.1875,196.973077 C153.485294,197.325897 153.452206,197.844103 153.099265,198.141795 C151.665441,199.365641 150.198529,201.405385 150.297794,202.739487 C150.330882,203.191538 149.988971,203.588462 149.525735,203.632564 C149.525735,203.621538 149.492647,203.621538 149.470588,203.621538 Z" id="Path"></path>
                        <path d="M161.040441,228.07641 C160.919118,228.07641 160.797794,228.054359 160.6875,227.999231 C153.397059,224.614359 142.323529,221.813846 133.136029,224.085128 C132.694853,224.195385 132.242647,223.930769 132.121324,223.467692 C132.011029,223.026667 132.275735,222.574615 132.727941,222.453333 C142.334559,220.082821 153.827206,222.971538 161.382353,226.477692 C161.801471,226.665128 161.988971,227.161282 161.790441,227.580256 C161.658088,227.9 161.349265,228.07641 161.040441,228.07641 Z" id="Path"></path>
                        <path d="M151.698529,316.48 C140.073529,316.48 128.691176,313.073077 119.966912,306.567949 C115.433824,303.183077 106.400735,298.497179 108.308824,293.458462 C115.158088,275.442564 119.128676,244.49359 118.555147,239.013846 C118.511029,238.561795 118.830882,238.142821 119.294118,238.098718 C119.746324,238.054615 120.165441,238.385385 120.209559,238.837436 C120.849265,244.890513 115.290441,282.68641 110.713235,293.546667 C108.716912,298.287692 199.334559,299.522564 194.0625,289.742821 C188.591912,279.588205 183.253676,243.247692 182.216912,237.139487 C182.139706,236.687436 182.448529,236.257436 182.900735,236.180256 C183.341912,236.092051 183.860294,236.400769 183.860294,236.863846 C183.871324,243.567436 187.775735,273.204359 195.595588,290.393333 C200.382353,300.922821 182.0625,309.368462 170.933824,313.249487 C164.724265,315.421538 158.172794,316.48 151.698529,316.48 Z" id="Path"></path>
                        <path d="M152.117647,290.911538 C151.709559,290.911538 151.345588,290.613846 151.301471,290.194872 C151.080882,288.463846 149.889706,287.129744 148.941176,286.324872 C148.588235,286.027179 148.544118,285.508974 148.841912,285.156154 C149.139706,284.803333 149.658088,284.759231 150.011029,285.056923 C151.698529,286.490256 152.724265,288.199231 152.944853,289.99641 C153,290.448462 152.680147,290.867436 152.227941,290.922564 C152.194853,290.911538 152.161765,290.911538 152.117647,290.911538 Z" id="Path"></path>
                        <path d="M104.834559,357.175641 C104.426471,357.175641 104.0625,356.877949 104.018382,356.458974 C103.963235,356.006923 104.272059,355.576923 104.724265,355.521795 L109.389706,354.882308 C115.169118,354.088462 121.599265,353.195385 128.338235,352.258205 C142.378676,350.295641 162.992647,347.362821 179.834559,344.485128 C192.871324,342.257949 201.672794,340.438718 206.735294,338.917179 C214.003676,336.756154 221.713235,334.79359 228.871324,335.124359 C229.323529,335.14641 229.6875,335.532308 229.666394,335.995385 C229.643382,336.458462 229.224265,336.822308 228.794118,336.789231 C221.900735,336.480513 214.345588,338.387949 207.209559,340.504872 C202.080882,342.048462 193.213235,343.889744 180.110294,346.127949 C163.246324,349.016667 142.610294,351.949487 128.558824,353.912051 C121.830882,354.860256 115.400735,355.742308 109.610294,356.536154 L104.944853,357.175641 C104.922794,357.175641 104.878676,357.175641 104.834559,357.175641 Z" id="Path"></path>
                        <path d="M67.8088235,361.166923 C57.3308824,361.166923 46.5110294,359.557179 40.0147059,354.044359 C38.2610294,352.555897 36.8713235,350.813846 35.9117647,348.884359 C34.1691176,345.345128 33.7720588,342.335128 34.5992647,338.806923 C34.7095588,338.365897 35.1507353,338.090256 35.6029412,338.178462 C36.0441176,338.288718 36.3198529,338.729744 36.2205882,339.181795 C35.4816176,342.302051 35.8455882,344.981282 37.4117647,348.134615 C38.2610294,349.865641 39.5183824,351.420256 41.1066176,352.765385 C52.0257353,362.026923 77.0845588,359.468974 87.3419118,357.93641 C90.9485294,357.396154 96.6066176,356.613333 103.786765,355.621026 L104.470588,355.521795 C104.922794,355.466667 105.352941,355.775385 105.408088,356.227436 C105.463235,356.679487 105.154412,357.109487 104.702206,357.164615 L104.018382,357.263846 C96.8382353,358.256154 91.1801471,359.016923 87.5845588,359.557179 C82.2132353,360.384103 75.0992647,361.166923 67.8088235,361.166923 Z" id="Path"></path>
                        <path d="M61.1691176,316.072051 C60.8602941,316.072051 60.5514706,315.895641 60.4080882,315.586923 C60.2205882,315.167949 60.3970588,314.671795 60.8161765,314.484359 C62.4264706,313.734615 64.0036765,313.017949 65.5588235,312.301282 C70.9742647,309.798462 76.0919118,307.438974 81.7610294,305.090513 C82.5551471,304.770769 83.9227941,304.241538 85.6544118,303.557949 C92.3272059,300.966923 106.202206,295.608462 108.308824,293.447436 C108.628676,293.127692 109.147059,293.105641 109.488971,293.43641 C109.808824,293.756154 109.830882,294.274359 109.5,294.616154 C107.338235,296.843333 96.3639706,301.198462 86.25,305.112564 C84.5404412,305.774103 83.1838235,306.303333 82.3897059,306.634103 C76.7426471,308.971538 71.6470588,311.32 66.2426471,313.811795 C64.6875,314.528462 63.1102941,315.256154 61.5,315.994872 C61.4007353,316.05 61.2904412,316.072051 61.1691176,316.072051 Z" id="Path"></path>
                        <path d="M232.720588,336.976667 C232.036765,336.976667 231.319853,336.899487 230.669118,336.833333 C229.996324,336.756154 229.3125,336.69 228.992647,336.745128 C228.540441,336.844359 228.099265,336.535641 228.022059,336.08359 C227.933824,335.642564 228.231618,335.190513 228.683824,335.113333 C229.246324,335.003077 229.985294,335.091282 230.845588,335.168462 C232.047794,335.300769 233.867647,335.488205 234.363971,334.881795 C234.606618,334.584103 234.595588,333.944615 234.330882,333.084615 C233.790441,331.342564 230.470588,330.614872 227.547794,330.537692 C227.305147,330.526667 227.073529,330.41641 226.930147,330.24 C223.731618,326.347949 218.227941,326.932308 212.889706,327.48359 L211.665441,327.604872 C202.665441,328.508974 197.569853,328.123077 189.397059,323.470256 C183,319.820769 177.154412,323.437179 170.977941,327.274103 C169.290441,328.321538 167.536765,329.402051 165.827206,330.284103 C155.172794,335.763846 142.555147,334.319487 131.426471,333.040513 L130.400735,332.919231 C129.1875,332.775897 127.974265,332.632564 126.738971,332.489231 L126.584559,332.467179 C121.731618,331.860769 116.768382,331.166154 111.981618,330.482564 C105.716912,329.589487 99.2426471,328.674359 93.0110294,327.990769 L92.5919118,327.946667 C84.5625,327.064615 67.8529412,325.212308 61.0588235,330.714103 C60.6948529,331.000769 60.1764706,330.945641 59.8897059,330.592821 C59.6029412,330.228974 59.6580882,329.710769 60.0110294,329.424103 C67.3345588,323.492308 83.8676471,325.311538 92.7683824,326.292821 L93.1875,326.336923 C99.4522059,327.020513 105.9375,327.935641 112.213235,328.828718 C116.988971,329.501282 121.941176,330.217949 126.783088,330.802308 L126.9375,330.824359 C128.150735,330.967692 129.363971,331.122051 130.588235,331.254359 L131.613971,331.375641 C143.040441,332.687692 154.863971,334.032821 165.066176,328.784615 C166.731618,327.935641 168.363971,326.921282 170.106618,325.840769 C176.426471,321.926667 182.977941,317.869231 190.224265,322.014872 C198,326.458205 202.875,326.8 211.511029,325.951026 L212.724265,325.829744 C218.106618,325.278462 224.183824,324.638974 227.966912,328.894872 C230.702206,329.016154 235.014706,329.688718 235.908088,332.599487 C236.360294,334.065897 236.272059,335.157436 235.632353,335.929231 C234.970588,336.778205 233.878676,336.976667 232.720588,336.976667 Z" id="Path"></path>
                        <path d="M229.268382,361.2 C218.922794,361.2 209.040441,360.108462 198.683824,358.950769 C196.091912,358.664103 193.477941,358.377436 190.841912,358.101795 C188.757353,357.881282 186.727941,357.671795 184.753676,357.451282 L181.367647,357.087436 C169.599265,355.819487 159.617647,354.871282 147.165441,355.014615 C137.801471,355.124872 108.518382,356.877949 104.922794,357.15359 C104.768382,357.175641 104.658088,357.175641 104.580882,357.175641 C104.128676,357.175641 103.753676,356.800769 103.753676,356.348718 C103.753676,355.896667 104.128676,355.521795 104.580882,355.521795 L104.691176,355.510769 C108.397059,355.213077 137.746324,353.448974 147.154412,353.349744 C159.683824,353.195385 169.731618,354.154615 181.544118,355.43359 L184.941176,355.797436 C186.915441,356.017949 188.944853,356.227436 191.029412,356.447949 C193.676471,356.72359 196.290441,357.010256 198.882353,357.296923 C211.113971,358.653077 222.672794,359.943077 235.069853,359.413846 L236.261029,359.369744 C246.165441,358.961795 257.404412,358.487692 265.345588,351.795128 C266.029412,351.221795 266.669118,350.571282 267.231618,349.876667 C267.518382,349.523846 268.047794,349.468718 268.400735,349.755385 C268.753676,350.042051 268.808824,350.571282 268.522059,350.924103 C267.893382,351.695897 267.1875,352.401538 266.415441,353.052051 C258.033088,360.108462 246.507353,360.582564 236.327206,361.001538 L235.136029,361.045641 C233.139706,361.166923 231.1875,361.2 229.268382,361.2 Z" id="Path"></path>
                        <path d="M267.849265,351.243846 C267.672794,351.243846 267.474265,351.188718 267.319853,351.067436 C266.955882,350.780769 266.911765,350.251538 267.198529,349.898718 C269.625,346.899744 270.738971,342.875385 270.330882,338.553333 C270.286765,338.101282 270.617647,337.682308 271.080882,337.649231 C271.522059,337.616154 271.952206,337.935897 271.985294,338.398974 C272.426471,343.162051 271.191176,347.61641 268.488971,350.946154 C268.323529,351.13359 268.091912,351.243846 267.849265,351.243846 Z" id="Path"></path>
                        <path d="M228.904412,306.402564 C228.805147,306.402564 228.716912,306.391538 228.628676,306.358462 C228.474265,306.303333 228.319853,306.226154 228.154412,306.148974 C221.393382,303.359487 213.397059,299.610769 205.665441,296.005385 C201.672794,294.142051 197.900735,292.366923 194.492647,290.834359 C194.073529,290.646923 193.886029,290.150769 194.073529,289.742821 C194.261029,289.323846 194.757353,289.13641 195.165441,289.323846 C198.584559,290.867436 202.367647,292.631538 206.360294,294.505897 C214.069853,298.100256 222.033088,301.837949 228.783088,304.61641 C228.9375,304.69359 229.058824,304.737692 229.180147,304.781795 C229.610294,304.936154 229.830882,305.421282 229.676471,305.840256 C229.566176,306.182051 229.246324,306.402564 228.904412,306.402564 Z" id="Path"></path>
                        <path d="M224.283088,328.012821 C224.227941,328.012821 224.161765,328.012821 224.106618,328.012821 C223.654412,328.001795 223.279412,327.626923 223.290441,327.174872 C223.301471,326.722821 223.665441,326.358974 224.117647,326.358974 C224.172794,326.37 224.227941,326.358974 224.283088,326.358974 C225.341912,326.358974 226.522059,326.215641 227.658088,326.083333 C228.551471,325.973077 229.455882,325.862821 230.327206,325.818718 C232.136029,325.719487 233.977941,325.76359 235.753676,325.796667 C236.680147,325.818718 237.606618,325.829744 238.522059,325.829744 C238.974265,325.829744 239.349265,326.204615 239.349265,326.656667 C239.349265,327.108718 238.974265,327.48359 238.522059,327.48359 C237.595588,327.48359 236.658088,327.461538 235.720588,327.450513 C233.977941,327.417436 232.158088,327.373333 230.415441,327.472564 C229.599265,327.516667 228.75,327.615897 227.856618,327.726154 C226.665441,327.869487 225.452206,328.012821 224.283088,328.012821 Z" id="Path"></path>
                        <path d="M127.985294,354.694872 C127.819853,354.694872 127.643382,354.650769 127.5,354.540513 C127.125,354.275897 127.047794,353.757692 127.3125,353.382821 C127.455882,353.173333 127.588235,352.963846 127.709559,352.721282 C129.981618,348.200769 129.419118,335.22359 126.132353,332.257692 C125.790441,331.96 125.757353,331.430769 126.077206,331.088974 C126.397059,330.747179 126.904412,330.714103 127.257353,331.033846 C131.194853,334.573077 131.878676,348.178718 129.220588,353.448974 C129.066176,353.768718 128.878676,354.077436 128.680147,354.353077 C128.503676,354.57359 128.25,354.694872 127.985294,354.694872 Z" id="Path"></path>
                        <path d="M181.466912,356.844872 C181.180147,356.844872 180.904412,356.701538 180.75,356.436923 C178.908088,353.294615 179.0625,348.189744 179.150735,345.46641 L179.150735,345.278974 C179.161765,344.826923 179.558824,344.463077 180,344.474103 C180.452206,344.485128 180.816176,344.871026 180.805147,345.323077 L180.794118,345.510513 C180.716912,348.090513 180.573529,352.864615 182.183824,355.598974 C182.415441,355.995897 182.283088,356.503077 181.886029,356.745641 C181.742647,356.811795 181.599265,356.844872 181.466912,356.844872 Z" id="Path"></path>
                        <path d="M263.801471,340.758462 C260.790441,340.758462 258.838235,336.789231 257.746324,334.562051 C257.613971,334.28641 257.481618,334.032821 257.371324,333.812308 C254.580882,328.376667 250.136029,324.848462 245.4375,321.099744 C244.356618,320.228718 243.275735,319.368718 242.183824,318.464615 C237.264706,314.374103 232.455882,310.184359 227.911765,305.994615 C226.621324,304.814872 225.330882,303.624103 224.073529,302.422308 C215.161765,293.987692 208.356618,282.113077 204.011029,273.91 C196.511029,259.775128 190.246324,243.225641 187.6875,230.722564 C187.588235,230.281538 187.875,229.829487 188.338235,229.752308 C188.790441,229.653077 189.231618,229.939744 189.308824,230.402821 C191.845588,242.762564 198.033088,259.135641 205.477941,273.149231 C209.779412,281.253077 216.485294,292.973333 225.209559,301.242564 C226.477941,302.433333 227.735294,303.624103 229.025735,304.792821 C233.558824,308.960513 238.345588,313.128205 243.253676,317.196667 C244.323529,318.089744 245.404412,318.949744 246.485294,319.809744 C251.327206,323.657692 255.904412,327.307179 258.849265,333.062564 C258.970588,333.294103 259.091912,333.558718 259.235294,333.845385 C260.305147,336.00641 262.080882,339.644872 264.308824,339.049487 C264.474265,339.005385 264.5625,338.917179 264.628676,338.773846 C265.301471,337.241282 262.886029,332.301795 261.849265,330.195897 C261.573529,329.63359 261.330882,329.148462 261.176471,328.77359 C261.011029,328.398718 261.132353,327.968718 261.463235,327.737179 C261.794118,327.505641 262.246324,327.560769 262.522059,327.847436 C263.018382,328.354615 263.691176,329.181538 264.551471,330.228974 C266.536765,332.632564 269.25,335.929231 271.676471,337.759487 C273.209559,338.917179 274.080882,339.071538 274.555147,338.994359 C275.691176,338.817949 275.856618,338.365897 275.900735,338.211538 C276.727941,335.852051 270.518382,329.093333 268.180147,326.54641 C267.330882,325.609231 266.746324,324.991795 266.503676,324.65 C266.272059,324.330256 266.316176,323.889231 266.591912,323.602564 C266.867647,323.315897 267.297794,323.260769 267.639706,323.470256 C268.632353,324.098718 270.033088,325.33359 271.643382,326.777949 C274.698529,329.501282 279.319853,333.602821 281.470588,333.25 C281.834559,333.194872 282.088235,332.99641 282.286765,332.610513 C283.852941,329.81 277.389706,324.815385 273.529412,321.838462 C272.338235,320.923333 271.3125,320.129487 270.650735,319.512051 C270.341912,319.225385 270.297794,318.751282 270.540441,318.409487 C274.268382,313.359744 274.720588,307.251538 273.838235,304.539231 C273.573529,303.701282 273.220588,303.32641 272.988971,303.249231 C272.073529,303.017692 271.323529,303.017692 270.805147,303.249231 C269.856618,303.690256 269.625,305.277949 269.382353,306.953846 C268.996324,309.666154 268.466912,313.348718 263.944853,313.348718 C263.900735,313.348718 263.856618,313.348718 263.8125,313.348718 C259.974265,313.29359 258.308824,311.253846 258.022059,309.368462 C257.669118,307.053077 259.246324,304.098205 262.908088,302.907436 C263.558824,302.697949 264.408088,302.642821 265.3125,302.565641 C266.735294,302.46641 268.356618,302.356154 269.139706,301.672564 C269.272059,301.540256 269.393382,301.396923 269.459559,301.242564 C269.801471,300.547949 269.647059,300.250256 269.602941,300.162051 C269.216912,299.379231 267.264706,298.982308 266.106618,298.750769 L265.6875,298.662564 C262.224265,297.956923 259.786765,299.02641 256.963235,300.261282 C255.463235,300.922821 253.919118,301.595385 252.099265,302.069487 C245.338235,303.767436 242.404412,299.10359 240.066176,295.365897 L239.503676,294.461795 C233.591912,285.244359 219.849265,262.333077 215.117647,252.575385 C209.558824,241.119744 208.610294,235.044615 206.702206,222.949487 C205.753676,216.874359 204.5625,209.310769 202.411765,198.770256 C199.908088,186.399487 197.338235,178.02 185.007353,174.591026 C184.058824,174.32641 182.580882,174.017692 180.849265,173.642821 L179.823529,173.411282 C178.102941,173.025385 176.161765,172.595385 174.154412,172.077179 C166.952206,170.246923 157.367647,167.115641 157.367647,161.128718 C157.367647,159.552051 157.290441,157.997436 157.224265,156.553077 L157.113971,154.811026 C157.036765,153.752564 156.970588,152.705128 156.904412,151.657692 C156.871324,151.10641 156.816176,150.588205 156.772059,150.125128 C156.540441,147.875897 156.341912,145.924359 159.794118,144.943077 C163.290441,143.950769 167.801471,142.517436 171.816176,139.992564 C176.955882,136.784103 180.838235,131.855641 184.014706,124.490513 C185.481618,121.094615 186.595588,117.610513 187.400735,113.839744 C188.768382,107.334615 189.077206,100.928718 189.352941,94.7212821 C189.397059,93.2879487 189.474265,91.8215385 189.540441,90.3551282 C189.694853,87.014359 189.893382,84.2028205 190.158088,81.5346154 C190.202206,81.0825641 190.610294,80.7407692 191.073529,80.7848718 C191.525735,80.8289744 191.867647,81.2369231 191.823529,81.7 C191.558824,84.3461538 191.371324,87.1246154 191.205882,90.4323077 C191.128676,91.9097436 191.0625,93.3541026 191.018382,94.7874359 C190.731618,101.061026 190.444853,107.544103 189.033088,114.181538 C188.205882,118.07359 187.069853,121.645897 185.558824,125.141026 C182.238971,132.825897 178.158088,137.996923 172.709559,141.403846 C168.507353,144.038974 163.841912,145.527436 160.246324,146.541795 C158.139706,147.148205 158.183824,147.677436 158.426471,149.948718 C158.470588,150.433846 158.536765,150.974103 158.569853,151.558462 C158.625,152.605897 158.702206,153.653333 158.757353,154.700769 L158.867647,156.453846 C158.944853,157.931282 159.011029,159.507949 159.011029,161.117692 C159.011029,164.69 164.238971,167.832308 174.540441,170.45641 C176.514706,170.96359 178.455882,171.39359 180.154412,171.779487 L181.169118,172 C182.911765,172.374872 184.422794,172.694615 185.404412,172.970256 C198.617647,176.641795 201.452206,185.837179 203.988971,198.40641 C206.128676,208.98 207.319853,216.565641 208.290441,222.651795 C210.165441,234.592564 211.102941,240.579487 216.5625,251.825641 C221.272059,261.539231 234.970588,284.351282 240.860294,293.546667 L241.433824,294.461795 C243.705882,298.100256 246.066176,301.848974 251.658088,300.437692 C253.345588,300.007692 254.823529,299.357179 256.268382,298.728718 C259.235294,297.427692 262.036765,296.203846 265.996324,297.019744 L266.404412,297.107949 C268.058824,297.449744 270.308824,297.890769 271.058824,299.401282 C271.345588,300.007692 271.378676,300.669231 271.147059,301.385897 C271.797794,301.308718 272.536765,301.385897 273.375,301.595385 C274.025735,301.804872 274.830882,302.367179 275.349265,303.976923 C276.441176,307.405897 275.713235,313.624359 272.238971,318.718205 C272.823529,319.214359 273.595588,319.798718 274.455882,320.460256 C279.286765,324.186923 285.893382,329.291795 283.643382,333.349231 C283.202206,334.165128 282.496324,334.672308 281.647059,334.815641 C279.716912,335.124359 277.158088,333.558718 274.522059,331.441795 C276.650735,334.28641 277.996324,336.888462 277.378676,338.674615 C277.136029,339.369231 276.474265,340.273333 274.720588,340.548974 C273.551471,340.725385 272.205882,340.229231 270.584559,338.994359 C268.764706,337.638205 266.867647,335.565385 265.180147,333.591795 C266.117647,335.951282 266.636029,338.035128 266.0625,339.347179 C265.797794,339.95359 265.301471,340.372564 264.661765,340.548974 C264.430147,340.703333 264.110294,340.758462 263.801471,340.758462 Z M268.378676,303.855641 C267.452206,304.098205 266.426471,304.164359 265.477941,304.230513 C264.672794,304.285641 263.911765,304.340769 263.470588,304.484103 C260.713235,305.377179 259.477941,307.527179 259.709559,309.114872 C259.941176,310.680513 261.507353,311.628718 263.878676,311.672821 C266.867647,311.727949 267.330882,309.820513 267.783088,306.700256 C267.926471,305.73 268.069853,304.726667 268.378676,303.855641 Z" id="Shape"></path>
                        <path d="M37.0367647,340.758462 C36.7389706,340.758462 36.4080882,340.714359 36.0882353,340.626154 C35.3933824,340.438718 34.8860294,339.964615 34.6213235,339.292051 C34.6102941,339.258974 34.5992647,339.214872 34.5882353,339.181795 C34.1470588,337.858718 34.6654412,335.874103 35.5588235,333.635897 C32.0073529,337.792564 28.6654412,341.023077 26.0073529,340.615128 C24.2536765,340.339487 23.5919118,339.44641 23.3492647,338.740769 C22.7205882,336.94359 24.0661765,334.341538 26.2058824,331.496923 C23.5698529,333.602821 21,335.190513 19.0698529,334.870769 C18.2205882,334.727436 17.5257353,334.220256 17.0735294,333.404359 C14.8125,329.335897 21.4411765,324.231026 26.2830882,320.504359 C27.1323529,319.842821 27.8933824,319.247436 28.4889706,318.773333 C25.0367647,313.690513 24.2867647,307.472051 25.3786765,304.043077 C25.8970588,302.433333 26.7132353,301.86 27.3088235,301.672564 C28.1911765,301.452051 28.9411765,301.385897 29.5919118,301.452051 C29.3492647,300.713333 29.3713235,300.051795 29.6691176,299.45641 C30.4191176,297.934872 32.6801471,297.482821 34.3125,297.163077 L34.7205882,297.074872 C38.7022059,296.258974 41.5036765,297.482821 44.4485294,298.783846 C45.8933824,299.423333 47.3713235,300.073846 49.0698529,300.503846 C54.6397059,301.915128 56.9889706,298.155385 59.2610294,294.538974 C59.4485294,294.230256 59.6470588,293.910513 59.8455882,293.612821 C65.7352941,284.439487 79.4227941,261.627436 84.1544118,251.891795 C88.7426471,242.420769 91.5110294,232.045641 93.1102941,218.252564 L93.3529412,216.146667 C94.4889706,206.322821 96.0220588,192.882564 100.466912,184.260513 C104.338235,176.752051 110.845588,175.076154 117.727941,173.312051 C118.522059,173.102564 119.338235,172.904103 120.143382,172.672564 C121.290441,172.363846 122.514706,172.022051 123.738971,171.614103 C124.268382,171.437692 124.797794,171.239231 125.316176,171.051795 C132.011029,168.471795 136.025735,164.43641 137.040441,161.558718 C137.183824,161.139744 137.404412,158.967692 137.404412,155.450513 C137.404412,150.985128 137.018382,148.625641 136.731618,148.052308 C122.988971,144.678462 112.246324,134.623077 108.011029,121.116667 C107.393382,119.165128 106.863971,117.026154 106.444853,114.765897 C105.099265,107.687436 104.724265,99.8041026 104.514706,92.3507692 L104.470588,90.6417949 C104.4375,89.1974359 104.393382,87.7971795 104.360294,86.4520513 C104.349265,85.4817949 104.327206,84.5666667 104.272059,83.6735897 C104.25,83.2215385 104.613971,82.835641 105.066176,82.8025641 C105.518382,82.7474359 105.904412,83.144359 105.9375,83.5964103 C105.970588,84.5005128 105.992647,85.4376923 106.025735,86.4079487 C106.069853,87.7420513 106.113971,89.1533333 106.147059,90.5976923 L106.180147,92.3066667 C106.389706,99.6938462 106.753676,107.488974 108.077206,114.457179 C108.485294,116.662308 108.992647,118.724103 109.599265,120.620513 C113.680147,133.630769 124.047794,143.289231 137.327206,146.486667 C137.900735,146.641026 139.069853,146.938718 139.069853,155.450513 C139.069853,157.942308 138.948529,161.194872 138.617647,162.121026 C137.481618,165.351538 133.113971,169.85 125.911765,172.617436 C125.371324,172.826923 124.830882,173.014359 124.279412,173.201795 C123.011029,173.620769 121.764706,173.97359 120.595588,174.282308 C119.768382,174.502821 118.963235,174.712308 118.147059,174.921795 C111.341912,176.663846 105.474265,178.174359 101.944853,185.021282 C97.6323529,193.367692 96.1213235,206.642564 94.9963235,216.334103 L94.7536765,218.451026 C93.1323529,232.431538 90.3088235,242.972051 85.6433824,252.630513 C80.8897059,262.421282 67.1360294,285.310513 61.2463235,294.516923 L60.6727941,295.432051 C58.3235294,299.169744 55.4117647,303.822564 48.6617647,302.124615 C46.8308824,301.650513 45.2757353,300.977949 43.7867647,300.31641 C40.9632353,299.081538 38.5257353,298.001026 35.0625,298.717692 L34.6433824,298.805897 C33.4852941,299.037436 31.5330882,299.434359 31.1470588,300.217179 C31.0257353,300.470769 31.0698529,300.834615 31.2904412,301.286667 C31.4227941,301.540256 31.6102941,301.738718 31.875,301.915128 C32.7242647,302.433333 34.1691176,302.54359 35.4595588,302.620769 C36.3639706,302.675897 37.2132353,302.742051 37.8529412,302.940513 C41.5147059,304.120256 43.0919118,307.097179 42.7389706,309.401538 C42.4632353,311.275897 40.7867647,313.315641 36.9595588,313.370769 C32.3272059,313.492051 31.7757353,309.710256 31.3786765,306.975897 C31.1470588,305.421282 30.9485294,303.943846 30.1654412,303.392564 C29.6691176,303.039744 28.875,303.006667 27.75,303.282308 C27.5735294,303.337436 27.2205882,303.723333 26.9558824,304.572308 C26.0735294,307.295641 26.5367647,313.403846 30.2536765,318.431538 C30.5073529,318.773333 30.4632353,319.247436 30.1433824,319.534103 C29.4816176,320.151538 28.4669118,320.934359 27.2757353,321.849487 C23.6691176,324.627949 16.9301471,329.821026 18.4963235,332.632564 C18.7058824,333.007436 18.9705882,333.205897 19.3125,333.272051 C21.4742647,333.646923 26.0955882,329.512308 29.1507353,326.8 C30.7610294,325.355641 32.1617647,324.120769 33.1544118,323.492308 C33.4963235,323.271795 33.9264706,323.337949 34.2022059,323.624615 C34.4779412,323.911282 34.5,324.341282 34.2904412,324.672051 C34.0477941,325.024872 33.4852941,325.642308 32.6139706,326.590513 C30.2757353,329.12641 24.0772059,335.896154 24.8933824,338.255641 C24.9375,338.398974 25.1029412,338.862051 26.2389706,339.038462 C28.7095588,339.435385 33.7720588,333.261026 36.2205882,330.284103 C37.0919118,329.225641 37.7757353,328.398718 38.2830882,327.880513 C38.5588235,327.593846 39,327.538718 39.3419118,327.770256 C39.6838235,328.001795 39.7941176,328.431795 39.6286765,328.795641 C39.4632353,329.170513 39.2095588,329.688718 38.9227941,330.273077 C37.8308824,332.500256 35.5588235,337.142051 36.1544118,338.729744 C36.1654412,338.751795 36.1654412,338.762821 36.1764706,338.784872 C36.2536765,338.939231 36.3419118,339.027436 36.5183824,339.060513 C38.7242647,339.677949 40.5110294,336.017436 41.5919118,333.845385 C41.7352941,333.569744 41.8566176,333.305128 41.9779412,333.07359 C44.9558824,327.307179 49.5220588,323.646667 54.3860294,319.787692 C55.4448529,318.949744 56.5147059,318.089744 57.5735294,317.207692 L57.8492647,316.976154 C58.7867647,316.193333 59.7022059,315.421538 60.6286765,314.627692 C65.9007353,310.162308 70.9301471,305.663846 75.6066176,301.242564 C84.3419118,292.973333 91.0588235,281.253077 95.3602941,273.149231 C99.2316176,265.828205 108.628676,247.007436 112.047794,230.347692 C112.147059,229.906667 112.577206,229.597949 113.040441,229.697179 C113.481618,229.79641 113.779412,230.22641 113.691176,230.667436 C110.227941,247.536667 100.753676,266.544872 96.8382353,273.921026 C92.4926471,282.124103 85.6764706,294.009744 76.7536765,302.444359 C72.0551471,306.887692 67.0036765,311.408205 61.7095588,315.884615 C60.7830882,316.678462 59.8566176,317.450256 58.9191176,318.244103 L58.6433824,318.475641 C57.5735294,319.368718 56.4926471,320.217692 55.4338235,321.077692 C50.7242647,324.837436 46.2683824,328.365641 43.4669118,333.823333 C43.3566176,334.043846 43.2242647,334.297428 43.0919118,334.562051 C41.9889706,336.778205 40.0367647,340.758462 37.0367647,340.758462 Z M32.4485294,303.866667 C32.7573529,304.737692 32.9007353,305.73 33.0330882,306.722308 C33.4742647,309.842564 33.9044118,311.738974 36.9485294,311.694872 C39.3198529,311.661795 40.8860294,310.691538 41.1176471,309.147949 C41.3602941,307.560256 40.1139706,305.410256 37.3566176,304.517179 C36.9154412,304.373846 36.1544118,304.329744 35.3602941,304.26359 C34.4117647,304.175385 33.3860294,304.109231 32.4485294,303.866667 Z" id="Shape"></path>
                        <path d="M298.389706,386.503846 L1.80882353,386.503846 C1.45588235,386.503846 1.14705882,386.283333 1.02573529,385.952564 C0.904411765,385.610769 1.01470588,385.257949 1.29044118,385.02641 C16.7316176,372.512308 39.7720588,352.963846 40.0036765,352.77641 C40.3566176,352.478718 40.8860294,352.522821 41.1727941,352.875641 C41.4705882,353.228462 41.4264706,353.757692 41.0735294,354.044359 C40.8529412,354.231795 19.5330882,372.313846 4.14705882,384.838974 L298.378676,384.838974 C298.830882,384.838974 299.20612,385.213846 299.20612,385.665897 C299.216912,386.128974 298.841912,386.503846 298.389706,386.503846 Z" id="Path"></path>
                        <path d="M298.389706,386.503846 C298.125,386.503846 297.871324,386.382564 297.716912,386.151026 C293.073529,379.590769 267.485294,351.254872 267.242647,350.990256 C267.099265,350.835897 267.022059,350.637436 267.022059,350.427949 C267.022059,349.975897 267.397059,349.59 267.849265,349.59 C268.136029,349.59 268.378676,349.733333 268.533088,349.953846 C270.055147,351.629744 294.485294,378.752821 299.0625,385.202821 C299.327206,385.577692 299.238971,386.095897 298.875,386.360513 C298.709559,386.448718 298.544118,386.503846 298.389706,386.503846 Z" id="Path"></path>
                        <path d="M105.231618,86.5953846 C104.8125,86.5953846 104.448529,86.2866667 104.404412,85.845641 C104.360294,85.3935897 104.691176,84.9746154 105.154412,84.9305128 C119.757353,83.4310256 138.915441,70.8728205 146.977941,60.5638462 C147.783088,59.5053846 148.411765,58.6012821 148.863971,57.7964103 C149.095588,57.3994872 149.602941,57.2561538 150,57.4876923 C150.397059,57.7192308 150.540441,58.2264103 150.308824,58.6233333 C149.8125,59.494359 149.150735,60.4646154 148.290441,61.5892308 C140.007353,72.1738462 120.341912,85.0407692 105.330882,86.5953846 C105.275735,86.5953846 105.253676,86.5953846 105.231618,86.5953846 Z" id="Path"></path>
                    </g>
                </g>
            </g>
        </g>
    </g>
</svg>