<?xml version="1.0" encoding="UTF-8"?>
<svg width="138px" height="120px" viewBox="0 0 138 120" version="1.1" xmlns="http://www.w3.org/2000/svg" xmlns:xlink="http://www.w3.org/1999/xlink">
    <!-- Generator: Sketch 61 (89581) - https://sketch.com -->
    <title>Group 10</title>
    <desc>Created with Sketch.</desc>
    <defs>
        <polygon id="path-1" points="0.000226311321 0.737090634 137.619685 0.737090634 137.619685 85 0.000226311321 85"></polygon>
    </defs>
    <g id="Home" stroke="none" stroke-width="1" fill="none" fill-rule="evenodd">
        <g id="Desktop-Copy" transform="translate(-656.000000, -951.000000)">
            <g id="Group-10" transform="translate(656.000000, 951.000000)">
                <path d="M68.0536186,4.56193693 C74.3230352,4.34106368 79.2336016,9.37249443 79.4175643,15.5005686 C79.2390123,21.4649185 74.5719259,26.4515567 68.4570997,26.4515567 C62.4628542,26.4515567 57.5182779,21.4710967 57.4973349,15.5005686 C57.4757655,9.68604176 62.2487463,4.76659221 68.0536186,4.56193693 M71.0580844,30.7925655 C78.4119532,29.6017035 83.5157577,23.2651127 83.9609783,16.0249495 C83.9903504,15.8619975 84.0042636,15.6874613 83.9988529,15.5005686 C83.8071607,9.09987815 80.0931246,3.37416402 74.0447724,1.02642043 C67.8719748,-1.36997705 60.6626481,0.534475476 56.4686086,5.64699605 C47.4969505,16.5802217 57.2013674,33.0360508 71.0580844,30.7925655" id="Fill-1" fill="#AB78B3"></path>
                <g id="Group-5" transform="translate(0.000000, 35.000000)">
                    <mask id="mask-2" fill="white">
                        <use xlink:href="#path-1"></use>
                    </mask>
                    <g id="Clip-4"></g>
                    <path d="M132.790347,56.9521636 C131.849647,62.0428909 128.980013,66.4775727 125.260913,69.9687545 C115.646147,78.9918909 101.144647,81.7636636 88.4609133,79.9771182 C82.6020467,79.0452091 77.0130467,77.2231182 71.9446133,74.2187545 C76.97778,70.2593 81.09478,65.1376636 82.8742133,58.8383909 C84.8154133,51.9603455 83.7666133,43.0631636 78.8584133,37.6007545 C74.7912467,33.0725727 67.7908133,32.0556636 62.5621467,35.1056182 C56.17198,38.8317091 53.3529467,48.0781636 53.8842467,55.1007091 C54.4600133,62.7089818 58.4566467,69.0600273 63.9337133,73.9699364 C54.22618,79.0892545 42.66868,80.4701182 31.9537467,78.2863909 C22.5421467,76.3692545 12.82158,71.5513 7.66728,63.0428 C1.78618,53.3327091 4.99774667,42.0292545 13.26318,34.8282091 C17.3955133,31.2273 22.4593467,28.7298455 27.67268,27.1728 C30.4219467,26.3506182 33.2517133,25.7540727 36.1029467,25.4457545 C38.81158,25.1513455 41.5593133,25.3267545 44.2526133,24.9581636 C49.6392133,24.2209818 53.6151467,21.1022545 56.58368,16.6613909 C58.8177467,13.3193455 61.0234467,8.89084545 64.3078467,6.42120909 C67.6934467,3.87661818 72.56638,5.40120909 75.0749133,8.27884545 C78.2895467,11.9670727 80.8180133,16.2510727 83.73748,20.1695727 C86.6937467,24.1375273 90.8383467,26.1767545 95.73428,26.3583455 C106.865513,26.7717545 118.25358,29.6146182 126.304347,37.8967091 C131.196447,42.9287091 134.09828,49.8708909 132.790347,56.9521636 M67.98938,71.5057091 C62.4962133,67.0362545 58.3784467,60.7439364 58.3646126,53.4200273 C58.3516133,46.8487545 62.0776133,37.1803909 70.0049467,37.9415273 C77.54358,38.6663455 79.90568,48.3169364 79.11678,54.6502091 C78.23588,61.7330273 73.5883467,67.4697545 67.98938,71.5057091 M137.291447,49.3570273 C135.219913,36.8682091 124.100947,28.3419364 112.83938,24.5161636 C109.960547,23.5386636 106.993547,22.8524818 103.98898,22.4066182 C100.76898,21.9290727 97.5137133,22.1068 94.31288,21.6825727 C87.7540467,20.8132545 84.6030467,13.4066636 81.04648,8.57634545 C79.1413133,5.99002727 77.12958,3.07143636 74.13268,1.6898 C71.7422133,0.588663636 68.8304133,0.607981818 66.2659133,0.926345455 C56.8083133,2.09934545 55.41528,14.8454818 48.0131133,18.9842091 C45.0944133,20.6169818 42.1642133,20.4578 38.9664467,20.6332091 C35.6452467,20.8155727 32.3202133,21.2784364 29.08258,22.0527091 C23.10258,23.4838 17.2828133,26.0183455 12.3470133,29.7359364 C3.07571333,36.7190727 -2.67352,48.4081182 1.25181333,59.9797091 C5.06061333,71.2074364 15.7617467,78.4795727 26.6484133,81.6863909 C40.1785467,85.6698 55.60848,84.2294364 67.84678,77.0438455 C73.6742133,80.9430273 80.3534133,83.2959818 87.2534133,84.3940273 C99.8635467,86.1705273 113.475713,84.1676182 124.107847,76.7239364 C132.95288,70.5313 139.14218,60.5128909 137.291447,49.3570273" id="Fill-3" fill="#AB78B3" mask="url(#mask-2)"></path>
                </g>
                <path d="M35.9996277,42 C38.2093997,42 40,40.2099777 40,38 C40,35.7907669 38.2093997,34 35.9996277,34 C33.7906003,34 32,35.7907669 32,38 C32,40.2099777 33.7906003,42 35.9996277,42" id="Fill-6" fill="#AB78B3"></path>
                <path d="M103.999628,42 C106.2094,42 108,40.2099777 108,38 C108,35.7907669 106.2094,34 103.999628,34 C101.7906,34 100,35.7907669 100,38 C100,40.2099777 101.7906,42 103.999628,42" id="Fill-8" fill="#AB78B3"></path>
            </g>
        </g>
    </g>
</svg>