<?xml version="1.0" encoding="UTF-8"?>
<svg width="74px" height="125px" viewBox="0 0 74 125" version="1.1" xmlns="http://www.w3.org/2000/svg" xmlns:xlink="http://www.w3.org/1999/xlink">
    <!-- Generator: Sketch 61 (89581) - https://sketch.com -->
    <title>Group 20</title>
    <desc>Created with Sketch.</desc>
    <defs>
        <polygon id="path-1" points="8.50574713e-05 0.380912162 73.2421379 0.380912162 73.2421379 124.999662 8.50574713e-05 124.999662"></polygon>
    </defs>
    <g id="Home" stroke="none" stroke-width="1" fill="none" fill-rule="evenodd">
        <g id="Discover-Meditation---Desktop-Copy" transform="translate(-270.000000, -1338.000000)">
            <g id="Group-20" transform="translate(270.000000, 1338.000000)">
                <path d="M58,46 C56.8957746,46 56,45.2014732 56,44.2171256 L56,27.7828744 C56,26.7985268 56.8957746,26 58,26 C59.1051643,26 60,26.7985268 60,27.7828744 L60,44.2171256 C60,45.2014732 59.1051643,46 58,46" id="Fill-1" fill="#AB78B3"></path>
                <path d="M45,47 C43.8948357,47 43,46.191465 43,45.1947803 L43,14.8052197 C43,13.8076875 43.8948357,13 45,13 C46.1051643,13 47,13.8076875 47,14.8052197 L47,45.1947803 C47,46.191465 46.1051643,47 45,47" id="Fill-3" fill="#AB78B3"></path>
                <path d="M32,47 C30.8948357,47 30,46.1877395 30,45.1856109 L30,14.8135377 C30,13.8122605 30.8948357,13 32,13 C33.1051643,13 34,13.8122605 34,14.8135377 L34,45.1856109 C34,46.1877395 33.1051643,47 32,47" id="Fill-5" fill="#AB78B3"></path>
                <path d="M32.1646245,82 C31.2021465,82 30.3937683,81.2685586 30.3352276,80.3207046 C29.7188284,70.3086817 19.0480637,68.8214735 18.5935123,68.7635957 C17.6826879,68.6453236 17,67.8878792 17,66.9911925 L17,41.7875017 C17,40.8002237 17.8212916,40 18.8345623,40 C19.8469721,40 20.6682637,40.8002237 20.6682637,41.7875017 L20.6682637,65.5123724 C25.7561394,66.7001258 33.4241105,70.8052565 33.9966041,80.1051307 C34.0577275,81.0907312 33.2863677,81.9370893 32.2765406,81.9974836 C32.2386613,81.9983224 32.2016429,82 32.1646245,82" id="Fill-7" fill="#AB78B3"></path>
                <g id="Group-11">
                    <mask id="mask-2" fill="white">
                        <use xlink:href="#path-1"></use>
                    </mask>
                    <g id="Clip-10"></g>
                    <path d="M65.7843839,124.999662 L18.7450506,124.999662 C17.7439241,124.999662 16.9324759,124.194764 16.9324759,123.200676 L16.9324759,94.9819257 L5.88606207,83.1981419 C2.0907977,79.15 8.50574713e-05,73.8738176 8.50574713e-05,68.3408784 L8.50574713e-05,43.0190878 C8.50574713e-05,37.5258446 4.11346437,32.8670608 9.36406207,32.4143581 C12.1513954,32.1787162 14.8247517,33.0190878 16.9324759,34.8011824 L16.9324759,15.2952703 C16.9324759,11.1035473 19.8924759,7.42702703 23.8187287,6.73868243 C26.0497862,6.35016892 28.3080621,6.84425676 30.1274414,8.10185811 C30.2933034,5.86199324 31.3590736,3.78429054 33.106154,2.32820946 C35.0114414,0.740371622 37.528292,0.0765202703 40.0153724,0.510641892 C43.6405218,1.14493243 46.4431655,4.33327703 46.8480391,8.11959459 C48.6733724,6.84847973 50.9495103,6.35185811 53.1856713,6.73868243 C57.1110736,7.42702703 60.0710736,11.1035473 60.0710736,15.2952703 L60.0710736,21.7868243 C61.8844989,20.5410473 64.134269,20.0503378 66.3559701,20.4396959 C70.282223,21.1288851 73.242223,24.8070946 73.242223,28.9962838 L73.242223,76.2116554 C73.242223,76.3932432 73.2150046,76.5731419 73.1597172,76.7445946 L70.4684989,85.3535473 C68.5632115,91.4548986 67.596108,97.7859797 67.596108,104.17027 C67.596108,105.164358 66.7855103,105.969257 65.7843839,105.969257 C64.784108,105.969257 63.9726598,105.164358 63.9726598,104.17027 C63.9726598,97.4253378 64.9942,90.7353041 67.0075103,84.2876689 L69.6179241,75.9396959 L69.6179241,28.9962838 C69.6179241,26.5275338 67.9448437,24.372973 65.7265448,23.9844595 C64.2814184,23.7251689 62.8771195,24.0976351 61.778177,25.0140203 C60.6945448,25.9177365 60.0710736,27.2420608 60.0710736,28.6474662 C60.0710736,29.6415541 59.2604759,30.4464527 58.2593494,30.4464527 C57.2590736,30.4464527 56.4476253,29.6415541 56.4476253,28.6474662 L56.4476253,15.2952703 C56.4476253,12.8265203 54.7753954,10.6711149 52.5570966,10.2842905 C51.1119701,10.0275338 49.7093724,10.395777 48.606177,11.3121622 C47.5216943,12.2175676 46.8990736,13.5410473 46.8990736,14.9447635 C46.8990736,15.9388514 46.0884759,16.7445946 45.0873494,16.7445946 C44.086223,16.7445946 43.2756253,15.9388514 43.2756253,14.9447635 L43.2756253,9.06722973 C43.2756253,6.59763514 41.6033954,4.44307432 39.3867977,4.05625 C37.9399701,3.79864865 36.5356713,4.16858108 35.4358782,5.08496622 C34.3513954,5.98868243 33.7287747,7.31385135 33.7287747,8.71841216 L33.7287747,14.9447635 C33.7287747,15.9388514 32.9173264,16.7445946 31.9170506,16.7445946 C30.9159241,16.7445946 30.1053264,15.9388514 30.1053264,14.9447635 C30.1053264,13.5410473 29.4818552,12.2175676 28.3965218,11.3121622 C27.2950276,10.3940878 25.8907287,10.0258446 24.4464529,10.2842905 C22.228154,10.6711149 20.5567747,12.8265203 20.5567747,15.2952703 L20.5567747,42.5815878 C20.5567747,43.5756757 19.746177,44.3805743 18.7450506,44.3805743 C17.7439241,44.3805743 16.9324759,43.5756757 16.9324759,42.5815878 C16.9324759,40.7336149 16.1456943,38.9574324 14.7745678,37.7074324 C13.3847287,36.4413851 11.5636483,35.841723 9.67877471,35.9988176 C6.28328046,36.2927365 3.62353333,39.3746622 3.62353333,43.0190878 L3.62353333,68.3408784 C3.62353333,72.9599662 5.36891264,77.3670608 8.5390046,80.7462838 L20.0710966,93.0478041 C20.3832575,93.3797297 20.5567747,93.8180743 20.5567747,94.2733108 L20.5567747,121.401689 L63.9726598,121.401689 L63.9726598,114.250507 C63.9726598,113.258108 64.784108,112.452365 65.7843839,112.452365 C66.7855103,112.452365 67.596108,113.258108 67.596108,114.250507 L67.596108,123.200676 C67.596108,124.194764 66.7855103,124.999662 65.7843839,124.999662" id="Fill-9" fill="#AB78B3" mask="url(#mask-2)"></path>
                </g>
                <path d="M38.5534236,86 C37.676295,86 36.7914271,85.9227711 35.907419,85.7657674 C34.91248,85.5883956 34.2511939,84.6472219 34.4300593,83.6644634 C34.6106446,82.6842509 35.5548477,82.0256839 36.5601059,82.2064503 C40.9216708,82.996561 45.3425709,81.154101 47.8337881,77.5472584 C49.1305625,75.6717003 49.6104035,73.4099979 49.1821583,71.1796962 C48.7556331,68.9493945 47.4734774,67.0178242 45.5730322,65.739729 C44.1335093,64.7688518 42.3973107,64.4107136 40.6869099,64.7306617 C38.9756493,65.0497612 37.4914101,66.0070596 36.5110899,67.4285799 C35.7792895,68.4860213 35.5092715,69.7598732 35.7491919,71.0167518 C35.9899723,72.2727816 36.7131734,73.3616237 37.7829264,74.0838409 C38.6187783,74.6456597 38.8354807,75.7701459 38.2644871,76.595052 C37.6943536,77.4216554 36.5523665,77.6346713 35.7199543,77.0703065 C33.8410073,75.8040926 32.5726105,73.8928904 32.1503849,71.6888975 C31.7281593,69.4823585 32.2019807,67.2461161 33.4841363,65.3917747 C35.0156716,63.1733544 37.332323,61.6763026 40.0058454,61.1772853 C42.6862472,60.6791167 45.3898671,61.2392381 47.6368641,62.751566 C50.3456436,64.5745067 52.1729948,67.328437 52.7835451,70.5092478 C53.3915156,73.6883612 52.7087312,76.9116055 50.8616016,79.583215 C48.0608096,83.6390033 43.4189075,86 38.5534236,86" id="Fill-12" fill="#AB78B3"></path>
                <path d="M23.8398013,71 C22.8821872,71 22.0806224,70.2656644 22.0277533,69.3174609 C21.8094548,65.42189 22.8821872,61.6533032 25.131685,58.4235633 C30.2915451,51.0108675 39.7329551,47.4778695 48.6166806,49.6182197 C49.592202,49.8538085 50.1865537,50.8187205 49.946937,51.7719365 C49.7064676,52.7276588 48.7249771,53.3074414 47.7486029,53.0751942 C40.3290123,51.2815441 32.4429791,54.2381011 28.1315839,60.4294105 C26.3365904,63.008357 25.480451,66.0133685 25.6552603,69.1228077 C25.7106876,70.1035926 24.9423793,70.9431913 23.9404233,70.9966583 C23.9071669,70.9983292 23.8739105,71 23.8398013,71" id="Fill-14" fill="#AB78B3"></path>
                <path d="M63.1599755,65 C62.4978583,65 61.8582149,64.6567202 61.5280207,64.0563952 C60.0637561,61.3822954 58.0920988,59.0506463 55.6683693,57.127782 C54.8835097,56.5067275 54.7745974,55.3931412 55.4228846,54.6410765 C56.0703073,53.8890119 57.2285804,53.7828771 58.0151688,54.4064191 C60.8166336,56.6294459 63.0951468,59.3226167 64.7884728,62.4113056 C65.2612902,63.2753093 64.9146727,64.3432909 64.0157145,64.7976805 C63.7425696,64.9353241 63.4486794,65 63.1599755,65" id="Fill-16" fill="#AB78B3"></path>
                <path d="M42.4111551,95 C37.9913544,95 33.6606523,93.8151001 29.8885293,91.5728917 C29.0232456,91.0591232 28.7413859,89.9465251 29.2596994,89.0882594 C29.7754427,88.227442 30.8977414,87.9475912 31.7613117,88.4639116 C34.9680017,90.3701289 38.6510262,91.3764007 42.4111551,91.3764007 C51.6919654,91.3764007 59.9181577,85.1873613 62.4163431,76.3240034 C62.6904924,75.3594115 63.7065583,74.8005607 64.6669375,75.065951 C65.6375974,75.3372957 66.2030303,76.3367626 65.9323079,77.3005039 C62.9937701,87.7221795 53.322297,95 42.4111551,95" id="Fill-18" fill="#AB78B3"></path>
            </g>
        </g>
    </g>
</svg>