<?xml version="1.0" encoding="UTF-8"?>
<svg width="111px" height="144px" viewBox="0 0 111 144" version="1.1" xmlns="http://www.w3.org/2000/svg" xmlns:xlink="http://www.w3.org/1999/xlink">
    <!-- Generator: Sketch 61 (89581) - https://sketch.com -->
    <title>Group 29</title>
    <desc>Created with Sketch.</desc>
    <defs>
        <polygon id="path-1" points="0.436473016 0.110305882 57.3592321 0.110305882 57.3592321 16 0.436473016 16"></polygon>
        <polygon id="path-3" points="6.524288e-05 0.118776471 56.8404919 0.118776471 56.8404919 16 6.524288e-05 16"></polygon>
    </defs>
    <g id="Home" stroke="none" stroke-width="1" fill="none" fill-rule="evenodd">
        <g id="Discover-Meditation---Desktop-Copy" transform="translate(-252.000000, -932.000000)">
            <g id="Group-29" transform="translate(252.000000, 932.000000)">
                <path d="M59.9716553,67 C59.5953386,67 59.2190219,66.8937672 58.8827002,66.6635962 C57.9855393,66.0476326 57.7292076,64.8324789 58.3136802,63.90434 C58.4745693,63.6499404 62.3904447,57.6477892 74.2844164,59.281351 C75.3660997,59.4295177 76.126914,60.4480476 75.9823865,61.5644235 C75.8387681,62.6724126 74.8452556,63.4607716 73.7563004,63.3051499 C64.5447216,62.0406072 61.7332539,65.9656283 61.6214497,66.1380236 C61.2287713,66.6962116 60.6043037,67 59.9716553,67" id="Fill-1" fill="#AB78B3"></path>
                <path d="M67.3309359,76 C64.2134144,76 61.7942776,75.4664765 61.5888703,75.4247802 C60.49461,75.1736546 59.8027612,74.0800735 60.0501835,72.9609061 C60.2966722,71.8502675 61.3750601,71.1490111 62.4683867,71.3916079 C62.5589526,71.4077179 71.222469,73.2954244 75.656464,69.4868438 C76.511705,68.7524198 77.7955001,68.8613988 78.5200274,69.7294406 C79.2436211,70.5974824 79.1371828,71.9004927 78.2810081,72.6349167 C75.1382776,75.3489687 70.7948486,76 67.3309359,76" id="Fill-3" fill="#AB78B3"></path>
                <path d="M51.0261241,67 C50.3853837,67 49.7610026,66.6807396 49.3765584,66.1006879 C49.2247801,65.8798043 46.3809833,62.0282613 37.2433887,63.2876694 C36.1464048,63.4426592 35.1612096,62.6575013 35.017611,61.5540111 C34.8731036,60.4495927 35.6338124,59.4277737 36.7153459,59.2802086 C48.6158495,57.6532797 52.5239117,63.63106 52.6838696,63.8844266 C53.2764408,64.8245743 53.011965,66.0765578 52.0912983,66.6723868 C51.7632028,66.9025513 51.3942091,67 51.0261241,67" id="Fill-5" fill="#AB78B3"></path>
                <path d="M43.6640809,76 C40.1941813,76 35.8600732,75.3487633 32.7186848,72.6423864 C31.8628758,71.9077307 31.756483,70.6052572 32.4797676,69.7359936 C33.2039855,68.8591465 34.4872324,68.750133 35.3421081,69.4933202 C39.0425256,72.6670329 46.1064498,71.9409087 48.5245536,71.3986854 C49.6258127,71.156012 50.7028068,71.8489582 50.9501235,72.9599473 C51.1965069,74.0709363 50.5058868,75.1733938 49.4120938,75.4245987 C49.1983748,75.4738917 46.780271,76 43.6640809,76" id="Fill-7" fill="#AB78B3"></path>
                <path d="M55.0002314,91 C53.3847376,91 51.8183104,90.3872393 50.5953492,89.2664015 L49.6399397,88.399151 C48.8252494,87.6600479 48.7835891,86.4200873 49.5427323,85.62413 C50.3009497,84.8371972 51.5739033,84.7893676 52.3895194,85.5293732 L53.3440031,86.3957212 C54.3068189,87.2701913 55.701976,87.2701913 56.6564597,86.3957212 L57.6100177,85.5293732 C58.4265595,84.7893676 59.6985873,84.8290752 60.4577305,85.62413 C61.215948,86.4200873 61.1752135,87.6600479 60.3595974,88.399151 L59.4051137,89.2664015 C58.1812267,90.3800197 56.6157252,91 55.0002314,91" id="Fill-9" fill="#AB78B3"></path>
                <path d="M55.4963535,99.9229166 L55.6248934,99.9229166 C55.705117,99.9313461 57.3196155,99.9809867 59.3197339,98.8495563 C58.3479353,98.5114384 57.0789449,98.1976725 55.4963535,98.0740394 C53.913762,98.1976725 52.6447717,98.5114384 51.672973,98.8495563 C53.6967938,99.9884796 55.3441111,99.9313461 55.3596088,99.9229166 L55.4963535,99.9229166 Z M55.6403912,104 L55.3596088,104 C54.2911773,104 50.2827357,103.727445 46.5878952,99.9809867 C46.1940706,99.5847987 45.9853071,99.0406257 46.0008049,98.4702274 C46.0172142,97.9007657 46.2660895,97.372515 46.6763234,97.0016157 C46.9653105,96.7374903 49.70385,94.410003 55.3596088,94.0063221 C55.4562417,93.9978926 55.5446699,93.9978926 55.6403912,94.0063221 C61.2961499,94.4184326 64.0264848,96.7374903 64.3245882,97.0016157 C64.7421152,97.372515 64.9827857,97.9101318 64.9991951,98.4702274 C65.0146928,99.0406257 64.8059293,99.5847987 64.4130164,99.9809867 C60.7172642,103.735875 56.7088227,104 55.6403912,104 L55.6403912,104 Z" id="Fill-11" fill="#AB78B3"></path>
                <path d="M55.5717406,110 L55.3453234,110 C55.0599236,110 54.2056268,109.977085 53.434096,109.743525 C52.3438687,109.418305 51.7492858,108.337762 52.1012789,107.328609 C52.453272,106.318575 53.6186546,105.767727 54.7079305,106.093829 C54.8924891,106.148473 55.3034648,106.171389 55.4461647,106.163456 C55.7895958,106.163456 56.1330269,106.140541 56.2928508,106.093829 C57.3745161,105.767727 58.5475093,106.318575 58.8995024,107.328609 C59.2514955,108.337762 58.6483506,109.418305 57.5666853,109.743525 C56.7789818,109.969153 55.9237337,110 55.5717406,110" id="Fill-13" fill="#AB78B3"></path>
                <path d="M57.7319318,37.5115193 C65.3626103,40.5913799 79.5191358,47.833189 86.4547646,61.1845193 C88.9599168,43.7772181 81.288353,34.5209031 78.9625385,32.161505 C70.6851294,33.3746707 63.6760929,35.2497322 57.7319318,37.5115193 M52.2625975,39.8290842 C29.7208745,50.4538129 25.6109754,66.5577744 25.5617273,66.771589 C25.3405751,67.7709401 20.3544303,91.9106138 46.1214438,111.906002 C51.369626,115.976847 58.698311,115.976847 63.9464932,111.906002 C88.9515539,92.5083652 84.8741772,68.6550172 84.5303692,66.8608334 C78.0704962,49.0770325 56.5769229,41.2467682 52.2625975,39.8290842 M55.03815,119 C51.0174551,119 46.9976895,117.69759 43.6488141,115.101136 C15.7697046,93.4751792 21.3700577,66.9835444 21.6237322,65.8614823 C21.9099291,64.6009055 29.2544107,34.9717731 79.3555947,28.0172193 C79.9205548,27.9437786 80.4938778,28.1073933 80.9361821,28.4671597 C81.5745499,29.0007667 96.329487,41.7794456 88.9273944,69.1049576 C89.6317361,76.9863514 88.9515539,97.6287612 66.4358487,115.09277 C63.0786104,117.705957 59.0579156,119 55.03815,119" id="Fill-15" fill="#AB78B3"></path>
                <path d="M23.6146861,68 C22.8138816,68 22.0631273,67.5178398 21.7442884,66.7343295 C21.4671581,66.0555963 15.1126256,49.8373963 22.7406598,33.9214736 C28.0330141,22.875369 38.6826025,14.8594557 54.3956115,10.0888515 C55.4661315,9.76153887 56.5931898,10.3670208 56.9111018,11.4370456 C57.2382823,12.5070703 56.6339715,13.6345834 55.5643784,13.9535509 C40.9775008,18.3810796 31.1611569,25.6858066 26.3748667,35.6702316 C19.5059284,50.000589 25.4276187,65.075513 25.4850838,65.2303606 C25.9012427,66.2595871 25.4035204,67.4371707 24.3663673,67.8534975 C24.1207501,67.9508567 23.8677181,68 23.6146861,68" id="Fill-17" fill="#AB78B3"></path>
                <path d="M79.063462,32 C78.4321242,32 77.8081383,31.6987893 77.4194107,31.137022 C76.788073,30.2250741 77.0067897,28.9795769 77.90555,28.3448168 C78.691276,27.7830496 85.3795961,22.5968658 79.8243755,13.3314015 C75.7431953,6.52551692 62.7874468,2.251281 53.6528078,4.71825245 C49.3372882,5.88151726 44.1542536,9.05716553 44.0007843,17.5732988 C43.9759719,18.6802021 43.0533183,19.5274728 41.9597347,19.5441041 C40.8587994,19.5191572 39.9765807,18.6072093 40.0004741,17.4919904 C40.1548624,8.89454868 44.6403929,2.97566512 52.6244717,0.826535689 C63.4187845,-2.08024041 78.3025484,2.98398076 83.2576765,11.2561888 C89.3468231,21.4243613 83.9220974,29.0368624 80.2048323,31.6415038 C79.8565398,31.886353 79.4521895,32 79.063462,32" id="Fill-19" fill="#AB78B3"></path>
                <path d="M35.161624,131.116035 C36.186224,135.451777 44.0427304,139.904192 54.9962809,139.904192 C65.9498315,139.904192 73.8063379,135.451777 74.8309379,131.116035 C68.5057529,126.132943 67.0804246,119.342351 66.94096,114.724335 C66.7605858,114.873941 66.5727734,115.022605 66.3840313,115.164684 C59.673924,120.42911 50.3019021,120.42911 43.5917948,115.164684 C43.4030527,115.022605 43.2226785,114.873941 43.0348662,114.724335 C42.9121373,119.342351 41.4784411,126.141412 35.161624,131.116035 M54.9962809,144 C41.5351567,144 31,137.922623 31,130.170414 C31,129.499541 31.327277,128.869127 31.8683996,128.488056 C41.0358734,122.045604 38.8072289,110.91927 38.7086739,110.455398 C38.5775772,109.849448 38.7337776,109.219976 39.110332,108.739167 C39.8067253,107.859411 41.2320536,107.752146 42.0595436,108.506761 C43.4355945,109.767589 44.7474916,110.894806 46.0826328,111.939223 C51.3339403,116.059495 58.6660597,116.059495 63.918297,111.939223 C65.2534382,110.894806 66.5644055,109.775116 67.9404564,108.506761 C68.7679464,107.743678 70.1849068,107.859411 70.8813001,108.739167 C71.2671522,109.219976 71.4224228,109.849448 71.2913261,110.455398 C71.1927711,110.936207 68.9641266,122.054072 78.1325301,128.488056 C78.6810909,128.869127 79,129.499541 79,130.170414 C78.9925619,137.922623 68.4564754,144 54.9962809,144" id="Fill-21" fill="#AB78B3"></path>
                <g id="Group-25" transform="translate(53.000000, 128.000000)">
                    <mask id="mask-2" fill="white">
                        <use xlink:href="#path-1"></use>
                    </mask>
                    <g id="Clip-24"></g>
                    <path d="M55.3560286,16.0001882 C54.8533619,16.0001882 54.3580603,15.8091294 53.9686317,15.4279529 C46.586981,8.19595294 36.9166317,4.20724706 26.7445365,4.20724706 L25.9573937,4.20724706 C24.3030127,10.9583059 14.5672984,15.9917176 2.4397746,15.9917176 C1.33685397,15.9917176 0.436473016,15.0712471 0.436473016,13.9427765 C0.436473016,12.8152471 1.33685397,11.8947765 2.4397746,11.8947765 C14.0812032,11.8947765 22.1938381,6.7616 22.1938381,2.15830588 C22.1938381,1.03077647 23.094219,0.110305882 24.1971397,0.110305882 L26.7445365,0.110305882 C37.9551079,0.110305882 48.606854,4.49712941 56.7434254,12.4670118 C57.5379333,13.2463059 57.5710762,14.5488941 56.7995841,15.3611294 C56.4110762,15.7921882 55.8835524,16.0001882 55.3560286,16.0001882" id="Fill-23" fill="#AB78B3" mask="url(#mask-2)"></path>
                </g>
                <g id="Group-28" transform="translate(0.000000, 128.000000)">
                    <mask id="mask-4" fill="white">
                        <use xlink:href="#path-3"></use>
                    </mask>
                    <g id="Clip-27"></g>
                    <path d="M1.99729839,16.0001882 C1.47050806,16.0001882 0.943717742,15.7921882 0.55575,15.3696 C-0.206395161,14.5573647 -0.181572581,13.2547765 0.611830645,12.4754824 C8.72881452,4.5056 19.36575,0.118776471 30.5699274,0.118776471 L33.1128629,0.118776471 C34.21425,0.118776471 35.113379,1.03924706 35.113379,2.16677647 C35.113379,6.76912941 43.2147339,11.9023059 54.8399758,11.9023059 C55.9413629,11.9023059 56.8404919,12.8237176 56.8404919,13.9512471 C56.8404919,15.0787765 55.9413629,16.0001882 54.8399758,16.0001882 C42.7293145,16.0001882 33.0071371,10.9658353 31.3550565,4.21571765 L30.5699274,4.21571765 C20.4110565,4.21571765 10.7541532,8.19595294 3.38276613,15.4354824 C2.99387903,15.8091294 2.49926613,16.0001882 1.99729839,16.0001882" id="Fill-26" fill="#AB78B3" mask="url(#mask-4)"></path>
                </g>
            </g>
        </g>
    </g>
</svg>