<?xml version="1.0" encoding="UTF-8"?>
<svg width="66px" height="66px" viewBox="0 0 66 66" version="1.1" xmlns="http://www.w3.org/2000/svg" xmlns:xlink="http://www.w3.org/1999/xlink">
    <!-- Generator: Sketch 61 (89581) - https://sketch.com -->
    <title>Group 3</title>
    <desc>Created with Sketch.</desc>
    <defs>
        <polygon id="path-1" points="0 0 66 0 66 66 0 66"></polygon>
    </defs>
    <g id="Home" stroke="none" stroke-width="1" fill="none" fill-rule="evenodd">
        <g id="Desktop-Copy" transform="translate(-581.000000, -1557.000000)">
            <g id="Group-3" transform="translate(581.000000, 1557.000000)">
                <mask id="mask-2" fill="white">
                    <use xlink:href="#path-1"></use>
                </mask>
                <g id="Clip-2"></g>
                <path d="M59.8122801,33.0443236 C59.8122801,33.0443236 59.8122801,24.264023 58.6929325,20.0504637 C58.0738088,17.7231212 56.2621682,15.8960026 53.9488967,15.2775823 C49.779661,14.1434602 33,14.1434602 33,14.1434602 C33,14.1434602 16.220339,14.1434602 12.0511033,15.2775823 C9.73853534,15.8960026 7.92619124,17.7231212 7.30777103,20.0504637 C6.18771986,24.2492485 6.18771986,33.0443236 6.18771986,33.0443236 C6.18771986,33.0443236 6.18771986,41.8239207 7.30777103,46.0381836 C7.92619124,48.3655261 9.73853534,50.118772 12.0511033,50.7371922 C16.220339,51.8565398 33,51.8565398 33,51.8565398 C33,51.8565398 49.779661,51.8565398 53.9488967,50.7224177 C56.2621682,50.1039974 58.0738088,48.3507515 58.6929325,46.0227055 C59.8122801,41.8239207 59.8122801,33.0443236 59.8122801,33.0443236 L59.8122801,33.0443236 Z M66,7.07137832 L66,58.9286217 C66,62.8326191 62.8326191,66 58.9286217,66 L7.07208187,66 C3.16738088,66 0,62.8326191 0,58.9286217 L0,7.07137832 C0,3.16738088 3.16738088,0 7.07208187,0 L58.9286217,0 C62.8326191,0 66,3.16738088 66,7.07137832 L66,7.07137832 Z M27.5200512,25.0590342 L41.5446114,33.0295491 L27.5200512,41.000064 L27.5200512,25.0590342 Z" id="Fill-1" fill="#58595B" mask="url(#mask-2)"></path>
            </g>
        </g>
    </g>
</svg>