<?xml version="1.0" encoding="UTF-8"?>
<svg width="136px" height="119px" viewBox="0 0 136 119" version="1.1" xmlns="http://www.w3.org/2000/svg" xmlns:xlink="http://www.w3.org/1999/xlink">
    <!-- Generator: Sketch 61 (89581) - https://sketch.com -->
    <title>Group 16</title>
    <desc>Created with Sketch.</desc>
    <defs>
        <polygon id="path-1" points="0 0.110628433 135.9595 0.110628433 135.9595 119 0 119"></polygon>
    </defs>
    <g id="Home" stroke="none" stroke-width="1" fill="none" fill-rule="evenodd">
        <g id="Discover-Meditation---Desktop-Copy" transform="translate(-662.000000, -950.000000)">
            <g id="Group-16" transform="translate(662.000000, 949.000000)">
                <path d="M81.6748,58.4129 C83.2768,58.4939 84.8558,58.0819 86.2568,57.2719 C90.3628,54.9009 91.7758,49.6319 89.4038,45.5249 C87.4138,42.0779 83.2638,40.4909 79.5318,41.5799 C79.4508,43.9309 78.7098,46.1919 77.3998,48.1369 C80.1158,50.8629 81.6508,54.5109 81.6748,58.4129 M81.9838,62.4359 C81.0208,62.4359 80.0508,62.3259 79.0918,62.1029 C78.0888,61.8699 77.4248,60.9139 77.5558,59.8919 C77.6138,59.4359 77.6578,58.9759 77.6578,58.5059 C77.6578,55.1419 76.1128,52.0339 73.4218,49.9779 C72.9688,49.6339 72.6858,49.1139 72.6388,48.5479 C72.5918,47.9809 72.7878,47.4209 73.1768,47.0069 C74.6908,45.3989 75.5228,43.3169 75.5228,41.1449 C75.5228,40.8899 75.5058,40.6389 75.4838,40.3909 C75.4078,39.5479 75.8688,38.7499 76.6348,38.3919 C82.6008,35.6039 89.5898,37.8109 92.8828,43.5169 C96.3618,49.5419 94.2898,57.2729 88.2648,60.7509 C86.3368,61.8649 84.1758,62.4359 81.9838,62.4359" id="Fill-1" fill="#AB78B3"></path>
                <path d="M74.3769,71.2332 C75.1269,72.6472 76.2539,73.8242 77.6559,74.6312 C81.7599,77.0032 87.0329,75.5922 89.4039,71.4852 C91.3959,68.0372 90.6939,63.6472 87.8849,60.9622 C85.8099,62.0672 83.4769,62.5532 81.1419,62.3932 C80.1279,66.1012 77.6909,69.2862 74.3769,71.2332 M81.9349,79.7982 C79.7949,79.7982 77.6289,79.2562 75.6479,78.1122 C72.8759,76.5112 70.8329,73.9352 69.8959,70.8542 C69.5959,69.8682 70.0929,68.8132 71.0449,68.4162 C74.5789,66.9442 77.0749,63.6712 77.5589,59.8742 C77.6299,59.3082 77.9389,58.8012 78.4059,58.4772 C78.8729,58.1542 79.4569,58.0412 80.0109,58.1722 C82.1609,58.6792 84.3769,58.3582 86.2559,57.2732 C86.4809,57.1432 86.6899,57.0042 86.8949,56.8592 C87.5869,56.3762 88.5079,56.3762 89.1979,56.8592 C94.5929,60.6372 96.1769,67.7892 92.8829,73.4942 C90.5489,77.5362 86.2989,79.7982 81.9349,79.7982" id="Fill-3" fill="#AB78B3"></path>
                <path d="M59.6308,71.3191 C58.7778,72.6741 58.3218,74.2441 58.3218,75.8651 C58.3218,80.6071 62.1808,84.4651 66.9228,84.4651 C70.9058,84.4651 74.3548,81.6631 75.2758,77.8871 C73.2848,76.6451 71.6978,74.8781 70.6688,72.7751 C66.9838,73.7441 62.9418,73.2191 59.6308,71.3191 M66.9228,88.4811 C59.9648,88.4811 54.3048,82.8211 54.3048,75.8651 C54.3048,72.6581 55.5198,69.5941 57.7238,67.2441 C58.4288,66.4891 59.5908,66.3951 60.4108,67.0231 C63.4538,69.3491 67.5738,69.8691 71.0578,68.4121 C71.5808,68.1931 72.1738,68.2061 72.6898,68.4481 C73.2038,68.6911 73.5918,69.1391 73.7558,69.6821 C74.3938,71.7901 75.7778,73.5481 77.6558,74.6331 C77.8828,74.7631 78.1108,74.8741 78.3388,74.9811 C79.1008,75.3401 79.5588,76.1351 79.4848,76.9731 C78.9118,83.5341 73.5118,88.4811 66.9228,88.4811" id="Fill-5" fill="#AB78B3"></path>
                <path d="M66.9228,43.7537 C69.5108,43.7537 71.9978,44.4187 74.2148,45.6907 C75.0658,44.3357 75.5228,42.7677 75.5228,41.1457 C75.5228,36.4027 71.6648,32.5447 66.9228,32.5447 C62.9398,32.5447 59.4908,35.3457 58.5698,39.1207 C60.5628,40.3667 62.1478,42.1337 63.1758,44.2347 C64.3928,43.9147 65.6468,43.7537 66.9228,43.7537 M74.6538,50.4017 C74.2268,50.4017 73.7958,50.2657 73.4328,49.9877 C70.3958,47.6607 66.2738,47.1417 62.7868,48.5997 C62.2588,48.8167 61.6668,48.8047 61.1538,48.5637 C60.6408,48.3197 60.2528,47.8707 60.0888,47.3267 C59.4518,45.2197 58.0668,43.4597 56.1888,42.3767 C55.9708,42.2517 55.7438,42.1407 55.5158,42.0337 C54.7478,41.6777 54.2858,40.8807 54.3598,40.0377 C54.9338,33.4757 60.3338,28.5277 66.9228,28.5277 C73.8798,28.5277 79.5398,34.1877 79.5398,41.1457 C79.5398,44.3547 78.3248,47.4157 76.1198,49.7687 C75.7268,50.1877 75.1928,50.4017 74.6538,50.4017" id="Fill-7" fill="#AB78B3"></path>
                <path d="M51.9023,41.2205 C51.1553,41.2205 50.4033,41.3185 49.6623,41.5175 C47.4443,42.1125 45.5893,43.5345 44.4403,45.5255 C42.4133,49.0365 43.0963,53.3505 45.9553,56.0495 C48.0343,54.9415 50.3643,54.4465 52.7023,54.6155 C53.7163,50.9085 56.1543,47.7255 59.4683,45.7785 C58.7193,44.3645 57.5903,43.1875 56.1893,42.3755 C54.8633,41.6115 53.3933,41.2205 51.9023,41.2205 M45.7993,60.5135 C45.3963,60.5135 44.9933,60.3935 44.6473,60.1515 C39.2523,56.3725 37.6673,49.2225 40.9613,43.5165 C42.6463,40.5975 45.3673,38.5095 48.6233,37.6365 C51.8783,36.7675 55.2773,37.2115 58.1973,38.8985 C60.9703,40.4985 63.0133,43.0765 63.9493,46.1565 C64.2493,47.1435 63.7533,48.1975 62.7993,48.5945 C59.2653,50.0665 56.7703,53.3375 56.2863,57.1355 C56.2143,57.6995 55.9063,58.2065 55.4383,58.5325 C54.9713,58.8575 54.3863,58.9665 53.8333,58.8365 C51.6863,58.3275 49.4693,58.6495 47.5893,59.7375 C47.3673,59.8645 47.1573,60.0065 46.9513,60.1515 C46.6053,60.3935 46.2013,60.5135 45.7993,60.5135" id="Fill-9" fill="#AB78B3"></path>
                <path d="M51.8618,58.5896 C50.3698,58.5896 48.8998,58.9796 47.5888,59.7356 C43.4828,62.1066 42.0698,67.3776 44.4408,71.4856 C46.4328,74.9366 50.5848,76.5216 54.3128,75.4306 C54.3938,73.0776 55.1338,70.8186 56.4448,68.8746 C53.7278,66.1476 52.1948,62.5006 52.1708,58.5966 C52.0678,58.5936 51.9648,58.5896 51.8618,58.5896 M51.8418,79.8186 C47.4788,79.8186 43.2948,77.5346 40.9618,73.4936 C37.4838,67.4686 39.5548,59.7356 45.5798,56.2566 C48.3578,54.6536 51.6178,54.1776 54.7538,54.9086 C55.7578,55.1426 56.4198,56.0986 56.2888,57.1196 C56.2308,57.5726 56.1878,58.0346 56.1878,58.5056 C56.1878,61.8676 57.7308,64.9766 60.4228,67.0316 C60.8748,67.3776 61.1588,67.8976 61.2058,68.4646 C61.2528,69.0306 61.0558,69.5896 60.6668,70.0046 C59.1538,71.6106 58.3218,73.6926 58.3218,75.8646 C58.3218,76.1226 58.3398,76.3736 58.3618,76.6266 C58.4338,77.4656 57.9738,78.2626 57.2098,78.6186 C55.4678,79.4316 53.6398,79.8186 51.8418,79.8186" id="Fill-11" fill="#AB78B3"></path>
                <g id="Group-15" transform="translate(0.000000, 0.890000)">
                    <mask id="mask-2" fill="white">
                        <use xlink:href="#path-1"></use>
                    </mask>
                    <g id="Clip-14"></g>
                    <path d="M36.6015,4.5766 C30.5895,4.5766 24.8925,5.8456 19.9555,8.4406 C9.9745,13.6906 4.4765,23.9446 4.4765,37.3126 C4.4765,69.3206 59.0385,107.9486 67.9795,114.0606 C76.9205,107.9496 131.4825,69.3226 131.4825,37.3126 C131.4825,23.9376 125.9855,13.6806 116.0035,8.4316 C102.9735,1.5786 84.6215,3.9836 69.2485,14.5566 C68.4845,15.0836 67.4765,15.0836 66.7115,14.5566 C57.1635,7.9906 46.4615,4.5766 36.6015,4.5766 M67.9795,119.0006 C67.5525,119.0006 67.1245,118.8776 66.7515,118.6326 C64.0255,116.8446 -0.0005,74.3926 -0.0005,37.3126 C-0.0005,22.2006 6.3475,10.5406 17.8715,4.4786 C31.9945,-2.9494 51.5135,-0.7524 67.9795,10.0176 C84.4485,-0.7564 103.9665,-2.9564 118.0875,4.4696 C129.6125,10.5306 135.9595,22.1946 135.9595,37.3126 C135.9595,74.4106 71.9335,116.8446 69.2075,118.6326 C68.8345,118.8776 68.4075,119.0006 67.9795,119.0006" id="Fill-13" fill="#AB78B3" mask="url(#mask-2)"></path>
                </g>
            </g>
        </g>
    </g>
</svg>