<?xml version="1.0" encoding="UTF-8"?>
<svg width="145px" height="125px" viewBox="0 0 145 125" version="1.1" xmlns="http://www.w3.org/2000/svg" xmlns:xlink="http://www.w3.org/1999/xlink">
    <!-- Generator: Sketch 61 (89581) - https://sketch.com -->
    <title>Group 26</title>
    <desc>Created with Sketch.</desc>
    <defs>
        <polygon id="path-1" points="0 0.377301265 48.4290251 0.377301265 48.4290251 36.1474 0 36.1474"></polygon>
        <polygon id="path-3" points="0.793748535 0.136 33.359869 0.136 33.359869 33.5166 0.793748535 33.5166"></polygon>
        <polygon id="path-5" points="0.724654131 0.376266018 49.152 0.376266018 49.152 36.1474 0.724654131 36.1474"></polygon>
    </defs>
    <g id="Home" stroke="none" stroke-width="1" fill="none" fill-rule="evenodd">
        <g id="Discover-Meditation---Desktop-Copy" transform="translate(-662.000000, -1338.000000)">
            <g id="Group-26" transform="translate(662.000000, 1337.000000)">
                <path d="M72.0769,51.7409 C55.0509,51.7409 41.1989,65.5929 41.1989,82.6189 C41.1989,99.6449 55.0509,113.4969 72.0769,113.4969 C89.1029,113.4969 102.9549,99.6449 102.9549,82.6189 C102.9549,65.5929 89.1029,51.7409 72.0769,51.7409 M72.0769,117.5509 C52.8159,117.5509 37.1459,101.8809 37.1459,82.6189 C37.1459,63.3579 52.8159,47.6869 72.0769,47.6869 C91.3369,47.6869 107.0089,63.3579 107.0089,82.6189 C107.0089,101.8809 91.3369,117.5509 72.0769,117.5509" id="Fill-1" fill="#AB78B3"></path>
                <g id="Group-5" transform="translate(0.000000, 44.864000)">
                    <mask id="mask-2" fill="white">
                        <use xlink:href="#path-1"></use>
                    </mask>
                    <g id="Clip-4"></g>
                    <path d="M32.8152,36.1474 C32.5932,36.1474 32.3682,36.1104 32.1472,36.0334 L31.8282,35.9254 C31.6542,35.8694 31.4802,35.8114 31.3062,35.7484 C16.2622,30.2724 4.6082,19.8704 0.1282,7.9214 C-0.2208,6.9874 0.1622,5.9364 1.0312,5.4464 C12.1422,-0.8276 27.7532,-1.3056 42.8002,4.1684 C44.1802,4.6724 45.6312,5.2664 47.2332,5.9894 C48.2542,6.4484 48.7092,7.6474 48.2502,8.6684 C47.7922,9.6884 46.5892,10.1454 45.5712,9.6844 C44.0592,9.0044 42.7002,8.4464 41.4132,7.9784 C28.3882,3.2374 14.4842,3.3344 4.6022,8.1474 C9.0782,18.1844 19.6652,27.1974 32.6912,31.9384 L33.4832,32.2064 C34.5392,32.5754 35.0962,33.7304 34.7292,34.7874 C34.4362,35.6234 33.6522,36.1474 32.8152,36.1474" id="Fill-3" fill="#AB78B3" mask="url(#mask-2)"></path>
                </g>
                <path d="M34.4651,50.736 C33.7351,50.736 33.0301,50.34 32.6681,49.649 C26.7131,38.275 24.7771,26.011 27.3591,16.002 C27.6061,15.034 28.5111,14.39 29.5171,14.49 C42.2171,15.723 55.2801,24.288 64.4631,37.401 C65.6481,39.094 66.7631,40.862 67.7751,42.654 C68.3241,43.629 67.9811,44.865 67.0051,45.416 C66.0281,45.966 64.7951,45.621 64.2441,44.646 C63.2971,42.968 62.2541,41.314 61.1421,39.726 C53.1901,28.37 41.7451,20.477 30.8911,18.751 C29.1941,27.475 31.1101,37.935 36.2591,47.767 C36.7781,48.759 36.3951,49.984 35.4041,50.504 C35.1031,50.661 34.7811,50.736 34.4651,50.736" id="Fill-6" fill="#AB78B3"></path>
                <g id="Group-10" transform="translate(55.000000, 0.864000)">
                    <mask id="mask-4" fill="white">
                        <use xlink:href="#path-3"></use>
                    </mask>
                    <g id="Clip-9"></g>
                    <path d="M31.3308,33.5166 C30.3268,33.5166 29.4558,32.7716 29.3248,31.7496 C27.9008,20.7426 23.4728,11.0746 17.0768,4.9016 C10.6818,11.0746 6.2528,20.7426 4.8298,31.7496 C4.6848,32.8606 3.6658,33.6406 2.5598,33.4996 C1.4508,33.3566 0.6668,32.3396 0.8108,31.2306 C2.4558,18.4986 7.9048,7.3426 15.7598,0.6216 C16.5168,-0.0264 17.6378,-0.0264 18.3938,0.6216 C26.2498,7.3426 31.6978,18.4986 33.3428,31.2306 C33.4868,32.3396 32.7038,33.3566 31.5938,33.4996 C31.5048,33.5116 31.4178,33.5166 31.3308,33.5166" id="Fill-8" fill="#AB78B3" mask="url(#mask-4)"></path>
                </g>
                <path d="M109.6892,50.736 C109.3722,50.736 109.0512,50.661 108.7502,50.504 C107.7592,49.984 107.3762,48.759 107.8952,47.768 C113.0432,37.934 114.9602,27.473 113.2632,18.751 C102.4082,20.477 90.9632,28.37 83.0102,39.725 C81.9112,41.298 80.8682,42.954 79.9102,44.647 C79.3592,45.623 78.1192,45.962 77.1482,45.415 C76.1742,44.864 75.8312,43.627 76.3822,42.652 C77.4032,40.845 78.5172,39.079 79.6902,37.401 C88.8732,24.288 101.9382,15.723 114.6372,14.49 C115.6342,14.39 116.5482,15.034 116.7952,16.002 C119.3762,26.009 117.4412,38.273 111.4862,49.648 C111.1242,50.34 110.4182,50.735 109.6892,50.736" id="Fill-11" fill="#AB78B3"></path>
                <g id="Group-15" transform="translate(95.000000, 44.864000)">
                    <mask id="mask-6" fill="white">
                        <use xlink:href="#path-5"></use>
                    </mask>
                    <g id="Clip-14"></g>
                    <path d="M16.3371,36.1474 C15.5001,36.1474 14.7151,35.6234 14.4231,34.7874 C14.0551,33.7304 14.6131,32.5754 15.6691,32.2064 L16.4621,31.9384 C29.4871,27.1984 40.0741,18.1854 44.5501,8.1474 C34.6701,3.3354 20.7661,3.2364 7.7411,7.9784 C6.4501,8.4474 5.0921,9.0044 3.5851,9.6844 C2.5631,10.1444 1.3641,9.6894 0.9041,8.6694 C0.4441,7.6494 0.8991,6.4494 1.9191,5.9894 C3.5201,5.2674 4.9701,4.6724 6.3541,4.1684 C21.3961,-1.3056 37.0101,-0.8306 48.1211,5.4464 C48.9901,5.9364 49.3731,6.9874 49.0231,7.9214 C44.5441,19.8714 32.8881,30.2734 17.8481,35.7484 C17.6721,35.8114 17.4981,35.8694 17.3231,35.9254 L17.0051,36.0334 C16.7841,36.1104 16.5591,36.1474 16.3371,36.1474" id="Fill-13" fill="#AB78B3" mask="url(#mask-6)"></path>
                </g>
                <path d="M72.0769,84.6462 C70.9569,84.6462 70.0499,83.7392 70.0499,82.6192 C70.0499,81.5002 70.9569,80.5922 72.0769,80.5922 C80.0019,80.5922 86.4499,74.1442 86.4499,66.2192 C86.4499,58.2942 80.0019,51.8462 72.0769,51.8462 C70.9569,51.8462 70.0499,50.9392 70.0499,49.8202 C70.0499,48.7002 70.9569,47.7922 72.0769,47.7922 C82.2379,47.7922 90.5029,56.0592 90.5029,66.2192 C90.5029,76.3792 82.2379,84.6462 72.0769,84.6462" id="Fill-16" fill="#AB78B3"></path>
                <path d="M72.0769,62.1921 C69.8569,62.1921 68.0509,63.9991 68.0509,66.2191 C68.0509,68.4391 69.8569,70.2461 72.0769,70.2461 C74.2969,70.2461 76.1039,68.4391 76.1039,66.2191 C76.1039,63.9991 74.2969,62.1921 72.0769,62.1921 M72.0769,74.2991 C67.6209,74.2991 63.9969,70.6741 63.9969,66.2191 C63.9969,61.7631 67.6209,58.1391 72.0769,58.1391 C76.5329,58.1391 80.1569,61.7631 80.1569,66.2191 C80.1569,70.6741 76.5329,74.2991 72.0769,74.2991" id="Fill-18" fill="#AB78B3"></path>
                <path d="M72.0769,95.0446 C69.8569,95.0446 68.0509,96.8516 68.0509,99.0706 C68.0509,101.2916 69.8569,103.0986 72.0769,103.0986 C74.2969,103.0986 76.1039,101.2916 76.1039,99.0706 C76.1039,96.8516 74.2969,95.0446 72.0769,95.0446 M72.0769,107.1506 C67.6209,107.1506 63.9969,103.5266 63.9969,99.0706 C63.9969,94.6156 67.6209,90.9906 72.0769,90.9906 C76.5329,90.9906 80.1569,94.6156 80.1569,99.0706 C80.1569,103.5266 76.5329,107.1506 72.0769,107.1506" id="Fill-20" fill="#AB78B3"></path>
                <path d="M72.0769,117.5505 C61.8879,117.5505 53.5979,109.2605 53.5979,99.0715 C53.5979,88.8825 61.8879,80.5925 72.0769,80.5925 C73.1969,80.5925 74.1039,81.4995 74.1039,82.6185 C74.1039,83.7385 73.1969,84.6465 72.0769,84.6465 C64.1219,84.6465 57.6509,91.1165 57.6509,99.0715 C57.6509,107.0255 64.1219,113.4965 72.0769,113.4965 C73.1969,113.4965 74.1039,114.4045 74.1039,115.5235 C74.1039,116.6435 73.1969,117.5505 72.0769,117.5505" id="Fill-22" fill="#AB78B3"></path>
                <path d="M72.0769,125.864 C50.2139,125.864 31.6189,109.234 29.7449,88.003 C29.6469,86.887 30.4699,85.904 31.5849,85.805 C32.7499,85.703 33.6839,86.532 33.7829,87.646 C35.4729,106.803 52.2959,121.81 72.0769,121.81 C91.8579,121.81 108.6789,106.803 110.3699,87.646 C110.4699,86.532 111.4149,85.695 112.5679,85.805 C113.6819,85.904 114.5059,86.887 114.4079,88.003 C112.5329,109.234 93.9389,125.864 72.0769,125.864" id="Fill-24" fill="#AB78B3"></path>
            </g>
        </g>
    </g>
</svg>