<?xml version="1.0" encoding="utf-8"?>
<!-- Generator: Adobe Illustrator 23.1.1, SVG Export Plug-In . SVG Version: 6.00 Build 0)  -->
<svg version="1.1" id="Layer_1" xmlns="http://www.w3.org/2000/svg" xmlns:xlink="http://www.w3.org/1999/xlink" x="0px" y="0px"
	 viewBox="0 0 567 501" style="enable-background:new 0 0 567 501;" xml:space="preserve">
<style type="text/css">
	.st0{fill-rule:evenodd;clip-rule:evenodd;fill:#BBDEEF;}
	.st1{fill-rule:evenodd;clip-rule:evenodd;fill:#FFF5F3;}
	.st2{fill-rule:evenodd;clip-rule:evenodd;fill:#816364;}
	.st3{fill-rule:evenodd;clip-rule:evenodd;fill:#AB78B3;}
	.st4{fill-rule:evenodd;clip-rule:evenodd;fill:#DFE2EB;}
	.st5{fill-rule:evenodd;clip-rule:evenodd;fill:#FFFFFF;}
	.st6{fill-rule:evenodd;clip-rule:evenodd;fill:#CCC5BD;}
	.st7{fill-rule:evenodd;clip-rule:evenodd;fill:#EBEBEB;}
	.st8{fill-rule:evenodd;clip-rule:evenodd;fill:#938D97;}
	.st9{fill-rule:evenodd;clip-rule:evenodd;fill:#FDFDFD;}
	.st10{fill-rule:evenodd;clip-rule:evenodd;fill:#9EBDE9;}
	.st11{fill:#463B39;}
</style>
<title>office-meditation</title>
<desc>Created with Sketch.</desc>
<g id="Home">
	<g id="Free-Trial---Desktop-Copy" transform="translate(-530.000000, -516.000000)">
		
			<g id="office-meditation" transform="translate(807.000000, 764.000000) scale(-1, 1) translate(-807.000000, -764.000000) translate(530.000000, 516.000000)">
			<path id="Path" class="st0" d="M181.6,5C119.8,4.7,53.1,30,13.4,113C-9.3,160.5-11.1,217.5,2.9,267.6C14.1,308,43.1,341,73,368.9
				c31.4,29.4,74.9,40.1,115.8,48c42.9,8.3,87.4,10.8,131,8c19.2-1.2,38-4.6,56.9-6.7c33.2-3.7,43.3-10.8,55.6-16.6
				c38.5-18.5,71.6-48,93.3-85.3c3.5-6,7.5-11.8,10.6-18c10-19.7,13.8-45.6,8.6-67.3c-2.3-9.6-4.8-26.6-9.9-34.7
				c-15.1-23.9-24.5-31.7-50.3-42.6c-19.4-8.3-47.3-17.2-66.2-26.7c-8.5-4.3-21.2-8.7-28.4-14.6c-23.9-19.8-47.2-39.7-69.4-61.3
				C300.2,31.4,243.3,5.3,181.6,5z"/>
			<g id="Group" transform="translate(45.000000, 26.000000)">
				<path class="st1" d="M238.2,27.6c-6.9-11.3-23-13.2-34.3-6.8c-4.5,2.5-7.7,6.8-9.9,11.4c-6.2,13.3-5.3,28-7.1,42.2
					c-1.9,14.7-5.7,29.4-3.5,44.3c0.6,4.2,1.6,9.4,3.7,13.2c5.4,9.6,13.9,17.7,24.4,21.6c14.7,5.4,35.6-2.6,40.6-18.2
					c3.5-10.7-0.5-23-1.5-33.8c-0.6-6.7,0-13.4-0.1-20.1c-0.2-10.7-1.5-21.7-3.8-32.2c-1-4.3-1.8-9.2-3.7-13.2
					C241.7,33.1,239.9,30.3,238.2,27.6z"/>
				<path class="st1" d="M137.4,206c-5.4,4.2-8.8,10.8-13.7,15.6c-1.4,1.3-2.9,2.6-4.5,3.6c-0.5,0.3-1.3,1-1.9,1
					c-2.9-0.2-3.5-5.6-3.9-7.7c-0.6-3.2-1.3-7.8-3.5-10.4c-0.8-1-1.9-1.2-2.6-2.5c-0.9-1.7-1-5.1-2.7-6.2c-2.3-1.6-2.9,0.9-3.8,2.3
					c-0.1,0.1-0.8-1.6-1.3-2.7c-0.5-1.1-1.8-3.6-3.9-1.9c-1.5,1.2-1.7,5-2.4,6.7c-0.1,0.2-0.8,2.1-1.2,2c-0.7-0.2-0.8-1.7-1-2.1
					c-0.3-1.2-2-4.8-3.5-4.6c-1.1,0.2-1.4,2.4-1.6,3.3c-0.5,2.1-0.7,3.9-1,6.1c-0.7,4.2-1.1,7.9-1.1,12.1c0,1.4,0.9,2.9,1.3,4.2
					c1.1,3.3,3,8.9,4.2,12.1c1.5,4,4.4,2.8,7.9,3.6c0.5,0.1,1.7,0.5,2.2,0.6c0.7,0.2,1.6,0.6,2.3,0.9c2.4,1,4.3,1.3,6.7,2.3
					c0.9,0.4,2.4,0.7,3.4,0.9c2.2,0.5,4.1-0.9,6.2-1.1c1.2-0.1,3,0.1,4.2,0c2.5-0.3,5.3-1.5,7.3-2.1c5-1.5,8.3-3.3,13.1-5.4
					c5.1-2.1,11.2-5.1,15.3-8.8c1-0.9,2.1-1.3,2.7-2.4c0.3-0.6-0.3-1.4-0.6-2c-1-1.8-2-3.6-3.2-5.3c-3.4-5.4-7.5-9.6-13.7-11.6
					C141.5,205.9,139,204.7,137.4,206z"/>
				<path class="st1" d="M292.2,243.7c0.2,0.3,1.1,0.5,1.5,0.6c1.4,0.5,2.7,1,4.1,1.4c5.5,1.5,11.1,2.5,16.8,2.5
					c9,0,17.7-0.8,26.3-3c3-0.8,5.5-2.8,8.6-3.5c2.2-0.5,4.5-1.1,6.8-1.2c2.9-0.1,5.2,0.5,8-0.5c2.6-0.8,4.6-2.2,6.1-4.6
					c0.4-0.6,0.7-1.3,1.2-1.8c0.7-0.7,2-0.9,2.8-1.4c0.9-0.5,1.7-1.4,2.4-2.1c4.6-4.7,8.5-10.1,9.6-16.8c0.2-1.5,0.1-3,0.4-4.4
					c0.6-2.9,2.1-7.1,0-9.7c-1.1-1.4-2.9,1.4-3.3,2.2c-1.9,3.6-2.7,7.6-4.2,11.4c-0.4,1-0.8,2-1.3,3c-0.1,0.1-0.3,0.8-0.6,0.7
					c-1.4-0.5-1-4.7-0.9-6c0.2-4.2-0.5-8.7-1.3-12.8c-0.2-0.8,0.4-2.5,0-3.1c-1.4-1.9-3.2,0.7-4.1,1.3c-0.4,0.2-0.9-0.7-1.3-0.8
					c-1.2-0.3-2.9,1.3-3.4,2.2c-0.5,0.7-1,1.6-1.2,2.4c-0.1,0.5,0.2,1.1-0.1,1.5c-0.3,0.3-0.9,0.1-1.2,0.3c-1.2,0.8-2.7,2.6-3,4.1
					c-0.5,2.7,0.5,5.9-1.2,8.3c-2.1,3.1-5.7,2.8-8.7,4.4c-2.7,1.5-4.8,3.8-7.3,5.6c-1.5,1.1-2.8,0.8-4.4,0.8c-3.2,0-6.3-0.9-9.4-1.5
					c-4.1-0.9-8.1-2.2-11.9-4c-1.8-0.8-4.3-3-6.3-3c-2.4,0-4.7,1.7-6.8,2.7c-1.7,0.9-3.6,1.6-5,2.8c-2.9,2.3-4.8,5.3-6.5,8.5
					C291.1,234.7,289.1,239.4,292.2,243.7z"/>
				<path class="st1" d="M239.2,341.4c0.7,0.9,2.1,0.8,3.3,1c2.8,0.5,6.7,1,9.5,1.4c6.7,1.1,12.1,2.1,18.8,3.7
					c3.1,0.7,6,1.2,9.1,1.9c1.3,0.3,2.8,0.9,4.2,0.9c1.5-0.1,3.7-1.7,5-2.2c2-0.8,4.3-1.3,6.4-1.7c2-0.4,3.8-0.5,5.8-0.8
					c5.5-0.9,15.1-3.4,13.7-10.6c-0.3-1.7,0.1-1.1-1.3-2.9c-1.4-1.8-3.9-2.6-6-3.1c-3.9-0.9-7.7-1.6-11.6-2.6
					c-3.5-0.9-6.6-2.8-9.5-4.9c-1-0.7-1.7-2-2.9-2.6c-0.6-0.3-1.6-0.1-2.1,0c-1.7,0.1-3.6,0.1-5.3,0.1c-3.9,0.2-7.9-1.1-12.4-2.8
					c-3.7-1.4-7.5-2.7-10.6-4.2c-1.2-0.5-1.7-0.5-3-1c-0.2-0.1-0.8-0.5-1.1-0.4c-1.4,0.5-1,3.1-1.1,4.1c0,4.1-0.5,8.2-1.5,12.2
					c-1,3.8-3.7,7.4-5.8,10.7C240,338.7,238.2,340.2,239.2,341.4z"/>
				<path class="st1" d="M206.4,336.9c0-2.1,5.1-0.5,6.9-0.1c6,1.3,12.1,1.9,18.1,3.2c1.7,0.4,3.5,0.7,5.2,1.1
					c0.4,0.1,1.4,0.3,1.6,0.7c0.1,0.5-1.4,0.9-1.8,1.1c-2.9,1.1-5.7,1.8-8.6,2.7c-1.2,0.4-2.7,1-4,1.4c-1.6,0.5-2.9,1-4.5,1.5
					c-0.4,0.1-1.3,0.6-1.7,0.4c-0.8-0.3-0.9-2.1-1.1-2.7c-0.5-1.9-1.6-3.6-3-5C211.5,339.3,206.5,337.8,206.4,336.9z"/>
				<path class="st2" d="M240.6,18.6c-1.3-0.8-2.5-2.5-3.1-3.7c-1.7-3.2-4.1-6.6-7.1-8.1c-3.4-1.7-7.2-2.1-10.8-1.5
					c-8.5,1.3-15.2,4.7-22.4,10c-5,3.6-9,10.2-11.4,15.6c-4.1,9-3.8,17.2-6,26.5c-1.1,4.7-2.8,8.4-4.4,12.9
					c-0.7,1.8-2.9,3.9-3.1,5.8c-0.2,1.5,2.3,2.4,3.1,3.4c0.9,1.3,0.9,3.7,0.8,5.2c-0.1,1.2,0.5,2.6,0.2,3.6
					c-0.7,2.4-0.7,2.7-1.5,4.3c-4.4,8-8.7,13.4-10.3,23.2c-1.1,6.6,0.5,12.4,4,18.1c1.2,2,5.1,5.2,6.4,7.1c3.6,5,4.6,9,8.9,13.7
					c4.7,5.3,11.1,9.8,17.9,11.5c2.3,0.6,5.2,0.8,7.5,0.8c0,0,2,0,2-0.3c0-1.5-2-2.8-2.9-3.7c-2.1-2.1-4.8-5.9-6.3-8.4
					c-4.8-8.1-7.1-14.1-7.9-23.3c-0.2-2.2,0-6.9,0.5-9c0.8-4,1.5-7.4,3.5-11.1c1-1.9,3.3-2.1,4.4-4c2-3.7,2.6-8.7,2.8-12.8
					c0.1-4.2-6.3-8.8-9.2-15.2c-1.5-3.2-1.2-9.8-3-19.9c-1.5-8.6-0.9-17.9,2.9-26c1.3-2.8,2.9-4.9,4.9-7.3c1.5-1.8,3.5-3.3,5.4-4.7
					c7-4.9,13.7-2.7,21.2,1.7c3.4,2,8.8,3.2,11.6,6.1c2.9,3.2,3.7,7.3,4.4,11.3c1,5.1,2.8,10.1,2.5,15.4c-0.2,3.8-0.4,6.7-2.1,10
					c-0.8,1.5-2.1,2.7-3.3,4c-0.3,0.3-1.2,0.6-0.9,0.9c1.8,1.8,4.7-1.7,4.7,1.7c0,0.5,0,1,0,1.5c-0.1,1.3-0.1,0.8-0.5,2.2
					c-2.2,8.4-5.5,20.1-3.3,27.1c3.9,12.3,16.5,14.7,19.5,25.1c1.5,5.3-0.3,11.5-4.5,15c-2.6,2.2-3.5,3.4-5.3,3.8
					c-3.6,0.8-4.8-0.3-6.2-0.7c-0.5-0.1-0.4,0.7,0,1.1c1.6,1.6,6,2,8.2,1.8c9.4-1,16.6-10.7,19.1-20c0.6-2.1,0.8-4.4,1.5-6.5
					c0.3-0.7,2.3-1.9,3.7-3.6c1.8-2.3,2.8-5.3,3-8.2c0.3-4.5-1.9-8.8-4.6-12.3c-1-1.4-3.1-2.7-3.6-4.3c-1.4-4.4-3.7-12.3-3.9-12.8
					c-2-3.4,0.9-5.9,0.2-8.3c-0.6-2.3-2.4-4.5-2.9-6.6c-0.9-3.6-1.9-7.2-2.4-11c-0.6-4.7-0.1-9.1-1-13.7c-0.5-2.5-1.6-5-2.7-7.4
					c-0.9-2.1-1.9-4-3.3-5.7c-1.2-1.5-2.8-3.3-4.4-4.4c-2.3-1.6-4-3.3-6.7-4.4C242.6,19.7,241.7,19.3,240.6,18.6z"/>
				<path class="st3" d="M200,135.8c-0.7-0.8-0.6,5.1-0.6,6.2c-0.1,2-0.8,4.8-0.2,6.7c0.9,3.4,3.7,7.1,5.6,9.9
					c1.3,1.9,2.9,3.2,4.3,5c0.3,0.4,1.2,1,1.2,1.5c0,0.9-2.1,0.8-4,1.1c-2.9,0.5-5.3-0.9-8.4-1.6c-0.6-0.2-2.4-1.2-2.5-0.6
					c-0.5,3-1.2,5.5-1.8,8.6c-1.2,6.9-3,14.5-2.7,21.5c0.7,14.7,4.2,24.9,6.5,40c1.1,7.1,0.8,14.9,1.4,23c0.1,1.8-0.3,5.2-0.5,7
					c-0.1,1.1-0.8,2.8-0.5,3.9c0.1,0.7,0.9,1.1,1.5,1.5c2.3,1.5,4.5,3.1,6.9,4.4c7.5,4.2,14.8,4.9,23.2,5.4
					c3.9,0.2,8.7,0.1,11.9-2.6c1.8-1.5,2.1-5,2.6-6.9c0.7-3.3,0.9-3.6,1.2-7.3c1.4-14.2,1-29.1,0.3-43.4c-1.1-20.2-9.2-39-10.4-59.2
					c-0.3-5-0.2-10.1,0.8-15.1c0.2-1.1,1.7-3.4,1.3-4.6c-0.1-0.3-0.7,0.1-1.1,0.3c-1.2,0.5-1.9,1.6-3.9,2.4
					c-1.8,0.8-4.3,1.1-7.1,1.2c-3.6,0.2-7,0.1-10.5-0.7C208.7,142.4,204.1,140.4,200,135.8z"/>
				<path class="st4" d="M195.8,117.8c0.7-0.2,0.7,0.9,0.9,1.7c0.5,1.7,0.7,3.5,1,5.2c0.9,5.8,0.9,11.4,1.1,17.3
					c0.1,1.6,0,3.2,0,4.7c0,0.4,0.4,1,0,1.3c-0.3,0.2-1.1-1.3-1.1-1.3c-1.1-1.9-2.2-4.3-2.9-6.5c-1.8-5.5-1.9-10.7-1.1-16.3
					C194,122.1,193.8,118.5,195.8,117.8z"/>
				<path class="st5" d="M164,122.5c0.8,4.7,2.4,8.5,5,12.4c1.7,2.6,4.5,4.6,6.3,7c2.6,3.4,3.6,6.8,6.3,10.3
					c1.8,2.4,5.3,5.8,7.6,7.8c1.3,1.2,5.5,2.7,6,4.6c0.6,2.5-1.7,6.8-2.1,9.3c-0.8,5.3-1.6,8.9-2,14.2c-1,11.4,3.9,28.6,5.7,42.1
					c0.7,5.6,1,11.3,1.7,16.8c0.2,1.4,0.2,2.8,0.2,4.2c0.2,3.8,0.5,9.5,0.1,13.1c-0.3,2.9-1.2,4.5-2.4,7.2c-0.4,0.9-0.4,1.6-1.5,2
					c-1.4,0.5-5.3-2.3-5.9-2.7c-4-3.1-7.6-6.4-11.9-9.2c-1.5-0.9-3-1.7-4.4-2.7c-4.3-3-8.3-6.4-11.9-10.1c-0.6-0.6-3.8-2.9-3.1-3.9
					c0.4-0.5,3.6-2.1,4.2-2.8c1.6-2,1.4-3.9,2.2-5.4c1.4-2.4,2.5-1.9,4.6-4.6c2.9-3.7,3.8-7.3,4.6-10.3c1.6-6.3,1.5-9.9,1.5-16.6
					c0-3.3,0.2-6.3-0.3-9.5c-0.1-0.8,0.1-2.8-0.7-3.3c-0.7-0.5-1.3,2.7-1.4,3.1c-0.7,3.4-0.8,6.3-0.9,10.6c-0.1,3.3-2.6,4.2-2,6.4
					c0.4,1.7,1.8,4.4,1.4,6c-0.4,1.6-2.9,3.2-3.3,4.9c-1.1,4.3,0.1,7.3-4.5,9.6c-1.8,0.9-8.3,1.6-9.9-0.8c-0.3-0.4,1-1.4,1.3-1.6
					c1.8-1.4,4.3-2.5,5.6-4.6c1.7-2.8-3.4-8.7-4.8-10.5c-2.6-3.3-6.4-6.7-10.5-7.7c-3.1-0.8-7.9-2.3-10.6-2.3
					c-1.2,0-0.7-3.5-0.1-4.4c0.5-0.7,2-1.5,2.7-2.2c1.4-1.4,2.9-6.5,3.5-8.6c0.8-2.7,1.4-6,1.9-8.8c0.7-3.3-0.6-5.2,0.1-8.5
					c0.3-1.7,1.6-3.1,1.9-4.7c0.3-1.5-0.2-3.2-0.3-4.7c-0.3-4.7,2-9.8,4.3-16.2c2.5-6.9,2.8-16,8.2-21.4
					C157.4,125,163.8,121.5,164,122.5z"/>
				<path class="st5" d="M247.9,115c-2.5-1.8-3.5,6.2-5.1,9.9c-6,13.4-11.6,29.9-8.8,44.6c2.3,11.9,2.7,22.5,4.2,30.8
					c1.5,8.3,1.7,14.1,2.4,19.7c0.4,2.9,0.7,8.1,1.1,10.9c0.8,7.6,0.1,14.1,0.6,21.7c0.7,10.7-0.6,15.6-1.3,23.8
					c-0.4,4,1.2,4.2,1,8.2c-0.2,2.9-0.6,9.6-0.3,12.4c0.1,1,0.5,2.9,1.7,3.2c0.9,0.2,2.2-1.6,2.7-1.9c3.1-1.9,6.2-3.7,9.2-5.7
					c5.5-3.6,11.3-7.8,15.9-12.5c5.5-5.7,9.7-12.3,15.9-17.4c3.6-3,8.5-4.4,11.9-7.4c0.5-0.5,3.3-2.4,3.3-3.2c0-0.8-2.6-0.4-3-0.6
					c-1.8-0.9-3.4-2.2-5.4-2.9c-3.7-1.1-7.2-1.5-11-2.1c-4.3-0.6-9-4.4-11.7-7.4c-5-5.4-1.5-12.8-1-19.3c0.3-3.1,0-6.1,0.3-9.2
					c0.1-0.5,0.2-0.9,0.3-1.4c0.1-0.3,0-1.1,0.2-0.9c0.7,0.6,1.8,3.4,2.3,4.8c1.4,4.2,2.2,7.3,4,11.6c0.8,1.9-1.7,3-1.4,5.5
					c0.2,1.7,1.4,3.6,2.5,4.8c2,2.3,3.4,5.4,5.3,7.8c1.4,1.8,3.5,4,6,4.4c2.5,0.4,1.9-5.2,2.1-6.9c1.1-6.9,2-10.1,6.2-15.9
					c2.2-3.1,7.4-5.4,10.5-7c1.4-0.7,4.2-1.9,5.2-2.8c0.6-0.6-1.9-2.5-2.2-2.7c-1.4-1-3-1.3-3.8-3c-1.2-2.4,0.4-3.7-1.8-6.4
					c-2.2-2.7-3.7-7.9-4.4-11.8c-1.4-7.7-3.4-18.9-3.9-25.8c-0.5-5.8,0.9-7.2,0.7-12.9c-0.4-7.1-4.9-14.6-7.4-21
					c-0.9-2.3-1.3-4.7-2.8-6.7c-1.3-1.6-4.8-2.6-6.7-3.2c-0.8-0.3-1.7-0.7-2.4-1.3c-0.6-0.5-0.8-1.9-1.7-2.2
					c-0.6-0.1-2.3,2.2-2.9,2.7c-0.7,0.7-1.5,1-2.1,1.7c-0.5,0.6-0.3,1.2-0.5,1.9c-0.5,2.3-1.7,5.4-2.4,7.8
					c-2.2,7.9-12.7,22.8-26.2,16c-0.3-0.1,5.3,0.2,8.2-1.1c0.5-0.2,0.9-0.6,1.3-0.9c1-0.8,2-1.6,2.9-2.5c2.7-2.8,4.8-8.2,4.8-12.2
					c0-2.9-1.3-6.2-3.5-8.1C253.1,119.2,249.1,115.9,247.9,115z"/>
				<path class="st6" d="M244.9,299.9c-2.1,1.7-3-4.6-3-6.2c0-2,0.4-7.6,0.3-9.5c-0.3-3.2-1.5-5.3-1.4-7.9c0.1-2.6,2.1-4.4,0.1-4.2
					c-0.9,0.1-6.3,1.6-8.8,2.1c-2.3,0.5-6.2,0.9-8.5,1c-5.8,0.3-13-0.8-18.3-3.2c-2.2-1-3.4-1.2-6.1-2.7c-2.7-1.5-1.8,0.8-2.5,1.6
					c-0.8,1-2.5,1.2-3.6,0.8c-4.3-1.4-8.5-6-11.9-9c-7.2-6.3-15.4-11.4-22.7-17.4c-2.9-2.4-6-3.9-8.8-6.3c-1.4-1.2-3.4-2.4-4.2-2.7
					c-1.7-0.7-4.9,1.4-7.5,2.5c-4.8,1.9-11.1,4.7-13.2,4.5c-7-0.4-10.3,3-16.8,1.2c-4.3-1.2-11.1-7.4-14.4-3.6
					c-1.3,1.5-0.7,7.9-0.2,9.8c1.9,6.2,3.6,13.6,6.7,19.8c4.8,9.7,10,16.6,16.9,25c4.2,5.1,8.5,10.1,14,16.2
					c5.5,6.1,11.5,13,17.4,15.9c2.9,1.4,5.9-0.2,8.8-0.8c5.2-1,10.2-0.3,14.6-2.7c1.4-0.8,15.1,5.5,21.8,7.4
					c10.2,3,19.4,5.2,29.8,7.3c3.8,0.8,6.6,1.5,10.4,2.1c1.4,0.2,3.3,0.9,4.8,0.5c3-0.8,7.3-6.4,8.4-8.7c3.2-6.6,3.8-8.4,3.5-14.8
					c-0.1-1.9-2.8-7.6-0.7-6.7c2.8,1.2,8.5,3.5,10.7,4.2c6.8,2.2,11.3,5.1,16.5,3.5c6.9-2.1,8.2-10.5,13.5-11
					c5.1-0.5,14.9,7.9,19.4,6.5c2.2-0.7,3.8-1.6,5.8-2.6c3.7-1.8,9.2-4.6,12.7-7.4c3.9-3.1,6.8-5.5,10.6-8.6
					c4.7-3.9,7.8-7.7,11.7-12.4c4.2-5.2,7.5-11.5,10.1-17.3c2.5-5.4,4-10.7,3.6-15.8c-0.1-2.3,0.5-6-0.7-8.1c-1.6-2.9-4.2-1-6.7-1.3
					c-2.8-0.4-8,1.4-10.6,2.3c-6.2,2.1-12.3,4.3-18.9,4.8c-8.3,0.7-14,0.7-22.2,0.1c-1.2-0.1-13.8,10.3-19.6,14.5
					c-5,3.6-9.7,9.3-14.4,13.3c-5.1,4.2-11.1,10.5-15.9,14.6C250.8,294.4,249.4,296.3,244.9,299.9z"/>
				<polygon class="st7" points="-5.8,235.7 75,263.6 88.8,324 153,348.6 154,354 94.6,363.9 16.8,332.3 15.6,326 				"/>
				<path class="st3" d="M177.6,326.3c-1.1-0.1-1.8,0.6-2.9,1c-1.5,0.5-3,0.9-4.6,1.1c-8.4,1.3-17.6,2.6-23.8,8.9
					c-1.4,1.5-4.1,4.3-4,6.6c0,0.5,0.7,0.7,1.1,0.9c1.3,0.7,2.8,1,4.1,1.6c1.6,0.7,4.8,0.8,5.9,2.2c0.8,0.9,0.6,3.8,0.6,5
					c0,0.8-1.3,1.2-2,1.3c-2.4,0.2-5.5,0.2-7.8,1.2c-0.4,0.2-0.1,0.8,0.1,1c0.6,0.6,1.6,0.9,2.4,1.1c0.6,0.1,1.3,0.4,1.9,0.4
					c5.9,0.3,12.4-0.1,18.2-0.5c4.1-0.3,7.8-0.2,11.8-0.7c2.7-0.3,5.5-1.2,8.2-1.8c3.4-0.7,6.9-0.8,10.3-1.1
					c4.1-0.3,8.4-0.4,12.5-0.4c1.7,0,4.5,0.1,5.9-1c1.3-1,1.4-2.7,1.3-4.2c-0.4-3.3-2.4-6.8-5.1-8.8c-0.9-0.7-2-1.3-2.8-2.1
					c-0.7-0.7-1-1.6-1.9-2.1c-5.6-3.1-12.1-4.4-16.4-5.7c-4.3-1.2-5.7-2.1-7.8-2.8C181.5,327,179.2,326.4,177.6,326.3z"/>
				<path class="st3" d="M277.4,319.2c-0.5-0.3,0.9-0.8,1.3-1.2c1.8-1.4,3.5-2.8,5.4-4c1.4-0.9,3.1-2.1,4.9-2.3
					c4.7-0.4,9.3,2.4,13.4,4.5c5.3,2.7,11.2,5.3,17.1,4.3c7.8-1.2,16.1-2.3,23.3,1c6.7,3.2,12.2,10.5,9.7,18.5
					c-1.8,5.7-5.3,8.3-11.4,9.3c-3.3,0.6-6.8,1.1-10.1,1c-3.5-0.2-6.9,0.5-10.3,0.7c-5.3,0.3-10.7,0.3-15.9,1.2
					c-4,0.7-7.5,1.1-11.5,1.6c-2.7,0.4-5.8,0.3-7.9-2c-1-1-2.1-2.4-2.3-3.7c-0.9-4.9-2.8-14.3,5.1-14.6c4.2-0.1,8.3,2.2,12.4,3
					c1.9,0.4,4,1.1,5.9,0.6c2-0.5,0.2-3.2-0.8-4.1c-2.2-2.1-5.7-2.7-8.7-3.3c-3.5-0.7-3.7-0.3-7.2-1.4c-2.7-0.9-7.7-3.6-9.6-5.7
					C279.4,321.7,278.6,320,277.4,319.2z"/>
				<path class="st5" d="M285,312.9c0.4,0.6,1.6-0.4,2.4-0.4c2.6-0.1,5.4,0.2,7.9,0.9c2.7,0.8,5,2.6,7.6,3.6c4.2,1.6,8.5,3.5,13,4
					c5.4,0.6,9-1.3,14.3-1.6c3.5-0.2,8.9,1.1,12.1,2.4c5,1.9,8.8,6.5,10.2,11.5c0.5,1.8,0.2,3.8-0.2,5.6c-0.1,0.3-0.7,1.7-0.4,1.9
					c0.3,0.2,0.9-0.6,1.1-0.8c0.6-0.9,1-1.9,1.3-2.9c1.3-4.3,0.6-6.6-0.9-10.6c-0.5-1.3-2-3.6-3-4.5c-2.1-1.9-4.9-3.9-7.6-4.9
					c-4.6-1.7-6.9-2.4-11.9-1.7c-3.5,0.5-8,0.7-11.5,0.6c-3.9-0.1-8.5-0.8-12.2-2c-1.5-0.5-3-1-4.4-1.5c-1.2-0.4-4.7-2.5-5.9-3
					c-4-1.6-7.7-3-11,1.3C285.5,311.3,284.5,312.2,285,312.9z"/>
				<path class="st5" d="M177.5,326.3c-2.9,2.7-8.1,2.8-11.9,3.4c-4.8,0.7-9.4,1.9-13.9,3.9c-2.9,1.3-5.9,4.3-7.4,7
					c-0.5,0.9-0.8,1.8-1,2.8c-0.1,0.3-0.1,1.2-0.5,1c-2.2-0.6-3-1.2-4.7-1.9c-0.4-0.1-1.8-0.4-1.7-1c0.3-2.2,3.2-5.1,4.6-6.7
					c4.1-4.3,9.6-7.2,15.4-8.2c3.8-0.6,7.6-0.7,11.4-1.5c1.1-0.2,2.2-0.5,3.2-1c0.5-0.2,1.4-0.9,2-0.8c0.9,0.1,1.6,0.9,2.4,1.3
					C175.9,324.9,178.1,325.8,177.5,326.3z"/>
				<polygon class="st7" points="364.4,301.6 365.5,296.8 416.5,290.1 470.9,304.3 471.9,308.5 455.7,311 408.2,319.2 404.6,319.1 
									"/>
				<polygon class="st8" points="397.2,309.9 455.1,300.6 471.3,303.8 471.3,308.4 406.6,319 406.7,314.3 				"/>
				<polygon class="st9" points="396,295.3 426.3,302.1 431.5,305.7 425.1,307.3 392.5,301 391.6,298.7 392.6,296 395.3,295.2 				
					"/>
				<path class="st8" d="M398.3,302c0.3-0.8,0.1-1,0.2-2c0.1-0.9,0.4-2,0.7-2.8c0.1-0.3,0.4-0.8,0.3-1.1c-0.3-0.6-1.4-0.9-2.1-1
					c-2.2-0.4-4.8,0.7-5.3,3c-0.5,2.7,1.5,3.6,3.8,4.2C396.4,302.4,398.1,302.6,398.3,302z"/>
				<path class="st10" d="M401.5,302.4c0,0.2-0.4,0.1-0.6,0.1c-0.3,0-1.6-0.2-1.7-0.6c-0.3-0.6-0.1-1.7,0.1-2.3
					c0.3-1.3,0.5-3,2.1-3.1c0.3,0,1-0.1,1.2,0.2c0.1,0.2,0,0.7-0.1,0.9c-0.1,0.7-0.3,1.3-0.5,2C401.7,300.5,401.6,301.4,401.5,302.4
					z"/>
				<path class="st10" d="M431.3,309c-0.6,0.2-1.3,0.3-1.6,1c-0.3,0.5,0,1.3,0.1,1.8c0.5,1.5,1.1,2.9,2.7,3.4c2.2,0.7,4.5,0,6.7-0.2
					c3.8-0.4,7.6-1.2,11.4-1.3c1.7,0,3.8-1,4-2.8c0.2-1.6-0.5-3.8-2.2-4.2c-1.1-0.3-2.4-0.1-3.5-0.1c-3.8,0.1-7.4,1.1-11.1,1.5
					C435.6,308.4,433.3,308.3,431.3,309z"/>
			</g>
			<g transform="translate(135.000000, 24.000000)">
				<path class="st11" d="M130,97.8c-5,0-9.7-1.3-13.4-3.9c-2.5-1.7-4.4-3.6-6.2-6.4l-0.2-0.2c-0.4-0.5-1-1.4-1.3-2.1
					c-0.2-0.4,0-0.8,0.3-1c0.4-0.2,0.8,0,1,0.3c0.3,0.6,0.9,1.4,1.2,2l0.2,0.2c1.7,2.6,3.5,4.4,5.8,6c4.8,3.3,11.5,4.4,18.1,3
					c5.8-1.2,10.7-4.4,13.3-8.6c0.2-0.3,0.7-0.5,1-0.2c0.3,0.2,0.5,0.7,0.2,1c-2.8,4.6-7.9,7.9-14.2,9.3
					C133.9,97.6,132,97.8,130,97.8z"/>
				<path class="st11" d="M99.4,92.2c-0.2,0-0.4-0.1-0.6-0.3c-0.2-0.3-0.2-0.8,0.1-1c6.4-5,6.2-14.2,5.2-21.6
					c-0.2-1.3-0.3-2.6-0.5-3.9c-1.5-10.7-3-21.8,2.5-32.3c4.1-7.9,14.5-18.4,25-13.4c0.4,0.2,0.5,0.6,0.3,1c-0.2,0.4-0.6,0.5-1,0.3
					c-9.6-4.6-19.3,5.4-23.1,12.8c-5.3,10.1-3.8,20.4-2.3,31.4c0.2,1.3,0.4,2.6,0.5,3.9c1,7.8,1.2,17.5-5.8,23
					C99.7,92.2,99.5,92.2,99.4,92.2z"/>
				<path class="st11" d="M137.4,24c-0.1,0-0.1,0-0.2,0c-0.4-0.1-0.7-0.5-0.6-0.9c0.6-2.6-0.6-5.5-2.8-6.7c-0.4-0.2-0.5-0.6-0.3-1
					c0.2-0.4,0.6-0.5,1-0.3c2.7,1.5,4.2,5.1,3.5,8.3C138.1,23.8,137.8,24,137.4,24z"/>
				<path class="st11" d="M77.9,79.2c-0.3,0-0.5-0.1-0.6-0.4c-0.2-0.4-0.1-0.8,0.3-1c0.5-0.3,1-0.5,1.5-0.8c1.5-0.8,3.1-1.6,4.2-2.8
					c2.1-2.4,3-5.1,4-8c0.3-0.9,0.6-1.7,0.9-2.6c2-5.1,2.9-10.4,3.8-15.6c0.6-3.6,1.2-7.2,2.2-10.8c2.6-9.9,9.2-18.8,18.4-25.1
					c2-1.4,4.3-2.6,5.9-3.4c7.5-3.8,19-5.1,25.4,0.1c2.2,1.7,3.9,4,4.5,6c1,3.1,1.2,5,1.2,7.8c0,0.4-0.3,0.7-0.7,0.7c0,0,0,0,0,0
					c-0.4,0-0.7-0.3-0.7-0.7c0-2.6-0.2-4.4-1.1-7.3c-0.6-1.8-2.1-3.8-4.1-5.3c-5.7-4.6-16.6-3.6-23.8,0.1c-1.5,0.8-3.8,1.9-5.7,3.3
					c-8.9,6.1-15.2,14.7-17.8,24.3c-0.9,3.5-1.6,7.2-2.2,10.7c-0.9,5.3-1.8,10.7-3.8,15.9c-0.3,0.9-0.6,1.7-0.9,2.6
					c-1.1,3-2.1,5.9-4.3,8.5c-1.2,1.4-2.9,2.3-4.6,3.1c-0.5,0.3-1,0.5-1.5,0.8C78.1,79.2,78,79.2,77.9,79.2z"/>
				<path class="st11" d="M167.9,65.7c-0.1,0-0.2,0-0.3-0.1c-2.3-1.1-4.1-2.5-5.8-4.5c-2.8-3.3-4.9-6.8-6.3-10.8
					c-0.9-2.5-1.4-5.2-2-7.9c-0.2-0.9-0.4-1.8-0.6-2.7c-0.8-3.6-2.3-7.1-4.6-10.5c-0.2-0.3-0.1-0.8,0.2-1c0.3-0.2,0.8-0.1,1,0.2
					c2.4,3.6,4,7.2,4.8,11c0.2,0.9,0.4,1.8,0.6,2.7c0.5,2.6,1,5.2,1.9,7.7c1.4,3.9,3.3,7.2,6,10.3c1.6,1.8,3.2,3.1,5.3,4.2
					c0.4,0.2,0.5,0.6,0.3,1C168.5,65.6,168.2,65.7,167.9,65.7z"/>
				<path class="st11" d="M149.6,71.5c-0.3,0-0.6-0.2-0.7-0.6c-0.1-0.4,0.2-0.8,0.6-0.9c4.5-1,7-8.4,6.1-12.4
					c-0.1-0.4,0.2-0.8,0.6-0.9c0.4-0.1,0.8,0.2,0.9,0.6c1,4.6-1.9,13-7.2,14.2C149.7,71.5,149.7,71.5,149.6,71.5z"/>
				<path class="st11" d="M77.1,91.8c-0.3,0-0.7,0-1-0.1c-0.4-0.1-0.7-0.4-0.6-0.8c0.1-0.4,0.4-0.7,0.8-0.6c4.4,0.7,9.4-4.3,11-8
					c0.4-0.9,0.6-1.7,0.9-2.7c0.2-0.7,0.4-1.3,0.6-2c0.1-0.4,0.5-0.6,0.9-0.5c0.4,0.1,0.6,0.5,0.5,0.9c-0.2,0.6-0.4,1.3-0.6,1.9
					c-0.3,0.9-0.5,1.9-0.9,2.8C87,86.8,82,91.8,77.1,91.8z"/>
				<path class="st11" d="M86.1,143.5c-0.2,0-0.4-0.1-0.5-0.2c-2.2-2.3-4.3-4.6-6.2-7c-7.5-9.5-5.6-22.4-1.2-31.3
					c1-2,2.2-3.9,3.4-5.8c2-3.1,4-6.3,4.9-9.9c0.1-0.4,0.5-0.6,0.9-0.5c0.4,0.1,0.6,0.5,0.5,0.9c-0.9,3.7-3,7.1-5.1,10.3
					c-1.2,1.8-2.4,3.7-3.3,5.6c-4.1,8.5-6,20.8,1.1,29.7c1.9,2.4,3.9,4.7,6.1,6.9c0.3,0.3,0.3,0.8,0,1
					C86.5,143.4,86.3,143.5,86.1,143.5z"/>
				<path class="st11" d="M110.9,167.4c-0.1,0-0.2,0-0.2,0c-11-3.9-20-12.8-24.2-23.8c-2.4-6.3-2.2-13.7-2-17.6
					c0-0.4,0.4-0.7,0.8-0.7c0.4,0,0.7,0.4,0.7,0.8c-0.3,3.8-0.4,11,1.9,17c4,10.7,12.7,19.2,23.3,23c0.4,0.1,0.6,0.6,0.4,0.9
					C111.5,167.3,111.2,167.4,110.9,167.4z"/>
				<path class="st11" d="M178.7,73.3c-0.2,0-0.4-0.1-0.5-0.2c-5.2-5-6.1-15.1-6.3-19.2l0-0.9c-0.2-4.9-0.3-8.7-2.1-13.5
					c-0.6-1.7-2.1-4.8-3-6.3c-2.2-3.5-4.1-5.3-7.5-8.1c-1.4-1.2-3.3-2.4-5.2-3.4c-0.5-0.2-1.2-0.6-2-0.9c-0.4-0.1-0.6-0.6-0.4-0.9
					c0.1-0.4,0.6-0.6,0.9-0.4c0.9,0.3,1.7,0.8,2.2,1c2,1.1,4,2.3,5.5,3.5c3.5,2.9,5.5,4.8,7.9,8.4c1,1.6,2.5,4.8,3.2,6.6
					c1.8,5,2,8.9,2.2,13.9l0,0.9c0.2,3.9,1.1,13.6,5.8,18.2c0.3,0.3,0.3,0.7,0,1C179.1,73.2,178.9,73.3,178.7,73.3z"/>
				<path class="st11" d="M120.8,166.5c-0.2,0-0.3-0.1-0.5-0.2c-4-3.3-6.3-7.3-8.8-11.6c-0.6-1.1-1.2-2.1-1.9-3.2
					c-4.9-7.9-7-19-5.4-28.3c0.5-2.7,1.3-5.4,2.1-8c0.8-2.6,1.7-5.4,2.1-8.2c0.5-3.1,0.6-6.4,0.2-10.4c0-0.4,0.3-0.8,0.7-0.8
					c0.4,0,0.8,0.3,0.8,0.7c0.4,4.1,0.3,7.5-0.3,10.8c-0.5,2.9-1.3,5.6-2.2,8.3c-0.8,2.6-1.6,5.2-2.1,7.9
					c-1.6,8.9,0.5,19.6,5.2,27.2c0.7,1.1,1.3,2.2,1.9,3.2c2.4,4.1,4.7,8,8.5,11.2c0.3,0.3,0.4,0.7,0.1,1
					C121.2,166.4,121,166.5,120.8,166.5z"/>
				<path class="st11" d="M158.1,149.5c-1.8,0-3.7-0.6-5.2-1.9c-0.3-0.3-0.4-0.7-0.1-1c0.3-0.3,0.7-0.4,1-0.1
					c3.2,2.7,7.9,1.5,10.8-1.1c4.5-4,6.6-8.9,6.1-14.2c-0.5-4.6-3.7-7.9-6.7-10.6l-1.4-1.2c-4.6-4-9.4-8.1-11.7-13.8
					c-2.7-6.8-0.8-13.8,1.1-20.6c0.3-1.1,0.6-2.2,0.9-3.2c0.8-3.1,1.3-6.3,1.6-10c0-0.4,0.4-0.7,0.8-0.7c0.4,0,0.7,0.4,0.7,0.8
					c-0.3,3.8-0.9,7.1-1.7,10.2c-0.3,1.1-0.6,2.2-0.9,3.3c-1.8,6.5-3.6,13.3-1.1,19.6c2.1,5.4,6.8,9.4,11.3,13.3l1.4,1.2
					c3.1,2.7,6.7,6.4,7.2,11.6c0.6,5.8-1.7,11.2-6.6,15.5C163.6,148.3,160.9,149.5,158.1,149.5z"/>
				<path class="st11" d="M187.7,88.2c0,0-0.1,0-0.1,0c-7.4-1.5-13-6.2-15.5-12.9c-0.1-0.4,0.1-0.8,0.4-0.9c0.4-0.1,0.8,0.1,0.9,0.4
					c2.2,6.2,7.5,10.6,14.4,12c0.4,0.1,0.7,0.5,0.6,0.9C188.4,87.9,188.1,88.2,187.7,88.2z"/>
				<path class="st11" d="M187.8,118.9c-0.2,0-0.3,0-0.4-0.1c-0.3-0.2-0.4-0.7-0.2-1c4.1-5.5,1.3-13.8-3.4-18.8
					c-1-1.1-2.3-1.9-3.6-2.8c-1.5-1.1-3.1-2.1-4.4-3.7c-2.6-3.2-4.2-6.7-5.4-11.6c-0.1-0.4,0.1-0.8,0.5-0.9c0.4-0.1,0.8,0.1,0.9,0.5
					c1.2,4.8,2.7,8,5.1,11.1c1.1,1.4,2.6,2.4,4.1,3.4c1.3,0.9,2.7,1.8,3.8,3c5.1,5.4,8.1,14.4,3.5,20.6
					C188.2,118.8,188,118.9,187.8,118.9z"/>
				<path class="st11" d="M108.8,111.7c-0.3,0-0.6-0.2-0.7-0.5c-0.2-0.4,0-0.8,0.4-1c0.4-0.2,0.7-0.2,1-0.2c0.4-0.1,0.7-0.1,0.9-0.3
					c5-3.9,4.4-12.2,4-17.2c0-0.4,0.3-0.8,0.7-0.8c0.4,0,0.8,0.3,0.8,0.7c0.4,5.3,1.1,14.1-4.6,18.5c-0.5,0.4-1.1,0.5-1.6,0.6
					c-0.3,0-0.5,0.1-0.7,0.2C108.9,111.7,108.8,111.7,108.8,111.7z"/>
				<path class="st11" d="M60.7,180.1c-0.2,0-0.4-0.1-0.6-0.3c-4.5-5.8-6.8-14.8-5.4-21.3c0.5-2.1,1.3-4.2,2.2-6.1
					c0.7-1.6,1.4-3.4,1.9-5.1c0.4-1.3,0.7-2.6,1-3.9c1.4-5.5,2.6-10.6,6-15.5c1.3-1.9,3.4-2.9,5.5-4c0.9-0.5,1.8-0.9,2.5-1.4
					c0.3-0.2,0.8-0.1,1,0.2c0.2,0.3,0.1,0.8-0.2,1c-0.8,0.5-1.7,1-2.7,1.4c-1.9,1-3.9,1.9-5,3.5c-3.2,4.6-4.4,9.7-5.8,15
					c-0.3,1.3-0.6,2.6-1,3.9c-0.5,1.8-1.2,3.5-1.9,5.2c-0.8,1.9-1.7,3.9-2.1,5.9c-1.3,6.1,0.9,14.5,5.2,20.1c0.2,0.3,0.2,0.8-0.1,1
					C61,180,60.9,180.1,60.7,180.1z"/>
				<path class="st11" d="M72.5,184.5c-0.1,0-0.2,0-0.4-0.1c-3.3-1.9-5.9-5.2-8.2-8.4c-0.2-0.2-0.3-0.4-0.5-0.6
					c-0.6-0.7-1.2-1.5-1.5-2.6c-0.1-0.4,0.1-0.8,0.5-0.9c0.4-0.1,0.8,0.1,0.9,0.5c0.2,0.8,0.7,1.4,1.2,2.1c0.2,0.2,0.3,0.4,0.5,0.7
					c2.2,3.1,4.7,6.2,7.8,8c0.4,0.2,0.5,0.6,0.3,1C73,184.3,72.8,184.5,72.5,184.5z"/>
				<path class="st11" d="M77.8,202c-0.3,0-0.5-0.1-0.7-0.4c-0.3-0.6-0.6-1.3-0.9-2c-1.3-2.7-2.6-5.5-4.6-7.5c-0.3-0.3-0.3-0.7,0-1
					c0.3-0.3,0.7-0.3,1,0c2.2,2.2,3.6,5.1,4.9,7.9c0.3,0.7,0.6,1.3,0.9,1.9c0.2,0.4,0,0.8-0.3,1C78.1,202,77.9,202,77.8,202z"/>
				<path class="st11" d="M48.7,198.5c-0.1,0-0.2,0-0.3-0.1c-0.4-0.2-0.5-0.6-0.3-1c1.1-2,1.6-4.3,2.2-6.5l0.7-2.6
					c0.6-2.3,1.2-4.6,1.5-7c0.1-1,0.1-1.9,0.1-2.9c0-1.1,0-2.3,0.2-3.5c0.2-1.2,0.6-2.4,1-3.6c0.2-0.7,0.5-1.4,0.6-2.1
					c0.1-0.4,0.5-0.6,0.9-0.5c0.4,0.1,0.6,0.5,0.5,0.9c-0.2,0.7-0.4,1.5-0.7,2.2c-0.4,1.1-0.7,2.2-0.9,3.4c-0.2,1.1-0.2,2.2-0.2,3.3
					c0,1,0,2.1-0.2,3.1c-0.3,2.4-0.9,4.8-1.5,7.2l-0.6,2.5c-0.6,2.3-1.2,4.7-2.3,6.8C49.2,198.3,49,198.5,48.7,198.5z"/>
				<path class="st11" d="M80,212.9c-0.2,0-0.3-0.1-0.5-0.2c-0.3-0.3-0.3-0.7-0.1-1c2-2.3,2-4.6,2-7.3c0-1,0-2.1,0.1-3.3
					c0.2-1.9,0.8-3.7,1.5-5.5c0.4-1.1,0.8-2.2,1-3.3c0.1-0.4,0.5-0.6,0.9-0.5c0.4,0.1,0.6,0.5,0.5,0.9c-0.3,1.1-0.7,2.3-1.1,3.4
					c-0.6,1.7-1.2,3.4-1.4,5.2c-0.1,1.1-0.1,2.1-0.1,3.1c0,2.8,0,5.5-2.4,8.2C80.5,212.8,80.2,212.9,80,212.9z"/>
				<path class="st11" d="M52.7,201.1c-0.3,0-0.6-0.2-0.7-0.6c-0.1-0.4,0.2-0.8,0.5-0.9c0.7-0.2,1.5-0.4,2.2-0.6
					c1.8-0.5,3.7-1.1,5.7-1c1,0,2,0.2,3,0.4c1.7,0.3,3.4,0.7,4.7,0.3c0.4-0.1,0.8,0.2,0.9,0.5c0.1,0.4-0.2,0.8-0.6,0.9
					c-1.6,0.4-3.5,0-5.3-0.3c-1-0.2-2-0.4-2.8-0.4c-1.8-0.1-3.4,0.4-5.2,0.9c-0.8,0.2-1.5,0.4-2.3,0.6
					C52.8,201.1,52.8,201.1,52.7,201.1z"/>
				<path class="st11" d="M44.5,207.1c-0.3,0-0.6-0.2-0.7-0.6c-0.4-1.7-0.1-3.4,1-4.7c0.9-1.2,2.4-2.1,4.2-2.5
					c0.4-0.1,0.8,0.2,0.9,0.5c0.1,0.4-0.2,0.8-0.6,0.9c-1.4,0.3-2.6,1-3.4,1.9c-0.8,1-1,2.2-0.7,3.5c0.1,0.4-0.2,0.8-0.5,0.9
					C44.6,207.1,44.6,207.1,44.5,207.1z"/>
				<path class="st11" d="M68,211.9c-0.1,0-0.3,0-0.4-0.1c-4-2.3-8-3.9-12.3-4.9l-0.2,0c-1.1-0.3-3.9-0.9-4.9-0.3
					c-0.3,0.2-0.8,0.1-1-0.2c-0.2-0.3-0.1-0.8,0.2-1c1.5-1,4.4-0.3,6,0.1l0.2,0c4.4,1,8.6,2.7,12.7,5.1c0.3,0.2,0.5,0.7,0.3,1
					C68.5,211.8,68.3,211.9,68,211.9z"/>
				<path class="st11" d="M69.1,236c-0.6,0-1.4-0.1-1.7-0.4c-0.2-0.2-0.3-0.5-0.3-0.7c0-0.6,0.5-0.9,1.8-1.2c0.9-0.2,2-0.9,2.2-1.5
					c1.6-4-1.9-9.6-4-13L67,219c-2.4-3.9-6.5-7.1-10.9-8.7l-0.8-0.3c-1.3-0.5-2.6-0.9-4-1.3l-0.2,0c-2.8-0.5-3.2-0.7-3.4-1.1
					c-0.1-0.2-0.1-0.5,0-0.7c0.3-0.7,0.6-0.9,1.1-1.1l0.2-0.1c0.4-0.2,0.8-0.1,1,0.3c0.2,0.4,0.1,0.8-0.3,1l-0.1,0.1
					c0.4,0.1,1,0.2,1.8,0.3c0.2,0,0.3,0,0.3,0.1c1.5,0.3,2.8,0.8,4.2,1.3l0.8,0.3c4.7,1.7,9.1,5.2,11.7,9.3l0.2,0.2
					c2.3,3.6,6,9.6,4.1,14.3c-0.2,0.5-0.7,1-1.2,1.4c1.4-0.4,2.8-1,3.7-1.9c1.5-1.4,1.6-2.8,1.7-4.5c0-0.8,0.1-1.6,0.3-2.6
					c0.3-1.3,1.1-2.3,1.9-3.3c0.4-0.5,0.8-1,1.1-1.5c0.2-0.4,0.7-0.5,1-0.3c0.4,0.2,0.5,0.7,0.3,1c-0.3,0.6-0.8,1.1-1.2,1.7
					c-0.7,0.9-1.4,1.8-1.6,2.7c-0.2,0.8-0.2,1.6-0.3,2.4c-0.1,1.9-0.2,3.6-2.1,5.4c-1.5,1.5-4.1,2.3-5.9,2.5
					C70.1,235.9,69.6,236,69.1,236z"/>
				<path class="st11" d="M81.3,218.8c-0.3,0-0.6-0.2-0.7-0.5c-1.3-3.7-3-7-4.8-10.6c-0.5-0.9-0.9-1.8-1.4-2.7c-0.2-0.4,0-0.8,0.3-1
					c0.4-0.2,0.8,0,1,0.3c0.5,0.9,0.9,1.8,1.4,2.7c1.8,3.6,3.5,6.9,4.9,10.7c0.1,0.4-0.1,0.8-0.4,0.9
					C81.5,218.8,81.4,218.8,81.3,218.8z"/>
				<path class="st11" d="M27.2,228c-0.2,0-0.3,0-0.5-0.1c-0.4-0.1-0.6-0.5-0.5-0.9c0.1-0.4,0.5-0.6,0.9-0.5c0.2,0,0.7-0.2,0.9-0.4
					l0.3-0.1c1.7-0.8,3-1.7,4.4-3c3.3-2.8,6-6.1,8.7-9.3c2-2.4,4-4.8,6.3-7.1c0.3-0.3,0.7-0.3,1,0c0.3,0.3,0.3,0.7,0,1
					c-2.2,2.2-4.2,4.6-6.2,7c-2.7,3.3-5.5,6.6-8.9,9.5c-1.6,1.3-3,2.4-4.8,3.2l-0.2,0.1C28.3,227.7,27.7,228,27.2,228z"/>
				<path class="st11" d="M33.1,246c-0.3,0-0.6-0.2-0.7-0.5c-0.1-0.4,0.1-0.8,0.5-0.9c16-4.6,28.1-10.3,38.2-18.1
					c0.3-0.2,0.8-0.2,1,0.1c0.2,0.3,0.2,0.8-0.1,1c-10.2,7.9-22.5,13.7-38.7,18.3C33.2,246,33.2,246,33.1,246z"/>
				<path class="st11" d="M35.3,240.7c-0.1,0-0.1,0-0.2,0c-0.4-0.1-0.6-0.5-0.5-0.9c0.5-2-1.6-5.1-3.6-7.1c-0.6-0.6-1.2-1.1-1.8-1.7
					c-1.5-1.3-3-2.6-3.8-4.5c-1-2.3-1.6-4.9-2.2-7.4c-0.8-3.7-1.7-7.6-4-10.4c-0.1-0.2-0.4-0.3-0.7-0.5c-0.3-0.2-0.6-0.4-0.8-0.6
					c-0.3-0.3-0.3-0.7,0-1c0.3-0.3,0.7-0.3,1,0c0.1,0.1,0.4,0.3,0.6,0.4c0.4,0.2,0.7,0.5,1.1,0.8c2.5,3.1,3.4,7.1,4.3,11
					c0.6,2.6,1.1,5,2.1,7.1c0.7,1.6,2,2.8,3.4,4c0.6,0.6,1.3,1.2,1.9,1.8c1.1,1.2,4.8,5.3,4,8.5C36,240.5,35.7,240.7,35.3,240.7z"/>
				<path class="st11" d="M20.3,233.3c-0.3,0-0.6-0.2-0.7-0.5l-0.4-1.1c-0.7-2.1-1.4-4.2-1.7-6.4c-0.4-3.1-0.5-6.3-0.5-9.3
					c0-3.1-0.1-6.3-0.5-9.4l-0.1-0.7c-0.2-1.4-0.4-3.3-1.2-4.2l-0.2-0.2c-0.1-0.2-0.5-0.6-0.6-0.6c-0.3,0.2-0.8,0.1-1-0.2
					c-0.2-0.3-0.1-0.8,0.2-1c1.2-0.7,2.1,0.4,2.5,0.9l0.1,0.2c1.1,1.2,1.4,3.3,1.6,5l0.1,0.7c0.5,3.2,0.5,6.4,0.6,9.6
					c0,3,0.1,6.1,0.5,9.1c0.3,2,1,4.1,1.6,6.1l0.4,1.1c0.1,0.4-0.1,0.8-0.5,0.9C20.4,233.3,20.3,233.3,20.3,233.3z"/>
				<path class="st11" d="M12,229.8c-0.3,0-0.6-0.2-0.7-0.6c-1.7-7.8-0.8-15.5,0-23c0.2-1.6,0.4-3.3,0.6-5c0-0.4,0.4-0.7,0.8-0.7
					c0.4,0,0.7,0.4,0.7,0.8c-0.2,1.7-0.4,3.3-0.6,5c-0.9,7.7-1.8,15-0.1,22.5c0.1,0.4-0.2,0.8-0.6,0.9
					C12.1,229.8,12.1,229.8,12,229.8z"/>
				<path class="st11" d="M4.7,229.9c-0.3,0-0.6-0.2-0.7-0.5c-0.3-0.8-0.4-1.7-0.6-2.6c-0.1-0.8-0.3-1.6-0.5-2.4
					c-0.1-0.3-0.2-0.7-0.4-1.1c-0.7-2-1.6-4.4-1.2-6.5c0.4-2.4,0.9-4.8,1.4-7.1c0.3-1.4,0.6-2.7,0.9-4.1c0.2-1,0.2-1.1,0.3-1.3
					c0.1-0.2,0.1-0.4,0.3-1c0.1-0.2,0.1-0.6,0.2-1.1c0.4-1.9,0.9-4.5,2.4-5.2c0.5-0.2,1.2-0.3,2.2,0.4c2,1.3,1.9,4.7,1.8,7
					c0,0.4,0,0.8,0,1.1c0,2-0.2,3.9-0.4,5.8c-0.5,4.2-0.9,8.2,1.2,12.3c0.2,0.4,0,0.8-0.3,1c-0.4,0.2-0.8,0-1-0.3
					c-2.3-4.5-1.8-8.7-1.3-13.1c0.2-1.8,0.4-3.7,0.4-5.6c0-0.3,0-0.7,0-1.1c0.1-1.8,0.2-4.8-1.1-5.7c-0.3-0.2-0.6-0.3-0.8-0.2
					c-0.8,0.4-1.3,2.9-1.5,4.1c-0.1,0.5-0.2,0.9-0.3,1.2c-0.2,0.6-0.3,0.9-0.3,1c-0.1,0.2-0.1,0.3-0.3,1.2c-0.3,1.4-0.6,2.8-0.9,4.1
					c-0.5,2.3-1.1,4.7-1.4,7c-0.3,1.7,0.5,3.9,1.2,5.8c0.1,0.4,0.3,0.8,0.4,1.1c0.3,0.9,0.4,1.7,0.6,2.6c0.1,0.8,0.3,1.6,0.5,2.3
					c0.1,0.4-0.1,0.8-0.5,0.9C4.9,229.9,4.8,229.9,4.7,229.9z"/>
				<path class="st11" d="M8.3,242.7c-0.1,0-0.1,0-0.2,0c-0.5-0.1-1.1-0.3-1.6-0.5c-0.6-0.2-1.2-0.4-1.8-0.5c-0.2,0-0.4-0.1-0.6-0.1
					c-0.9-0.2-1.8-0.3-2.7-1c-1.8-1.5-2.5-3.9-3.1-6c-0.2-0.6-0.3-1.2-0.5-1.8c-0.2-0.6-0.4-1.2-0.6-1.9c-0.3-1.1-0.6-2.2-1.1-3.1
					c-0.2-0.4-0.3-0.8-0.5-1.2c-0.5-1.1-1-2.2-1.2-3.4c-0.6-3.6-0.1-6.9,0.5-10.3l0.1-0.7c0.6-3.7,1-6.7,1.4-9.5l0-0.2
					c0.1-1,0.3-2.9,1.7-3.1c2.1-0.3,3.3,2.7,3.8,4c1,3,0.8,6.4,0.7,9.6c-0.1,1.1-0.1,2.2-0.1,3.3c0,0.4-0.3,0.7-0.7,0.7
					s-0.7-0.3-0.7-0.7c0-1.1,0.1-2.2,0.1-3.4c0.1-3.1,0.3-6.4-0.6-9.1c-0.5-1.6-1.5-3.1-2.2-3c0,0-0.3,0.4-0.4,1.8l0,0.2
					c-0.4,2.8-0.8,5.8-1.4,9.5l-0.1,0.7c-0.5,3.4-1.1,6.5-0.5,9.9c0.2,1,0.6,2,1.1,3c0.2,0.4,0.4,0.8,0.6,1.2
					c0.4,1.1,0.8,2.2,1.1,3.3c0.2,0.6,0.4,1.2,0.6,1.8c0.2,0.6,0.4,1.2,0.5,1.9c0.5,2,1.1,4.1,2.6,5.3c0.6,0.5,1.2,0.6,2,0.7
					c0.2,0,0.4,0.1,0.7,0.1c0.7,0.1,1.4,0.4,2,0.6c0.5,0.2,1,0.3,1.5,0.5c0.4,0.1,0.6,0.5,0.5,0.9C8.9,242.5,8.6,242.7,8.3,242.7z"
					/>
				<path class="st11" d="M24.1,247c-2.9,0-5.8-1.1-8.5-2c-1.3-0.5-2.6-0.9-3.8-1.3c-0.4-0.1-0.6-0.5-0.5-0.9
					c0.1-0.4,0.5-0.6,0.9-0.5c1.3,0.3,2.6,0.8,4,1.3c4.3,1.5,8.7,3.1,12.5,0.6c0.3-0.2,0.8-0.1,1,0.2c0.2,0.3,0.1,0.8-0.2,1
					C27.7,246.6,25.9,247,24.1,247z"/>
				<path class="st11" d="M10.4,240.2c-0.1,0-0.1,0-0.2,0c-2-0.5-3.2-0.8-4.9-2.5c-0.3-0.3-0.3-0.7,0-1c0.3-0.3,0.7-0.3,1,0
					c1.3,1.3,2.1,1.6,4.2,2.1c0.4,0.1,0.6,0.5,0.6,0.9C11,239.9,10.7,240.2,10.4,240.2z"/>
				<path class="st11" d="M15.9,240.6c-0.1,0-0.2,0-0.3-0.1c-1-0.4-2.2-1-3.2-1.7c-0.3-0.2-0.4-0.7-0.1-1s0.7-0.4,1-0.1
					c0.8,0.6,1.8,1.1,2.9,1.6c0.4,0.2,0.5,0.6,0.4,1C16.5,240.4,16.2,240.6,15.9,240.6z"/>
				<path class="st11" d="M83.5,163.4c-0.3,0-0.6-0.2-0.7-0.6c-0.2-0.7-0.7-1.5-1.2-2.2c-0.2-0.3-0.4-0.6-0.6-0.8
					c-0.3-0.5-0.6-0.9-0.9-1.4c-0.7-1.2-1.5-2.4-2.4-3.4c-0.3-0.3-0.2-0.8,0.1-1c0.3-0.3,0.8-0.2,1,0.1c1,1.1,1.8,2.4,2.6,3.6
					c0.3,0.5,0.6,0.9,0.9,1.4c0.2,0.2,0.4,0.5,0.5,0.8c0.6,0.8,1.3,1.7,1.5,2.8c0.1,0.4-0.2,0.8-0.6,0.9
					C83.6,163.4,83.5,163.4,83.5,163.4z"/>
				<path class="st11" d="M83.4,165.7c-0.1,0-0.1,0-0.2,0c-0.7-0.2-1.5-0.8-2.2-1.5c-0.3-0.3-0.7-0.6-1-0.8c-1.1-0.7-2.4-1-3.7-1.4
					l-0.2-0.1c-0.4-0.1-0.6-0.5-0.5-0.9c0.1-0.4,0.5-0.6,0.9-0.5l0.2,0.1c1.4,0.4,2.9,0.7,4.2,1.6c0.3,0.2,0.7,0.5,1.1,0.9
					c0.5,0.4,1.2,1.1,1.6,1.2c0.4,0.1,0.6,0.5,0.5,0.9C84,165.5,83.7,165.7,83.4,165.7z"/>
				<path class="st11" d="M84.7,221.8c-0.1,0-0.2,0-0.2,0c-0.4-0.1-0.6-0.6-0.4-0.9c0.6-1.6,0.7-3.5,0.8-5.3c0-0.7,0.1-1.3,0.2-2
					c0.6-5.9,0.2-12-0.2-17.8c-0.1-1.7-0.5-3.5-0.9-5.2c-0.4-1.8-0.8-3.7-0.9-5.6c-0.4-5.8-0.4-11.3-0.4-17.2c0-1.6,0.1-3.1,0.3-4.6
					c0.2-1.8,0.3-3.7,0.2-5.6c0-0.4,0.3-0.7,0.7-0.8c0.4,0,0.7,0.3,0.8,0.7c0.1,2-0.1,3.9-0.2,5.8c-0.1,1.5-0.3,3-0.3,4.5
					c0,5.9,0,11.4,0.4,17.1c0.1,1.8,0.5,3.6,0.9,5.4c0.4,1.7,0.7,3.5,0.9,5.3c0.5,5.8,0.8,12.1,0.2,18c-0.1,0.6-0.1,1.3-0.1,1.9
					c-0.1,1.9-0.3,3.9-0.9,5.7C85.3,221.6,85,221.8,84.7,221.8z"/>
				<path class="st11" d="M68.7,246.8c-0.3,0-0.6-0.2-0.7-0.5c-0.2-0.4,0-0.8,0.4-1c1.8-0.7,4.1-2.4,4.9-3.9
					c0.2-0.5,0.3-0.9,0.5-1.5c0.2-0.8,0.4-1.7,1.1-2.6c0.6-0.7,1.3-1.4,2-2.2c2.8-3.1,5.7-6.2,6.4-10.1c0.1-0.4,0.5-0.7,0.9-0.6
					c0.4,0.1,0.7,0.5,0.6,0.9c-0.9,4.3-4,7.7-6.8,10.8c-0.7,0.7-1.3,1.4-1.9,2.2c-0.5,0.6-0.6,1.2-0.8,2c-0.1,0.6-0.3,1.2-0.6,1.8
					c-1.1,2.1-4,3.9-5.7,4.6C68.9,246.7,68.8,246.8,68.7,246.8z"/>
				<path class="st11" d="M109.8,150.3c0,0-0.1,0-0.1,0c-0.4-0.1-0.7-0.5-0.6-0.9c0.6-2.9,0.4-6.1,0.2-9.1l0-0.2
					c-0.4-7.2-1.1-14.9-3.4-22.8c-0.1-0.4,0.1-0.8,0.5-0.9c0.4-0.1,0.8,0.1,0.9,0.5c2.3,8.1,3,15.9,3.5,23.2l0,0.2
					c0.2,3.1,0.4,6.4-0.2,9.5C110.5,150,110.1,150.3,109.8,150.3z"/>
				<path class="st11" d="M102.4,198.1c-0.4,0-0.7-0.3-0.7-0.6c-1.4-8.2,0.2-15.5,1.9-23.3c0.6-2.9,1.3-5.8,1.7-8.8
					c0.1-0.4,0.4-0.7,0.8-0.6c0.4,0.1,0.7,0.4,0.6,0.8c-0.5,3-1.1,6-1.8,8.9c-1.7,7.6-3.2,14.8-1.9,22.7c0.1,0.4-0.2,0.8-0.6,0.8
					C102.5,198.1,102.5,198.1,102.4,198.1z"/>
				<path class="st11" d="M108.1,272.2c-0.1,0-0.1,0-0.2,0c-0.4-0.1-0.6-0.5-0.5-0.9c1.4-4.6,1.3-9.6,1.2-14.5l0-0.9
					c-0.2-11.4-0.9-20.1-2.4-28c-0.5-2.8-1.1-5.7-1.7-8.5c-0.9-4.4-1.9-8.9-2.5-13.4c-0.1-0.4,0.2-0.8,0.6-0.8
					c0.4-0.1,0.8,0.2,0.8,0.6c0.6,4.5,1.6,9,2.5,13.3c0.6,2.8,1.2,5.7,1.8,8.6c1.5,8,2.2,16.7,2.4,28.3l0,0.9c0.1,5,0.2,10.1-1.3,15
					C108.8,272,108.5,272.2,108.1,272.2z"/>
				<path class="st11" d="M96.6,244.6c-0.3,0-0.6-0.2-0.7-0.6c-0.6-3.2-1.7-6.4-2.8-9.5l-0.4-1.2c-0.3-0.8-0.5-1.6-0.7-2.4
					c-0.4-1.5-0.8-3-1.5-4.3c-0.2-0.4,0-0.8,0.3-1c0.4-0.2,0.8,0,1,0.3c0.7,1.5,1.2,3,1.6,4.6c0.2,0.8,0.4,1.6,0.7,2.4l0.4,1.2
					c1.1,3.1,2.2,6.4,2.8,9.7c0.1,0.4-0.2,0.8-0.6,0.9C96.7,244.6,96.6,244.6,96.6,244.6z"/>
				<path class="st11" d="M144.4,163.3C144.4,163.3,144.3,163.3,144.4,163.3c-0.5,0-0.8-0.4-0.7-0.8l0.1-1.4
					c0.5-6.1,1.1-12.4,3-18.5c1.1-3.5,2.6-7,4-10.4c2-4.7,4-9.6,5.2-14.6c0.1-0.4,0.5-0.6,0.9-0.5c0.4,0.1,0.6,0.5,0.5,0.9
					c-1.2,5.1-3.3,10.1-5.2,14.9c-1.4,3.3-2.8,6.8-3.9,10.3c-1.9,5.9-2.4,12.2-2.9,18.2l-0.1,1.4
					C145.1,163.1,144.8,163.3,144.4,163.3z"/>
				<path class="st11" d="M153.4,237.4c-0.4,0-0.7-0.3-0.7-0.7c-0.2-2.4-0.5-4.9-0.7-7.3c-0.7-7.1-1.4-14.5-2.3-21.7
					c-0.3-1.9-0.5-3.8-0.8-5.8c-0.5-3.1-1-6.3-1.3-9.5c-0.1-1.3-0.3-2.7-0.4-4.1c-0.6-6.4-1.1-13-3-18.8c-0.1-0.4,0.1-0.8,0.5-0.9
					c0.4-0.1,0.8,0.1,0.9,0.5c1.9,5.9,2.5,12.6,3.1,19.1c0.1,1.4,0.2,2.8,0.4,4.1c0.3,3.1,0.8,6.3,1.3,9.4c0.3,1.9,0.6,3.9,0.8,5.8
					c0.9,7.2,1.6,14.6,2.3,21.8c0.2,2.4,0.5,4.9,0.7,7.3C154.2,237,153.9,237.4,153.4,237.4C153.5,237.4,153.5,237.4,153.4,237.4z"
					/>
				<path class="st11" d="M153.1,289.8c-0.1,0-0.2,0-0.3-0.1c-0.4-0.2-0.5-0.6-0.3-1c0.2-0.4,0.2-1,0.2-1.5c0-0.2,0-0.4,0-0.6
					c0.1-1.6-0.2-3.2-0.5-4.8c-0.3-1.3-0.5-2.7-0.6-4.1c-0.1-1.7,0.2-3.4,0.5-5c0.2-1.3,0.4-2.5,0.5-3.8l0.1-2.2
					c0.3-5.6,0.5-11.3-0.3-16.8c-0.1-0.4,0.2-0.8,0.6-0.8c0.4-0.1,0.8,0.2,0.8,0.6c0.9,5.6,0.6,11.4,0.3,17.1L154,269
					c-0.1,1.3-0.3,2.7-0.5,4c-0.3,1.6-0.6,3.2-0.5,4.7c0,1.3,0.3,2.5,0.5,3.9c0.3,1.7,0.7,3.4,0.6,5.2c0,0.2,0,0.3,0,0.5
					c0,0.7,0,1.5-0.4,2.2C153.6,289.6,153.3,289.8,153.1,289.8z"/>
				<path class="st11" d="M132.5,146.2c-1.4,0-2.8-0.1-4.3-0.2c-5.1-0.5-9.8-2.3-14.1-5.3l-0.8-0.6c-1.3-0.9-2.8-1.9-3.8-3.2
					c-0.3-0.3-0.2-0.8,0.1-1c0.3-0.3,0.8-0.2,1,0.1c0.9,1.1,2.3,2,3.5,2.9l0.8,0.6c4.1,2.8,8.6,4.6,13.4,5.1c3.1,0.3,6,0.2,8.4,0
					c2.3-0.2,4-0.7,6.3-1.4l0.2-0.1c1-0.3,3.3-1.4,4-2.3c0.3-0.3,0.7-0.3,1-0.1c0.3,0.3,0.3,0.7,0.1,1c-1,1.2-3.8,2.4-4.7,2.7
					l-0.2,0.1c-2.3,0.7-4.1,1.3-6.6,1.4C135.6,146.2,134.1,146.2,132.5,146.2z"/>
				<path class="st11" d="M178.5,135.3c-0.2,0-0.3-0.1-0.5-0.2c-0.3-0.2-0.4-0.7-0.1-1c2.6-3.3,3.9-8.3,3.5-13.7
					c-0.1-1.9-0.4-4.3-1.4-5.9c-0.2-0.3-0.1-0.8,0.2-1c0.3-0.2,0.8-0.1,1,0.2c1.2,1.9,1.5,4.5,1.6,6.6c0.4,5.8-1,11.1-3.8,14.7
					C179,135.2,178.8,135.3,178.5,135.3z"/>
				<path class="st11" d="M111.4,53.5c-0.5,0-1-0.1-1.5-0.2c-0.4-0.1-0.6-0.5-0.5-0.9c0.1-0.4,0.5-0.6,0.9-0.5
					c1.6,0.4,3.7-0.2,5.2-0.9c0.4-0.2,0.8,0,1,0.3c0.2,0.4,0,0.8-0.3,1C114.9,52.9,113.1,53.5,111.4,53.5z"/>
				<path class="st11" d="M144.8,50.8c-1.1,0-2.3-0.3-3.7-0.8c-0.4-0.1-0.6-0.6-0.4-0.9c0.1-0.4,0.6-0.6,0.9-0.4
					c2.1,0.8,3.8,0.9,5,0.3c0.4-0.2,0.8,0,1,0.4c0.2,0.4,0,0.8-0.4,1C146.5,50.6,145.7,50.8,144.8,50.8z"/>
				<path class="st11" d="M127.7,61c-0.1,0-0.1,0-0.2,0c-1.1-0.3-2-1.4-2.6-2.2l-0.2-0.3c-0.3-0.3-0.8-1-0.6-1.8
					c0.2-0.6,0.7-1.1,1.2-1.5c0.3-0.2,0.5-0.5,0.6-0.6c1.1-1.6,1-3.3-0.2-5.1c-0.2-0.3-0.1-0.8,0.2-1c0.3-0.2,0.8-0.1,1,0.2
					c1.5,2.3,1.6,4.6,0.2,6.7c-0.2,0.3-0.6,0.6-0.9,0.9c-0.3,0.3-0.7,0.6-0.8,0.8c0,0.1,0.1,0.2,0.3,0.5l0.3,0.4
					c0.5,0.6,1.1,1.5,1.7,1.7c0.4,0.1,0.6,0.5,0.5,0.9C128.3,60.8,128,61,127.7,61z"/>
				<path class="st11" d="M108.8,42c-0.2,0-0.4-0.1-0.5-0.2c-0.3-0.3-0.3-0.7,0-1c2.1-2.1,5.1-3.7,7.8-4.2c0.4-0.1,0.8,0.2,0.8,0.6
					c0.1,0.4-0.2,0.8-0.6,0.8c-2.4,0.4-5,1.8-6.9,3.7C109.2,41.9,109,42,108.8,42z"/>
				<path class="st11" d="M148.1,39.8c-0.2,0-0.3-0.1-0.5-0.2c-2.2-1.8-5.2-2.7-8-2.6c-0.4,0-0.7-0.3-0.8-0.7c0-0.4,0.3-0.7,0.7-0.8
					c3.2-0.1,6.5,0.9,9,2.9c0.3,0.3,0.4,0.7,0.1,1C148.5,39.7,148.3,39.8,148.1,39.8z"/>
				<path class="st11" d="M128.6,75.5c-2.2,0-4.3-0.4-5.9-1.3c-0.4-0.2-0.5-0.6-0.3-1c0.2-0.4,0.6-0.5,1-0.3c3,1.6,8.3,1.5,11.4-0.3
					c0.3-0.2,0.8-0.1,1,0.3c0.2,0.3,0.1,0.8-0.3,1C133.6,74.9,131.1,75.5,128.6,75.5z"/>
				<path class="st11" d="M208.3,159.8C208.3,159.8,208.3,159.8,208.3,159.8c-0.5-0.1-0.8-0.4-0.7-0.8c0.1-0.7,0.2-1.5,0.4-2.2
					c0.3-1.9,0.7-3.8,0.4-5.6c-0.4-3.1-1.8-6.2-3.1-9.1c-0.8-1.8-1.6-3.6-2.2-5.4c-0.5-1.5-1.2-3-1.8-4.5c-0.5-1.3-1.1-2.5-1.6-3.9
					l-0.1-0.3c-0.3-0.9-0.8-2.2-1.5-2.7c-1.4-1.1-4-2-5.9-2.5c-0.4-0.1-0.6-0.5-0.5-0.9c0.1-0.4,0.5-0.6,0.9-0.5
					c2,0.5,4.8,1.6,6.4,2.7c1,0.8,1.6,2.3,2,3.4l0.1,0.3c0.5,1.3,1,2.5,1.6,3.8c0.7,1.5,1.3,3,1.9,4.6c0.6,1.7,1.3,3.5,2.1,5.3
					c1.4,3.1,2.8,6.3,3.2,9.5c0.3,2-0.1,4.1-0.4,6.1c-0.1,0.7-0.3,1.4-0.3,2.1C209,159.5,208.7,159.8,208.3,159.8z"/>
				<path class="st11" d="M198.9,185.9c-0.1,0-0.2,0-0.2,0c-0.4-0.1-0.6-0.5-0.5-0.9c0.6-1.7,1.3-3.5,1.9-5.2c1-2.6,2-5.2,2.8-7.9
					c0.2-0.5,0.4-1.1,0.6-1.7c0.4-1.2,0.8-2.4,0.9-3.5c0-0.4,0.4-0.7,0.8-0.7c0.4,0,0.7,0.4,0.7,0.8c-0.1,1.4-0.6,2.7-1,3.9
					c-0.2,0.5-0.4,1.1-0.5,1.6c-0.8,2.7-1.9,5.4-2.9,8c-0.7,1.7-1.3,3.4-1.9,5.1C199.5,185.7,199.2,185.9,198.9,185.9z"/>
				<path class="st11" d="M186.5,210.9c-0.1,0-0.2,0-0.3-0.1c-0.4-0.1-0.6-0.6-0.4-1c0.7-1.8,1.5-3.7,2.3-5.5
					c0.8-1.8,1.6-3.6,2.3-5.4c0.1-0.4,0.6-0.6,1-0.4c0.4,0.1,0.6,0.6,0.4,1c-0.7,1.8-1.5,3.6-2.3,5.5c-0.8,1.8-1.6,3.6-2.3,5.5
					C187.1,210.7,186.8,210.9,186.5,210.9z"/>
				<path class="st11" d="M191.7,209.8c-0.1,0-0.2,0-0.3-0.1c-0.4-0.2-0.5-0.6-0.3-1c2.4-4.9,5.7-11.1,10.5-16c0.3-0.3,0.7-0.3,1,0
					c0.3,0.3,0.3,0.7,0,1c-4.6,4.8-7.9,10.9-10.2,15.7C192.3,209.7,192,209.8,191.7,209.8z"/>
				<path class="st11" d="M219.3,211.5c-0.1,0-0.3,0-0.4-0.1c-1.2-0.8-1.2-2.1-1.3-3.2c0-0.5,0-1-0.2-1.4c-0.3-1-0.8-1.9-1.4-2.9
					c-0.5-0.8-1-1.7-1.3-2.6c-3.4-9-4.8-18.5-6-28.2c-0.1-0.9-0.2-1.7-0.4-2.6c-0.3-2-0.6-4-0.6-6.1c0-0.4,0.3-0.7,0.7-0.7
					s0.7,0.3,0.7,0.7c0,1.9,0.3,3.9,0.6,5.9c0.1,0.9,0.3,1.8,0.4,2.6c1.2,9.6,2.6,19,5.9,27.9c0.3,0.8,0.7,1.6,1.2,2.4
					c0.6,1,1.2,2.1,1.5,3.2c0.2,0.6,0.2,1.2,0.2,1.8c0,1.1,0.1,1.7,0.6,2.1c0.3,0.2,0.4,0.7,0.2,1
					C219.7,211.4,219.5,211.5,219.3,211.5z"/>
				<path class="st11" d="M201.7,247.7c-0.1,0-0.2,0-0.3-0.1c-0.4-0.2-0.5-0.6-0.3-1c0.9-1.7,1-3.5,1.2-5.5l0.1-1.2
					c0.1-1.1,0.5-2.2,0.9-3.2c0.2-0.6,0.4-1.2,0.6-1.7c1-3.7,2.4-7.9,5.2-10.7c3-3,6.6-5.4,10.8-7.1c0.5-0.2,1-0.5,1.5-0.8
					c0.3-0.2,0.6-0.4,1-0.6c0.3-0.2,0.6-0.2,1-0.3c0.2-0.1,0.8-0.2,0.8-0.3c0-0.3-1.3-1.4-2.4-1.9c-0.4-0.2-0.5-0.6-0.3-1
					c0.2-0.4,0.6-0.5,1-0.3c0.2,0.1,4,2,3,3.9c-0.4,0.7-1.2,0.9-1.8,1c-0.2,0-0.5,0.1-0.6,0.2c-0.3,0.2-0.6,0.4-0.9,0.5
					c-0.5,0.3-1.1,0.7-1.7,0.9c-4,1.7-7.4,3.9-10.3,6.8c-2.6,2.6-3.9,6.5-4.9,10.1c-0.2,0.6-0.4,1.3-0.6,1.9c-0.4,1-0.7,1.9-0.8,2.8
					l-0.1,1.2c-0.2,2.1-0.3,4-1.3,6C202.2,247.6,201.9,247.7,201.7,247.7z"/>
				<path class="st11" d="M198.2,247.5c-0.2,0-0.3,0-0.4-0.1c-2.8-2.1-4.6-4.9-6.3-7.6c-0.7-1.1-1.4-2.3-2.2-3.3
					c-0.3-0.5-0.7-0.9-1-1.3c-1.2-1.4-2.3-2.6-1.7-5.3c0.1-0.4,0.5-0.6,0.9-0.6c0.4,0.1,0.6,0.5,0.6,0.9c-0.4,1.9,0.2,2.7,1.4,4
					c0.4,0.4,0.7,0.8,1.1,1.3c0.8,1.1,1.6,2.3,2.3,3.4c1.8,2.8,3.4,5.4,6,7.3c0.3,0.2,0.4,0.7,0.1,1
					C198.6,247.4,198.4,247.5,198.2,247.5z"/>
				<path class="st11" d="M188.9,227.7c-0.2,0-0.4-0.1-0.6-0.3c-0.3-0.3-0.2-0.8,0.1-1c2.5-2.1,4.7-4.6,7.1-7.3
					c5.1-5.7,10.4-11.5,18-13.5c0.4-0.1,0.8,0.1,0.9,0.5c0.1,0.4-0.1,0.8-0.5,0.9c-7.1,1.8-12.3,7.5-17.2,13
					c-2.3,2.6-4.7,5.2-7.2,7.4C189.2,227.6,189,227.7,188.9,227.7z"/>
				<path class="st11" d="M188.4,227.3c-0.4,0-0.7-0.3-0.7-0.6c-0.9-5.6-3.6-11.8-5.6-16.3c-0.2-0.4,0-0.8,0.4-1
					c0.4-0.2,0.8,0,1,0.4c2,4.6,4.7,10.9,5.7,16.6c0.1,0.4-0.2,0.8-0.6,0.8C188.5,227.3,188.5,227.3,188.4,227.3z"/>
				<path class="st11" d="M173,272.7c0,0-0.1,0-0.1,0c-0.4-0.1-0.7-0.4-0.6-0.8c0.3-1.9,0.3-3.8,0.3-5.9c0-2.4,0-4.8,0.6-7.3
					c0.8-3.8,1.9-7.6,2.8-11.2c1-3.8,2.1-7.7,2.9-11.6c0.7-3.1,0.8-6.3,0.9-9.4c0.1-2.2,0.1-4.6,0.4-6.8c1.3-10.7,2.3-21.9,2.8-33.2
					c0.1-2.6,0-5.5-0.2-8.5c-0.5-9.3-1.1-19.8,7.1-25.8c0.3-0.2,0.8-0.2,1,0.2c0.2,0.3,0.2,0.8-0.2,1c-7.6,5.5-7,15.1-6.5,24.5
					c0.2,3.1,0.3,6,0.2,8.7c-0.5,11.3-1.5,22.5-2.8,33.3c-0.3,2.2-0.3,4.5-0.4,6.7c-0.1,3.2-0.2,6.5-0.9,9.7
					c-0.8,3.9-1.9,7.8-2.9,11.6c-1,3.6-2,7.4-2.8,11.1c-0.5,2.3-0.5,4.7-0.5,7c0,2,0,4.1-0.4,6.1C173.7,272.5,173.4,272.7,173,272.7
					z"/>
				<path class="st11" d="M188.8,161.1c-0.2,0-0.4-0.1-0.6-0.3c-0.3-0.3-0.2-0.8,0.1-1c2-1.7,4.8-3.7,8.2-3.8c0,0,0,0,0,0
					c0.4,0,0.7,0.3,0.7,0.7c0,0.4-0.3,0.7-0.7,0.8c-3,0.1-5.5,1.9-7.3,3.5C189.1,161.1,189,161.1,188.8,161.1z"/>
				<path class="st11" d="M171.6,233.8c0,0-0.1,0-0.1,0c-0.4-0.1-0.7-0.4-0.6-0.8c0.7-3.8,1.9-7.7,3.1-11.5c0.7-2.1,1.3-4.2,1.9-6.3
					c0.2-0.9,0.5-1.7,0.8-2.6c0.5-1.3,0.9-2.5,1.1-3.8c0.1-0.4,0.5-0.7,0.8-0.6c0.4,0.1,0.7,0.4,0.6,0.8c-0.2,1.4-0.7,2.7-1.2,4
					c-0.3,0.8-0.6,1.7-0.8,2.5c-0.6,2.1-1.2,4.2-1.9,6.3c-1.2,3.7-2.4,7.5-3,11.3C172.2,233.5,171.9,233.8,171.6,233.8z"/>
				<path class="st11" d="M208.1,252.7c-0.1,0-0.2,0-0.3-0.1c-0.9-0.4-1.6-0.9-2.4-1.4c-1.1-0.7-2.1-1.4-3.4-1.8
					c-1.4-0.5-2.8-0.7-4.3-0.9c-2.1-0.3-4.3-0.6-6.3-1.7c-1.4-0.8-2.8-1.8-4.1-2.9c-2.6-2-5.3-4-8.3-4.4c-0.4-0.1-0.7-0.4-0.6-0.8
					c0.1-0.4,0.4-0.7,0.8-0.6c3.4,0.5,6.2,2.6,9,4.7c1.4,1,2.7,2,4,2.7c1.8,1,3.7,1.3,5.8,1.6c1.5,0.2,3.1,0.4,4.6,1
					c1.4,0.5,2.6,1.2,3.7,2c0.8,0.5,1.5,1,2.2,1.3c0.4,0.2,0.5,0.6,0.3,1C208.7,252.5,208.4,252.7,208.1,252.7z"/>
				<path class="st11" d="M166.5,284.3c-0.1,0-0.2,0-0.3,0c-1-0.1-1.9-0.6-2.6-1.6c-0.7-1-0.7-2.3-0.7-3.5c0-0.9,0-1.8-0.3-2.5
					c-0.2-0.4,0-0.8,0.4-1c0.4-0.2,0.8,0,1,0.4c0.4,1,0.4,2,0.4,3.1c0,1.1,0,2.1,0.5,2.7c0.4,0.6,0.9,0.9,1.5,1
					c2.1,0.2,5-2.9,6.3-4.2c3.4-3.6,5.1-8.2,6.7-12.6c1.6-4.2,3.2-8.5,6.1-12c0.3-0.3,0.7-0.4,1-0.1c0.3,0.3,0.4,0.7,0.1,1
					c-2.7,3.3-4.3,7.5-5.8,11.6c-1.7,4.6-3.5,9.4-6.9,13C172.2,281.2,169.2,284.3,166.5,284.3z"/>
				<path class="st11" d="M134.1,277.5c-4.7,0-9.7-0.8-15.2-2.5l-0.4-0.1c-3.2-1-7.5-2.3-9.9-4.7c-0.3-0.3-0.3-0.7,0-1
					c0.3-0.3,0.7-0.3,1,0c2.2,2.2,6.3,3.4,9.3,4.4l0.4,0.1c8.4,2.6,15.4,3.1,22.5,1.7c2.8-0.6,5.7-1.2,8.5-2.3
					c0.2-0.1,0.5-0.2,0.7-0.2c0.4-0.1,0.9-0.2,1.1-0.4c0.3-0.3,0.7-0.3,1,0c0.3,0.3,0.3,0.7,0,1c-0.5,0.5-1.1,0.6-1.7,0.8
					c-0.2,0.1-0.4,0.1-0.6,0.2c-2.9,1.1-6,1.8-8.8,2.3C139.4,277.2,136.7,277.5,134.1,277.5z"/>
				<path class="st11" d="M250.9,227.5c-9.7,0-17.4-3.9-25.6-8.1c-1.1-0.5-2.2-1.1-3.3-1.6c-0.4-0.2-0.5-0.6-0.3-1s0.6-0.5,1-0.3
					c1.1,0.5,2.2,1.1,3.3,1.7c8,4.1,15.6,8,24.9,8c0.4,0,0.7,0.3,0.7,0.7C251.7,227.2,251.3,227.5,250.9,227.5z"/>
				<path class="st11" d="M228.5,250.3c-1,0-2,0-3,0h-0.4c-2,0-3.9-0.2-5.7-0.5c-0.9-0.1-1.7-0.2-2.6-0.3c-4.1-0.4-10.3-2.1-14-4.5
					c-0.3-0.2-0.4-0.7-0.2-1c0.2-0.3,0.7-0.4,1-0.2c3.5,2.2,9.6,3.8,13.4,4.2c0.9,0.1,1.8,0.2,2.6,0.3c1.9,0.2,3.6,0.5,5.6,0.5h0.4
					c9.1,0,17.7,0.1,26.2-3.1c0.4-0.1,0.8,0,0.9,0.4c0.1,0.4,0,0.8-0.4,0.9C244.4,250,236.6,250.3,228.5,250.3z"/>
				<path class="st11" d="M255.3,246.2c-0.2,0-0.5-0.1-0.6-0.4c-0.2-0.3-0.1-0.8,0.2-1c2.7-1.6,7.4-2.9,10.6-3.4
					c0.4-0.1,0.8-0.1,1.3-0.1c1.8-0.2,3.5-0.4,4.8-1.5c0.3-0.3,0.8-0.2,1,0.1c0.3,0.3,0.2,0.8-0.1,1c-1.7,1.4-3.7,1.6-5.6,1.8
					c-0.4,0-0.8,0.1-1.2,0.1c-3,0.4-7.5,1.6-10,3.2C255.5,246.2,255.4,246.2,255.3,246.2z"/>
				<path class="st11" d="M272.9,243c-0.3,0-0.5-0.1-0.6-0.4c-0.2-0.4-0.1-0.8,0.3-1c0.7-0.4,1.5-0.6,2.5-1c1.7-0.6,3.6-1.2,4.2-2.2
					c0.2-0.3,0.7-0.4,1-0.2c0.3,0.2,0.4,0.7,0.2,1c-0.9,1.5-3.1,2.2-5,2.8c-0.9,0.3-1.7,0.6-2.2,0.9C273.1,243,273,243,272.9,243z"
					/>
				<path class="st11" d="M244.1,234.1c-0.2,0-0.4-0.1-0.6-0.3c-0.3-0.3-0.2-0.8,0.1-1c0.3-0.2,0.6-0.5,1-0.7c0.6-0.5,1.3-1,1.7-1.4
					c1.2-1.1,2.9-2.4,4.6-2.9c2-0.5,4.6-1.1,6.8-1.1c0.8,0,1.6,0.2,2.4,0.3c1.7,0.3,3.3,0.5,4.7,0c2-0.7,3.9-3.4,5-4.8
					c0.2-0.3,0.7-0.4,1-0.2c0.3,0.2,0.4,0.7,0.2,1c-1.1,1.6-3.3,4.5-5.6,5.3c-1.8,0.7-3.6,0.4-5.4,0.1c-0.8-0.1-1.5-0.2-2.2-0.3
					c-2-0.1-4.4,0.5-6.4,1c-1.1,0.3-2.5,1.2-4,2.5c-0.5,0.5-1.2,1-1.9,1.5c-0.3,0.3-0.7,0.5-0.9,0.7
					C244.4,234,244.3,234.1,244.1,234.1z"/>
				<path class="st11" d="M273.7,232.6c-0.2,0-0.3,0-0.4-0.1c-0.3-0.2-0.4-0.7-0.2-1c0.9-1.2,1.3-3,1.7-4.6c0.1-0.6,0.2-1.1,0.4-1.6
					c0.2-0.8,0.4-1.6,0.5-2.4c0.2-1.1,0.5-2.2,0.8-3.3c0.1-0.3,0.2-0.6,0.3-0.9c0.3-0.9,0.6-1.7,0.6-2.5c0-1.7-0.3-3.5-0.5-5.2
					l-0.1-0.4c-0.2-1-0.3-2-0.4-2.9c-0.1-0.9-0.2-1.9-0.4-2.8l0-0.3c0-0.2-0.1-0.9-0.3-1c-1,0.4-1.5,1.8-2,2.9l-0.1,0.3
					c-0.7,1.8-0.8,3.9-0.8,6c0,2.4-0.1,4.8-1.1,7.1c-0.2,0.4-0.6,0.5-1,0.4c-0.4-0.2-0.5-0.6-0.4-1c0.9-2,1-4.2,1-6.5
					c0-2.2,0.1-4.4,0.9-6.5l0.1-0.3c0.5-1.3,1.2-3.1,2.8-3.7c0.6-0.2,1-0.1,1.3,0.1c0.7,0.4,0.8,1.4,0.9,2.1l0,0.2
					c0.1,1,0.3,1.9,0.4,2.9c0.1,1,0.3,1.9,0.4,2.9l0.1,0.4c0.3,1.8,0.6,3.6,0.6,5.4c0,1-0.4,2.1-0.7,3c-0.1,0.3-0.2,0.6-0.3,0.8
					c-0.3,1-0.6,2.1-0.8,3.1c-0.2,0.8-0.3,1.6-0.6,2.4c-0.1,0.5-0.2,1-0.4,1.6c-0.4,1.7-0.8,3.7-1.9,5.2
					C274.1,232.5,273.9,232.6,273.7,232.6z"/>
				<path class="st11" d="M266.7,239c-0.3,0-0.6-0.2-0.7-0.5c-0.1-0.4,0.1-0.8,0.4-0.9l0.8-0.3c1.9-0.7,2.8-1,4-2.9
					c0.2-0.3,0.7-0.5,1-0.3c0.3,0.2,0.5,0.7,0.3,1c-1.4,2.4-2.7,2.8-4.7,3.5l-0.8,0.3C266.8,239,266.7,239,266.7,239z"/>
				<path class="st11" d="M283.5,225.2c-0.1,0-0.1,0-0.2,0c-0.4-0.1-0.6-0.5-0.5-0.9c0.2-0.9,0.2-1.9,0.1-3c-0.1-0.7-0.1-1.3-0.1-2
					c0.2-3.8-0.4-7.4-1.1-11.1c-0.2-1.4-0.5-2.8-0.7-4.2c-0.1-0.8-0.1-1.7,0-2.7c0.1-1.5,0.1-3.1-0.4-4.1c-0.1-0.1-0.1-0.2-0.3-0.2
					c-0.4,0-1,0.3-1.3,0.6c-1.1,1.3-1.7,3.6-1.6,5.5c0,0.4-0.3,0.8-0.7,0.8c-0.4,0-0.8-0.3-0.8-0.7c-0.2-1.9,0.4-4.7,1.9-6.6
					c0.5-0.6,1.6-1.2,2.5-1.1c0.6,0.1,1.1,0.4,1.4,0.9c0.8,1.3,0.7,3.1,0.6,4.9c0,0.9-0.1,1.8,0,2.4c0.2,1.4,0.4,2.8,0.7,4.2
					c0.6,3.8,1.2,7.5,1.1,11.4c0,0.6,0,1.2,0.1,1.8c0.1,1.1,0.2,2.3-0.1,3.5C284.1,224.9,283.8,225.2,283.5,225.2z"/>
				<path class="st11" d="M275.7,238.5c-0.2,0-0.3-0.1-0.5-0.2c-0.3-0.3-0.4-0.7-0.1-1c1.3-1.6,2.2-3.4,3.1-5.2
					c0.9-1.9,1.9-3.8,3.3-5.4c0.3-0.3,0.7-0.4,1-0.1c0.3,0.3,0.4,0.7,0.1,1c-1.2,1.5-2.1,3.3-3.1,5.2c-1,1.9-1.9,3.8-3.3,5.5
					C276.1,238.4,275.9,238.5,275.7,238.5z"/>
				<path class="st11" d="M288.5,221.8c-0.1,0-0.2,0-0.3-0.1c-0.4-0.2-0.5-0.6-0.4-1c0.9-1.9,0.3-4.7-0.3-7.2
					c-0.2-0.9-0.4-1.8-0.5-2.6c-0.5-3.1-0.7-6.2-0.8-8.9c0-0.7,0-1.3,0-2c0-1.7,0-3.3-0.6-4.8c-0.2-0.7-0.5-0.6-0.6-0.6
					c-1,0.2-2.4,2.3-2.3,3.1c0,0.4-0.3,0.8-0.7,0.8c-0.4,0-0.8-0.3-0.8-0.7c-0.2-1.5,1.7-4.3,3.4-4.7c0.4-0.1,1.7-0.2,2.3,1.5
					c0.6,1.7,0.6,3.5,0.6,5.2c0,0.6,0,1.3,0,1.9c0.2,2.6,0.4,5.7,0.8,8.7c0.1,0.7,0.3,1.6,0.5,2.4c0.6,2.7,1.3,5.8,0.2,8.2
					C289.1,221.6,288.8,221.8,288.5,221.8z"/>
				<path class="st11" d="M281.9,237.4c-0.1,0-0.1,0-0.2,0c-0.4-0.1-0.6-0.5-0.6-0.9c0.2-0.7,0.6-1.5,1-2.1c0.2-0.4,0.4-0.7,0.6-1.1
					c1.2-2.7,2.4-5.7,3.8-9.2c0.1-0.4,0.6-0.6,0.9-0.4c0.4,0.1,0.6,0.6,0.4,0.9c-1.4,3.6-2.6,6.5-3.8,9.3c-0.2,0.4-0.4,0.8-0.7,1.2
					c-0.3,0.6-0.7,1.2-0.8,1.7C282.5,237.2,282.2,237.4,281.9,237.4z"/>
				<path class="st11" d="M285.3,234.4c-0.3,0-0.5-0.2-0.7-0.4c-0.2-0.4,0-0.8,0.4-1c2-0.9,3.7-3,5.1-4.7c3.4-4.1,5.3-7.6,6-10.7
					c0.3-1.2,0.4-2.4,0.5-3.7c0.1-1,0.2-1.9,0.3-2.9c0.2-1.2,0.4-2.3,0.6-3.5c0.3-1.6,0.6-3.2,0.8-4.9c0.1-0.9,0-1.5-0.1-1.6
					c0,0-0.1,0-0.3,0c-1,0.2-1.8,1.9-2.4,3.1c-0.1,0.3-0.3,0.5-0.4,0.7c-1.2,2.1-1.6,4.5-2,6.8c-0.5,3-1,6-3.2,8.7
					c-0.3,0.3-0.7,0.4-1,0.1c-0.3-0.3-0.4-0.7-0.1-1c1.9-2.3,2.4-5.1,2.9-8c0.4-2.4,0.9-4.9,2.2-7.3c0.1-0.2,0.2-0.4,0.3-0.7
					c0.7-1.4,1.7-3.4,3.4-3.8c0.8-0.2,1.3,0.1,1.6,0.3c0.7,0.7,0.7,1.9,0.6,2.9c-0.2,1.7-0.6,3.3-0.9,4.9c-0.2,1.1-0.4,2.3-0.6,3.4
					c-0.2,0.9-0.2,1.9-0.3,2.8c-0.1,1.3-0.2,2.6-0.5,3.9c-0.7,3.3-2.8,7-6.3,11.3c-1.5,1.8-3.3,4.1-5.6,5.1
					C285.5,234.4,285.4,234.4,285.3,234.4z"/>
				<path class="st11" d="M251.7,228.5c-0.2,0-0.4-0.1-0.5-0.2c-0.3-0.3-0.3-0.8,0-1c0.5-0.5,1.1-0.9,1.7-1.3
					c0.6-0.4,1.2-0.8,1.6-1.3c1.8-1.9,3.4-3.5,5.3-4.7c2-1.3,4.3-2,6.5-2.8c1.6-0.5,3.3-1.1,4.8-1.9c0.4-0.2,0.8,0,1,0.3
					c0.2,0.4,0,0.8-0.3,1c-1.6,0.8-3.3,1.4-5,1.9c-2.2,0.7-4.3,1.5-6.2,2.6c-1.8,1.1-3.3,2.7-5,4.5c-0.6,0.6-1.2,1.1-1.9,1.5
					c-0.5,0.4-1.1,0.7-1.5,1.1C252,228.4,251.8,228.5,251.7,228.5z"/>
				<path class="st11" d="M160.4,312.5c-0.1,0-0.2,0-0.3-0.1c-1.5-0.6-3.5-1.8-5.5-2.9c-0.9-0.6-1.9-1.1-2.7-1.5
					c-9.1-5-16-9.5-22.8-14.2c-1.1-0.7-2.2-1.5-3.7-2.6c-1.1-0.8-2.4-1.7-4.1-2.9c-0.9-0.6-3.5-2.8-7.5-6.1
					c-13-10.7-39.9-33-58.7-44.4c-0.3-0.2-0.5-0.7-0.2-1c0.2-0.3,0.7-0.5,1-0.2c18.9,11.5,45.9,33.8,58.9,44.5
					c3.8,3.1,6.6,5.4,7.4,6c1.6,1.1,3,2.1,4.1,2.9c1.4,1,2.6,1.8,3.6,2.6c6.8,4.6,13.7,9.1,22.7,14.1c0.8,0.4,1.8,1,2.7,1.6
					c1.9,1.1,3.9,2.3,5.3,2.8c0.4,0.2,0.6,0.6,0.4,1C161,312.3,160.7,312.5,160.4,312.5z"/>
				<path class="st11" d="M185.5,321.3c-1.8,0-3.7-0.6-4.8-1.1c-1.8-0.7-3.6-1.3-5.4-1.9c-3.2-1.1-6.5-2.2-9.6-3.8
					c-0.4-0.2-0.5-0.6-0.3-1c0.2-0.4,0.6-0.5,1-0.3c3,1.6,6.2,2.7,9.4,3.7c1.8,0.6,3.7,1.2,5.5,1.9c2.2,0.9,4.2,1.2,5.4,0.8
					c2.3-0.7,4.2-2,6-3.3c3.2-2.2,6.4-4.4,11.5-3.1c0.4,0.1,0.6,0.5,0.5,0.9c-0.1,0.4-0.5,0.6-0.9,0.5c-4.4-1.1-7.1,0.8-10.3,2.9
					c-1.9,1.3-3.9,2.7-6.5,3.5C186.5,321.2,186,321.3,185.5,321.3z"/>
				<path class="st11" d="M264,334.7c-0.3,0-0.6-0.2-0.7-0.5c-2.9-8.3-11.2-13.1-22.3-12.8c-1.9,0-3.9,0.4-5.8,0.7
					c-3.1,0.5-6.3,1-9.5,0.5c-3.5-0.6-6.7-1.5-9.9-2.8c-1-0.4-2-0.9-3-1.4c-1.6-0.8-3.2-1.6-4.9-2.1c-0.4-0.1-0.6-0.5-0.5-0.9
					c0.1-0.4,0.5-0.6,0.9-0.5c1.8,0.5,3.5,1.3,5.2,2.2c1,0.5,1.9,1,2.9,1.4c3.1,1.3,6.2,2.2,9.6,2.7c2.9,0.5,6,0,9-0.5
					c2-0.3,4-0.6,6-0.7c9.1-0.2,20,3.3,23.7,13.8c0.1,0.4-0.1,0.8-0.4,0.9C264.1,334.7,264.1,334.7,264,334.7z"/>
				<path class="st11" d="M60.5,330.2c-0.1,0-0.3,0-0.4-0.1c-9.9-6.5-17.6-15.5-25-24.2c-1.8-2.1-3.6-4.3-5.5-6.3
					c-6.7-7.6-15-17.8-19.9-30c-1.9-4.7-3.9-9.7-5.3-15.1c-0.4-1.4-1.2-4.5-1-6.5c0-0.4,0.4-0.7,0.8-0.7c0.4,0,0.7,0.4,0.7,0.8
					c-0.2,1.8,0.6,4.7,1,6c1.5,5.3,3.4,10.4,5.3,15c4.9,11.9,13.1,22.1,19.7,29.6c1.9,2.1,3.7,4.2,5.5,6.4c7.4,8.6,15,17.5,24.7,24
					c0.3,0.2,0.4,0.7,0.2,1C61,330.1,60.7,330.2,60.5,330.2z"/>
				<path class="st11" d="M193.9,352.3c-0.1,0-0.1,0-0.2,0c-5.6-1.5-11.1-2.7-16.8-4l-2.4-0.5c-4.7-1-9.7-1.8-15.1-2.5
					c-3.9-0.6-7.9-1.1-11.8-1.8c-1.3-0.2-2.9-0.5-4.5-0.8c-2.4-0.4-4.9-0.8-6.7-1.2c-15.6-3.1-25.2-5.4-37.5-10
					c-1.1-0.4-2.3-0.8-3.5-1.3c-5-1.8-10.6-3.9-15-6C68.3,318.4,60.5,314,50.5,307c-1.5-1.1-3.1-2.2-4.7-3.4c-2.7-2-5.5-4-8.1-5.6
					c-2-1.2-3.9-2.4-5.9-2.4c-0.4,0-0.7-0.4-0.7-0.8c0-0.4,0.4-0.7,0.8-0.7c2.3,0.1,4.5,1.3,6.6,2.7c2.6,1.6,5.4,3.7,8.2,5.7
					c1.6,1.1,3.1,2.3,4.7,3.4c10,7,17.5,11.2,29.6,17c4.4,2.1,10,4.1,14.9,6c1.2,0.4,2.4,0.9,3.5,1.3c12.1,4.6,21.7,6.8,37.2,9.9
					c1.8,0.4,4.3,0.8,6.7,1.2c1.7,0.3,3.3,0.5,4.5,0.8c3.9,0.7,7.9,1.3,11.8,1.8c5.4,0.8,10.5,1.5,15.2,2.5l2.4,0.5
					c5.8,1.3,11.2,2.5,16.9,4c0.4,0.1,0.6,0.5,0.5,0.9C194.5,352.1,194.2,352.3,193.9,352.3z"/>
				<path class="st11" d="M204.3,355.8c-0.1,0-0.2,0-0.4,0l-0.7,0c-1.8,0-3.8,0-5.5-0.7c-4.1-1.6-4.5-7.4-4.7-10.8l0-0.3
					c0-0.3-0.1-0.6-0.1-0.8c-0.1-0.7-0.2-1.3-0.1-2.1l0.1-0.5c0.1-1.3,0.3-3.1,1.5-4.1c4-3.5,8.9-1.9,13.2-0.5
					c1.7,0.5,3.2,1.1,4.7,1.3c0.3,0,0.6,0.1,1,0.2c1.2,0.3,3.7,0.9,4.4,0.2c0.1,0,0.2-0.2,0.1-0.7c0-0.2-0.2-0.7-1.4-1.6
					c-2.1-1.6-4.1-2.6-6.6-3.2c-1.1-0.3-2.3-0.4-3.6-0.5c-1.6-0.2-3.2-0.3-4.8-0.9c-5.2-1.9-10.8-6.4-13.9-10
					c-0.3-0.3-0.2-0.8,0.1-1c0.3-0.3,0.8-0.2,1,0.1c3.1,3.4,8.4,7.7,13.4,9.6c1.4,0.5,2.8,0.6,4.4,0.8c1.3,0.1,2.6,0.2,3.8,0.6
					c2.7,0.7,4.9,1.8,7.2,3.5c0.8,0.6,1.8,1.5,2,2.6c0.1,1.1-0.3,1.7-0.6,2c-1.2,1.1-3.8,0.5-5.7,0.1c-0.4-0.1-0.7-0.2-1-0.2
					c-1.6-0.3-3.3-0.8-4.9-1.4c-4.3-1.4-8.4-2.8-11.8,0.2c-0.7,0.6-0.9,2.1-1,3.2l-0.1,0.5c-0.1,0.6,0,1.1,0.1,1.7
					c0,0.3,0.1,0.6,0.1,0.9l0,0.3c0.2,3.3,0.5,8.3,3.8,9.6c1.5,0.6,3.3,0.6,5,0.6l0.7,0c3.5,0.1,6.9-0.5,10.2-1
					c1.5-0.2,3-0.5,4.6-0.7c3.9-0.5,7.9-0.7,11.8-0.9c1.8-0.1,3.5-0.2,5.3-0.3c0.4-0.1,0.8,0.3,0.8,0.7c0,0.4-0.3,0.8-0.7,0.8
					c-1.8,0.1-3.5,0.2-5.3,0.3c-3.8,0.2-7.8,0.4-11.7,0.9c-1.5,0.2-3,0.4-4.5,0.7C211.1,355.3,207.7,355.8,204.3,355.8z"/>
				<path class="st11" d="M241.7,353c-0.4,0-0.8,0-1.1,0c-0.4,0-0.7-0.4-0.7-0.8c0-0.4,0.4-0.7,0.8-0.7c1.3,0.1,2.6,0,4-0.2l1.3-0.1
					c4.4-0.5,10-1,13.5-3.6c2.5-1.9,3.7-3.8,3.6-5.6c0-0.4,0.3-0.8,0.7-0.8c0.4,0,0.8,0.3,0.8,0.7c0.2,2.4-1.2,4.7-4.2,6.9
					c-3.8,2.9-9.6,3.4-14.2,3.9l-1.2,0.1C243.8,352.9,242.7,353,241.7,353z"/>
				<path class="st11" d="M222.4,350c-0.3,0-0.6-0.2-0.7-0.5c-0.8-3.2-0.9-6,0-8.4c0.1-0.4,0.5-0.6,0.9-0.5c0.4,0.1,0.6,0.5,0.5,0.9
					c-0.7,2.1-0.7,4.6,0.1,7.5c0.1,0.4-0.1,0.8-0.5,0.9C222.5,350,222.4,350,222.4,350z"/>
				<path class="st11" d="M229.1,348.9c-0.3,0-0.6-0.2-0.7-0.5c-0.7-2.7-0.4-4.6,0-6.9c0.1-0.4,0.5-0.7,0.9-0.6
					c0.4,0.1,0.7,0.5,0.6,0.9c-0.5,2.5-0.6,4,0,6.2c0.1,0.4-0.1,0.8-0.5,0.9C229.2,348.9,229.2,348.9,229.1,348.9z"/>
				<path class="st11" d="M220.7,316.9c-0.1,0-0.1,0-0.2,0c-0.4-0.1-0.9-0.3-1.4-0.4c-1.3-0.4-2.6-0.7-3.9-1.3
					c-0.5-0.2-0.9-0.4-1.4-0.5c-0.5-0.2-1-0.4-1.5-0.6c-1-0.4-2-0.9-3-1.5c-2.5-1.3-5.3-2.9-7.8-2.6c-1.1,0.1-2,0.9-3,1.6l-0.4,0.3
					c-0.7,0.6-1.4,1.5-1.6,2.3c-0.1,0.4-0.5,0.6-0.9,0.5c-0.4-0.1-0.6-0.5-0.5-0.9c0.3-1.1,1.2-2.3,2.1-3l0.4-0.3
					c1-0.8,2.2-1.7,3.7-1.9c2.9-0.4,6,1.3,8.6,2.7c1,0.6,2,1.1,2.9,1.5c0.5,0.2,1,0.4,1.5,0.6c0.5,0.2,0.9,0.4,1.4,0.5
					c1.2,0.5,2.5,0.9,3.7,1.2c0.5,0.1,0.9,0.3,1.4,0.4c0.4,0.1,0.6,0.5,0.5,0.9C221.3,316.7,221,316.9,220.7,316.9z"/>
				<path class="st11" d="M265.2,330.5c-0.3,0-0.7-0.2-0.7-0.6c-0.4-1.9-1.3-3.9-2.5-5.3c-3.3-3.9-9.2-6.6-16.2-7.3
					c-2.3-0.2-4.8,0.1-7.2,0.4c-1.2,0.2-2.4,0.3-3.6,0.4c-2.2,0.2-4.4,0-6.5-0.2c-1.1-0.1-2.2-0.2-3.3-0.2c-0.4,0-0.7-0.4-0.7-0.8
					c0-0.4,0.4-0.7,0.8-0.7c1.1,0,2.2,0.1,3.3,0.2c2.1,0.2,4.2,0.3,6.3,0.2c1.2-0.1,2.3-0.2,3.5-0.4c2.5-0.3,5-0.6,7.6-0.4
					c7.4,0.7,13.7,3.6,17.2,7.8c1.3,1.6,2.4,3.8,2.8,6c0.1,0.4-0.2,0.8-0.6,0.9C265.3,330.5,265.2,330.5,265.2,330.5z"/>
				<path class="st11" d="M151.2,306.7c-0.2,0-0.4-0.1-0.6-0.2c-0.3-0.3-0.2-0.8,0.1-1c12.2-10.7,21.3-19,37.4-34.3
					c5.8-5.6,12.2-10.9,18.3-15.5c1.3-1,2.5-1.8,3.7-2.6c2.1-1.4,4-2.8,6.1-4.6c0.3-0.3,0.8-0.2,1,0.1c0.3,0.3,0.2,0.8-0.1,1
					c-2.1,1.8-4.1,3.2-6.2,4.7c-1.2,0.8-2.4,1.7-3.6,2.6c-6.1,4.6-12.3,9.9-18.2,15.4c-16.1,15.3-25.2,23.7-37.4,34.4
					C151.5,306.7,151.3,306.7,151.2,306.7z"/>
				<path class="st11" d="M223.6,315.2c-0.3,0-0.6-0.2-0.7-0.5c-0.1-0.4,0.1-0.8,0.5-0.9c1.5-0.5,3.3-1.4,4.8-2.2
					c3.3-1.7,6.4-3.5,10-5.7c3.3-2,14.3-11.2,20.2-17.8c3.6-4.1,7.8-10.4,10.7-15.9c4.7-9.2,6.4-17,5.4-24.6
					c-0.1-0.4,0.2-0.8,0.6-0.8c0.4-0.1,0.8,0.2,0.8,0.6c1.1,7.9-0.7,16-5.5,25.4c-2.9,5.6-7.2,12-10.9,16.2
					c-5.9,6.7-17.1,16-20.5,18c-3.7,2.3-6.8,4.1-10.1,5.8c-1.6,0.8-3.4,1.7-5,2.3C223.8,315.2,223.7,315.2,223.6,315.2z"/>
				<path class="st11" d="M149.8,343.7c-0.2,0-0.5-0.1-0.6-0.3c-0.2-0.3-0.2-0.8,0.2-1c1.8-1.2,3.3-3,4.6-4.5c3-3.5,6.5-8.8,6.7-14
					c0.1-2.7,0.1-4.8,0-6.9c0-0.4,0.3-0.8,0.7-0.8c0.4,0,0.8,0.3,0.8,0.7c0.1,2.1,0.2,4.3,0,7c-0.2,5.6-4,11.2-7.1,14.9
					c-1.3,1.6-2.9,3.4-4.8,4.8C150.1,343.7,149.9,343.7,149.8,343.7z"/>
				<path class="st11" d="M130.5,350c-0.3,0-0.6-0.2-0.7-0.5c-0.1-0.4,0.1-0.8,0.4-0.9c4.9-1.8,9.5-3.2,13.6-4.2
					c0.7-0.2,1.5-0.4,2.2-0.7c1.3-0.4,2.6-0.9,4-1c0.4,0,0.8,0.2,0.8,0.7c0,0.4-0.2,0.8-0.7,0.8c-1.2,0.1-2.5,0.5-3.7,0.9
					c-0.8,0.3-1.5,0.5-2.3,0.7c-4.1,1-8.7,2.4-13.5,4.2C130.7,350,130.6,350,130.5,350z"/>
				<path class="st11" d="M96.4,342.9c-0.2,0-0.4,0-0.7,0c-0.4,0-0.7-0.4-0.7-0.8s0.4-0.7,0.8-0.7c3.4,0.2,6.6-1.2,9.8-2.6
					c2.1-0.9,4.2-1.8,6.4-2.3c0.4-0.1,0.8,0.2,0.9,0.6c0.1,0.4-0.2,0.8-0.6,0.9c-2.1,0.5-4.1,1.3-6.2,2.2
					C103.1,341.5,99.9,342.9,96.4,342.9z"/>
				<path class="st11" d="M96.7,357.8c-0.3,0-0.6-0.2-0.7-0.6c-0.1-0.4,0.2-0.8,0.6-0.9c1.7-0.4,3.4-0.5,5-0.6
					c0.7-0.1,1.5-0.1,2.2-0.2c1-0.1,2.1-0.2,3.1-0.3c3-0.3,6.1-0.7,9.2-0.8c1,0,2-0.1,3-0.1c1.2,0,2.4-0.1,3.7-0.1l0.3,0
					c0.9,0,2.1,0,2.8-0.5c1.1-0.6,1.3-3.6,0.9-5.1c-1.3-4.5-5.2-8.2-9.9-9.2c-0.4-0.1-0.6-0.5-0.6-0.9s0.5-0.6,0.9-0.6
					c5.1,1.1,9.5,5.3,10.9,10.3c0.5,1.7,0.4,5.6-1.6,6.7c-1.1,0.6-2.4,0.6-3.5,0.7l-0.3,0c-1.2,0-2.4,0.1-3.6,0.1c-1,0-2,0.1-3,0.1
					c-3,0.1-6.1,0.4-9.1,0.8c-1,0.1-2.1,0.2-3.1,0.3c-0.7,0.1-1.5,0.1-2.2,0.2c-1.7,0.1-3.2,0.2-4.8,0.6
					C96.8,357.8,96.7,357.8,96.7,357.8z"/>
				<path class="st11" d="M61.7,360.7c-0.9,0-1.7,0-2.6-0.2c-0.5-0.1-1-0.2-1.6-0.3c-0.4-0.1-0.6-0.5-0.6-0.9
					c0.1-0.4,0.5-0.6,0.9-0.6c0.5,0.1,1,0.2,1.5,0.3c1.7,0.3,3.4,0.2,5.2,0c1.1-0.1,2.2-0.2,3.3-0.1c7,0.1,14.2-0.5,20.4-1
					c0.5-0.1,1.1-0.1,1.7-0.2c1-0.2,2-0.3,3-0.3c0.4,0,0.7,0.3,0.7,0.7c0,0.4-0.3,0.7-0.7,0.7c0,0-0.1,0-0.1,0
					c-0.8,0-1.7,0.1-2.6,0.3c-0.6,0.1-1.2,0.2-1.8,0.2c-6.2,0.6-13.5,1.2-20.5,1.1c-1.1,0-2.2,0.1-3.2,0.1
					C63.7,360.6,62.7,360.7,61.7,360.7z"/>
				<path class="st11" d="M49.1,341.2c-0.1,0-0.3,0-0.4-0.1c-0.3-0.2-0.4-0.7-0.2-1c4.2-6.3,9.7-10.3,16.5-12.1
					c2.3-0.6,4.8-0.9,7.2-1.2c3.6-0.4,7.3-0.8,10.4-2.4c0.4-0.2,0.8,0,1,0.3c0.2,0.4,0,0.8-0.3,1c-3.4,1.7-7.2,2.1-10.9,2.5
					c-2.3,0.3-4.7,0.5-7,1.1c-6.4,1.7-11.7,5.6-15.6,11.5C49.6,341.1,49.4,341.2,49.1,341.2z"/>
				<path class="st11" d="M54.5,343.6c-0.1,0-0.2,0-0.3-0.1c-0.4-0.2-0.5-0.6-0.4-1c1-2.3,2.6-4.3,4.8-6.1c4.2-3.5,9.6-4.6,14.8-5.7
					c1.4-0.3,2.9-0.6,4.3-0.9c0.8-0.2,1.6-0.4,2.4-0.5c1.6-0.4,3.2-0.7,4.8-1.2l0.4-0.1c0.9-0.3,2-0.6,2.5-1.2
					c0.2-0.3,0.7-0.4,1-0.2c0.3,0.2,0.4,0.7,0.2,1c-0.7,1-2.1,1.4-3.2,1.8l-0.4,0.1c-1.7,0.5-3.3,0.9-4.9,1.2
					c-0.8,0.2-1.6,0.3-2.4,0.5c-1.4,0.3-2.9,0.6-4.3,0.9c-5,1-10.2,2-14.1,5.3c-2,1.7-3.4,3.5-4.4,5.6
					C55,343.5,54.8,343.6,54.5,343.6z"/>
				<path class="st11" d="M92.7,355.5c-0.1,0-0.2,0-0.3-0.1c-0.4-0.2-0.5-0.6-0.4-1c0.7-1.5,0.8-3.8,0.2-5.8
					c-0.1-0.2-0.2-0.4-0.3-0.6c-0.2-0.3-0.3-0.6-0.4-0.9c-0.1-0.4,0.1-0.8,0.5-0.9c0.4-0.1,0.8,0.1,0.9,0.5c0.1,0.2,0.2,0.4,0.3,0.7
					c0.1,0.3,0.3,0.6,0.4,0.9c0.6,1.8,0.8,4.6-0.2,6.8C93.3,355.4,93,355.5,92.7,355.5z"/>
				<path class="st11" d="M86.5,355.3c-0.1,0-0.2,0-0.3-0.1c-0.4-0.2-0.5-0.6-0.3-1c0.5-1,0-3.7-0.8-4.5c-0.3-0.3-0.3-0.7,0-1
					c0.3-0.3,0.7-0.3,1,0c1.2,1.2,1.8,4.7,1,6.2C87,355.2,86.7,355.3,86.5,355.3z"/>
			</g>
			<g transform="translate(42.000000, 255.000000)">
				<path class="st11" d="M16.9,98.3c-0.3,0-0.6-0.2-0.7-0.6l-22-91.6C-6,5.7-5.7,5.3-5.3,5.2c0.4-0.1,0.8,0.1,0.9,0.5l22,91.6
					c0.1,0.4-0.1,0.8-0.5,0.9C17,98.3,16.9,98.3,16.9,98.3z"/>
				<path class="st11" d="M97.7,127.5c-0.3,0-0.6-0.2-0.7-0.6L75.6,34.5c-0.1-0.4,0.2-0.8,0.6-0.9c0.4-0.1,0.8,0.2,0.9,0.6
					l21.4,92.4c0.1,0.4-0.2,0.8-0.6,0.9C97.8,127.5,97.7,127.5,97.7,127.5z"/>
				<path class="st11" d="M76.3,35.2c-0.1,0-0.2,0-0.2,0L-5.2,6.6C-5.6,6.5-5.8,6-5.7,5.7c0.1-0.4,0.6-0.6,0.9-0.4l81.2,28.6
					c0.4,0.1,0.6,0.6,0.4,0.9C76.8,35,76.6,35.2,76.3,35.2z"/>
				<path class="st11" d="M96,129.4c-0.1,0-0.2,0-0.3,0L20,100.6c-0.4-0.1-0.6-0.6-0.4-0.9s0.6-0.6,0.9-0.4L96.2,128
					c0.4,0.1,0.6,0.6,0.4,0.9C96.5,129.3,96.3,129.4,96,129.4z"/>
				<path class="st11" d="M95.6,135.6c-0.1,0-0.2,0-0.3-0.1l-78-31.7c-0.4-0.2-0.6-0.6-0.4-1c0.2-0.4,0.6-0.6,1-0.4l78,31.7
					c0.4,0.2,0.6,0.6,0.4,1C96.2,135.5,95.9,135.6,95.6,135.6z"/>
				<path class="st11" d="M17.4,103.7c-0.4,0-0.7-0.3-0.7-0.6l-0.5-3.3c-0.1-0.4,0.2-0.8,0.6-0.8c0.4-0.1,0.8,0.2,0.8,0.6l0.5,3.3
					c0.1,0.4-0.2,0.8-0.6,0.8C17.5,103.7,17.4,103.7,17.4,103.7z"/>
				<path class="st11" d="M95.7,135.5C95.7,135.5,95.7,135.5,95.7,135.5c-0.4,0-0.8-0.4-0.7-0.8l0.3-5.8c0-0.4,0.4-0.7,0.8-0.7
					c0.4,0,0.7,0.4,0.7,0.8l-0.3,5.8C96.4,135.2,96.1,135.5,95.7,135.5z"/>
				<path class="st11" d="M96.5,129.5c-0.4,0-0.7-0.3-0.7-0.6c-0.1-0.4,0.2-0.8,0.6-0.8l59.1-8.9c0.4-0.1,0.8,0.2,0.8,0.6
					c0.1,0.4-0.2,0.8-0.6,0.8l-59.1,8.9C96.6,129.5,96.6,129.5,96.5,129.5z"/>
				<path class="st11" d="M96,135.9c-0.4,0-0.7-0.3-0.7-0.6c-0.1-0.4,0.2-0.8,0.6-0.8l59.5-9.7c0.4-0.1,0.8,0.2,0.8,0.6
					c0.1,0.4-0.2,0.8-0.6,0.8l-59.5,9.7C96.1,135.9,96,135.9,96,135.9z"/>
				<path class="st11" d="M155.8,126.2c-0.4,0-0.7-0.3-0.7-0.7l-0.1-5.6c0-0.4,0.3-0.7,0.7-0.7c0,0,0,0,0,0c0.4,0,0.7,0.3,0.7,0.7
					l0.1,5.6C156.5,125.8,156.2,126.2,155.8,126.2C155.8,126.2,155.8,126.2,155.8,126.2z"/>
				<path class="st11" d="M155.4,120.5c-0.1,0-0.2,0-0.3,0l-60.6-23c-0.4-0.1-0.6-0.6-0.4-0.9c0.1-0.4,0.6-0.6,0.9-0.4l60.6,23
					c0.4,0.1,0.6,0.6,0.4,0.9C156,120.3,155.7,120.5,155.4,120.5z"/>
				<path class="st11" d="M410,85.7c-0.1,0-0.2,0-0.3-0.1L368.5,69c-0.4-0.2-0.6-0.6-0.4-1c0.2-0.4,0.6-0.6,1-0.4l41.2,16.7
					c0.4,0.2,0.6,0.6,0.4,1C410.5,85.5,410.2,85.7,410,85.7z"/>
				<path class="st11" d="M408.1,90.5c-0.1,0-0.2,0-0.3-0.1l-40.3-17.1c-0.4-0.2-0.5-0.6-0.4-1c0.2-0.4,0.6-0.5,1-0.4l40.3,17.1
					c0.4,0.2,0.5,0.6,0.4,1C408.7,90.4,408.4,90.5,408.1,90.5z"/>
				<path class="st11" d="M414,85.4c-0.4,0-0.7-0.3-0.7-0.6c-0.1-0.4,0.2-0.8,0.6-0.8l16.9-2.6c0.4-0.1,0.8,0.2,0.8,0.6
					c0.1,0.4-0.2,0.8-0.6,0.8l-16.9,2.6C414,85.4,414,85.4,414,85.4z"/>
				<path class="st11" d="M458.9,78.6l-0.2-1.4l0,0l16.3-2.5c0.4-0.1,0.8,0.2,0.8,0.6c0.1,0.4-0.2,0.8-0.6,0.8L458.9,78.6z"/>
				<path class="st11" d="M411.5,90.9c-0.4,0-0.7-0.3-0.7-0.6c-0.1-0.4,0.2-0.8,0.6-0.8l23-3.9c0.4-0.1,0.8,0.2,0.8,0.6
					c0.1,0.4-0.2,0.8-0.6,0.8l-2,0.3l-21,3.6C411.6,90.9,411.5,90.9,411.5,90.9z"/>
				<path class="st11" d="M459.6,82.7c-0.4,0-0.7-0.3-0.7-0.6c-0.1-0.4,0.2-0.8,0.6-0.8l14.4-2.5c0.4-0.1,0.8,0.2,0.9,0.6
					c0.1,0.4-0.2,0.8-0.6,0.8l-14.4,2.5C459.7,82.7,459.7,82.7,459.6,82.7z"/>
				<path class="st11" d="M368.6,68.9c-0.4,0-0.7-0.3-0.7-0.6c-0.1-0.4,0.2-0.8,0.6-0.8l49.3-6.8c0.4-0.1,0.8,0.2,0.8,0.6
					c0.1,0.4-0.2,0.8-0.6,0.8l-49.3,6.8C368.6,68.9,368.6,68.9,368.6,68.9z"/>
				<path class="st11" d="M475,76c-0.1,0-0.1,0-0.2,0l-54.2-13.4c-0.4-0.1-0.6-0.5-0.5-0.9c0.1-0.4,0.5-0.6,0.9-0.5l54.2,13.4
					c0.4,0.1,0.6,0.5,0.5,0.9C475.6,75.8,475.3,76,475,76z"/>
				<path class="st11" d="M406.2,80.7c-0.4,0-0.7-0.3-0.7-0.6c-0.1-0.4,0.2-0.8,0.6-0.8l9.3-1.4c0.4-0.1,0.8,0.2,0.8,0.6
					c0.1,0.4-0.2,0.8-0.6,0.8l-9.3,1.4C406.3,80.7,406.2,80.7,406.2,80.7z"/>
				<path class="st11" d="M437.5,75.9c-0.4,0-0.7-0.3-0.7-0.6c-0.1-0.4,0.2-0.8,0.6-0.8l22.1-3.4c0.4-0.1,0.8,0.2,0.8,0.6
					c0.1,0.4-0.2,0.8-0.6,0.8l-22.1,3.4C437.6,75.9,437.5,75.9,437.5,75.9z"/>
				<path class="st11" d="M429.8,73.9c-0.1,0-0.1,0-0.2,0l-27.1-5.7c-0.4-0.1-0.7-0.5-0.6-0.9c0.1-0.4,0.5-0.6,0.9-0.6l27.1,5.7
					c0.4,0.1,0.7,0.5,0.6,0.9C430.4,73.7,430.1,73.9,429.8,73.9z"/>
				<path class="st11" d="M428.9,78.9c0,0-0.1,0-0.1,0l-32.3-6c-0.4-0.1-0.7-0.5-0.6-0.9c0.1-0.4,0.5-0.7,0.9-0.6l32.3,6
					c0.4,0.1,0.7,0.5,0.6,0.9C429.6,78.7,429.3,78.9,428.9,78.9z"/>
				<path class="st11" d="M434.7,77.5c-0.2,0-0.3,0-0.4-0.1l-4.8-3.5c-0.3-0.2-0.4-0.7-0.2-1c0.2-0.3,0.7-0.4,1-0.2l4.8,3.5
					c0.3,0.2,0.4,0.7,0.2,1C435.2,77.4,434.9,77.5,434.7,77.5z"/>
				<path class="st11" d="M428.9,78.9c-0.3,0-0.6-0.2-0.7-0.6c-0.1-0.4,0.2-0.8,0.6-0.9l5.5-1.1c0.4-0.1,0.8,0.2,0.9,0.6
					c0.1,0.4-0.2,0.8-0.6,0.9l-5.5,1.1C429,78.9,429,78.9,428.9,78.9z"/>
				<path class="st11" d="M367.6,73.2c-0.1,0-0.1,0-0.2,0c-0.4-0.1-0.6-0.5-0.6-0.9l0.9-4c0.1-0.4,0.5-0.6,0.9-0.6
					c0.4,0.1,0.6,0.5,0.6,0.9l-0.9,4C368.2,73,367.9,73.2,367.6,73.2z"/>
				<path class="st11" d="M409.6,90.7c0,0-0.1,0-0.1,0c-0.4-0.1-0.7-0.4-0.6-0.8l0.8-4.5c0.1-0.4,0.5-0.7,0.9-0.6
					c0.4,0.1,0.7,0.4,0.6,0.8l-0.8,4.5C410.3,90.4,410,90.7,409.6,90.7z"/>
				<path class="st11" d="M475,79.9c-0.4,0-0.7-0.3-0.7-0.7l0-3.6c0-0.4,0.3-0.7,0.7-0.7l0,0c0.4,0,0.7,0.3,0.7,0.7l0,3.6
					C475.7,79.6,475.4,79.9,475,79.9L475,79.9z"/>
				<path class="st11" d="M396.4,72.9c-0.1,0-0.2,0-0.3-0.1c-1.5-0.6-2-2.6-1.5-4.1c0.8-2.2,2.5-3.3,5-3.2c0.4,0,0.7,0.4,0.7,0.8
					s-0.4,0.7-0.8,0.7c-1.8-0.1-3,0.6-3.6,2.2c-0.3,0.8,0,1.9,0.7,2.2c0.4,0.2,0.6,0.6,0.4,1C397,72.7,396.7,72.9,396.4,72.9z"/>
				<path class="st11" d="M402,73.1c-0.4,0-0.7-0.3-0.7-0.7c0-1.3,0.1-3,1.1-4.4c0.2-0.3,0.7-0.4,1-0.2c0.3,0.2,0.4,0.7,0.2,1
					c-0.7,1-0.8,2.3-0.8,3.5C402.7,72.7,402.4,73.1,402,73.1C402,73.1,402,73.1,402,73.1z"/>
				<path class="st11" d="M405.2,73.5c-0.3,0-0.5-0.2-0.7-0.4c-0.7-1.3-0.1-3.5,0.6-4.6c0.2-0.4,0.7-0.5,1-0.3
					c0.4,0.2,0.5,0.7,0.3,1c-0.5,0.9-0.9,2.5-0.5,3.2c0.2,0.4,0,0.8-0.3,1C405.4,73.5,405.3,73.5,405.2,73.5z"/>
				<path class="st11" d="M438.2,87.4c-2.3,0-4.6-0.7-5.2-3.6c-0.1-0.4,0.2-0.8,0.6-0.9c0.4-0.1,0.8,0.2,0.9,0.6
					c0.7,3,3.9,2.6,7.5,2c0.3-0.1,0.6-0.1,0.9-0.2l0.6-0.1c0.6-0.1,1.2-0.2,1.8-0.3c0.8-0.1,1.6-0.2,2.4-0.3l0.7-0.1
					c0.4,0,0.8-0.1,1.2-0.2c0.8-0.1,1.7-0.2,2.5-0.3c1.8-0.1,3.7-0.4,5.1-1.5c0.5-0.4,0.7-0.8,0.6-1.2c-0.1-1-1.3-2.3-2.4-2.8
					c-0.8-0.4-2.6-0.1-3.6,0.1l-0.4,0.1c-1.3,0.2-2.7,0.4-4,0.6c-0.8,0.1-1.6,0.2-2.4,0.4c-1.3,0.2-2.5,0.3-3.8,0.5
					c-1.9,0.2-4,0.4-5.8,0.9c-0.4,0.1-0.8-0.2-0.9-0.6c-0.1-0.4,0.2-0.8,0.6-0.9c2-0.4,4-0.7,6-0.9c1.3-0.1,2.5-0.3,3.8-0.5
					c0.8-0.1,1.6-0.2,2.4-0.4c1.3-0.2,2.7-0.4,4-0.6l0.4-0.1c1.4-0.3,3.4-0.6,4.6,0c1.2,0.6,3,2.2,3.2,4c0.1,0.7-0.1,1.7-1.1,2.5
					c-1.7,1.4-3.9,1.7-5.9,1.8c-0.8,0.1-1.6,0.2-2.4,0.3c-0.4,0.1-0.8,0.1-1.3,0.2l-0.7,0.1c-0.8,0.1-1.6,0.2-2.3,0.3
					c-0.6,0.1-1.2,0.2-1.8,0.3l-0.6,0.1c-0.3,0-0.6,0.1-0.9,0.2C441,87.1,439.6,87.4,438.2,87.4z"/>
				<path class="st11" d="M246.7,179.9c-0.1,0-0.1,0-0.2,0l-239-69.7c-0.4-0.1-0.6-0.5-0.5-0.9c0.1-0.4,0.5-0.6,0.9-0.5l239,69.7
					c0.4,0.1,0.6,0.5,0.5,0.9C247.3,179.7,247,179.9,246.7,179.9z"/>
				<path class="st11" d="M243.8,196.8c-0.1,0-0.1,0-0.2,0L1.4,122.3c-0.4-0.1-0.6-0.5-0.5-0.9c0.1-0.4,0.5-0.6,0.9-0.5L244,195.4
					c0.4,0.1,0.6,0.5,0.5,0.9C244.4,196.6,244.1,196.8,243.8,196.8z"/>
				<path class="st11" d="M246.6,196.9c-0.4,0.1-0.7-0.3-0.7-0.7l0.1-17.1c0-0.4,0.3-0.7,0.7-0.7c0,0,0,0,0,0c0.4,0,0.7,0.3,0.7,0.7
					l-0.1,17.1C247.3,196.6,247,196.9,246.6,196.9z"/>
				<path class="st11" d="M247.4,180.2c-0.3,0-0.6-0.2-0.7-0.5c-0.1-0.4,0.1-0.8,0.4-0.9l257.6-93.9c0.4-0.1,0.8,0.1,0.9,0.4
					c0.1,0.4-0.1,0.8-0.4,0.9l-257.6,93.9C247.5,180.2,247.4,180.2,247.4,180.2z"/>
				<path class="st11" d="M247.1,197.2c-0.3,0-0.6-0.2-0.7-0.5c-0.1-0.4,0-0.8,0.4-0.9l255.1-98c0.4-0.1,0.8,0,1,0.4
					c0.1,0.4,0,0.8-0.4,0.9l-255.1,98C247.3,197.2,247.2,197.2,247.1,197.2z"/>
				<path class="st11" d="M488.5,56.2c-0.1,0-0.1,0-0.2,0l-105.8-23c-0.4-0.1-0.7-0.5-0.6-0.9c0.1-0.4,0.5-0.6,0.9-0.6l105.8,23
					c0.4,0.1,0.7,0.5,0.6,0.9C489.1,55.9,488.8,56.2,488.5,56.2z"/>
				<path class="st11" d="M25.9,172.9c-0.4,0-0.7-0.3-0.7-0.7l-0.7-42.5c0-0.4,0.3-0.7,0.7-0.7c0,0,0,0,0,0c0.4,0,0.7,0.3,0.7,0.7
					l0.7,42.5C26.6,172.6,26.3,172.9,25.9,172.9C25.9,172.9,25.9,172.9,25.9,172.9z"/>
				<path class="st11" d="M198.2,239.8c-0.4,0-0.7-0.3-0.7-0.7v-53.4c0-0.4,0.3-0.7,0.7-0.7s0.7,0.3,0.7,0.7v53.4
					C198.9,239.5,198.6,239.8,198.2,239.8z"/>
				<path class="st11" d="M240.6,245.9c-0.4,0-0.7-0.3-0.7-0.7v-49.9c0-0.4,0.3-0.7,0.7-0.7s0.7,0.3,0.7,0.7v49.9
					C241.3,245.6,241,245.9,240.6,245.9z"/>
				<path class="st11" d="M277.1,238.8c-0.4,0-0.7-0.3-0.7-0.7v-52.7c0-0.4,0.3-0.7,0.7-0.7s0.7,0.3,0.7,0.7v52.7
					C277.8,238.5,277.5,238.8,277.1,238.8z"/>
				<path class="st11" d="M484.7,141.1C484.7,141.1,484.7,141.1,484.7,141.1c-0.4,0-0.7-0.3-0.7-0.7l0.3-34.5c0-0.4,0.3-0.7,0.7-0.7
					c0,0,0,0,0,0c0.4,0,0.7,0.3,0.7,0.7l-0.3,34.5C485.5,140.8,485.1,141.1,484.7,141.1z"/>
			</g>
		</g>
	</g>
</g>
</svg>
