<?xml version="1.0" encoding="UTF-8"?>
<svg width="290px" height="88px" viewBox="0 0 290 88" version="1.1" xmlns="http://www.w3.org/2000/svg" xmlns:xlink="http://www.w3.org/1999/xlink">
    <!-- Generator: Sketch 61 (89581) - https://sketch.com -->
    <title>lookin-logo</title>
    <desc>Created with Sketch.</desc>
    <g id="Home" stroke="none" stroke-width="1" fill="none" fill-rule="evenodd">
        <g id="Desktop-Copy" transform="translate(-367.000000, -70.000000)" fill="#AB78B3" fill-rule="nonzero">
            <g id="lookin-logo" transform="translate(367.000000, 70.000000)">
                <path d="M97.17,55.24 C96.08,49.42 92.06,47.51 88.96,47.64 C85.38,47.79 82.54,50.35 82.21,53.72 C81.96,56.23 82.47,58.12 83.73,59.33 C85.26,60.8 87.22,60.57 87.44,60.54 C88.35,60.41 88.98,59.57 88.85,58.65 C88.72,57.74 87.88,57.11 86.96,57.24 C86.96,57.24 86.39,57.27 86.03,56.92 C85.56,56.47 85.38,55.45 85.52,54.05 C85.71,52.12 87.47,51.04 89.1,50.97 C90,50.93 93.01,51.17 93.89,55.86 C94.44,58.81 93.41,61.32 91.05,62.74 C88.49,64.28 84.22,64.48 80.46,61.47 C74.51,56.71 73.29,43.86 72.7,37.69 C72.48,35.39 72.36,34.16 72.12,33.4 C71.06,29.95 68.41,27.3 64.47,25.74 C63.35,25.3 62.28,25.01 61.38,24.81 C62.71,22.35 63.48,19.47 63.48,16.39 C63.49,7.35 56.89,0 48.78,0 C40.67,0 34.06,7.35 34.06,16.39 C34.06,19.66 34.93,22.72 36.42,25.28 C35.44,25.47 34.2,25.78 32.89,26.3 C28.95,27.85 26.31,30.5 25.24,33.96 C25.01,34.71 24.88,35.95 24.66,38.25 C24.07,44.42 22.85,57.27 16.9,62.03 C13.14,65.04 8.87,64.83 6.31,63.3 C3.95,61.88 2.92,59.38 3.47,56.42 C4.35,51.73 7.36,51.49 8.26,51.53 C9.89,51.6 11.65,52.68 11.84,54.61 C11.98,55.99 11.8,57.01 11.35,57.46 C11.28,57.53 11.15,57.59 11,57.63 C10.23,57.85 9.73,58.59 9.79,59.39 L9.79,59.39 C9.88,60.5 11,61.22 12.05,60.85 C12.57,60.67 13.13,60.37 13.64,59.88 C14.9,58.67 15.41,56.79 15.16,54.27 C14.82,50.9 11.98,48.35 8.41,48.19 C5.31,48.05 1.3,49.97 0.2,55.79 C-0.61,60.13 1.04,64 4.6,66.14 C4.6,66.14 4.61,66.15 4.61,66.15 C4.6,67.64 4.85,84.34 20.53,86.08 C21.51,86.19 22.48,86.24 23.42,86.24 C31.13,86.24 37.73,82.8 43.43,78.78 C44.43,79.36 48.2,81.5 53.19,83.51 C59.57,86.08 65.22,87.37 70.04,87.37 C71.11,87.37 72.14,87.31 73.13,87.18 C82.8,85.93 87.22,80.22 89.23,75.64 C91.09,71.4 91.24,67.41 91.25,66.32 C91.77,66.11 92.27,65.87 92.75,65.58 C96.34,63.44 97.98,59.57 97.17,55.24 Z M48.78,3.33 C55.06,3.33 60.17,9.19 60.17,16.38 C60.17,23.57 55.06,29.43 48.78,29.43 C46.8,29.43 44.94,28.85 43.31,27.82 C43.17,27.69 43.01,27.58 42.83,27.5 C39.57,25.2 37.39,21.07 37.39,16.37 C37.39,9.19 42.5,3.33 48.78,3.33 Z M45.15,32.27 C46.31,32.6 47.52,32.77 48.77,32.77 C50.17,32.77 51.52,32.55 52.81,32.14 L49.13,42.96 L45.15,32.27 Z M72.72,83.88 C63.11,85.12 50.63,78.92 46.39,76.61 C47.72,75.59 49,74.57 50.23,73.58 C52.32,71.91 54.29,70.33 56.08,69.14 C63.49,64.2 67.94,65.44 67.96,65.45 C68.83,65.74 69.78,65.27 70.07,64.4 C70.36,63.53 69.89,62.58 69.02,62.29 C68.78,62.21 63.15,60.43 54.24,66.37 C52.33,67.64 50.31,69.26 48.16,70.98 C40.91,76.77 31.9,83.99 20.91,82.77 C9.82,81.54 8.2,71.17 7.98,67.45 C8.78,67.62 9.61,67.71 10.44,67.71 C13.39,67.71 16.44,66.66 18.99,64.62 C26.04,58.98 27.31,45.69 27.99,38.55 C28.14,36.93 28.29,35.39 28.43,34.93 C29.19,32.47 31.07,30.62 34.03,29.43 C36.38,28.49 38.55,28.33 38.6,28.33 C38.63,28.33 38.66,28.32 38.69,28.31 C39.34,28.99 40.05,29.61 40.8,30.15 L47.25,47.45 C39.05,48.76 33.98,51.76 33.75,51.89 C32.96,52.36 32.7,53.39 33.18,54.18 C33.65,54.97 34.68,55.23 35.47,54.75 C35.52,54.72 40.82,51.59 49.26,50.53 C52.5,50.13 55.44,50.35 57.82,50.78 L34.28,55.58 C33.59,55.72 33.07,56.27 32.96,56.97 C32.86,57.66 33.2,58.35 33.81,58.68 C34.18,58.88 40.46,62.22 50.29,62.22 C54.47,62.22 59.28,61.62 64.56,59.91 C65.44,59.63 65.92,58.69 65.63,57.81 C65.35,56.93 64.41,56.45 63.53,56.74 C53.83,59.87 45.74,58.94 40.76,57.66 L64.93,52.74 C65.63,52.6 66.16,52.03 66.25,51.33 C66.34,50.63 65.98,49.94 65.34,49.62 C65.08,49.49 59.3,46.66 51.26,47.03 L57.06,29.96 C57.07,29.94 57.07,29.93 57.07,29.91 C57.87,29.3 58.61,28.61 59.28,27.84 C61.13,28.07 67.34,29.23 68.92,34.39 C69.06,34.85 69.21,36.39 69.36,38.01 C70.04,45.15 71.3,58.44 78.36,64.08 C80.91,66.12 83.96,67.17 86.91,67.17 C87.24,67.17 87.57,67.15 87.89,67.13 C87.74,70.59 86.13,82.15 72.72,83.88 Z" id="Shape"></path>
                <g id="Group" transform="translate(110.000000, 18.000000)">
                    <path d="M6.95,46.12 C6.42,47.68 5.97,49.18 5.6,50.61 C5.23,52.04 5.05,53.47 5.05,54.91 C5.05,56.34 5.38,57.67 6.05,58.9 C6.72,60.13 7.78,60.75 9.25,60.75 C11.65,60.75 13.98,59.14 16.24,55.91 C18.5,52.68 20.9,48.57 23.43,43.58 C23.96,42.65 24.46,42.28 24.93,42.48 C25.26,42.75 25.33,43.1 25.13,43.53 C24.93,43.96 24.51,44.9 23.89,46.33 C23.26,47.76 22.79,48.76 22.49,49.32 C22.19,49.89 21.66,50.88 20.89,52.32 C20.12,53.75 19.46,54.81 18.89,55.51 C18.32,56.21 17.56,57.11 16.59,58.21 C15.63,59.31 14.71,60.12 13.84,60.66 C11.51,62.12 9.32,62.85 7.25,62.85 C5.18,62.85 3.59,62.4 2.45,61.5 C1.32,60.6 0.64,59.64 0.41,58.6 C0.18,57.57 0.06,56.65 0.06,55.85 C0.06,55.06 0.09,54.02 0.16,52.75 C0.36,50.62 0.78,48.56 1.41,46.56 C2.04,44.56 2.39,43.43 2.46,43.16 C3.99,37.63 6.17,31.61 9,25.09 C11.82,18.57 14.22,13.66 16.19,10.36 C18.15,7.07 19.7,4.82 20.83,3.62 C23.09,1.22 25.32,0.03 27.52,0.03 C29.05,0.03 30.08,1.12 30.62,3.32 C30.68,3.72 30.72,4.22 30.72,4.82 C30.72,7.08 29.92,9.95 28.32,13.41 C22.59,26.12 15.77,36.1 7.85,43.36 C7.78,43.64 7.48,44.55 6.95,46.12 Z M18.73,27.1 C22.06,21.84 24.5,17.37 26.07,13.67 C27.63,9.97 28.41,7.46 28.41,6.13 C28.41,4.8 28.18,4.13 27.71,4.13 C27.05,4.13 25.78,5.44 23.92,8.07 C22.06,10.7 19.54,15.42 16.38,22.25 C13.22,29.07 10.64,35.04 8.64,40.17 C12.04,36.72 15.4,32.36 18.73,27.1 Z" id="Shape"></path>
                    <path d="M41.69,27.7 C46.55,27.7 48.98,30.76 48.98,36.88 C48.98,39.68 48.24,42.67 46.78,45.87 C44.92,50.2 42.12,54.12 38.39,57.65 C39.25,59.32 40.82,60.15 43.08,60.15 C44.88,60.15 46.57,59.25 48.17,57.45 C50.17,55.39 51.59,53.57 52.46,52.01 C53.33,50.45 53.96,49.3 54.36,48.57 C54.76,47.84 55.28,46.79 55.91,45.43 C56.54,44.06 56.93,43.23 57.06,42.93 C57.2,42.63 57.43,42.48 57.76,42.48 C58.42,42.42 58.76,42.65 58.76,43.18 C58.76,43.38 58.69,43.61 58.56,43.88 L57.96,45.28 C57.56,46.21 57.26,46.87 57.06,47.28 C56.86,47.68 56.51,48.39 56.01,49.43 C55.51,50.46 55.08,51.28 54.71,51.88 C54.34,52.48 53.84,53.28 53.21,54.28 C52.58,55.28 52.01,56.08 51.51,56.67 C51.01,57.27 50.4,57.93 49.66,58.67 C48.93,59.4 48.23,59.96 47.56,60.37 C45.9,61.37 44.33,61.87 42.87,61.87 C40.14,61.87 38.01,61.01 36.48,59.27 C33.42,61.54 30.59,62.67 27.99,62.67 C23.13,62.67 20.7,59.61 20.7,53.49 C20.7,50.69 21.43,47.7 22.89,44.5 C24.89,39.84 27.7,35.88 31.33,32.62 C34.99,29.33 38.43,27.7 41.69,27.7 Z M42.79,30.79 C40.99,30.79 38.86,31.99 36.4,34.38 C33.93,36.78 31.74,40.04 29.81,44.17 C27.48,48.96 26.32,52.89 26.32,55.95 C26.32,59.01 27.48,60.54 29.81,60.54 C31.48,60.54 33.34,59.64 35.4,57.85 C34.33,56.32 33.8,54.69 33.8,52.96 C33.93,50.1 35.1,48.66 37.29,48.66 C38.16,48.66 38.87,48.96 39.44,49.56 C40.01,50.16 40.29,50.71 40.29,51.21 C40.29,51.71 40.22,52.23 40.09,52.76 C41.22,51.1 42.52,48.73 43.98,45.67 C45.65,42.27 46.4700605,38.95 46.4700605,35.69 C46.48,32.42 45.25,30.79 42.79,30.79 Z" id="Shape"></path>
                    <path d="M75.14,27.7 C80,27.7 82.43,30.76 82.43,36.88 C82.43,39.68 81.69,42.67 80.23,45.87 C78.37,50.2 75.57,54.12 71.84,57.65 C72.7,59.32 74.27,60.15 76.53,60.15 C78.33,60.15 80.02,59.25 81.62,57.45 C83.62,55.39 85.04,53.57 85.91,52.01 C86.78,50.45 87.41,49.3 87.81,48.57 C88.21,47.84 88.73,46.79 89.36,45.43 C89.99,44.06 90.38,43.23 90.51,42.93 C90.65,42.63 90.88,42.48 91.21,42.48 C91.87,42.42 92.21,42.65 92.21,43.18 C92.21,43.38 92.14,43.61 92.01,43.88 L91.41,45.28 C91.01,46.21 90.71,46.87 90.51,47.28 C90.31,47.68 89.96,48.39 89.46,49.43 C88.96,50.46 88.53,51.28 88.16,51.88 C87.79,52.48 87.29,53.28 86.66,54.28 C86.03,55.28 85.46,56.08 84.96,56.67 C84.46,57.27 83.85,57.93 83.11,58.67 C82.38,59.4 81.68,59.96 81.01,60.37 C79.35,61.37 77.78,61.87 76.32,61.87 C73.59,61.87 71.46,61.01 69.93,59.27 C66.87,61.54 64.04,62.67 61.44,62.67 C56.58,62.67 54.15,59.61 54.15,53.49 C54.15,50.69 54.88,47.7 56.34,44.5 C58.34,39.84 61.15,35.88 64.78,32.62 C68.44,29.33 71.88,27.7 75.14,27.7 Z M76.24,30.79 C74.44,30.79 72.31,31.99 69.85,34.38 C67.38,36.78 65.19,40.04 63.26,44.17 C60.93,48.96 59.77,52.89 59.77,55.95 C59.77,59.01 60.93,60.54 63.26,60.54 C64.93,60.54 66.79,59.64 68.85,57.85 C67.78,56.32 67.25,54.69 67.25,52.96 C67.38,50.1 68.55,48.66 70.74,48.66 C71.61,48.66 72.32,48.96 72.89,49.56 C73.46,50.16 73.74,50.71 73.74,51.21 C73.74,51.71 73.67,52.23 73.54,52.76 C74.67,51.1 75.97,48.73 77.43,45.67 C79.1,42.27 79.9200605,38.95 79.9200605,35.69 C79.93,32.42 78.7,30.79 76.24,30.79 Z" id="Shape"></path>
                    <path d="M116.18,35.68 C116.18,33.88 115.28,32.98 113.48,32.98 C110.82,32.98 107.74,34.5 104.25,37.52 C100.75,40.55 97.84,43.73 95.51,47.06 C94.51,48.99 93.69,51.42 93.06,54.35 C92.43,57.28 92.11,59.31 92.11,60.44 C92.11,61.57 92.31,62.3 92.71,62.63 L86.42,62.63 C85.42,62.63 85.18,61.75 85.67,59.99 C86.17,58.23 86.85,56.31 87.71,54.25 C88.58,52.19 89.66,49.8 90.96,47.11 C92.26,44.41 93.21,42.37 93.81,40.97 C88.35,51.29 84.82,57.21 83.23,58.74 C82.57,59.34 82.23,59.14 82.23,58.14 C82.23,57.94 82.3,57.71 82.43,57.44 C84.76,54.38 89.4,46.06 96.36,32.48 C103.32,18.9 108.19,10.02 110.99,5.82 C113.25,2.56 115.45,0.93 117.58,0.93 L117.68,0.93 L118.18,0.93 C118.24,0.93 118.83,1.03 119.93,1.23 C121.02,1.43 121.84,1.46 122.38,1.33 C119.91,3.19 116.52,7.47 112.19,14.16 C107.86,20.85 104.43,26.71 101.91,31.73 C99.38,36.75 97.68,40.57 96.82,43.16 C102.88,35.64 108.3,30.98 113.1,29.18 C115.36,28.45 117.16,28.08 118.49,28.08 C121.42,28.08 122.88,29.32 122.88,31.78 C122.88,32.58 122.71,33.48 122.38,34.48 C121.45,37.01 119.53,39.29 116.63,41.32 C113.74,43.35 110.56,44.54 107.1,44.87 C106.3,46.73 105.9,48.45 105.9,50.01 C105.9,51.57 106.06,52.99 106.4,54.25 C107.2,57.44 108.7,59.41 110.89,60.14 C111.36,60.27 111.82,60.34 112.29,60.34 C114.15,60.34 116.35,59.18 118.88,56.85 C120.94,54.59 123.64,50.02 126.97,43.17 C127.44,42.3 127.8,42.02 128.06,42.32 C128.33,42.62 128.46,42.9 128.46,43.17 C128.46,43.44 127.96,44.73 126.96,47.06 C125.96,49.39 124.56,51.95 122.76,54.75 C118.97,60.48 114.77,63.33 110.18,63.33 C107.38,63.33 105.22,62.53 103.69,60.94 C101.5,58.68 100.4,55.71 100.4,52.05 C100.4,50.19 100.9,48.29 101.9,46.36 C102.9,44.43 104.07,43.4 105.4,43.26 C105.6,43.26 105.8,43.26 106,43.26 C108.33,43.26 110.61,42.36 112.84,40.57 C115.06,38.78 116.18,37.15 116.18,35.68 Z" id="Path"></path>
                    <path d="M130.56,60.45 C131.82,60.45 133.16,59.82 134.55,58.55 C137.01,56.09 140.14,51.06 143.94,43.48 C144.41,42.48 144.87,42.18 145.34,42.58 C145.48,42.72 145.54,42.93 145.54,43.23 C145.54,43.53 145.27,44.26 144.75,45.43 C144.21,46.59 143.73,47.64 143.3,48.57 C142.86,49.5 142.03,51.02 140.8,53.11 C139.57,55.2 138.46,56.82 137.46,57.95 C134.73,61.08 132.15,62.64 129.72,62.64 C127.29,62.64 125.54,61.91 124.47,60.45 C123.4,58.98 122.88,57.35 122.88,55.56 C122.88,53.77 123.31,51.8 124.18,49.67 L130.57,33.39 C130.7,32.99 130.77,32.46 130.77,31.79 C130.77,31.13 130.37,30.26 129.57,29.19 L135.06,29.09 C136.59,29.09 137.49,29.37 137.76,29.94 C138.02,30.51 137.82,31.39 137.16,32.58 L129.17,51.25 C128.04,53.72 127.47,55.81 127.47,57.54 C127.46,59.48 128.49,60.45 130.56,60.45 Z M140.34,23.8 C139.41,24.6 138.37,25 137.24,25 C136.11,25 135.21,24.6 134.54,23.8 C133.88,23 133.61,22.04 133.74,20.9 C133.94,19.77 134.51,18.81 135.44,18.01 C136.37,17.21 137.4,16.81 138.54,16.81 C139.67,16.81 140.58,17.21 141.28,18.01 C141.98,18.81 142.23,19.77 142.03,20.9 C141.84,22.04 141.27,23 140.34,23.8 Z" id="Shape"></path>
                    <path d="M174.19,29.89 C166,44.27 161.9,53.66 161.9,58.05 C161.9,59.78 162.53,60.65 163.8,60.65 C167.2,60.65 171.75,54.89 177.48,43.38 C177.88,42.45 178.28,42.08 178.68,42.28 C179.08,42.48 179.28,42.75 179.28,43.08 C179.28,43.41 179.14,43.82 178.88,44.28 C175.35,51.41 172.37,56.31 169.95,59.01 C167.52,61.7 165.09,63.05 162.66,63.05 C160.23,63.05 158.38,62.12 157.12,60.25 C156.45,59.39 156.12,58.21 156.12,56.71 C156.12,55.21 156.45,53.4 157.12,51.27 C157.78,49.14 159.61,45.68 162.61,40.89 C163.34,39.69 163.7,38.74 163.7,38.04 C163.7,37.34 163.13,36.99 162,36.99 C160.87,36.99 158.71,38.49 155.51,41.48 C150.72,45.87 146.09,52.47 141.63,61.25 C141.23,61.92 140.78,62.34 140.28,62.5 C139.78,62.66 138.8,62.78 137.33,62.85 C135.86,62.92 134.9,63.08 134.43,63.35 C135.5,61.22 137.59,56.86 140.72,50.27 C146.31,38.62 149.97,31.97 151.7,30.3 C152.5,29.5 153.6,29.1 154.99,29.1 C155.26,29.1 155.94,29.2 157.04,29.4 C158.13,29.6 158.95,29.64 159.49,29.5 C157.02,30.83 153,37.09 147.41,48.27 C150.53,44.41 153.38,41.33 155.95,39.03 C158.52,36.73 161.59,34.61 165.18,32.64 C168.77,30.68 171.4,29.69 173.07,29.69 C173.49,29.69 173.85,29.76 174.19,29.89 Z" id="Path"></path>
                </g>
            </g>
        </g>
    </g>
</svg>