<?xml version="1.0" encoding="UTF-8"?>
<svg width="66px" height="66px" viewBox="0 0 66 66" version="1.1" xmlns="http://www.w3.org/2000/svg" xmlns:xlink="http://www.w3.org/1999/xlink">
    <!-- Generator: Sketch 61 (89581) - https://sketch.com -->
    <title>Group 3</title>
    <desc>Created with Sketch.</desc>
    <defs>
        <polygon id="path-1" points="0 0 66 0 66 66 0 66"></polygon>
    </defs>
    <g id="Home" stroke="none" stroke-width="1" fill="none" fill-rule="evenodd">
        <g id="Desktop-Copy" transform="translate(-478.000000, -1557.000000)">
            <g id="Group-3" transform="translate(478.000000, 1557.000000)">
                <mask id="mask-2" fill="white">
                    <use xlink:href="#path-1"></use>
                </mask>
                <g id="Clip-2"></g>
                <path d="M58.7300292,52.4547036 C57.581769,55.3411409 55.3583772,57.565048 52.4578424,58.7283442 C48.1144233,60.4514854 37.8075046,60.0541079 33.0070316,60.0541079 C28.2072617,60.0541079 17.8862799,60.4367156 13.556924,58.7283442 C10.6711555,57.5791145 8.44776374,55.3559107 7.28473717,52.4547036 C5.56199527,48.1095745 5.95998381,37.8009703 5.95998381,33.0000879 C5.95998381,28.1985022 5.57676163,17.8744249 7.28473717,13.5447689 C8.43299738,10.6583316 10.6563892,8.43442446 13.556924,7.27112833 C17.9010462,5.54798714 28.2072617,5.9453646 33.0070316,5.9453646 C37.8075046,5.9453646 48.1284865,5.56275692 52.4578424,7.27112833 C55.3436108,8.420358 57.5670026,10.6435618 58.7300292,13.5447689 C60.4527711,17.8891947 60.0554857,28.1985022 60.0554857,33.0000879 C60.0554857,37.8009703 60.4527711,48.1250476 58.7300292,52.4547036 M65.7679572,19.3914925 C65.5176323,14.104614 64.3103066,9.42118654 60.4380047,5.56275692 C56.5804692,1.7043273 51.898127,0.496721822 46.6124736,0.231569076 C41.1643903,-0.0771896921 24.8356097,-0.0771896921 19.3875264,0.231569076 C14.1166393,0.481952041 9.43500032,1.68955752 5.56199527,5.54798714 C1.68969338,9.40641676 0.49713409,14.0898442 0.232042786,19.377426 C-0.0773475954,24.8260688 -0.0773475954,41.1579306 0.232042786,46.6079801 C0.482367731,51.8948585 1.68969338,56.5775826 5.56199527,60.4367156 C9.43500032,64.2951452 14.101873,65.5027507 19.3875264,65.7679034 C24.8356097,66.0773655 41.1643903,66.0773655 46.6124736,65.7679034 C51.898127,65.5175205 56.5804692,64.309915 60.4380047,60.4367156 C64.2955403,56.5775826 65.5028659,51.8948585 65.7679572,46.6079801 C66.0773476,41.1579306 66.0773476,24.8408386 65.7679572,19.3914925 M54.5631033,15.3860683 C54.5631033,17.5804359 52.7967655,19.3324133 50.6169696,19.3324133 C48.4231105,19.3324133 46.6715391,17.5656661 46.6715391,15.3860683 C46.6715391,13.2057672 48.4378769,11.43902 50.6169696,11.43902 C52.7967655,11.43902 54.5631033,13.2057672 54.5631033,15.3860683 M33.0070316,44.0007619 C26.955637,44.0007619 22.0089067,39.0676549 22.0089067,33.0000879 C22.0089067,26.9318176 26.9415738,21.9980073 33.0070316,21.9980073 C39.0738957,21.9980073 44.0065628,26.9318176 44.0065628,33.0000879 C44.0065628,39.0676549 39.0591294,44.0007619 33.0070316,44.0007619 M33.0070316,16.0781381 C23.6430504,16.0781381 16.0897062,23.6332331 16.0897062,33.0000879 C16.0897062,42.3662394 23.6430504,49.9213344 33.0070316,49.9213344 C42.3717159,49.9213344 49.9250602,42.3662394 49.9250602,33.0000879 C49.9250602,23.6332331 42.3717159,16.0781381 33.0070316,16.0781381" id="Fill-1" fill="#58595B" mask="url(#mask-2)"></path>
            </g>
        </g>
    </g>
</svg>