<?xml version="1.0" encoding="UTF-8"?>
<svg width="381px" height="311px" viewBox="0 0 381 311" version="1.1" xmlns="http://www.w3.org/2000/svg" xmlns:xlink="http://www.w3.org/1999/xlink">
    <!-- Generator: Sketch 61 (89581) - https://sketch.com -->
    <title>girl-meditating</title>
    <desc>Created with Sketch.</desc>
    <g id="Home" stroke="none" stroke-width="1" fill="none" fill-rule="evenodd">
        <g id="About-Us---Desktop" transform="translate(-322.000000, -319.000000)">
            <g id="girl-meditating" transform="translate(322.000000, 319.000000)">
                <path d="M254.83337,34.5854624 C248.860171,31.4811583 242.862691,28.4091907 236.857117,25.3614756 C217.941986,15.7575349 200.338046,4.25382474 178.921942,0.664473167 C170.124019,-0.806837614 160.621938,0 153.070455,4.74695638 C135.377483,15.8707126 148.100883,27.1723196 144.928126,41.6509878 C143.75453,46.9945945 138.299332,50.5192731 132.876509,51.287265 C127.453686,52.063341 121.982301,50.6971238 116.624228,49.5330098 C102.1202,46.3882851 86.0055125,44.7148712 72.553674,52.4190425 C63.229656,57.7545651 57.6773328,68.1264977 57.3050196,79.1532444 C56.6737059,97.7386482 66.0867553,111.214885 44.8891831,121.910182 C35.1847581,126.801078 24.1448617,126.92234 15.0960317,133.236042 C8.54817535,137.803573 3.17391496,144.351714 1.14237978,152.063969 C-6.9190108,182.686635 29.5514972,211.344859 51.9307592,224.55432 C70.4007324,235.459805 90.376146,243.568182 109.291276,253.681423 C143.552186,272.00005 174.543215,295.718874 214.226948,300.55318 C234.348049,303.00267 237.22943,295.37934 237.124211,277.723611 C237.091836,272.185985 241.575782,267.375931 246.788167,265.484245 C252.000552,263.59256 257.763313,264.061439 263.218511,265.047703 C278.904229,267.885231 293.772477,271.806031 306.414939,258.758253 C323.476596,241.151029 301.696273,214.635098 320.077215,200.997179 C326.60079,196.154788 337.349311,196.025442 345.014107,193.794223 C355.293189,190.803097 364.2368,186.971222 371.270283,178.507143 C387.328314,159.202252 381.508896,132.985434 368.275589,113.858394 C352.209465,90.6407863 326.479384,75.4668834 302.586587,61.0528882 C286.997995,51.675303 270.988526,42.9848684 254.83337,34.5854624 Z" id="Path" fill="#B991C1" fill-rule="nonzero"></path>
                <g id="XMLID_1_" transform="translate(93.000000, 44.000000)">
                    <g id="Group" transform="translate(2.434343, 26.690371)" fill-rule="nonzero">
                        <path d="M189.327003,140.44797 C189.262088,140.399442 189.197172,140.350914 189.14037,140.294298 C191.501684,138.789931 198.066296,135.716495 200.622357,137.884076 C201.474377,138.611996 202.188451,139.534027 203.194646,140.027394 C205.069091,140.949425 207.243771,139.768578 209.069529,140.642082 C211.114377,141.620728 210.797912,144.427261 212.501953,145.84266 C213.686667,146.829395 215.57734,147.282322 216.202155,148.794777 C217.743906,152.507165 212.088114,152.952004 209.791717,152.167469 C208.558316,151.738806 207.828013,151.31823 206.521582,151.649838 C205.15835,152.005709 203.933064,152.765981 202.521145,152.943916 C200.208519,153.226996 199.843367,151.868213 198.910202,150.161647 C197.165589,146.942627 194.50404,150.930006 192.32936,148.600665 C191.574714,147.791866 189.148485,143.480966 189.14037,140.957513 L189.327003,140.44797 Z" id="Path" fill="#FFFFFF"></path>
                        <path d="M175.954343,217.680199 C175.540505,217.583143 175.134781,217.469911 174.729057,217.356679 C173.75532,217.0736 172.554377,216.329505 172.895185,215.375122 C173.503771,213.668555 176.47367,212.948724 179.849293,212.859756 C180.709428,212.835492 181.593906,212.859756 182.470269,212.908284 C184.231111,213.013428 192.296902,213.401652 191.599057,216.677288 C191.217677,218.472822 187.071178,218.691198 185.683603,218.731638 C182.413468,218.820606 179.127104,218.464734 175.954343,217.680199 Z" id="Path" fill="#FFFFFF"></path>
                        <path d="M175.954343,217.680199 L23.7186195,217.23536 C24.0594276,217.146392 24.3921212,217.049336 24.7329293,216.944192 C28.2059259,215.836137 27.1753872,214.461179 25.3252862,213.45018 C24.1243434,212.795052 22.5744781,212.301685 21.69,212.139925 C20.9028956,212.002429 19.9535017,211.832581 18.9310774,211.711261 L18.9310774,211.703173 C24.3921212,207.117282 32.823064,200.032202 32.823064,200.032202 C35.1113468,201.520392 37.8540404,202.353455 40.6616498,202.838735 C42.7957576,203.210783 44.9623232,203.38063 46.9828283,203.493862 C58.1402357,204.10855 68.599798,203.154167 79.0918182,201.56892 C97.6739731,201.302017 118.860875,201.69024 137.183367,203.162255 C142.084512,203.558566 148.900673,203.809294 155.108249,202.652711 C159.465724,201.843912 163.522963,200.347634 166.411717,197.719036 C171.215488,203.615182 179.849293,212.859756 179.849293,212.859756 C176.47367,212.948724 173.503771,213.668555 172.895185,215.375122 C172.554377,216.329505 173.75532,217.0736 174.729057,217.356679 C175.134781,217.469911 175.540505,217.583143 175.954343,217.680199 Z" id="Path" fill="#FFFFFF"></path>
                        <path d="M142.871616,66.6046087 C154.588923,75.2021435 173.836465,80.1034663 172.960101,98.123511 C172.521919,107.198237 166.135825,110.967241 161.534916,117.744978 C158.621818,122.031613 158.808451,127.588063 155.960269,131.907051 C151.75697,138.304652 144.916465,141.183977 137.499832,141.863368 C136.615354,139.234771 135.771448,136.638526 135.211549,134.24448 C137.418687,133.16069 139.47165,131.947491 141.127003,130.70194 C138.140875,122.444101 129.425926,103.938777 129.150034,104.36744 L128.849798,103.857897 C126.382997,100.153597 121.392593,99.3286217 116.986431,98.6492304 C115.217475,98.3742387 113.34303,97.9941031 111.622761,97.3794158 C110.064781,96.8213444 108.636633,96.0691612 107.508721,95.0258103 C106.364579,93.9743714 105.73165,92.494269 105.65862,90.9494627 C105.545017,88.3936574 105.407071,87.4716264 105.301582,84.1636379 L105.171751,83.3548388 C112.645185,82.1254641 119.615522,78.0976444 123.461785,71.4735795 C124.638384,69.4515817 125.48229,67.316352 126.082761,65.1002423 L127.080842,65.375234 C130.107542,66.4832889 133.661684,65.2296502 135.682189,62.3503253 C136.380034,61.3474144 136.891246,60.1665676 137.183367,58.912929 C137.516061,62.5120851 139.950404,64.461291 142.871616,66.6046087 Z" id="Path" fill="#404040"></path>
                        <path d="M170.720505,186.816424 C170.834108,191.717747 169.154411,195.227935 166.411717,197.719036 C163.522963,200.347634 159.465724,201.843912 155.108249,202.652711 L155.083906,202.523303 C155.083906,198.252844 152.592761,191.717747 150.101616,188.789894 L149.809495,188.781806 C150.653401,187.778895 149.971785,186.314969 146.823367,184.034155 C143.756094,181.809957 139.447306,183.233444 135.893165,183.435644 C132.087475,183.645931 128.444074,182.715812 124.711414,182.190093 C122.13101,181.826133 119.388316,181.818045 117.07569,183.015068 C115.395993,183.880483 113.919158,185.166474 112.069057,185.676017 C110.373131,186.137033 108.474343,186.072329 106.737845,186.137033 C103.735488,186.258353 100.725017,186.234089 97.7226599,186.096593 C102.54266,185.975273 107.533064,185.231178 111.062862,184.438555 C118.771616,182.707724 124.321919,178.615201 132.014444,172.872727 C132.501313,172.508767 133.02064,172.080104 133.556195,171.594824 C138.002929,173.74623 138.676431,173.091103 143.431515,173.002135 C148.292088,172.905079 153.128316,173.010223 157.932088,173.843286 C164.301953,174.959429 170.550101,179.965895 170.720505,186.816424 Z" id="Path" fill="#404040"></path>
                        <path d="M155.083906,202.523303 L155.108249,202.652711 C148.900673,203.809294 142.084512,203.558566 137.183367,203.162255 C118.860875,201.69024 97.6739731,201.302017 79.0918182,201.56892 C89.3241751,200.016026 99.5808754,197.848444 110.55165,195.955854 C119.193569,194.621336 127.340505,193.011825 136.071684,191.733923 C141.889764,190.884684 148.300202,190.57734 149.809495,188.781806 L150.101616,188.789894 L155.083906,202.523303 Z" id="Path" fill="#FFFFFF"></path>
                        <path d="M155.083906,202.523303 L150.101616,188.789894 C152.592761,191.717747 155.083906,198.252844 155.083906,202.523303 Z" id="Path" fill="#FFFFFF"></path>
                        <path d="M79.0918182,201.56892 C68.599798,203.154167 58.1402357,204.10855 46.9828283,203.493862 C44.9623232,203.38063 42.7957576,203.210783 40.6616498,202.838735 C40.783367,193.173585 42.6091246,186.007625 49.3603704,179.278416 L49.3603704,179.14092 C56.5092256,179.149008 61.6051178,180.257063 70.0117172,182.149653 C76.2598653,183.556964 82.5729293,184.69737 88.9427946,185.401026 C91.4907407,186.007625 94.5742424,186.185561 97.7226599,186.096593 C100.725017,186.234089 103.735488,186.258353 106.737845,186.137033 C108.474343,186.072329 110.373131,186.137033 112.069057,185.676017 C113.919158,185.166474 115.395993,183.880483 117.07569,183.015068 C119.388316,181.818045 122.13101,181.826133 124.711414,182.190093 C128.444074,182.715812 132.087475,183.645931 135.893165,183.435644 C139.447306,183.233444 143.756094,181.809957 146.823367,184.034155 C149.971785,186.314969 150.653401,187.778895 149.809495,188.781806 C148.300202,190.57734 141.889764,190.884684 136.071684,191.733923 C127.340505,193.011825 119.193569,194.621336 110.55165,195.955854 C110.851886,195.899238 111.152121,195.842622 111.452357,195.794094 C110.908687,195.89115 110.365017,195.980118 109.813232,196.069086 C110.056667,196.028646 110.308215,195.996294 110.55165,195.955854 C99.5808754,197.848444 89.3241751,200.016026 79.0918182,201.56892 Z" id="Path" fill="#FFFFFF"></path>
                        <path d="M137.499832,141.863368 C139.804343,148.689633 142.417205,155.823241 141.273064,160.7003 C140.477845,164.105344 136.728956,168.755939 133.556195,171.594824 C133.02064,172.080104 132.501313,172.508767 132.014444,172.872727 C124.321919,178.615201 118.771616,182.707724 111.062862,184.438555 C107.533064,185.231178 102.54266,185.975273 97.7226599,186.096593 C96.6190909,186.048065 95.5074074,185.983361 94.4038384,185.902481 C92.5780808,185.773073 90.7604377,185.603225 88.9427946,185.401026 C88.4802694,185.30397 88.0339731,185.18265 87.6039057,185.045154 C87.1576094,184.89957 86.7113131,184.584138 86.6545118,184.139299 C86.5246801,183.015068 88.3910101,182.562141 89.7867003,182.392293 C90.273569,182.335677 90.7036364,182.311413 90.9714141,182.303325 C93.9088552,182.254797 100.611414,180.742343 101.739327,180.079127 C103.0133,179.335032 102.826667,178.421089 102.153165,177.555674 C101.568923,176.795403 100.619529,176.075572 99.9622559,175.541764 C99.5889899,175.250596 99.1994949,174.894725 99.183266,174.433709 C99.183266,174.239598 99.2481818,174.061662 99.3617845,173.90799 C99.5484175,173.657262 99.8648822,173.471238 100.181347,173.414622 C100.692559,173.317567 101.228114,173.455062 101.723098,173.616822 C105.374613,174.805757 108.880067,176.811579 112.977879,175.606468 C114.925354,175.040309 119.566835,169.394891 123.21835,164.501656 C125.530976,161.395867 127.454108,158.589334 128.022121,157.578335 C129.036431,155.790889 124.971077,143.861102 124.054141,138.838459 L123.469899,138.579644 C123.591616,138.320828 123.705219,138.053924 123.826936,137.787021 L124.427407,138.053924 C127.705657,137.406885 131.657407,135.991486 135.211549,134.24448 C135.771448,136.638526 136.615354,139.234771 137.499832,141.863368 Z" id="Path" fill="#FFFFFF"></path>
                        <path d="M135.771448,50.4043621 C136.104141,50.8330256 136.371919,51.3183051 136.599125,51.8278485 C137.564747,53.9873422 137.743266,56.5754995 137.183367,58.912929 C136.891246,60.1665676 136.380034,61.3474144 135.682189,62.3503253 C133.661684,65.2296502 130.107542,66.4832889 127.080842,65.375234 L126.082761,65.1002423 C126.723805,62.7385489 127.097071,60.2797995 127.291818,57.7967862 C127.462222,55.6858204 127.510909,53.5505907 127.502795,51.431537 L127.608283,51.431537 C128.614478,50.3073062 129.807306,49.3529232 131.146195,48.9485236 C132.493199,48.5441241 134.002492,48.7301479 135.12229,49.7007068 C135.357609,49.9029066 135.5767,50.1374583 135.771448,50.4043621 L135.771448,50.4043621 Z" id="Path" fill="#FFFFFF"></path>
                        <path d="M74.8641751,49.0941075 C74.8641751,49.563211 74.8560606,50.0404025 74.8479461,50.509506 C74.2231313,48.8595557 71.366835,47.9132607 69.6952525,48.4713321 C68.6403704,48.8191158 67.7883502,49.571299 67.1878788,50.509506 C65.6948148,36.1290573 65.5568687,21.7728727 76.186835,10.5790927 C93.1623232,-7.27110422 125.855556,-1.78744609 134.075522,22.1206563 C137.13468,31.0093588 137.329428,41.3862517 135.771448,50.3962741 C135.5767,50.1374583 135.357609,49.9029066 135.12229,49.7007068 C134.002492,48.7301479 132.493199,48.5441241 131.146195,48.9485236 C129.807306,49.3529232 128.614478,50.3073062 127.608283,51.431537 L127.502795,51.431537 C127.502795,50.8734656 127.49468,50.3234821 127.486566,49.7734987 C127.640741,49.7087948 127.665084,49.5793869 127.478451,49.4095391 C127.478451,49.530859 127.486566,49.6521789 127.486566,49.7734987 C127.437879,49.7977627 127.372963,49.8139387 127.299933,49.8139387 C117.197407,44.7912961 113.123939,32.5137252 113.132054,21.8780166 C109.237104,27.094771 103.045758,30.0711518 96.8949832,32.1982935 C92.0749832,33.8644198 86.8249158,34.7136589 82.3213805,37.1724082 C77.7691582,39.6473336 75.0589226,43.933969 74.8641751,49.0941075 Z" id="Path" fill="#404040"></path>
                        <path d="M86.9547475,99.069806 C89.5919529,103.340265 94.2983502,106.42179 99.3293266,106.535022 C104.701111,106.656342 110.105354,103.032922 111.452357,97.8485193 L111.622761,97.3794158 C113.34303,97.9941031 115.217475,98.3742387 116.986431,98.6492304 C121.392593,99.3286217 126.382997,100.153597 128.849798,103.857897 L129.150034,104.36744 C129.425926,103.938777 138.140875,122.444101 141.127003,130.70194 C139.47165,131.947491 137.418687,133.16069 135.211549,134.24448 C131.657407,135.991486 127.705657,137.406885 124.427407,138.053924 L123.826936,137.787021 C123.705219,138.053924 123.591616,138.320828 123.469899,138.579644 C122.780168,140.132538 122.082323,141.701608 121.433165,143.205975 C120.524343,145.31694 119.996902,147.622018 119.72101,149.894744 C119.17734,154.456371 120.134848,160.837796 123.21835,164.501656 C119.566835,169.394891 114.925354,175.040309 112.977879,175.606468 C108.880067,176.811579 105.374613,174.805757 101.723098,173.616822 C101.228114,173.455062 100.692559,173.317567 100.181347,173.414622 C99.8648822,173.471238 99.5484175,173.657262 99.3617845,173.90799 L98.2582155,173.891814 C98.3555892,173.74623 98.4123906,173.58447 98.4123906,173.414622 C98.4286195,172.913167 97.9417508,172.500679 97.4224242,172.411712 C96.9030976,172.314656 96.3756566,172.468327 95.8806734,172.630087 C93.803367,173.333743 92.0100673,173.616822 89.900303,174.11019 C88.2855219,174.490325 86.402963,175.27486 84.6258923,174.773405 C82.6297306,174.215334 77.8178451,168.39198 74.1338721,163.474481 C76.8765657,156.987912 79.0755892,147.484522 75.4159596,141.070745 C74.9453199,140.253858 74.4422222,139.445059 73.9472391,138.628172 L73.5820875,138.846547 C73.4603704,138.830371 73.3305387,138.814195 73.2088215,138.781843 C69.7926263,138.248036 65.8084175,136.873078 62.0919865,135.093719 C59.5278114,133.856257 57.093468,132.43277 55.056734,130.952668 C59.892963,122.355133 63.3172727,110.918713 69.5086195,103.235122 C70.076633,102.507202 70.7095623,101.908691 71.3911785,101.407235 C75.4727609,98.3985027 81.4206734,98.9242221 86.4516498,97.4683837 L86.9547475,99.069806 Z" id="Path" fill="#BBDEEF"></path>
                        <path d="M127.502795,51.431537 C127.510909,53.5505907 127.462222,55.6858204 127.291818,57.7967862 C127.097071,60.2797995 126.723805,62.7385489 126.082761,65.1002423 C125.48229,67.316352 124.638384,69.4515817 123.461785,71.4735795 C119.615522,78.0976444 112.645185,82.1254641 105.171751,83.3548388 C100.806162,84.07467 96.2782828,83.8482063 92.0993266,82.6269196 L92.0993266,82.6188316 C91.4582828,82.4408958 90.8253535,82.230608 90.2005387,81.9960563 C83.5304377,79.4887789 78.2641414,74.1345287 76.1056902,67.3325279 C75.7567677,66.2244731 75.4889899,65.1164183 75.2861279,63.9921875 C74.507138,59.5761442 74.7586869,55.0306931 74.8479461,50.509506 C74.8560606,50.0404025 74.8641751,49.563211 74.8641751,49.0941075 C75.0589226,43.933969 77.7691582,39.6473336 82.3213805,37.1724082 C86.8249158,34.7136589 92.0749832,33.8644198 96.8949832,32.1982935 C103.045758,30.0711518 109.237104,27.094771 113.132054,21.8780166 C113.123939,32.5137252 117.197407,44.7912961 127.299933,49.8139387 C127.372963,49.8139387 127.437879,49.7977627 127.486566,49.7734987 C127.49468,50.3234821 127.502795,50.8734656 127.502795,51.431537 Z" id="Path" fill="#FFFFFF"></path>
                        <path d="M118.63367,231.397432 C118.877104,231.308464 119.112424,231.219497 119.347744,231.114353 C117.578788,232.473135 116.799798,236.848739 115.217475,238.304577 C114.59266,238.895 113.732525,239.364104 112.896734,239.169992 C112.10963,238.992056 111.56596,238.280313 111.208923,237.552394 C111.111549,237.36637 111.014175,237.16417 110.835657,237.050938 C108.871953,235.853916 104.344074,241.27287 102.867239,236.767859 C102.315455,235.093644 100.481582,235.43334 99.0047475,234.867181 C97.7956902,234.406165 96.3918855,232.756215 96.8381818,231.381256 C97.503569,229.286467 100.197576,230.572457 101.723098,230.143794 C103.094444,229.747482 103.711145,228.235028 105.033805,227.806364 C106.364579,227.377701 107.232828,228.461492 108.352626,228.914419 C110.024209,229.59381 110.300101,228.655603 111.671448,227.951948 C112.466667,227.539461 113.448519,227.838716 114.203165,228.315908 C115.306734,229.027651 117.635589,230.540105 118.63367,231.397432 Z" id="Path" fill="#FFFFFF"></path>
                        <path d="M111.622761,97.3794158 L111.452357,97.8485193 C110.105354,103.032922 104.701111,106.656342 99.3293266,106.535022 C94.2983502,106.42179 89.5919529,103.340265 86.9547475,99.069806 L86.4516498,97.4683837 C87.5471044,97.152952 88.5938721,96.7485525 89.5676094,96.1904811 C91.0038721,95.3735939 91.8640067,93.8287876 91.8964646,92.1869254 C91.953266,89.0406967 92.0993266,85.5062445 92.0993266,82.6269196 C96.2782828,83.8482063 100.806162,84.07467 105.171751,83.3548388 L105.301582,84.1636379 C105.407071,87.4716264 105.545017,88.3936574 105.65862,90.9494627 C105.73165,92.494269 106.364579,93.9743714 107.508721,95.0258103 C108.636633,96.0691612 110.064781,96.8213444 111.622761,97.3794158 Z" id="Path" fill="#FFFFFF"></path>
                        <path d="M102.153165,177.555674 C102.826667,178.421089 103.0133,179.335032 101.739327,180.079127 C100.611414,180.742343 93.9088552,182.254797 90.9714141,182.303325 C90.7036364,182.311413 90.273569,182.335677 89.7867003,182.392293 L89.7785859,182.335677 C87.9609428,182.359941 86.3137037,182.246709 84.9910438,181.963629 C77.2741751,180.337943 74.2474747,177.93581 66.5549495,172.29848 C66.189798,172.023488 65.7921886,171.716144 65.3864646,171.368361 C65.3864646,171.368361 65.3864646,171.368361 65.3783502,171.368361 C62.0919865,168.586092 57.8724579,163.676681 56.9311785,160.182669 C56.0142424,156.769536 56.8175758,153.162292 57.6209091,149.70872 C58.9679125,143.95007 60.3068013,141.7744 61.6538047,136.01575 L62.0919865,135.093719 C65.8084175,136.873078 69.7926263,138.248036 73.2088215,138.781843 L73.0789899,139.542115 C72.1620539,144.580933 68.5673401,155.176202 69.5735354,156.947472 C70.1253199,157.909943 71.926734,160.530452 74.1338721,163.474481 C77.8178451,168.39198 82.6297306,174.215334 84.6258923,174.773405 C86.402963,175.27486 88.2855219,174.490325 89.900303,174.11019 C92.0100673,173.616822 93.803367,173.333743 95.8806734,172.630087 C96.3756566,172.468327 96.9030976,172.314656 97.4224242,172.411712 C97.9417508,172.500679 98.4286195,172.913167 98.4123906,173.414622 C98.4123906,173.58447 98.3555892,173.74623 98.2582155,173.891814 C98.1121549,174.134454 97.8687205,174.344741 97.6415152,174.538853 C96.229596,175.695436 93.4625589,177.555674 93.4625589,177.555674 C93.4625589,177.555674 97.3980808,178.590937 102.153165,177.555674 Z" id="Path" fill="#FFFFFF"></path>
                        <path d="M99.9622559,175.541764 C100.619529,176.075572 101.568923,176.795403 102.153165,177.555674 C97.3980808,178.590937 93.4625589,177.555674 93.4625589,177.555674 C93.4625589,177.555674 96.229596,175.695436 97.6415152,174.538853 C97.8687205,174.344741 98.1121549,174.134454 98.2582155,173.891814 L99.3617845,173.90799 C99.2481818,174.061662 99.183266,174.239598 99.183266,174.433709 C99.1994949,174.894725 99.5889899,175.250596 99.9622559,175.541764 Z" id="Path" fill="#FFFFFF"></path>
                        <path d="M92.0993266,82.6188316 L92.0993266,82.6188316 C92.0993266,85.5062445 91.953266,89.0406967 91.8964646,92.1869254 C91.8640067,93.8287876 91.0038721,95.3735939 89.5676094,96.1904811 C88.5938721,96.7485525 87.5471044,97.152952 86.4516498,97.4683837 C81.4206734,98.9242221 75.4727609,98.3985027 71.3911785,101.407235 L71.2613468,101.245476 C67.8289226,98.3580627 67.7153199,94.2655391 68.0723569,89.8009679 C68.4293939,85.3444847 69.89,81.0335853 70.43367,76.593278 C70.9448822,72.3875225 70.6284175,68.1251511 69.9468013,63.9436596 L70.1253199,63.6201399 C71.3019192,64.3237952 72.7300673,64.5906989 73.9959259,64.1135074 L75.2861279,63.9921875 C75.4889899,65.1164183 75.7567677,66.2244731 76.1056902,67.3325279 C78.2641414,74.1345287 83.5304377,79.4887789 90.2005387,81.9960563 C90.8253535,82.230608 91.4582828,82.4408958 92.0993266,82.6188316 Z" id="Path" fill="#404040"></path>
                        <path d="M49.3603704,179.14092 L49.3603704,179.278416 C42.6091246,186.007625 40.783367,193.173585 40.6616498,202.838735 C37.8540404,202.353455 35.1113468,201.520392 32.823064,200.032202 C30.9161616,198.794739 29.3257239,197.096261 28.2951852,194.750744 C24.3758923,185.902481 30.1209428,176.876283 37.9351852,174.013134 C42.7957576,172.225688 49.8066667,171.966872 54.9106734,171.983048 C58.4161279,171.999224 58.2862963,172.120544 61.9053535,171.926432 C62.7736027,171.877904 64.2504377,171.756584 65.3783502,171.368361 C65.3864646,171.368361 65.3864646,171.368361 65.3864646,171.368361 C65.7921886,171.716144 66.189798,172.023488 66.5549495,172.29848 C74.2474747,177.93581 77.2741751,180.337943 84.9910438,181.963629 C86.3137037,182.246709 87.9609428,182.359941 89.7785859,182.335677 L89.7867003,182.392293 C88.3910101,182.562141 86.5246801,183.015068 86.6545118,184.139299 C86.7113131,184.584138 87.1576094,184.89957 87.6039057,185.045154 C88.0339731,185.18265 88.4802694,185.30397 88.9427946,185.401026 C82.5729293,184.69737 76.2598653,183.556964 70.0117172,182.149653 C61.6051178,180.257063 56.5092256,179.149008 49.3603704,179.14092 Z" id="Path" fill="#404040"></path>
                        <path d="M75.2861279,63.9921875 L73.9959259,64.1135074 C72.7300673,64.5906989 71.3019192,64.3237952 70.1253199,63.6201399 C69.6627946,63.3451482 69.2327273,63.0054526 68.8675758,62.617229 C67.5773737,61.2422705 66.9444444,59.3820325 66.5387205,57.5460584 C66.1654545,55.8233163 65.9625926,54.0196942 66.4007744,52.321216 C66.563064,51.6903527 66.8308418,51.0675774 67.1878788,50.509506 C67.7883502,49.571299 68.6403704,48.8191158 69.6952525,48.4713321 C71.366835,47.9132607 74.2231313,48.8595557 74.8479461,50.509506 C74.7586869,55.0306931 74.507138,59.5761442 75.2861279,63.9921875 Z" id="Path" fill="#FFFFFF"></path>
                        <path d="M29.1309764,37.2775521 C29.3906397,36.8084486 29.6421886,36.3312571 29.8856229,35.8459776 L29.8937374,35.8459776 C30.0884848,38.4260469 32.5958586,45.7295031 32.2388215,48.2772203 C32.0197306,49.8705546 31.2813131,51.4638889 29.9505387,52.361656 C25.4713468,55.3784767 26.9238384,61.0643347 20.9353535,61.638582 C18.5578114,61.8650458 17.4785859,61.679022 14.9874411,62.8760447 C12.6180135,64.0002755 0.681616162,65.8847775 0.722085367,61.0319827 C0.73030303,60.0209838 1.79329966,59.3820325 2.7426936,59.0423368 C6.77558923,57.6107624 6.21569024,52.5881197 9.49393939,50.4043621 C11.7497643,48.8999957 15.7015152,49.571299 16.9268013,46.6596221 C17.616532,45.0177598 16.3587879,43.0685539 17.6976768,41.6208035 C18.3143771,40.9495002 19.1745118,40.5855406 20.0184175,40.2458449 C22.9234007,39.0730862 25.8851852,38.0459113 28.8956566,37.1562322 L29.1309764,37.2775521 Z" id="Path" fill="#FFFFFF"></path>
                        <path d="M23.7186195,217.23536 C19.4909764,218.351502 15.0280135,218.189743 10.6461953,218.019895 C6.12643098,217.841959 10.7111111,213.191364 12.4476094,212.253157 C14.0948485,211.363478 16.6590236,211.428182 18.9310774,211.711261 C19.9535017,211.832581 20.9028956,212.002429 21.69,212.139925 C22.5744781,212.301685 24.1243434,212.795052 25.3252862,213.45018 C27.1753872,214.461179 28.2059259,215.836137 24.7329293,216.944192 C24.3921212,217.049336 24.0594276,217.146392 23.7186195,217.23536 Z" id="Path" fill="#FFFFFF"></path>
                    </g>
                    <g id="Group" stroke="#404040" stroke-linecap="round" stroke-linejoin="round" stroke-width="2">
                        <path d="M94.53367,109.317291 C98.7126263,110.538578 103.240505,110.765041 107.606094,110.04521 C115.079529,108.815836 122.049865,104.788016 125.896128,98.163951 C127.072727,96.1419531 127.916633,94.0067234 128.517104,91.7906138 C129.158148,89.4289203 129.531414,86.9701709 129.726162,84.4871576 C129.896566,82.3761918 129.945253,80.2409621 129.937138,78.1219084 C129.937138,77.563837 129.929024,77.0138536 129.920909,76.4638702 C129.920909,76.3425503 129.912795,76.2212304 129.912795,76.0999106 C129.872222,74.0779127 129.807306,72.0801789 129.766734,70.130973" id="Path"></path>
                        <path d="M76.7305051,67.3325279 C77.2173737,70.0015651 77.3147475,72.7110422 77.306633,75.4366953 C77.306633,75.5499272 77.306633,75.671247 77.2985185,75.7844789 C77.2985185,76.2535824 77.290404,76.7307739 77.2822896,77.1998774 C77.1930303,81.7210646 76.9414815,86.2665157 77.7204714,90.682559 C77.9233333,91.8067898 78.1911111,92.9148446 78.5400337,94.0228994 C80.6984848,100.8249 85.9647811,106.17915 92.6348822,108.686428 C93.259697,108.920979 93.8926263,109.131267 94.53367,109.309203" id="Path"></path>
                        <path d="M138.205791,77.0947335 C138.538485,77.523397 138.806263,78.0086765 139.033468,78.51822 C139.999091,80.6777137 140.177609,83.2658709 139.61771,85.6033004 C139.325589,86.8569391 138.814377,88.0377858 138.116532,89.0406967 C136.096027,91.9200216 132.541886,93.1736603 129.515185,92.0656055" id="Path"></path>
                        <path d="M130.042626,78.1219084 C131.048822,76.9976776 132.24165,76.0432946 133.580539,75.6388951 C134.927542,75.2344955 136.436835,75.4205193 137.556633,76.3910783 C137.791953,76.593278 138.011044,76.8278298 138.205791,77.0866455" id="Path"></path>
                        <path d="M77.2822896,77.1998774 C76.6574747,75.5499272 73.8011785,74.6036322 72.129596,75.1617036 C71.0747138,75.5094872 70.2226936,76.2616704 69.6222222,77.1998774 C69.2651852,77.7579488 68.9974074,78.3807241 68.8351178,79.0115875 C68.396936,80.7100656 68.599798,82.5136877 68.973064,84.2364299 C69.3787879,86.0724039 70.0117172,87.9326419 71.3019192,89.3076004 C71.6670707,89.695824 72.097138,90.0355197 72.5596633,90.3105114 C73.7362626,91.0141666 75.7161953,91.556062 77.7204714,90.682559" id="Path"></path>
                        <path d="M77.290404,75.9866787 C77.290404,75.9219748 77.290404,75.8491828 77.2985185,75.7844789 C77.493266,70.6243404 80.2035017,66.337705 84.7557239,63.8627797 C89.2592593,61.4040303 94.5093266,60.5547912 99.3293266,58.888665 C105.480101,56.7615233 111.671448,53.7851424 115.566397,48.568388 C115.558283,59.2040966 119.631751,71.4816675 129.734276,76.5043101 C129.807306,76.5043101 129.872222,76.4881342 129.920909,76.4638702 C130.075084,76.3991662 130.099428,76.2697584 129.912795,76.0999106" id="Path"></path>
                        <path d="M69.6222222,77.1998774 C68.1291582,62.8194288 67.9912121,48.4632441 78.6211785,37.2694641 C95.5966667,19.4192672 128.289899,24.9029254 136.509865,48.8110278 C139.569024,57.6997303 139.763771,68.0766232 138.205791,77.0866455 L138.205791,77.0947335 C138.205791,77.1028215 138.205791,77.1028215 138.205791,77.1109095" id="Path"></path>
                        <path d="M81.5910774,78.6314519 C84.179596,82.4085438 90.1761953,83.2416069 93.7141077,80.32993" id="Path"></path>
                        <path d="M111.533502,79.5292189 C114.876667,82.7239755 120.42697,81.9313523 124.386835,79.5292189" id="Path"></path>
                        <path d="M81.7127946,70.3493487 C85.7619192,67.9148633 91.5556566,68.9824782 94.4606397,72.6948662" id="Path"></path>
                        <path d="M111.33064,72.8323621 C114.073333,71.02874 117.562559,70.4059647 120.759663,71.1419719" id="Path"></path>
                        <path d="M103.873434,90.8038788 C103.345993,91.3053343 102.802323,91.8229657 102.112593,92.0656055 C101.422862,92.3163332 100.554613,92.2031013 100.116431,91.620766 C99.8080808,91.2001904 99.7756229,90.642119 99.7675084,90.1244876 C99.7107071,87.7870581 99.726936,85.4415406 99.8161953,83.1041111" id="Path"></path>
                        <path d="M97.9660943,96.6272326 C100.148889,99.021278 104.490135,98.9323101 106.575556,96.4492968" id="Path"></path>
                        <path d="M79.7572054,138.895075 C79.1323906,143.165535 75.9109428,146.635283 74.507138,150.687367 C73.419798,153.857859 73.0140741,157.35996 74.0121549,160.554716 C74.539596,162.253194 75.440303,163.798001 76.3815825,165.318543 C76.8765657,166.13543 77.3796633,166.944229 77.850303,167.761116 C81.5099327,174.174894 79.3109091,183.678283 76.5682155,190.164853" id="Path"></path>
                        <path d="M121.952492,137.293653 C121.262761,144.435349 131.706094,152.135117 127.226902,162.301722 C126.910438,163.013466 126.585859,163.741385 126.261279,164.477392 C126.139562,164.744296 126.02596,165.011199 125.904242,165.270015 C125.214512,166.822909 124.516667,168.39198 123.867508,169.896346 C122.958687,172.007312 122.431246,174.312389 122.155354,176.585115 C121.611684,181.146742 122.569192,187.528167 125.652694,191.192027" id="Path"></path>
                        <path d="M88.8859933,124.886674 C89.0401684,125.18593 89.2105724,125.46901 89.3890909,125.760177 C92.0262963,130.030637 96.7326936,133.112162 101.76367,133.225393 C107.135455,133.346713 112.539697,129.723293 113.8867,124.538891" id="Path"></path>
                        <path d="M94.53367,109.309203 L94.53367,109.309203 C94.53367,112.196616 94.3876094,115.731068 94.3308081,118.877297 C94.2983502,120.519159 93.4382155,122.063965 92.0019529,122.880853 C91.0282155,123.438924 89.9814478,123.843323 88.8859933,124.158755 C83.8550168,125.614594 77.9071044,125.088874 73.8255219,128.097607 C73.1439057,128.599062 72.5109764,129.197574 71.942963,129.925493 C65.7516162,137.609085 62.3273064,149.045505 57.4910774,157.643039 C59.5278114,159.123142 61.9621549,160.546628 64.52633,161.784091 C68.2427609,163.563449 72.2269697,164.938408 75.643165,165.472215 C75.7648822,165.504567 75.8947138,165.520743 76.016431,165.536919" id="Path"></path>
                        <path d="M107.735926,110.854009 C107.841414,114.161998 107.97936,115.084029 108.092963,117.639834 C108.165993,119.18464 108.798923,120.664743 109.943064,121.716182 C111.070976,122.759533 112.499125,123.511716 114.057104,124.069787 C115.777374,124.684475 117.651818,125.06461 119.420774,125.339602 C123.826936,126.018993 128.81734,126.843968 131.284141,130.548268 L131.584377,131.057812 C131.860269,130.629148 140.575219,149.134472 143.561347,157.392312 C141.905993,158.637862 139.85303,159.851061 137.645892,160.934852 C134.091751,162.681858 130.14,164.097256 126.861751,164.744296" id="Path"></path>
                        <path d="M112.985993,222.646226 C102.015219,224.538816 91.7585185,226.706397 81.5261616,228.259292 C71.0341414,229.844538 60.5745791,230.798921 49.4171717,230.184234 C47.3966667,230.071002 45.230101,229.901154 43.0959933,229.529106 C40.2883838,229.043827 37.5456902,228.210764 35.2574074,226.722573 C33.3505051,225.485111 31.7600673,223.786633 30.7295286,221.441115 C26.8102357,212.592853 32.5552862,203.566654 40.3695286,200.703505 C45.230101,198.916059 52.2410101,198.657243 57.3450168,198.673419 C60.8504714,198.689595 60.7206397,198.810915 64.339697,198.616803 C65.2079461,198.568276 66.6847811,198.446956 67.8126936,198.058732" id="Path"></path>
                        <path d="M112.985993,222.646226 C112.742559,222.686666 112.49101,222.719018 112.247576,222.759458 C112.79936,222.67049 113.34303,222.581522 113.8867,222.484466 C113.586465,222.532994 113.286229,222.58961 112.985993,222.646226 Z" id="Path"></path>
                        <path d="M46.5608754,206.00114 C48.4515488,205.887908 50.1718182,205.831292 51.7947138,205.831292 C58.943569,205.83938 64.0394613,206.947435 72.4460606,208.840025 C78.6942088,210.247335 85.0072727,211.387742 91.377138,212.091397 C93.1947811,212.293597 95.0124242,212.463445 96.8381818,212.592853 C97.9417508,212.673732 99.0534343,212.738436 100.157003,212.786964 C103.15936,212.92446 106.169832,212.948724 109.172189,212.827404 C110.908687,212.7627 112.807475,212.827404 114.503401,212.366389 C116.353502,211.856845 117.830337,210.570855 119.510034,209.70544 C121.82266,208.508417 124.565354,208.516505 127.145758,208.880464 C130.878418,209.406184 134.521818,210.336303 138.327508,210.126015 C141.88165,209.923815 146.190438,208.500329 149.25771,210.724527 C152.406128,213.00534 153.087744,214.469266 152.243838,215.472177 C150.734545,217.267712 144.324108,217.575055 138.506027,218.424294 C129.774848,219.702197 121.627912,221.311707 112.985993,222.646226" id="Path"></path>
                        <path d="M107.257172,41.2811078 C100.165118,48.6977959 91.0444444,54.15719 81.1447811,56.9151951" id="Path"></path>
                        <path d="M98.0472391,35.6114259 C93.6816498,37.4878399 89.527037,39.8495334 85.6807744,42.6398904" id="Path"></path>
                        <path d="M81.5261616,228.259292 C100.108316,227.992388 121.295219,228.380612 139.61771,229.852626 C144.518855,230.248938 151.335017,230.499665 157.542593,229.343083 C161.900067,228.534283 165.957306,227.038005 168.846061,224.409408 C171.588754,221.918307 173.268451,218.408118 173.154848,213.506796 C172.984444,206.656267 166.736296,201.6498 160.366431,200.533657 C155.56266,199.700594 150.726431,199.59545 145.865859,199.692506 C141.110774,199.781474 140.437273,200.436602 135.990539,198.285196" id="Path"></path>
                        <path d="M51.7947138,205.968788 C45.043468,212.697996 43.2177104,219.863957 43.0959933,229.529106" id="Path"></path>
                        <path d="M152.53596,215.480265 C155.027104,218.408118 157.518249,224.943215 157.518249,229.213675" id="Path"></path>
                        <path d="M92.2129293,209.026048 C90.3952862,209.050312 88.7480471,208.93708 87.4253872,208.654001 C79.7085185,207.028314 76.6818182,204.626181 68.9892929,198.988851 C68.6241414,198.713859 68.226532,198.406516 67.8208081,198.058732 C67.8208081,198.058732 67.8208081,198.058732 67.8126936,198.058732 C64.52633,195.276463 60.3068013,190.367052 59.3655219,186.87304 C58.4485859,183.459908 59.2519192,179.852664 60.0552525,176.399091 C61.4022559,170.640441 62.7411448,168.464772 64.0881481,162.706122" id="Path"></path>
                        <path d="M75.5133333,166.232486 C74.5963973,171.271305 71.0016835,181.866573 72.0078788,183.637843 C72.5596633,184.600314 74.3610774,187.220824 76.5682155,190.164853 C80.2521886,195.082351 85.0640741,200.905705 87.0602357,201.463776 C88.8373064,201.965232 90.7198653,201.180697 92.3346465,200.800561 C94.4444108,200.307194 96.2377104,200.024114 98.3150168,199.320459 C98.81,199.158699 99.3374411,199.005027 99.8567677,199.102083 C100.376094,199.191051 100.862963,199.603538 100.846734,200.104994 C100.846734,200.274842 100.789933,200.436602 100.692559,200.582185 C100.546498,200.824825 100.303064,201.035113 100.075859,201.229225 C98.6639394,202.385807 95.8969024,204.246045 95.8969024,204.246045 C95.8969024,204.246045 99.8324242,205.281308 104.587508,204.246045" id="Path"></path>
                        <path d="M126.488485,165.528831 C127.405421,170.551473 131.470774,182.481261 130.456465,184.268707 C129.888451,185.279706 127.96532,188.086239 125.652694,191.192027 C122.001178,196.085262 117.359697,201.73068 115.412222,202.29684 C111.314411,203.50195 107.808956,201.496128 104.157441,200.307194 C103.662458,200.145434 103.126902,200.007938 102.61569,200.104994 C102.299226,200.16161 101.982761,200.347634 101.796128,200.598361 C101.682525,200.752033 101.617609,200.929969 101.617609,201.124081 C101.633838,201.585096 102.023333,201.940968 102.396599,202.232136 C103.053872,202.765943 104.003266,203.485774 104.587508,204.246045 C105.26101,205.111461 105.447643,206.025404 104.17367,206.769499 C103.045758,207.432714 96.3431987,208.945168 93.4057576,208.993696 C93.1379798,209.001784 92.7079125,209.026048 92.2210438,209.082664 C90.8253535,209.252512 88.9590236,209.70544 89.0888552,210.82967 C89.1456566,211.27451 89.5919529,211.589942 90.0382492,211.735525 C90.4683165,211.873021 90.9146128,211.994341 91.377138,212.091397 C93.9250842,212.697996 97.0085859,212.875932 100.157003,212.786964 C104.977003,212.665644 109.967407,211.921549 113.497205,211.128926 C121.20596,209.398096 126.756263,205.305572 134.448788,199.563098 C134.935657,199.199139 135.454983,198.770475 135.990539,198.285196 C139.1633,195.446311 142.912189,190.795716 143.707407,187.390671 C144.851549,182.513613 142.238687,175.380004 139.934175,168.55374 C139.049697,165.925142 138.205791,163.328897 137.645892,160.934852" id="Path"></path>
                        <path d="M133.978148,81.4541608 C132.103704,81.6887126 130.667441,82.9099993 129.726162,84.4871576" id="Path"></path>
                        <path d="M73.6956902,79.8770025 C75.5133333,80.0872903 76.8522222,82.0122322 77.1524579,83.6864464" id="Path"></path>
                        <path d="M95.093569,184.527523 C99.9622559,184.681194 104.027609,181.057774 107.516835,177.668906" id="Path"></path>
                        <path d="M72.3811448,90.634031 C73.0627609,94.8155225 73.3792256,99.077894 72.8680135,103.283649 C72.3243434,107.723957 70.8637374,112.034856 70.5067003,116.491339 C70.1496633,120.955911 70.263266,125.048434 73.6956902,127.935847" id="Path"></path>
                        <path d="M139.61771,85.6033004 C139.950404,89.2024565 142.384747,91.1516625 145.30596,93.2949802 C157.023266,101.892515 176.270808,106.793838 175.394444,124.813882 C174.956263,133.888609 168.570168,137.657613 163.969259,144.435349 C161.056162,148.721985 161.242795,154.278435 158.394613,158.597422 C154.191313,164.995023 147.350808,167.874348 139.934175,168.55374" id="Path"></path>
                        <path d="M141.17569,103.485849 C145.825286,107.505581 149.898754,112.293672 152.487273,117.866298 C155.075791,123.430836 156.10633,129.820349 154.71064,135.797375" id="Path"></path>
                        <path d="M134.846397,115.739156 C136.883131,120.915471 137.102222,126.779264 135.463098,132.084987" id="Path"></path>
                        <path d="M77.8908754,103.679961 C77.5094949,108.734956 78.8078114,113.895094 81.5342761,118.165554" id="Path"></path>
                        <path d="M36.2879461,50.9705215 C35.5576431,54.9579012 34.1944108,58.848225 32.3199663,62.5363491 C32.076532,63.0216286 31.8249832,63.4988201 31.5653199,63.9679235 C27.1916162,71.958859 20.4971717,78.8983556 13.0967677,83.6864464" id="Path"></path>
                        <path d="M31.33,63.8466037 C28.3195286,64.7362827 25.3577441,65.7634576 22.4527609,66.9362164 C21.6088552,67.275912 20.7487205,67.6398716 20.1320202,68.3111749 C18.7931313,69.7589254 20.0508754,71.7081313 19.3611448,73.3499935 C18.1358586,76.2616704 14.1841077,75.5903671 11.9282828,77.0947335 C8.65003367,79.2784912 9.20993266,84.3011338 5.17703704,85.7327083 C4.2276431,86.0724039 3.16464646,86.7113552 3.1564288,87.7223541 C3.1159596,92.5751489 15.0523569,90.690647 17.4217845,89.5664162 C19.9129293,88.3693934 20.9921549,88.5554172 23.369697,88.3289535 C29.3581818,87.7547061 27.9056902,82.0688482 32.3848822,79.0520274 C33.7156566,78.1542604 34.4540741,76.5609261 34.673165,74.9675918 C35.030202,72.4198745 32.5228283,65.1164183 32.3280808,62.5363491" id="Path"></path>
                        <path d="M191.574714,166.984669 C193.936027,165.480303 200.50064,162.406866 203.0567,164.574448 C203.908721,165.302367 204.622795,166.224398 205.62899,166.717766 C207.503434,167.639797 209.678114,166.45895 211.503872,167.332453 C213.548721,168.3111 213.232256,171.117633 214.936296,172.533031 C216.12101,173.519766 218.011684,173.972694 218.636498,175.485148 C220.178249,179.197536 214.522458,179.642376 212.226061,178.857841 C210.99266,178.429177 210.262357,178.008602 208.955926,178.340209 C207.592694,178.696081 206.367407,179.456352 204.955488,179.634288 C202.642862,179.917367 202.27771,178.558585 201.344545,176.852019 C199.599933,173.632998 196.938384,177.620378 194.763704,175.291036 C194.009057,174.482237 191.582828,170.171338 191.574714,167.647885" id="Path"></path>
                        <path d="M187.631077,161.137052 C188.150404,163.482569 189.675926,165.488391 191.574714,166.984669 C191.631515,167.041285 191.696431,167.089813 191.761347,167.138341 C192.045354,167.356717 192.337475,167.558917 192.629596,167.753028 C195.007138,169.314011 197.733603,170.236042 200.419495,171.141897 C203.421852,172.144808 206.416094,173.155807 209.410337,174.158718" id="Path"></path>
                        <path d="M165.965421,26.5528756 C179.005387,40.2377569 184.661178,56.7857872 187.631077,75.4366953" id="Path"></path>
                        <path d="M190.097879,91.60459 C189.22963,102.604258 186.397677,113.458343 181.772424,123.487452" id="Path"></path>
                        <path d="M65.427037,36.9459445 C54.5292929,43.3597216 47.1126599,55.3218608 46.2362963,67.9067753" id="Path"></path>
                        <path d="M27.7596296,95.1633062 C29.2040067,111.986328 40.42633,132.99893 55.8357239,141.159713" id="Path"></path>
                        <path d="M151.554108,180.564407 C159.165488,183.589316 167.555859,184.673106 175.69468,183.686371" id="Path"></path>
                        <path d="M35.2574074,226.722573 C35.2574074,226.722573 26.8264646,233.807654 21.3654209,238.393545" id="Path"></path>
                        <path d="M168.846061,224.409408 C173.649832,230.305554 182.283636,239.550128 182.283636,239.550128" id="Path"></path>
                        <polyline id="Path" points="25.9744444 243.925731 26.152963 243.925731 178.388687 244.370571 178.421145 244.370571"></polyline>
                        <path d="M190.39,228.493843 C190.162795,227.199765 190.00862,225.88951 189.951818,224.579256 C189.935589,224.271912 189.943704,223.91604 190.170909,223.713841 C190.649663,223.301353 191.315051,223.932216 191.615286,224.4822 C192.037239,225.250559 192.467306,226.027006 192.889259,226.803453 C193.530303,226.018918 194.179461,225.226295 194.820505,224.44176 C194.999024,224.223384 195.193771,223.988832 195.461549,223.91604 C196.240539,223.689577 196.711178,224.789543 196.60569,225.590255 C196.500202,226.390966 196.240539,227.353437 196.849125,227.887244 C198.439562,226.471846 200.727845,225.873334 202.813266,226.33435 C202.399428,227.296821 201.977475,228.259292 201.563636,229.213675" id="Path"></path>
                        <path d="M1.75272727,226.649781 C1.07111111,224.72484 0.616700337,222.719018 0.397609428,220.69702 C1.99616162,221.352147 3.35127946,222.573434 4.16272727,224.093976 C4.27632997,222.22565 5.96414141,220.583788 7.83858586,220.510996 C7.83047138,221.699931 7.61138047,222.888865 7.18942761,224.005008 C8.28488215,223.107241 9.64811448,222.54917 11.0600337,222.403586 C11.2385522,223.398409 11.1492929,224.44176 10.8003704,225.396143" id="Path"></path>
                        <path d="M21.3654209,238.401633 C22.3878451,238.522953 23.3372391,238.692801 24.1243434,238.830296 C25.0088215,238.992056 26.5586869,239.485424 27.7596296,240.140551 C29.6097306,241.15155 30.6402694,242.526508 27.1672727,243.634563 C26.8264646,243.739707 26.493771,243.836763 26.152963,243.925731 C21.9253199,245.041874 17.4623569,244.880114 13.0805387,244.710266 C8.56077441,244.53233 13.1454545,239.881735 14.8819529,238.943528 C16.5291919,238.053849 19.093367,238.118553 21.3654209,238.401633 Z" id="Path"></path>
                        <path d="M178.388687,244.370571 C181.561448,245.155106 184.847811,245.510977 188.117946,245.422009 C189.505522,245.381569 193.65202,245.163194 194.033401,243.36766 C194.731246,240.092023 186.665455,239.703799 184.904613,239.598656 C184.028249,239.550128 183.143771,239.525864 182.283636,239.550128 C178.908013,239.639096 175.938114,240.358927 175.329529,242.065493 C174.988721,243.019876 176.189663,243.763971 177.163401,244.047051 C177.569125,244.160283 177.974848,244.273515 178.388687,244.370571 Z" id="Path"></path>
                        <path d="M29.8207071,139.995042 C33.553367,148.147737 41.4730976,154.561515 49.4171717,158.435662" id="Path"></path>
                        <path d="M80.1142424,4.4888352 C100.944108,-3.13005265 125.871785,-0.711743238 144.380909,10.7246765" id="Path"></path>
                        <path d="M138.76569,33.0717966 C147.01,39.0488222 153.493468,47.3956293 157.242357,56.8424032" id="Path"></path>
                        <path d="M161.453771,77.2807573 C163.295758,84.8025893 162.63037,92.9148446 159.587441,100.032277" id="Path"></path>
                        <path d="M48.7842424,86.8488511 C49.5632323,97.0720721 54.8051852,106.86663 62.8790909,113.207615" id="Path"></path>
                        <path d="M148.925017,210.409095 C150.247677,209.70544 151.683939,209.203984 153.15266,208.928992" id="Path"></path>
                        <path d="M106.616128,259.948042 C111.492929,260.522289 116.499562,259.859074 121.068013,258.087804 C121.311448,257.998836 121.546768,257.909868 121.782088,257.804724 C123.348182,257.157685 124.865589,256.37315 126.293737,255.459207" id="Path"></path>
                        <path d="M121.068013,258.087804 C120.069933,257.230477 117.741077,255.718022 116.637508,255.006279 C115.882862,254.529088 114.90101,254.229832 114.105791,254.64232 C112.734444,255.345975 112.458552,256.284182 110.78697,255.60479 C109.667172,255.151863 108.798923,254.068072 107.468148,254.496736 C106.145488,254.925399 105.528788,256.437854 104.157441,256.834165 C102.631919,257.262829 99.9379125,255.976838 99.2725253,258.071628 C98.826229,259.446586 100.230034,261.096537 101.439091,261.557552 C102.915926,262.123712 104.749798,261.784016 105.301582,263.45823 C106.778418,267.963241 111.306296,262.544287 113.27,263.74131 C113.448519,263.854542 113.545892,264.056741 113.643266,264.242765 C114.000303,264.970684 114.543973,265.682428 115.331077,265.860364 C116.166869,266.054475 117.027003,265.585372 117.651818,264.994948 C119.234141,263.53911 120.013131,259.163507 121.782088,257.804724" id="Path"></path>
                        <path d="M35.9552525,24.9110133 C38.56,28.4050256 42.073569,31.2196466 46.0658923,32.9909167" id="Path"></path>
                        <path d="M50.780404,15.0760159 C54.4400337,19.9288107 60.623266,23.0588633 66.733468,22.1772723 C71.0665993,21.5464089 75.0589226,19.5567631 79.1080471,17.8825489 C86.776229,14.7039683 98.9154882,11.0481962 106.58367,14.2267768" id="Path"></path>
                    </g>
                </g>
            </g>
        </g>
    </g>
</svg>